<?xml version="1.0" encoding="UTF-8" standalone="no"?>
<!-- Created with Inkscape (http://www.inkscape.org/) -->

<svg
   xmlns:dc="http://purl.org/dc/elements/1.1/"
   xmlns:cc="http://creativecommons.org/ns#"
   xmlns:rdf="http://www.w3.org/1999/02/22-rdf-syntax-ns#"
   xmlns:svg="http://www.w3.org/2000/svg"
   xmlns="http://www.w3.org/2000/svg"
   xmlns:sodipodi="http://sodipodi.sourceforge.net/DTD/sodipodi-0.dtd"
   xmlns:inkscape="http://www.inkscape.org/namespaces/inkscape"
   id="svg2"
   version="1.1"
   inkscape:version="0.47 r22583"
   width="219.47217"
   height="214.92978"
   xml:space="preserve"
   sodipodi:docname="kmap6var.svg"><metadata
     id="metadata8"><rdf:RDF><cc:Work
         rdf:about=""><dc:format>image/svg+xml</dc:format><dc:type
           rdf:resource="http://purl.org/dc/dcmitype/StillImage" /><dc:title></dc:title></cc:Work></rdf:RDF></metadata><defs
     id="defs6"><inkscape:perspective
       sodipodi:type="inkscape:persp3d"
       inkscape:vp_x="0 : 0.5 : 1"
       inkscape:vp_y="0 : 1000 : 0"
       inkscape:vp_z="1 : 0.5 : 1"
       inkscape:persp3d-origin="0.5 : 0.33333333 : 1"
       id="perspective10" /></defs><sodipodi:namedview
     pagecolor="#ffffff"
     bordercolor="#666666"
     borderopacity="1"
     objecttolerance="10"
     gridtolerance="10"
     guidetolerance="10"
     inkscape:pageopacity="0"
     inkscape:pageshadow="2"
     inkscape:window-width="1440"
     inkscape:window-height="825"
     id="namedview4"
     showgrid="false"
     inkscape:zoom="1.3875925"
     inkscape:cx="19.711648"
     inkscape:cy="123.53354"
     inkscape:window-x="0"
     inkscape:window-y="25"
     inkscape:window-maximized="1"
     inkscape:current-layer="g12"
     showguides="true"
     inkscape:guide-bbox="true" /><g
     id="g12"
     inkscape:groupmode="layer"
     inkscape:label="aula5"
     transform="matrix(1.25,0,0,-1.25,37.557586,290.54229)">



























































































<g
   id="g3144"
   transform="matrix(1,0,0.5289777,0.65285838,-171.74498,110.0139)"><g
     id="g3005"><g
       transform="scale(1,-1)"
       id="text134" /><g
       transform="scale(1,-1)"
       id="text144"><path
         d="m 158.73146,-161.59937 c 0,-0.86181 -0.0436,-1.87636 -0.50182,-2.76 -0.44727,-0.81818 -1.2,-1.08 -1.75636,-1.08 -0.64364,0 -1.40728,0.29455 -1.85455,1.26546 -0.36,0.79636 -0.41455,1.70182 -0.41455,2.57454 0,0.86182 0.0436,1.65819 0.37091,2.45455 0.43637,1.04727 1.26546,1.34182 1.88728,1.34182 0.79636,0 1.48364,-0.44727 1.83273,-1.2 0.32727,-0.70909 0.43636,-1.42909 0.43636,-2.59637 m -0.85091,-0.1309 c 0,0.71999 0,1.40727 -0.19636,2.09454 -0.28364,0.99273 -0.86182,1.16728 -1.21091,1.16728 -0.56728,0 -1.01455,-0.41455 -1.23273,-1.20001 -0.17455,-0.62181 -0.18546,-1.21091 -0.18546,-2.06181 0,-0.68728 0,-1.34182 0.18546,-1.94182 0.0654,-0.20728 0.33818,-1.10182 1.22182,-1.10182 0.85091,0 1.13454,0.82909 1.21091,1.02545 0.20727,0.61091 0.20727,1.34182 0.20727,2.01819"
         style="font-size:10.90909958px;font-variant:normal;font-weight:normal;writing-mode:lr-tb;fill:#000000;fill-opacity:1;fill-rule:nonzero;stroke:none;font-family:LMSans10;-inkscape-font-specification:LMSans10-Regular"
         id="path3268" /><path
         d="m 164.186,-161.59937 c 0,-0.86181 -0.0436,-1.87636 -0.50181,-2.76 -0.44728,-0.81818 -1.20001,-1.08 -1.75637,-1.08 -0.64364,0 -1.40727,0.29455 -1.85455,1.26546 -0.36,0.79636 -0.41454,1.70182 -0.41454,2.57454 0,0.86182 0.0436,1.65819 0.37091,2.45455 0.43636,1.04727 1.26545,1.34182 1.88727,1.34182 0.79637,0 1.48364,-0.44727 1.83273,-1.2 0.32727,-0.70909 0.43636,-1.42909 0.43636,-2.59637 m -0.8509,-0.1309 c 0,0.71999 -1e-5,1.40727 -0.19637,2.09454 -0.28364,0.99273 -0.86182,1.16728 -1.21091,1.16728 -0.56727,0 -1.01455,-0.41455 -1.23273,-1.20001 -0.17454,-0.62181 -0.18545,-1.21091 -0.18545,-2.06181 0,-0.68728 0,-1.34182 0.18545,-1.94182 0.0655,-0.20728 0.33819,-1.10182 1.22182,-1.10182 0.85091,0 1.13455,0.82909 1.21091,1.02545 0.20727,0.61091 0.20728,1.34182 0.20728,2.01819"
         style="font-size:10.90909958px;font-variant:normal;font-weight:normal;writing-mode:lr-tb;fill:#000000;fill-opacity:1;fill-rule:nonzero;stroke:none;font-family:LMSans10;-inkscape-font-specification:LMSans10-Regular"
         id="path3270" /></g><g
       transform="scale(1,-1)"
       id="text152"><path
         d="m 180.94846,-161.59937 c 0,-0.86181 -0.0436,-1.87636 -0.50182,-2.76 -0.44728,-0.81818 -1.2,-1.08 -1.75637,-1.08 -0.64363,0 -1.40727,0.29455 -1.85454,1.26546 -0.36,0.79636 -0.41455,1.70182 -0.41455,2.57454 0,0.86182 0.0436,1.65819 0.37091,2.45455 0.43636,1.04727 1.26546,1.34182 1.88727,1.34182 0.79637,0 1.48364,-0.44727 1.83273,-1.2 0.32727,-0.70909 0.43637,-1.42909 0.43637,-2.59637 m -0.85091,-0.1309 c 0,0.71999 0,1.40727 -0.19637,2.09454 -0.28363,0.99273 -0.86182,1.16728 -1.21091,1.16728 -0.56727,0 -1.01454,-0.41455 -1.23273,-1.20001 -0.17454,-0.62181 -0.18545,-1.21091 -0.18545,-2.06181 0,-0.68728 0,-1.34182 0.18545,-1.94182 0.0655,-0.20728 0.33819,-1.10182 1.22182,-1.10182 0.85091,0 1.13455,0.82909 1.21091,1.02545 0.20728,0.61091 0.20728,1.34182 0.20728,2.01819"
         style="font-size:10.90909958px;font-variant:normal;font-weight:normal;writing-mode:lr-tb;fill:#000000;fill-opacity:1;fill-rule:nonzero;stroke:none;font-family:LMSans10;-inkscape-font-specification:LMSans10-Regular"
         id="path3273" /><path
         d="m 186.04301,-158.043 0,-0.63273 -1.36363,0 0,-6.76364 -0.21818,0 c -0.64364,0.66546 -1.5491,0.69818 -2.07273,0.72 l 0,0.63273 c 0.36,-0.0109 0.88363,-0.0327 1.42909,-0.26182 l 0,5.67273 -1.36364,0 0,0.63273 3.58909,0"
         style="font-size:10.90909958px;font-variant:normal;font-weight:normal;writing-mode:lr-tb;fill:#000000;fill-opacity:1;fill-rule:nonzero;stroke:none;font-family:LMSans10;-inkscape-font-specification:LMSans10-Regular"
         id="path3275" /></g><g
       transform="scale(1,-1)"
       id="text160"><path
         d="m 202.80545,-158.043 0,-0.63273 -1.36364,0 0,-6.76364 -0.21818,0 c -0.64363,0.66546 -1.54909,0.69818 -2.07273,0.72 l 0,0.63273 c 0.36,-0.0109 0.88364,-0.0327 1.42909,-0.26182 l 0,5.67273 -1.36363,0 0,0.63273 3.58909,0"
         style="font-size:10.90909958px;font-variant:normal;font-weight:normal;writing-mode:lr-tb;fill:#000000;fill-opacity:1;fill-rule:nonzero;stroke:none;font-family:LMSans10;-inkscape-font-specification:LMSans10-Regular"
         id="path3278" /><path
         d="m 208.26001,-158.043 0,-0.63273 -1.36364,0 0,-6.76364 -0.21818,0 c -0.64364,0.66546 -1.54909,0.69818 -2.07273,0.72 l 0,0.63273 c 0.36,-0.0109 0.88364,-0.0327 1.42909,-0.26182 l 0,5.67273 -1.36363,0 0,0.63273 3.58909,0"
         style="font-size:10.90909958px;font-variant:normal;font-weight:normal;writing-mode:lr-tb;fill:#000000;fill-opacity:1;fill-rule:nonzero;stroke:none;font-family:LMSans10;-inkscape-font-specification:LMSans10-Regular"
         id="path3280" /></g><g
       transform="scale(1,-1)"
       id="text168"><path
         d="m 225.02145,-158.043 0,-0.63273 -1.36363,0 0,-6.76364 -0.21819,0 c -0.64363,0.66546 -1.54909,0.69818 -2.07272,0.72 l 0,0.63273 c 0.36,-0.0109 0.88363,-0.0327 1.42909,-0.26182 l 0,5.67273 -1.36364,0 0,0.63273 3.58909,0"
         style="font-size:10.90909958px;font-variant:normal;font-weight:normal;writing-mode:lr-tb;fill:#000000;fill-opacity:1;fill-rule:nonzero;stroke:none;font-family:LMSans10;-inkscape-font-specification:LMSans10-Regular"
         id="path3283" /><path
         d="m 230.83601,-161.59937 c 0,-0.86181 -0.0436,-1.87636 -0.50181,-2.76 -0.44728,-0.81818 -1.20001,-1.08 -1.75637,-1.08 -0.64364,0 -1.40727,0.29455 -1.85455,1.26546 -0.36,0.79636 -0.41454,1.70182 -0.41454,2.57454 0,0.86182 0.0436,1.65819 0.37091,2.45455 0.43636,1.04727 1.26545,1.34182 1.88727,1.34182 0.79636,0 1.48364,-0.44727 1.83273,-1.2 0.32727,-0.70909 0.43636,-1.42909 0.43636,-2.59637 m -0.85091,-0.1309 c 0,0.71999 0,1.40727 -0.19636,2.09454 -0.28364,0.99273 -0.86182,1.16728 -1.21091,1.16728 -0.56727,0 -1.01455,-0.41455 -1.23273,-1.20001 -0.17454,-0.62181 -0.18545,-1.21091 -0.18545,-2.06181 0,-0.68728 0,-1.34182 0.18545,-1.94182 0.0655,-0.20728 0.33819,-1.10182 1.22182,-1.10182 0.85091,0 1.13455,0.82909 1.21091,1.02545 0.20727,0.61091 0.20727,1.34182 0.20727,2.01819"
         style="font-size:10.90909958px;font-variant:normal;font-weight:normal;writing-mode:lr-tb;fill:#000000;fill-opacity:1;fill-rule:nonzero;stroke:none;font-family:LMSans10;-inkscape-font-specification:LMSans10-Regular"
         id="path3285" /></g><path
       d="m 148.09807,149.874 89.05993,0"
       style="fill:none;stroke:#000000;stroke-width:0.49257639;stroke-linecap:butt;stroke-linejoin:miter;stroke-miterlimit:10;stroke-opacity:1;stroke-dasharray:none"
       id="path178" /><g
       transform="scale(1,-1)"
       id="text184"><path
         d="m 136.51447,-138.53436 c 0,-0.86182 -0.0436,-1.87637 -0.50182,-2.76001 -0.44728,-0.81818 -1.2,-1.08 -1.75637,-1.08 -0.64363,0 -1.40727,0.29455 -1.85455,1.26546 -0.36,0.79636 -0.41454,1.70182 -0.41454,2.57455 0,0.86181 0.0436,1.65818 0.37091,2.45454 0.43636,1.04728 1.26545,1.34182 1.88727,1.34182 0.79637,0 1.48364,-0.44727 1.83273,-1.2 0.32727,-0.70909 0.43637,-1.42909 0.43637,-2.59636 m -0.85091,-0.13091 c 0,0.72 0,1.40727 -0.19637,2.09454 -0.28363,0.99273 -0.86182,1.16728 -1.21091,1.16728 -0.56727,0 -1.01454,-0.41455 -1.23273,-1.2 -0.17454,-0.62182 -0.18545,-1.21091 -0.18545,-2.06182 0,-0.68728 0,-1.34182 0.18545,-1.94182 0.0655,-0.20727 0.33819,-1.10182 1.22182,-1.10182 0.85091,0 1.13455,0.82909 1.21091,1.02545 0.20728,0.61091 0.20728,1.34182 0.20728,2.01819"
         style="font-size:10.90909958px;font-variant:normal;font-weight:normal;writing-mode:lr-tb;fill:#000000;fill-opacity:1;fill-rule:nonzero;stroke:none;font-family:LMSans10;-inkscape-font-specification:LMSans10-Regular"
         id="path3288" /><path
         d="m 141.96901,-138.53436 c 0,-0.86182 -0.0436,-1.87637 -0.50182,-2.76001 -0.44727,-0.81818 -1.2,-1.08 -1.75636,-1.08 -0.64364,0 -1.40728,0.29455 -1.85455,1.26546 -0.36,0.79636 -0.41455,1.70182 -0.41455,2.57455 0,0.86181 0.0436,1.65818 0.37091,2.45454 0.43637,1.04728 1.26546,1.34182 1.88728,1.34182 0.79636,0 1.48363,-0.44727 1.83273,-1.2 0.32727,-0.70909 0.43636,-1.42909 0.43636,-2.59636 m -0.85091,-0.13091 c 0,0.72 0,1.40727 -0.19636,2.09454 -0.28364,0.99273 -0.86182,1.16728 -1.21091,1.16728 -0.56728,0 -1.01455,-0.41455 -1.23273,-1.2 -0.17455,-0.62182 -0.18546,-1.21091 -0.18546,-2.06182 0,-0.68728 0,-1.34182 0.18546,-1.94182 0.0654,-0.20727 0.33818,-1.10182 1.22182,-1.10182 0.85091,0 1.13454,0.82909 1.21091,1.02545 0.20727,0.61091 0.20727,1.34182 0.20727,2.01819"
         style="font-size:10.90909958px;font-variant:normal;font-weight:normal;writing-mode:lr-tb;fill:#000000;fill-opacity:1;fill-rule:nonzero;stroke:none;font-family:LMSans10;-inkscape-font-specification:LMSans10-Regular"
         id="path3290" /></g><path
       d="m 148.092,127.856 0,21.818"
       style="fill:none;stroke:#000000;stroke-width:0.49257639;stroke-linecap:butt;stroke-linejoin:miter;stroke-miterlimit:10;stroke-opacity:1;stroke-dasharray:none"
       id="path190" /><path
       d="m 170.309,127.856 0,21.818"
       style="fill:none;stroke:#000000;stroke-width:0.49257639;stroke-linecap:butt;stroke-linejoin:miter;stroke-miterlimit:10;stroke-opacity:1;stroke-dasharray:none"
       id="path198" /><path
       d="m 192.526,127.856 0,21.818"
       style="fill:none;stroke:#000000;stroke-width:0.49257639;stroke-linecap:butt;stroke-linejoin:miter;stroke-miterlimit:10;stroke-opacity:1;stroke-dasharray:none"
       id="path206" /><path
       d="m 214.742,127.856 0,21.818"
       style="fill:none;stroke:#000000;stroke-width:0.49257639;stroke-linecap:butt;stroke-linejoin:miter;stroke-miterlimit:10;stroke-opacity:1;stroke-dasharray:none"
       id="path214" /><path
       d="m 236.959,127.856 0,21.818"
       style="fill:none;stroke:#000000;stroke-width:0.49257639;stroke-linecap:butt;stroke-linejoin:miter;stroke-miterlimit:10;stroke-opacity:1;stroke-dasharray:none"
       id="path222" /><path
       d="m 148.09807,127.657 89.05993,0"
       style="fill:none;stroke:#000000;stroke-width:0.49257639;stroke-linecap:butt;stroke-linejoin:miter;stroke-miterlimit:10;stroke-opacity:1;stroke-dasharray:none"
       id="path226" /><g
       transform="scale(1,-1)"
       id="text232"><path
         d="m 136.51447,-116.31737 c 0,-0.86182 -0.0436,-1.87636 -0.50182,-2.76 -0.44728,-0.81818 -1.2,-1.08 -1.75637,-1.08 -0.64363,0 -1.40727,0.29455 -1.85455,1.26545 -0.36,0.79637 -0.41454,1.70182 -0.41454,2.57455 0,0.86182 0.0436,1.65819 0.37091,2.45455 0.43636,1.04727 1.26545,1.34182 1.88727,1.34182 0.79637,0 1.48364,-0.44728 1.83273,-1.2 0.32727,-0.70909 0.43637,-1.4291 0.43637,-2.59637 m -0.85091,-0.13091 c 0,0.72 0,1.40728 -0.19637,2.09455 -0.28363,0.99273 -0.86182,1.16727 -1.21091,1.16727 -0.56727,0 -1.01454,-0.41454 -1.23273,-1.2 -0.17454,-0.62182 -0.18545,-1.21091 -0.18545,-2.06182 0,-0.68727 0,-1.34182 0.18545,-1.94182 0.0655,-0.20727 0.33819,-1.10182 1.22182,-1.10182 0.85091,0 1.13455,0.8291 1.21091,1.02546 0.20728,0.61091 0.20728,1.34182 0.20728,2.01818"
         style="font-size:10.90909958px;font-variant:normal;font-weight:normal;writing-mode:lr-tb;fill:#000000;fill-opacity:1;fill-rule:nonzero;stroke:none;font-family:LMSans10;-inkscape-font-specification:LMSans10-Regular"
         id="path3293" /><path
         d="m 141.60901,-112.761 0,-0.63273 -1.36364,0 0,-6.76364 -0.21818,0 c -0.64364,0.66545 -1.54909,0.69818 -2.07273,0.72 l 0,0.63273 c 0.36,-0.0109 0.88364,-0.0327 1.42909,-0.26182 l 0,5.67273 -1.36363,0 0,0.63273 3.58909,0"
         style="font-size:10.90909958px;font-variant:normal;font-weight:normal;writing-mode:lr-tb;fill:#000000;fill-opacity:1;fill-rule:nonzero;stroke:none;font-family:LMSans10;-inkscape-font-specification:LMSans10-Regular"
         id="path3295" /></g><path
       d="m 148.092,105.64 0,21.818"
       style="fill:none;stroke:#000000;stroke-width:0.49257639;stroke-linecap:butt;stroke-linejoin:miter;stroke-miterlimit:10;stroke-opacity:1;stroke-dasharray:none"
       id="path238" /><path
       d="m 170.309,105.64 0,21.818"
       style="fill:none;stroke:#000000;stroke-width:0.49257639;stroke-linecap:butt;stroke-linejoin:miter;stroke-miterlimit:10;stroke-opacity:1;stroke-dasharray:none"
       id="path246" /><path
       d="m 192.526,105.64 0,21.818"
       style="fill:none;stroke:#000000;stroke-width:0.49257639;stroke-linecap:butt;stroke-linejoin:miter;stroke-miterlimit:10;stroke-opacity:1;stroke-dasharray:none"
       id="path254" /><path
       d="m 214.742,105.64 0,21.818"
       style="fill:none;stroke:#000000;stroke-width:0.49257639;stroke-linecap:butt;stroke-linejoin:miter;stroke-miterlimit:10;stroke-opacity:1;stroke-dasharray:none"
       id="path262" /><path
       d="m 236.959,105.64 0,21.818"
       style="fill:none;stroke:#000000;stroke-width:0.49257639;stroke-linecap:butt;stroke-linejoin:miter;stroke-miterlimit:10;stroke-opacity:1;stroke-dasharray:none"
       id="path270" /><path
       d="m 148.09807,105.441 89.05993,0"
       style="fill:none;stroke:#000000;stroke-width:0.49257639;stroke-linecap:butt;stroke-linejoin:miter;stroke-miterlimit:10;stroke-opacity:1;stroke-dasharray:none"
       id="path274" /><g
       transform="scale(1,-1)"
       id="text280"><path
         d="m 136.15447,-90.543999 0,-0.632727 -1.36364,0 0,-6.763642 -0.21818,0 c -0.64364,0.665454 -1.5491,0.698182 -2.07273,0.72 l 0,0.632728 c 0.36,-0.01091 0.88363,-0.03273 1.42909,-0.261818 l 0,5.672732 -1.36364,0 0,0.632727 3.5891,0"
         style="font-size:10.90909958px;font-variant:normal;font-weight:normal;writing-mode:lr-tb;fill:#000000;fill-opacity:1;fill-rule:nonzero;stroke:none;font-family:LMSans10;-inkscape-font-specification:LMSans10-Regular"
         id="path3298" /><path
         d="m 141.60901,-90.543999 0,-0.632727 -1.36364,0 0,-6.763642 -0.21818,0 c -0.64364,0.665454 -1.54909,0.698182 -2.07273,0.72 l 0,0.632728 c 0.36,-0.01091 0.88364,-0.03273 1.42909,-0.261818 l 0,5.672732 -1.36363,0 0,0.632727 3.58909,0"
         style="font-size:10.90909958px;font-variant:normal;font-weight:normal;writing-mode:lr-tb;fill:#000000;fill-opacity:1;fill-rule:nonzero;stroke:none;font-family:LMSans10;-inkscape-font-specification:LMSans10-Regular"
         id="path3300" /></g><path
       d="m 148.092,83.423 0,21.818"
       style="fill:none;stroke:#000000;stroke-width:0.49257639;stroke-linecap:butt;stroke-linejoin:miter;stroke-miterlimit:10;stroke-opacity:1;stroke-dasharray:none"
       id="path286" /><path
       d="m 170.309,83.423 0,21.818"
       style="fill:none;stroke:#000000;stroke-width:0.49257639;stroke-linecap:butt;stroke-linejoin:miter;stroke-miterlimit:10;stroke-opacity:1;stroke-dasharray:none"
       id="path294" /><path
       d="m 192.526,83.423 0,21.818"
       style="fill:none;stroke:#000000;stroke-width:0.49257639;stroke-linecap:butt;stroke-linejoin:miter;stroke-miterlimit:10;stroke-opacity:1;stroke-dasharray:none"
       id="path302" /><path
       d="m 214.742,83.423 0,21.818"
       style="fill:none;stroke:#000000;stroke-width:0.49257639;stroke-linecap:butt;stroke-linejoin:miter;stroke-miterlimit:10;stroke-opacity:1;stroke-dasharray:none"
       id="path310" /><path
       d="m 236.959,83.423 0,21.818"
       style="fill:none;stroke:#000000;stroke-width:0.49257639;stroke-linecap:butt;stroke-linejoin:miter;stroke-miterlimit:10;stroke-opacity:1;stroke-dasharray:none"
       id="path318" /><path
       d="m 148.09807,83.224 89.05993,0"
       style="fill:none;stroke:#000000;stroke-width:0.49257639;stroke-linecap:butt;stroke-linejoin:miter;stroke-miterlimit:10;stroke-opacity:1;stroke-dasharray:none"
       id="path322" /><g
       transform="scale(1,-1)"
       id="text328"><path
         d="m 136.15447,-68.328003 0,-0.632728 -1.36364,0 0,-6.763641 -0.21818,0 c -0.64364,0.665454 -1.5491,0.698182 -2.07273,0.72 l 0,0.632728 c 0.36,-0.01091 0.88363,-0.03273 1.42909,-0.261818 l 0,5.672731 -1.36364,0 0,0.632728 3.5891,0"
         style="font-size:10.90909958px;font-variant:normal;font-weight:normal;writing-mode:lr-tb;fill:#000000;fill-opacity:1;fill-rule:nonzero;stroke:none;font-family:LMSans10;-inkscape-font-specification:LMSans10-Regular"
         id="path3303" /><path
         d="m 141.96901,-71.884369 c 0,-0.861818 -0.0436,-1.876366 -0.50182,-2.760003 -0.44727,-0.818181 -1.2,-1.08 -1.75636,-1.08 -0.64364,0 -1.40728,0.294546 -1.85455,1.265455 -0.36,0.796364 -0.41455,1.701821 -0.41455,2.574548 0,0.861818 0.0436,1.658184 0.37091,2.454547 0.43637,1.047273 1.26546,1.341819 1.88728,1.341819 0.79636,0 1.48363,-0.447274 1.83273,-1.200001 0.32727,-0.70909 0.43636,-1.429093 0.43636,-2.596365 m -0.85091,-0.13091 c 0,0.72 0,1.407275 -0.19636,2.094548 -0.28364,0.992727 -0.86182,1.167273 -1.21091,1.167273 -0.56728,0 -1.01455,-0.414546 -1.23273,-1.200001 -0.17455,-0.621818 -0.18546,-1.210911 -0.18546,-2.06182 0,-0.687272 0,-1.341819 0.18546,-1.941819 0.0654,-0.207273 0.33818,-1.101819 1.22182,-1.101819 0.85091,0 1.13454,0.829091 1.21091,1.025455 0.20727,0.610909 0.20727,1.34182 0.20727,2.018183"
         style="font-size:10.90909958px;font-variant:normal;font-weight:normal;writing-mode:lr-tb;fill:#000000;fill-opacity:1;fill-rule:nonzero;stroke:none;font-family:LMSans10;-inkscape-font-specification:LMSans10-Regular"
         id="path3305" /></g><path
       d="m 148.092,61.206 0,21.818"
       style="fill:none;stroke:#000000;stroke-width:0.49257639;stroke-linecap:butt;stroke-linejoin:miter;stroke-miterlimit:10;stroke-opacity:1;stroke-dasharray:none"
       id="path334" /><path
       d="m 170.309,61.206 0,21.818"
       style="fill:none;stroke:#000000;stroke-width:0.49257639;stroke-linecap:butt;stroke-linejoin:miter;stroke-miterlimit:10;stroke-opacity:1;stroke-dasharray:none"
       id="path342" /><path
       d="m 192.526,61.206 0,21.818"
       style="fill:none;stroke:#000000;stroke-width:0.49257639;stroke-linecap:butt;stroke-linejoin:miter;stroke-miterlimit:10;stroke-opacity:1;stroke-dasharray:none"
       id="path350" /><path
       d="m 214.742,61.206 0,21.818"
       style="fill:none;stroke:#000000;stroke-width:0.49257639;stroke-linecap:butt;stroke-linejoin:miter;stroke-miterlimit:10;stroke-opacity:1;stroke-dasharray:none"
       id="path358" /><path
       d="m 236.959,61.206 0,21.818"
       style="fill:none;stroke:#000000;stroke-width:0.49257639;stroke-linecap:butt;stroke-linejoin:miter;stroke-miterlimit:10;stroke-opacity:1;stroke-dasharray:none"
       id="path366" /><path
       d="m 148.05819,61.007 89.13969,0"
       style="fill:none;stroke:#000000;stroke-width:0.49257639;stroke-linecap:butt;stroke-linejoin:miter;stroke-miterlimit:10;stroke-opacity:1;stroke-dasharray:none"
       id="path370" /></g></g>







<text
   y="-105.03951"
   x="-30.897877"
   transform="scale(1,-1)"
   id="text3054"><tspan
     y="-105.03951"
     x="-30.897877"
     style="font-size:8.96640015px;font-style:oblique;font-variant:normal;writing-mode:lr-tb;fill:#000000;fill-opacity:1;fill-rule:nonzero;stroke:none;font-family:LMSans9;-inkscape-font-specification:LMSans9-Oblique"
     sodipodi:role="line"
     id="tspan3056">EF</tspan><tspan
     y="-93.831512"
     style="font-size:8.96640015px;font-style:oblique;font-variant:normal;writing-mode:lr-tb;fill:#000000;fill-opacity:1;fill-rule:nonzero;stroke:none;font-family:LMSans9;-inkscape-font-specification:LMSans9-Oblique"
     x="-30.897877"
     sodipodi:role="line"
     id="tspan3058" /></text>
<text
   y="-134.978"
   x="-7.8955131"
   transform="scale(1,-1)"
   id="text3078"><tspan
     style="font-size:10.90909958px;font-variant:normal;font-weight:normal;writing-mode:lr-tb;fill:#000000;fill-opacity:1;fill-rule:nonzero;stroke:none;font-family:LMSans10;-inkscape-font-specification:LMSans10-Regular"
     x="-7.8955131 -2.440969"
     y="-134.978"
     sodipodi:role="line"
     id="tspan3080">00</tspan></text>
<text
   y="-112.761"
   x="-7.8955131"
   transform="scale(1,-1)"
   id="text3094"><tspan
     style="font-size:10.90909958px;font-variant:normal;font-weight:normal;writing-mode:lr-tb;fill:#000000;fill-opacity:1;fill-rule:nonzero;stroke:none;font-family:LMSans10;-inkscape-font-specification:LMSans10-Regular"
     x="-7.8955131 -2.440969"
     y="-112.761"
     sodipodi:role="line"
     id="tspan3096">01</tspan></text>
<text
   y="-90.543999"
   x="-7.8955131"
   transform="scale(1,-1)"
   id="text3110"><tspan
     style="font-size:10.90909958px;font-variant:normal;font-weight:normal;writing-mode:lr-tb;fill:#000000;fill-opacity:1;fill-rule:nonzero;stroke:none;font-family:LMSans10;-inkscape-font-specification:LMSans10-Regular"
     x="-7.8955131 -2.440969"
     y="-90.543999"
     sodipodi:role="line"
     id="tspan3112">11</tspan></text>
<text
   y="-68.328003"
   x="-7.8955131"
   transform="scale(1,-1)"
   id="text3126"><tspan
     style="font-size:10.90909958px;font-variant:normal;font-weight:normal;writing-mode:lr-tb;fill:#000000;fill-opacity:1;fill-rule:nonzero;stroke:none;font-family:LMSans10;-inkscape-font-specification:LMSans10-Regular"
     x="-7.8955131 -2.440969"
     y="-68.328003"
     sodipodi:role="line"
     id="tspan3128">10</tspan></text>
<g
   id="g3239"><path
     d="m 8.67355,149.874 89.05993,0"
     style="fill:none;stroke:#000000;stroke-width:0.398;stroke-linecap:butt;stroke-linejoin:miter;stroke-miterlimit:10;stroke-opacity:1;stroke-dasharray:none"
     id="path3076" /><path
     d="m 8.66748,127.856 0,21.818"
     style="fill:none;stroke:#000000;stroke-width:0.398;stroke-linecap:butt;stroke-linejoin:miter;stroke-miterlimit:10;stroke-opacity:1;stroke-dasharray:none"
     id="path3082" /><path
     d="m 30.88448,127.856 0,21.818"
     style="fill:none;stroke:#000000;stroke-width:0.398;stroke-linecap:butt;stroke-linejoin:miter;stroke-miterlimit:10;stroke-opacity:1;stroke-dasharray:none"
     id="path3084" /><path
     d="m 53.10148,127.856 0,21.818"
     style="fill:none;stroke:#000000;stroke-width:0.398;stroke-linecap:butt;stroke-linejoin:miter;stroke-miterlimit:10;stroke-opacity:1;stroke-dasharray:none"
     id="path3086" /><path
     d="m 75.31748,127.856 0,21.818"
     style="fill:none;stroke:#000000;stroke-width:0.398;stroke-linecap:butt;stroke-linejoin:miter;stroke-miterlimit:10;stroke-opacity:1;stroke-dasharray:none"
     id="path3088" /><path
     d="m 97.53448,127.856 0,21.818"
     style="fill:none;stroke:#000000;stroke-width:0.398;stroke-linecap:butt;stroke-linejoin:miter;stroke-miterlimit:10;stroke-opacity:1;stroke-dasharray:none"
     id="path3090" /><path
     d="m 8.67355,127.657 89.05993,0"
     style="fill:none;stroke:#000000;stroke-width:0.398;stroke-linecap:butt;stroke-linejoin:miter;stroke-miterlimit:10;stroke-opacity:1;stroke-dasharray:none"
     id="path3092" /><path
     d="m 8.66748,105.64 0,21.818"
     style="fill:none;stroke:#000000;stroke-width:0.398;stroke-linecap:butt;stroke-linejoin:miter;stroke-miterlimit:10;stroke-opacity:1;stroke-dasharray:none"
     id="path3098" /><path
     d="m 30.88448,105.64 0,21.818"
     style="fill:none;stroke:#000000;stroke-width:0.398;stroke-linecap:butt;stroke-linejoin:miter;stroke-miterlimit:10;stroke-opacity:1;stroke-dasharray:none"
     id="path3100" /><path
     d="m 53.10148,105.64 0,21.818"
     style="fill:none;stroke:#000000;stroke-width:0.398;stroke-linecap:butt;stroke-linejoin:miter;stroke-miterlimit:10;stroke-opacity:1;stroke-dasharray:none"
     id="path3102" /><path
     d="m 75.31748,105.64 0,21.818"
     style="fill:none;stroke:#000000;stroke-width:0.398;stroke-linecap:butt;stroke-linejoin:miter;stroke-miterlimit:10;stroke-opacity:1;stroke-dasharray:none"
     id="path3104" /><path
     d="m 97.53448,105.64 0,21.818"
     style="fill:none;stroke:#000000;stroke-width:0.398;stroke-linecap:butt;stroke-linejoin:miter;stroke-miterlimit:10;stroke-opacity:1;stroke-dasharray:none"
     id="path3106" /><path
     d="m 8.67355,105.441 89.05993,0"
     style="fill:none;stroke:#000000;stroke-width:0.398;stroke-linecap:butt;stroke-linejoin:miter;stroke-miterlimit:10;stroke-opacity:1;stroke-dasharray:none"
     id="path3108" /><path
     d="m 8.66748,83.423 0,21.818"
     style="fill:none;stroke:#000000;stroke-width:0.398;stroke-linecap:butt;stroke-linejoin:miter;stroke-miterlimit:10;stroke-opacity:1;stroke-dasharray:none"
     id="path3114" /><path
     d="m 30.88448,83.423 0,21.818"
     style="fill:none;stroke:#000000;stroke-width:0.398;stroke-linecap:butt;stroke-linejoin:miter;stroke-miterlimit:10;stroke-opacity:1;stroke-dasharray:none"
     id="path3116" /><path
     d="m 53.10148,83.423 0,21.818"
     style="fill:none;stroke:#000000;stroke-width:0.398;stroke-linecap:butt;stroke-linejoin:miter;stroke-miterlimit:10;stroke-opacity:1;stroke-dasharray:none"
     id="path3118" /><path
     d="m 75.31748,83.423 0,21.818"
     style="fill:none;stroke:#000000;stroke-width:0.398;stroke-linecap:butt;stroke-linejoin:miter;stroke-miterlimit:10;stroke-opacity:1;stroke-dasharray:none"
     id="path3120" /><path
     d="m 97.53448,83.423 0,21.818"
     style="fill:none;stroke:#000000;stroke-width:0.398;stroke-linecap:butt;stroke-linejoin:miter;stroke-miterlimit:10;stroke-opacity:1;stroke-dasharray:none"
     id="path3122" /><path
     d="m 8.67355,83.224 89.05993,0"
     style="fill:none;stroke:#000000;stroke-width:0.398;stroke-linecap:butt;stroke-linejoin:miter;stroke-miterlimit:10;stroke-opacity:1;stroke-dasharray:none"
     id="path3124" /><path
     d="m 8.66748,61.206 0,21.818"
     style="fill:none;stroke:#000000;stroke-width:0.398;stroke-linecap:butt;stroke-linejoin:miter;stroke-miterlimit:10;stroke-opacity:1;stroke-dasharray:none"
     id="path3130" /><path
     d="m 30.88448,61.206 0,21.818"
     style="fill:none;stroke:#000000;stroke-width:0.398;stroke-linecap:butt;stroke-linejoin:miter;stroke-miterlimit:10;stroke-opacity:1;stroke-dasharray:none"
     id="path3132" /><path
     d="m 53.10148,61.206 0,21.818"
     style="fill:none;stroke:#000000;stroke-width:0.398;stroke-linecap:butt;stroke-linejoin:miter;stroke-miterlimit:10;stroke-opacity:1;stroke-dasharray:none"
     id="path3134" /><path
     d="m 75.31748,61.206 0,21.818"
     style="fill:none;stroke:#000000;stroke-width:0.398;stroke-linecap:butt;stroke-linejoin:miter;stroke-miterlimit:10;stroke-opacity:1;stroke-dasharray:none"
     id="path3136" /><path
     d="m 97.53448,61.206 0,21.818"
     style="fill:none;stroke:#000000;stroke-width:0.398;stroke-linecap:butt;stroke-linejoin:miter;stroke-miterlimit:10;stroke-opacity:1;stroke-dasharray:none"
     id="path3138" /><path
     d="m 8.63367,61.007 89.13969,0"
     style="fill:none;stroke:#000000;stroke-width:0.398;stroke-linecap:butt;stroke-linejoin:miter;stroke-miterlimit:10;stroke-opacity:1;stroke-dasharray:none"
     id="path3140" /></g><g
   id="g3415"
   transform="matrix(1,0,-0.5289777,-0.65285838,-52.978123,85.799298)" /><g
   id="g3616"
   transform="matrix(0,-0.99849315,-0.81005192,-0.19060572,246.44037,358.75583)"><path
     d="m 174.39995,183.64579 89.05993,0"
     style="fill:none;stroke:#000000;stroke-width:0.44254157;stroke-linecap:butt;stroke-linejoin:miter;stroke-miterlimit:10;stroke-opacity:1;stroke-dasharray:none"
     id="path3441" /><path
     d="m 162.74685,169.27116 11.54124,14.24406"
     style="fill:none;stroke:#000000;stroke-width:0.44254157;stroke-linecap:butt;stroke-linejoin:miter;stroke-miterlimit:10;stroke-opacity:1;stroke-dasharray:none"
     id="path3449" /><path
     d="m 184.96385,169.27116 11.54124,14.24406"
     style="fill:none;stroke:#000000;stroke-width:0.44254157;stroke-linecap:butt;stroke-linejoin:miter;stroke-miterlimit:10;stroke-opacity:1;stroke-dasharray:none"
     id="path3451" /><path
     d="m 207.18085,169.27116 11.54124,14.24406"
     style="fill:none;stroke:#000000;stroke-width:0.44254157;stroke-linecap:butt;stroke-linejoin:miter;stroke-miterlimit:10;stroke-opacity:1;stroke-dasharray:none"
     id="path3453" /><path
     d="m 229.39685,169.27116 11.54124,14.24406"
     style="fill:none;stroke:#000000;stroke-width:0.44254157;stroke-linecap:butt;stroke-linejoin:miter;stroke-miterlimit:10;stroke-opacity:1;stroke-dasharray:none"
     id="path3455" /><path
     d="m 251.61385,169.27116 11.54124,14.24406"
     style="fill:none;stroke:#000000;stroke-width:0.44254157;stroke-linecap:butt;stroke-linejoin:miter;stroke-miterlimit:10;stroke-opacity:1;stroke-dasharray:none"
     id="path3457" /><path
     d="m 162.64765,169.14124 89.05993,0"
     style="fill:none;stroke:#000000;stroke-width:0.44254157;stroke-linecap:butt;stroke-linejoin:miter;stroke-miterlimit:10;stroke-opacity:1;stroke-dasharray:none"
     id="path3459" /><path
     d="m 150.99508,154.76726 11.54124,14.24406"
     style="fill:none;stroke:#000000;stroke-width:0.44254157;stroke-linecap:butt;stroke-linejoin:miter;stroke-miterlimit:10;stroke-opacity:1;stroke-dasharray:none"
     id="path3467" /><path
     d="m 173.21208,154.76726 11.54124,14.24406"
     style="fill:none;stroke:#000000;stroke-width:0.44254157;stroke-linecap:butt;stroke-linejoin:miter;stroke-miterlimit:10;stroke-opacity:1;stroke-dasharray:none"
     id="path3469" /><path
     d="m 195.42908,154.76726 11.54124,14.24406"
     style="fill:none;stroke:#000000;stroke-width:0.44254157;stroke-linecap:butt;stroke-linejoin:miter;stroke-miterlimit:10;stroke-opacity:1;stroke-dasharray:none"
     id="path3471" /><path
     d="m 217.64508,154.76726 11.54124,14.24406"
     style="fill:none;stroke:#000000;stroke-width:0.44254157;stroke-linecap:butt;stroke-linejoin:miter;stroke-miterlimit:10;stroke-opacity:1;stroke-dasharray:none"
     id="path3473" /><path
     d="m 239.86208,154.76726 11.54124,14.24406"
     style="fill:none;stroke:#000000;stroke-width:0.44254157;stroke-linecap:butt;stroke-linejoin:miter;stroke-miterlimit:10;stroke-opacity:1;stroke-dasharray:none"
     id="path3475" /><path
     d="m 150.89588,154.63734 89.05993,0"
     style="fill:none;stroke:#000000;stroke-width:0.44254157;stroke-linecap:butt;stroke-linejoin:miter;stroke-miterlimit:10;stroke-opacity:1;stroke-dasharray:none"
     id="path3477" /><path
     d="m 139.24278,140.2627 11.54124,14.24407"
     style="fill:none;stroke:#000000;stroke-width:0.44254157;stroke-linecap:butt;stroke-linejoin:miter;stroke-miterlimit:10;stroke-opacity:1;stroke-dasharray:none"
     id="path3485" /><path
     d="m 161.45978,140.2627 11.54124,14.24407"
     style="fill:none;stroke:#000000;stroke-width:0.44254157;stroke-linecap:butt;stroke-linejoin:miter;stroke-miterlimit:10;stroke-opacity:1;stroke-dasharray:none"
     id="path3487" /><path
     d="m 183.67678,140.2627 11.54124,14.24407"
     style="fill:none;stroke:#000000;stroke-width:0.44254157;stroke-linecap:butt;stroke-linejoin:miter;stroke-miterlimit:10;stroke-opacity:1;stroke-dasharray:none"
     id="path3489" /><path
     d="m 205.89278,140.2627 11.54124,14.24407"
     style="fill:none;stroke:#000000;stroke-width:0.44254157;stroke-linecap:butt;stroke-linejoin:miter;stroke-miterlimit:10;stroke-opacity:1;stroke-dasharray:none"
     id="path3491" /><path
     d="m 228.10978,140.2627 11.54124,14.24407"
     style="fill:none;stroke:#000000;stroke-width:0.44254157;stroke-linecap:butt;stroke-linejoin:miter;stroke-miterlimit:10;stroke-opacity:1;stroke-dasharray:none"
     id="path3493" /><path
     d="m 139.14359,140.13278 89.05993,0"
     style="fill:none;stroke:#000000;stroke-width:0.44254157;stroke-linecap:butt;stroke-linejoin:miter;stroke-miterlimit:10;stroke-opacity:1;stroke-dasharray:none"
     id="path3495" /><path
     d="m 127.49049,125.75815 11.54123,14.24406"
     style="fill:none;stroke:#000000;stroke-width:0.44254157;stroke-linecap:butt;stroke-linejoin:miter;stroke-miterlimit:10;stroke-opacity:1;stroke-dasharray:none"
     id="path3503" /><path
     d="m 149.70749,125.75815 11.54123,14.24406"
     style="fill:none;stroke:#000000;stroke-width:0.44254157;stroke-linecap:butt;stroke-linejoin:miter;stroke-miterlimit:10;stroke-opacity:1;stroke-dasharray:none"
     id="path3505" /><path
     d="m 171.92449,125.75815 11.54123,14.24406"
     style="fill:none;stroke:#000000;stroke-width:0.44254157;stroke-linecap:butt;stroke-linejoin:miter;stroke-miterlimit:10;stroke-opacity:1;stroke-dasharray:none"
     id="path3507" /><path
     d="m 194.14049,125.75815 11.54123,14.24406"
     style="fill:none;stroke:#000000;stroke-width:0.44254157;stroke-linecap:butt;stroke-linejoin:miter;stroke-miterlimit:10;stroke-opacity:1;stroke-dasharray:none"
     id="path3509" /><path
     d="m 216.35749,125.75815 11.54123,14.24406"
     style="fill:none;stroke:#000000;stroke-width:0.44254157;stroke-linecap:butt;stroke-linejoin:miter;stroke-miterlimit:10;stroke-opacity:1;stroke-dasharray:none"
     id="path3511" /><path
     d="m 127.35141,125.62823 89.13969,0"
     style="fill:none;stroke:#000000;stroke-width:0.44254157;stroke-linecap:butt;stroke-linejoin:miter;stroke-miterlimit:10;stroke-opacity:1;stroke-dasharray:none"
     id="path3513" /></g><text
   id="text3643"
   transform="scale(1,-1)"
   x="-14.17827"
   y="-179.98947"><tspan
     id="tspan3645"
     sodipodi:role="line"
     style="font-size:8.96640015px;font-style:oblique;font-variant:normal;writing-mode:lr-tb;fill:#000000;fill-opacity:1;fill-rule:nonzero;stroke:none;font-family:LMSans9;-inkscape-font-specification:LMSans9-Oblique"
     x="-14.17827"
     y="-179.98947">AB</tspan><tspan
     id="tspan3647"
     sodipodi:role="line"
     x="-14.17827"
     style="font-size:8.96640015px;font-style:oblique;font-variant:normal;writing-mode:lr-tb;fill:#000000;fill-opacity:1;fill-rule:nonzero;stroke:none;font-family:LMSans9;-inkscape-font-specification:LMSans9-Oblique"
     y="-168.78146" /></text>
<text
   y="-226.11252"
   x="98.246666"
   transform="scale(1,-1)"
   id="text3649"><tspan
     y="-226.11252"
     x="98.246666"
     style="font-size:8.96640015px;font-style:oblique;font-variant:normal;writing-mode:lr-tb;fill:#000000;fill-opacity:1;fill-rule:nonzero;stroke:none;font-family:LMSans9;-inkscape-font-specification:LMSans9-Oblique"
     sodipodi:role="line"
     id="tspan3651">CD</tspan><tspan
     y="-214.90451"
     style="font-size:8.96640015px;font-style:oblique;font-variant:normal;writing-mode:lr-tb;fill:#000000;fill-opacity:1;fill-rule:nonzero;stroke:none;font-family:LMSans9;-inkscape-font-specification:LMSans9-Oblique"
     x="98.246666"
     sodipodi:role="line"
     id="tspan3653" /></text>
</g></svg>