<?xml version="1.0" encoding="UTF-8" standalone="no"?>
<!-- Created with Inkscape (http://www.inkscape.org/) -->

<svg
   xmlns:dc="http://purl.org/dc/elements/1.1/"
   xmlns:cc="http://creativecommons.org/ns#"
   xmlns:rdf="http://www.w3.org/1999/02/22-rdf-syntax-ns#"
   xmlns:svg="http://www.w3.org/2000/svg"
   xmlns="http://www.w3.org/2000/svg"
   xmlns:sodipodi="http://sodipodi.sourceforge.net/DTD/sodipodi-0.dtd"
   xmlns:inkscape="http://www.inkscape.org/namespaces/inkscape"
   id="svg2"
   version="1.1"
   inkscape:version="0.47 r22583"
   width="498.32312"
   height="345.46234"
   xml:space="preserve"
   sodipodi:docname="exemplo1.svg"><metadata
     id="metadata8"><rdf:RDF><cc:Work
         rdf:about=""><dc:format>image/svg+xml</dc:format><dc:type
           rdf:resource="http://purl.org/dc/dcmitype/StillImage" /><dc:title /></cc:Work></rdf:RDF></metadata><defs
     id="defs6"><inkscape:perspective
       sodipodi:type="inkscape:persp3d"
       inkscape:vp_x="0 : 0.5 : 1"
       inkscape:vp_y="0 : 1000 : 0"
       inkscape:vp_z="1 : 0.5 : 1"
       inkscape:persp3d-origin="0.5 : 0.33333333 : 1"
       id="perspective10" /><clipPath
       clipPathUnits="userSpaceOnUse"
       id="clipPath20"><path
         d="m 720,7200 4680,0 0,-6480 -4680,0 0,6480 z"
         id="path22" /></clipPath><clipPath
       clipPathUnits="userSpaceOnUse"
       id="clipPath34"><path
         d="m 2645,6310 0,-1000 0,-15 30,0 0,15 0,1000 0,15 -30,0 0,-15 z"
         id="path36" /></clipPath><clipPath
       clipPathUnits="userSpaceOnUse"
       id="clipPath44"><path
         d="m 4145,6010 0,-700 0,-15 30,0 0,15 0,700 0,15 -30,0 0,-15 z"
         id="path46" /></clipPath><clipPath
       clipPathUnits="userSpaceOnUse"
       id="clipPath54"><path
         d="m 2645,5310 0,-800 0,-15 30,0 0,15 0,800 0,15 -30,0 0,-15 z"
         id="path56" /></clipPath><clipPath
       clipPathUnits="userSpaceOnUse"
       id="clipPath64"><path
         d="m 2360,6295 300,0 15,0 0,30 -15,0 -300,0 -15,0 0,-30 15,0 z"
         id="path66" /></clipPath><clipPath
       clipPathUnits="userSpaceOnUse"
       id="clipPath74"><path
         d="m 1745,5910 0,-400 0,-15 30,0 0,15 0,400 0,15 -30,0 0,-15 z"
         id="path76" /></clipPath><clipPath
       clipPathUnits="userSpaceOnUse"
       id="clipPath84"><path
         d="m 3760,4895 1300,0 15,0 0,30 -15,0 -1300,0 -15,0 0,-30 15,0 z"
         id="path86" /></clipPath><clipPath
       clipPathUnits="userSpaceOnUse"
       id="clipPath94"><path
         d="m 3360,6295 400,0 15,0 0,30 -15,0 -400,0 -15,0 0,-30 15,0 z"
         id="path96" /></clipPath><clipPath
       clipPathUnits="userSpaceOnUse"
       id="clipPath104"><path
         d="m 2745,6610 0,-300 0,-15 30,0 0,15 0,300 0,15 -30,0 0,-15 z"
         id="path106" /></clipPath><clipPath
       clipPathUnits="userSpaceOnUse"
       id="clipPath114"><path
         d="m 1460,5095 2900,0 15,0 0,30 -15,0 -2900,0 -15,0 0,-30 15,0 z"
         id="path116" /></clipPath><clipPath
       clipPathUnits="userSpaceOnUse"
       id="clipPath124"><path
         d="m 2760,5895 100,0 15,0 0,30 -15,0 -100,0 -15,0 0,-30 15,0 z"
         id="path126" /></clipPath><clipPath
       clipPathUnits="userSpaceOnUse"
       id="clipPath134"><path
         d="m 5045,6110 0,-1200 0,-15 30,0 0,15 0,1200 0,15 -30,0 0,-15 z"
         id="path136" /></clipPath><clipPath
       clipPathUnits="userSpaceOnUse"
       id="clipPath144"><path
         d="m 3745,6310 0,-1400 0,-15 30,0 0,15 0,1400 0,15 -30,0 0,-15 z"
         id="path146" /></clipPath><clipPath
       clipPathUnits="userSpaceOnUse"
       id="clipPath154"><path
         d="m 1760,5495 1000,0 15,0 0,30 -15,0 -1000,0 -15,0 0,-30 15,0 z"
         id="path156" /></clipPath><clipPath
       clipPathUnits="userSpaceOnUse"
       id="clipPath164"><path
         d="m 4345,6010 0,-900 0,-15 30,0 0,15 0,900 0,15 -30,0 0,-15 z"
         id="path166" /></clipPath><clipPath
       clipPathUnits="userSpaceOnUse"
       id="clipPath174"><path
         d="m 2760,6595 1500,0 15,0 0,30 -15,0 -1500,0 -15,0 0,-30 15,0 z"
         id="path176" /></clipPath><clipPath
       clipPathUnits="userSpaceOnUse"
       id="clipPath184"><path
         d="m 3745,4910 0,-400 0,-15 30,0 0,15 0,400 0,15 -30,0 0,-15 z"
         id="path186" /></clipPath><clipPath
       clipPathUnits="userSpaceOnUse"
       id="clipPath194"><path
         d="m 4360,5095 500,0 15,0 0,30 -15,0 -500,0 -15,0 0,-30 15,0 z"
         id="path196" /></clipPath><clipPath
       clipPathUnits="userSpaceOnUse"
       id="clipPath204"><path
         d="m 1760,6995 3200,0 15,0 0,30 -15,0 -3200,0 -15,0 0,-30 15,0 z"
         id="path206" /></clipPath><clipPath
       clipPathUnits="userSpaceOnUse"
       id="clipPath214"><path
         d="m 2745,5910 0,-400 0,-15 30,0 0,15 0,400 0,15 -30,0 0,-15 z"
         id="path216" /></clipPath><clipPath
       clipPathUnits="userSpaceOnUse"
       id="clipPath224"><path
         d="m 2660,5295 1500,0 15,0 0,30 -15,0 -1500,0 -15,0 0,-30 15,0 z"
         id="path226" /></clipPath><clipPath
       clipPathUnits="userSpaceOnUse"
       id="clipPath234"><path
         d="m 4245,6610 0,-200 0,-15 30,0 0,15 0,200 0,15 -30,0 0,-15 z"
         id="path236" /></clipPath><clipPath
       clipPathUnits="userSpaceOnUse"
       id="clipPath244"><path
         d="m 1460,5495 300,0 15,0 0,30 -15,0 -300,0 -15,0 0,-30 15,0 z"
         id="path246" /></clipPath><clipPath
       clipPathUnits="userSpaceOnUse"
       id="clipPath254"><path
         d="m 1760,5895 100,0 15,0 0,30 -15,0 -100,0 -15,0 0,-30 15,0 z"
         id="path256" /></clipPath><clipPath
       clipPathUnits="userSpaceOnUse"
       id="clipPath264"><path
         d="m 1760,6295 100,0 15,0 0,30 -15,0 -100,0 -15,0 0,-30 15,0 z"
         id="path266" /></clipPath><clipPath
       clipPathUnits="userSpaceOnUse"
       id="clipPath274"><path
         d="m 4945,7010 0,-400 0,-15 30,0 0,15 0,400 0,15 -30,0 0,-15 z"
         id="path276" /></clipPath><clipPath
       clipPathUnits="userSpaceOnUse"
       id="clipPath284"><path
         d="m 1745,7010 0,-700 0,-15 30,0 0,15 0,700 0,15 -30,0 0,-15 z"
         id="path286" /></clipPath><clipPath
       clipPathUnits="userSpaceOnUse"
       id="clipPath294"><path
         d="m 2760,6295 100,0 15,0 0,30 -15,0 -100,0 -15,0 0,-30 15,0 z"
         id="path296" /></clipPath><clipPath
       clipPathUnits="userSpaceOnUse"
       id="clipPath304"><path
         d="m 4845,6110 0,-1000 0,-15 30,0 0,15 0,1000 0,15 -30,0 0,-15 z"
         id="path306" /></clipPath><clipPath
       clipPathUnits="userSpaceOnUse"
       id="clipPath314"><path
         d="m 1800,5510 c 0,-22.09 -17.91,-40 -40,-40 -22.09,0 -40,17.91 -40,40 0,22.09 17.91,40 40,40 22.09,0 40,-17.91 40,-40 z"
         id="path316" /></clipPath><clipPath
       clipPathUnits="userSpaceOnUse"
       id="clipPath324"><path
         d="m 3800,4910 c 0,-22.09 -17.91,-40 -40,-40 -22.09,0 -40,17.91 -40,40 0,22.09 17.91,40 40,40 22.09,0 40,-17.91 40,-40 z"
         id="path326" /></clipPath><clipPath
       clipPathUnits="userSpaceOnUse"
       id="clipPath334"><path
         d="m 2700,5310 c 0,-22.09 -17.91,-40 -40,-40 -22.09,0 -40,17.91 -40,40 0,22.09 17.91,40 40,40 22.09,0 40,-17.91 40,-40 z"
         id="path336" /></clipPath><clipPath
       clipPathUnits="userSpaceOnUse"
       id="clipPath344"><path
         d="m 4400,5110 c 0,-22.09 -17.91,-40 -40,-40 -22.09,0 -40,17.91 -40,40 0,22.09 17.91,40 40,40 22.09,0 40,-17.91 40,-40 z"
         id="path346" /></clipPath><clipPath
       clipPathUnits="userSpaceOnUse"
       id="clipPath354"><path
         d="m 4875,6110 0,20 0,15 -30,0 0,-15 0,-20 0,-15 30,0 0,15 z"
         id="path356" /></clipPath><clipPath
       clipPathUnits="userSpaceOnUse"
       id="clipPath364"><path
         d="m 5075,6110 0,20 0,15 -30,0 0,-15 0,-20 0,-15 30,0 0,15 z"
         id="path366" /></clipPath><clipPath
       clipPathUnits="userSpaceOnUse"
       id="clipPath374"><path
         d="M 4954.46,6518.32 C 4851.58,6449.63 4800.09,6346.86 4800,6210 l -0.03,-16.67 14.73,7.84 c 96.87,51.77 193.73,51.77 290.6,0 l 14.7,-7.85 0,16.68 c -0.09,136.85 -51.57,239.62 -154.46,308.32 l -5.54,3.69 -5.54,-3.69 z m 0,-16.64 C 5051.58,6437.03 5100.09,6339.81 5100,6210 l 10,0 4.7,8.83 c -103.13,54.89 -206.27,54.89 -309.4,0 l 4.7,-8.83 10,0 c -0.09,129.82 48.43,227.04 145.54,291.68 l -5.54,8.32 -5.54,-8.32 z"
         id="path376" /></clipPath><clipPath
       clipPathUnits="userSpaceOnUse"
       id="clipPath384"><path
         d="m 4814.7,6101.17 c 96.87,51.77 193.73,51.77 290.6,0 l 8.83,-4.7 9.4,17.66 -8.83,4.7 c -103.13,54.89 -206.27,54.89 -309.4,0 l -8.83,-4.7 9.4,-17.66 8.83,4.7 z"
         id="path386" /></clipPath><clipPath
       clipPathUnits="userSpaceOnUse"
       id="clipPath394"><path
         d="m 4965,6600 c 19.33,0 35,-15.67 35,-35 0,-19.33 -15.67,-35 -35,-35 -19.33,0 -35,15.67 -35,35 0,19.33 15.67,35 35,35 z m 0,20 c -30.38,0 -55,-24.62 -55,-55 0,-30.38 24.62,-55 55,-55 30.38,0 55,24.62 55,55 0,30.38 -24.62,55 -55,55 z"
         id="path396" /></clipPath><clipPath
       clipPathUnits="userSpaceOnUse"
       id="clipPath404"><path
         d="m 3850,4405 c 0,-46.94 -38.06,-85 -85,-85 -46.94,0 -85,38.06 -85,85 0,46.94 38.06,85 85,85 46.94,0 85,-38.06 85,-85 z m 20,0 c 0,57.99 -47.01,105 -105,105 -57.99,0 -105,-47.01 -105,-105 0,-57.99 47.01,-105 105,-105 57.99,0 105,47.01 105,105 z"
         id="path406" /></clipPath><clipPath
       clipPathUnits="userSpaceOnUse"
       id="clipPath414"><path
         d="m 720,7200 4680,0 0,-6480 -4680,0 0,6480 z"
         id="path416" /></clipPath><clipPath
       clipPathUnits="userSpaceOnUse"
       id="clipPath432"><path
         d="m 3780,4510 c 0,-11.05 -8.95,-20 -20,-20 -11.05,0 -20,8.95 -20,20 0,11.05 8.95,20 20,20 11.05,0 20,-8.95 20,-20 z"
         id="path434" /></clipPath><clipPath
       clipPathUnits="userSpaceOnUse"
       id="clipPath442"><path
         d="m 4175,6010 0,20 0,15 -30,0 0,-15 0,-20 0,-15 30,0 0,15 z"
         id="path444" /></clipPath><clipPath
       clipPathUnits="userSpaceOnUse"
       id="clipPath452"><path
         d="m 4375,6010 0,20 0,15 -30,0 0,-15 0,-20 0,-15 30,0 0,15 z"
         id="path454" /></clipPath><clipPath
       clipPathUnits="userSpaceOnUse"
       id="clipPath462"><path
         d="M 4254.46,6418.32 C 4151.58,6349.63 4100.09,6246.86 4100,6110 l -0.03,-16.67 14.73,7.84 c 96.87,51.77 193.73,51.77 290.6,0 l 14.7,-7.85 0,16.68 c -0.09,136.85 -51.57,239.62 -154.46,308.32 l -5.54,3.69 -5.54,-3.69 z m 0,-16.64 C 4351.58,6337.03 4400.09,6239.81 4400,6110 l 10,0 4.7,8.83 c -103.13,54.89 -206.27,54.89 -309.4,0 l 4.7,-8.83 10,0 c -0.09,129.82 48.43,227.04 145.54,291.68 l -5.54,8.32 -5.54,-8.32 z"
         id="path464" /></clipPath><clipPath
       clipPathUnits="userSpaceOnUse"
       id="clipPath472"><path
         d="m 4114.7,6001.17 c 96.87,51.77 193.73,51.77 290.6,0 l 8.83,-4.7 9.4,17.66 -8.83,4.7 c -103.13,54.89 -206.27,54.89 -309.4,0 l -8.83,-4.7 9.4,-17.66 8.83,4.7 z"
         id="path474" /></clipPath><clipPath
       clipPathUnits="userSpaceOnUse"
       id="clipPath482"><path
         d="m 2970,5860 70,0 10,0 0,20 -10,0 -70,0 -10,0 0,-20 10,0 z"
         id="path484" /></clipPath><clipPath
       clipPathUnits="userSpaceOnUse"
       id="clipPath492"><path
         d="m 720,7200 4680,0 0,-6480 -4680,0 0,6480 z"
         id="path494" /></clipPath><clipPath
       clipPathUnits="userSpaceOnUse"
       id="clipPath506"><path
         d="m 2977.07,5917.07 -40,40 -7.07,7.07 -14.14,-14.14 7.07,-7.07 40,-40 7.07,-7.07 14.14,14.14 -7.07,7.07 z"
         id="path508" /></clipPath><clipPath
       clipPathUnits="userSpaceOnUse"
       id="clipPath516"><path
         d="m 2977.07,5902.93 40,40 7.07,7.07 -14.14,14.14 -7.07,-7.07 -40,-40 -7.07,-7.07 14.14,-14.14 7.07,7.07 z"
         id="path518" /></clipPath><clipPath
       clipPathUnits="userSpaceOnUse"
       id="clipPath526"><path
         d="m 2920,5970 50,0 10,0 0,20 -10,0 -50,0 -10,0 0,-20 10,0 z"
         id="path528" /></clipPath><clipPath
       clipPathUnits="userSpaceOnUse"
       id="clipPath536"><path
         d="m 720,7200 4680,0 0,-6480 -4680,0 0,6480 z"
         id="path538" /></clipPath><clipPath
       clipPathUnits="userSpaceOnUse"
       id="clipPath552"><path
         d="m 3150,6015 130,0 5,0 0,10 -5,0 -130,0 -5,0 0,-10 5,0 z"
         id="path554" /></clipPath><clipPath
       clipPathUnits="userSpaceOnUse"
       id="clipPath562"><path
         d="m 2860,6400 500,0 0,10 -10,0 0,-600 10,0 0,10 -500,0 0,-10 10,0 0,600 -10,0 0,-10 z m -10,10 0,-600 0,-10 10,0 500,0 10,0 0,10 0,600 0,10 -10,0 -500,0 -10,0 0,-10 z"
         id="path564" /></clipPath><clipPath
       clipPathUnits="userSpaceOnUse"
       id="clipPath572"><path
         d="m 2960,5980 0,-100 0,-10 20,0 0,10 0,100 0,10 -20,0 0,-10 z"
         id="path574" /></clipPath><clipPath
       clipPathUnits="userSpaceOnUse"
       id="clipPath582"><path
         d="m 2880,6310 c 0,-11.05 -8.95,-20 -20,-20 -11.05,0 -20,8.95 -20,20 0,11.05 8.95,20 20,20 11.05,0 20,-8.95 20,-20 z"
         id="path584" /></clipPath><clipPath
       clipPathUnits="userSpaceOnUse"
       id="clipPath592"><path
         d="m 2880,5910 c 0,-11.05 -8.95,-20 -20,-20 -11.05,0 -20,8.95 -20,20 0,11.05 8.95,20 20,20 11.05,0 20,-8.95 20,-20 z"
         id="path594" /></clipPath><clipPath
       clipPathUnits="userSpaceOnUse"
       id="clipPath602"><path
         d="m 3380,6310 c 0,-11.05 -8.95,-20 -20,-20 -11.05,0 -20,8.95 -20,20 0,11.05 8.95,20 20,20 11.05,0 20,-8.95 20,-20 z"
         id="path604" /></clipPath><clipPath
       clipPathUnits="userSpaceOnUse"
       id="clipPath612"><path
         d="m 3380,5910 c 0,-11.05 -8.95,-20 -20,-20 -11.05,0 -20,8.95 -20,20 0,11.05 8.95,20 20,20 11.05,0 20,-8.95 20,-20 z"
         id="path614" /></clipPath><clipPath
       clipPathUnits="userSpaceOnUse"
       id="clipPath622"><path
         d="m 1270,5190 190,0 0,10 -10,0 0,-190 10,0 0,10 -190,0 0,-10 10,0 0,190 -10,0 0,-10 z m -10,10 0,-190 0,-10 10,0 190,0 10,0 0,10 0,190 0,10 -10,0 -190,0 -10,0 0,-10 z"
         id="path624" /></clipPath><clipPath
       clipPathUnits="userSpaceOnUse"
       id="clipPath632"><path
         d="m 720,7200 4680,0 0,-6480 -4680,0 0,6480 z"
         id="path634" /></clipPath><clipPath
       clipPathUnits="userSpaceOnUse"
       id="clipPath650"><path
         d="m 1480,5110 c 0,-11.05 -8.95,-20 -20,-20 -11.05,0 -20,8.95 -20,20 0,11.05 8.95,20 20,20 11.05,0 20,-8.95 20,-20 z"
         id="path652" /></clipPath><clipPath
       clipPathUnits="userSpaceOnUse"
       id="clipPath660"><path
         d="m 1860,6400 500,0 0,10 -10,0 0,-600 10,0 0,10 -500,0 0,-10 10,0 0,600 -10,0 0,-10 z m -10,10 0,-600 0,-10 10,0 500,0 10,0 0,10 0,600 0,10 -10,0 -500,0 -10,0 0,-10 z"
         id="path662" /></clipPath><clipPath
       clipPathUnits="userSpaceOnUse"
       id="clipPath670"><path
         d="m 720,7200 4680,0 0,-6480 -4680,0 0,6480 z"
         id="path672" /></clipPath><clipPath
       clipPathUnits="userSpaceOnUse"
       id="clipPath684"><path
         d="m 1920,5970 50,0 10,0 0,20 -10,0 -50,0 -10,0 0,-20 10,0 z"
         id="path686" /></clipPath><clipPath
       clipPathUnits="userSpaceOnUse"
       id="clipPath694"><path
         d="m 1960,5980 0,-100 0,-10 20,0 0,10 0,100 0,10 -20,0 0,-10 z"
         id="path696" /></clipPath><clipPath
       clipPathUnits="userSpaceOnUse"
       id="clipPath704"><path
         d="m 1970,5860 70,0 10,0 0,20 -10,0 -70,0 -10,0 0,-20 10,0 z"
         id="path706" /></clipPath><clipPath
       clipPathUnits="userSpaceOnUse"
       id="clipPath714"><path
         d="m 1977.07,5902.93 40,40 7.07,7.07 -14.14,14.14 -7.07,-7.07 -40,-40 -7.07,-7.07 14.14,-14.14 7.07,7.07 z"
         id="path716" /></clipPath><clipPath
       clipPathUnits="userSpaceOnUse"
       id="clipPath724"><path
         d="m 1977.07,5917.07 -40,40 -7.07,7.07 -14.14,-14.14 7.07,-7.07 40,-40 7.07,-7.07 14.14,14.14 -7.07,7.07 z"
         id="path726" /></clipPath><clipPath
       clipPathUnits="userSpaceOnUse"
       id="clipPath734"><path
         d="m 720,7200 4680,0 0,-6480 -4680,0 0,6480 z"
         id="path736" /></clipPath><clipPath
       clipPathUnits="userSpaceOnUse"
       id="clipPath750"><path
         d="m 2150,6015 130,0 5,0 0,10 -5,0 -130,0 -5,0 0,-10 5,0 z"
         id="path752" /></clipPath><clipPath
       clipPathUnits="userSpaceOnUse"
       id="clipPath760"><path
         d="m 1880,6310 c 0,-11.05 -8.95,-20 -20,-20 -11.05,0 -20,8.95 -20,20 0,11.05 8.95,20 20,20 11.05,0 20,-8.95 20,-20 z"
         id="path762" /></clipPath><clipPath
       clipPathUnits="userSpaceOnUse"
       id="clipPath770"><path
         d="m 1880,5910 c 0,-11.05 -8.95,-20 -20,-20 -11.05,0 -20,8.95 -20,20 0,11.05 8.95,20 20,20 11.05,0 20,-8.95 20,-20 z"
         id="path772" /></clipPath><clipPath
       clipPathUnits="userSpaceOnUse"
       id="clipPath780"><path
         d="m 2380,6310 c 0,-11.05 -8.95,-20 -20,-20 -11.05,0 -20,8.95 -20,20 0,11.05 8.95,20 20,20 11.05,0 20,-8.95 20,-20 z"
         id="path782" /></clipPath><clipPath
       clipPathUnits="userSpaceOnUse"
       id="clipPath790"><path
         d="m 2380,5910 c 0,-11.05 -8.95,-20 -20,-20 -11.05,0 -20,8.95 -20,20 0,11.05 8.95,20 20,20 11.05,0 20,-8.95 20,-20 z"
         id="path792" /></clipPath><clipPath
       clipPathUnits="userSpaceOnUse"
       id="clipPath800"><path
         d="m 720,7200 4680,0 0,-6480 -4680,0 0,6480 z"
         id="path802" /></clipPath><clipPath
       clipPathUnits="userSpaceOnUse"
       id="clipPath814"><path
         d="m 2750,4405 c 0,-46.94 -38.06,-85 -85,-85 -46.94,0 -85,38.06 -85,85 0,46.94 38.06,85 85,85 46.94,0 85,-38.06 85,-85 z m 20,0 c 0,57.99 -47.01,105 -105,105 -57.99,0 -105,-47.01 -105,-105 0,-57.99 47.01,-105 105,-105 57.99,0 105,47.01 105,105 z"
         id="path816" /></clipPath><clipPath
       clipPathUnits="userSpaceOnUse"
       id="clipPath824"><path
         d="m 720,7200 4680,0 0,-6480 -4680,0 0,6480 z"
         id="path826" /></clipPath><clipPath
       clipPathUnits="userSpaceOnUse"
       id="clipPath842"><path
         d="m 2680,4510 c 0,-11.05 -8.95,-20 -20,-20 -11.05,0 -20,8.95 -20,20 0,11.05 8.95,20 20,20 11.05,0 20,-8.95 20,-20 z"
         id="path844" /></clipPath><clipPath
       clipPathUnits="userSpaceOnUse"
       id="clipPath852"><path
         d="m 1270,5590 190,0 0,10 -10,0 0,-190 10,0 0,10 -190,0 0,-10 10,0 0,190 -10,0 0,-10 z m -10,10 0,-190 0,-10 10,0 190,0 10,0 0,10 0,190 0,10 -10,0 -190,0 -10,0 0,-10 z"
         id="path854" /></clipPath><clipPath
       clipPathUnits="userSpaceOnUse"
       id="clipPath862"><path
         d="m 720,7200 4680,0 0,-6480 -4680,0 0,6480 z"
         id="path864" /></clipPath><clipPath
       clipPathUnits="userSpaceOnUse"
       id="clipPath880"><path
         d="m 1480,5510 c 0,-11.05 -8.95,-20 -20,-20 -11.05,0 -20,8.95 -20,20 0,11.05 8.95,20 20,20 11.05,0 20,-8.95 20,-20 z"
         id="path882" /></clipPath><clipPath
       clipPathUnits="userSpaceOnUse"
       id="clipPath890"><path
         d="m 720,7200 4680,0 0,-6480 -4680,0 0,6480 z"
         id="path892" /></clipPath></defs><sodipodi:namedview
     pagecolor="#ffffff"
     bordercolor="#666666"
     borderopacity="1"
     objecttolerance="10"
     gridtolerance="10"
     guidetolerance="10"
     inkscape:pageopacity="0"
     inkscape:pageshadow="2"
     inkscape:window-width="1440"
     inkscape:window-height="825"
     id="namedview4"
     showgrid="false"
     inkscape:zoom="0.67425131"
     inkscape:cx="-121.61026"
     inkscape:cy="200.24804"
     inkscape:window-x="0"
     inkscape:window-y="25"
     inkscape:window-maximized="1"
     inkscape:current-layer="g12"
     showguides="true"
     inkscape:guide-bbox="true" /><g
     id="g12"
     inkscape:groupmode="layer"
     inkscape:label="exemplo1"
     transform="matrix(1.25,0,0,-1.25,-142.11814,878.125)"><path
       style="color:#000000;fill:none;stroke:#000000;stroke-width:1.5;stroke-linecap:round;stroke-linejoin:miter;stroke-miterlimit:4;stroke-opacity:1;stroke-dasharray:none;stroke-dashoffset:0;marker:none;visibility:visible;display:inline;overflow:visible;enable-background:accumulate"
       d="m 40.044416,188.99249 163.143914,0 0,-49.31395 12.453,0"
       id="path3233"
       transform="matrix(0.8,0,0,-0.8,113.69451,702.5)"
       sodipodi:nodetypes="cccc" /><path
       style="color:#000000;fill:none;stroke:#000000;stroke-width:1.5;stroke-linecap:round;stroke-linejoin:miter;stroke-miterlimit:4;stroke-opacity:1;stroke-dasharray:none;stroke-dashoffset:0;marker:none;visibility:visible;display:inline;overflow:visible;enable-background:accumulate"
       d="m 77.864142,188.99249 0,-49.68474 12.606576,0"
       id="path3235"
       transform="matrix(0.8,0,0,-0.8,113.69451,702.5)" /><g
       id="g370"
       transform="scale(0.1,0.1)"><g
         clip-path="url(#clipPath374)"
         id="g372"><path
           id="path378"
           style="fill:#000000;fill-opacity:1;fill-rule:nonzero;stroke:none"
           d="M 4954.46,6518.32 C 4851.58,6449.63 4800.09,6346.86 4800,6210 l -0.03,-16.67 14.73,7.84 c 96.87,51.77 193.73,51.77 290.6,0 l 14.7,-7.85 0,16.68 c -0.09,136.85 -51.57,239.62 -154.46,308.32 l -5.54,3.69 -5.54,-3.69 z m 0,-16.64 C 5051.58,6437.03 5100.09,6339.81 5100,6210 l 10,0 4.7,8.83 c -103.13,54.89 -206.27,54.89 -309.4,0 l 4.7,-8.83 10,0 c -0.09,129.82 48.43,227.04 145.54,291.68 l -5.54,8.32 -5.54,-8.32" /></g></g><g
       id="g380"
       transform="scale(0.1,0.1)"><g
         clip-path="url(#clipPath384)"
         id="g382"><path
           id="path388"
           style="fill:#000000;fill-opacity:1;fill-rule:nonzero;stroke:none"
           d="m 4814.7,6101.17 c 96.87,51.77 193.73,51.77 290.6,0 l 8.83,-4.7 9.4,17.66 -8.83,4.7 c -103.13,54.89 -206.27,54.89 -309.4,0 l -8.83,-4.7 9.4,-17.66 8.83,4.7" /></g></g><g
       id="g390"
       transform="scale(0.1,0.1)"><g
         clip-path="url(#clipPath394)"
         id="g392"><path
           id="path398"
           style="fill:#000000;fill-opacity:1;fill-rule:nonzero;stroke:none"
           d="m 4965,6600 c 19.33,0 35,-15.67 35,-35 0,-19.33 -15.67,-35 -35,-35 -19.33,0 -35,15.67 -35,35 0,19.33 15.67,35 35,35 z m 0,20 c -30.38,0 -55,-24.62 -55,-55 0,-30.38 24.62,-55 55,-55 30.38,0 55,24.62 55,55 0,30.38 -24.62,55 -55,55" /></g></g><g
       id="g410"
       transform="matrix(0.1,0,0,0.1,-8.3898306,18.984019)"><g
         clip-path="url(#clipPath414)"
         id="g412"><g
           transform="scale(10,10)"
           id="g418"><text
   id="text420"
   transform="matrix(1,0,0,-1,364,411)"><tspan
     id="tspan422"
     sodipodi:role="line"
     y="0"
     x="0 15.19228"
     style="font-size:18px;font-style:oblique;font-variant:normal;writing-mode:lr-tb;fill:#000000;fill-opacity:1;fill-rule:nonzero;stroke:none;font-family:Helvetica;-inkscape-font-specification:Helvetica-Oblique"
     dy="0 3.5595036">Q<tspan
   style="font-size:12.80000019px"
   id="tspan3984">0</tspan></tspan></text>

</g></g></g><g
       id="g458"
       transform="scale(0.1,0.1)"><g
         clip-path="url(#clipPath462)"
         id="g460"><path
           id="path466"
           style="fill:#000000;fill-opacity:1;fill-rule:nonzero;stroke:none"
           d="M 4254.46,6418.32 C 4151.58,6349.63 4100.09,6246.86 4100,6110 l -0.03,-16.67 14.73,7.84 c 96.87,51.77 193.73,51.77 290.6,0 l 14.7,-7.85 0,16.68 c -0.09,136.85 -51.57,239.62 -154.46,308.32 l -5.54,3.69 -5.54,-3.69 z m 0,-16.64 C 4351.58,6337.03 4400.09,6239.81 4400,6110 l 10,0 4.7,8.83 c -103.13,54.89 -206.27,54.89 -309.4,0 l 4.7,-8.83 10,0 c -0.09,129.82 48.43,227.04 145.54,291.68 l -5.54,8.32 -5.54,-8.32" /></g></g><g
       id="g468"
       transform="scale(0.1,0.1)"><g
         clip-path="url(#clipPath472)"
         id="g470"><path
           id="path476"
           style="fill:#000000;fill-opacity:1;fill-rule:nonzero;stroke:none"
           d="m 4114.7,6001.17 c 96.87,51.77 193.73,51.77 290.6,0 l 8.83,-4.7 9.4,17.66 -8.83,4.7 c -103.13,54.89 -206.27,54.89 -309.4,0 l -8.83,-4.7 9.4,-17.66 8.83,4.7" /></g></g><g
       id="g478"
       transform="scale(0.1,0.1)"><g
         clip-path="url(#clipPath482)"
         id="g480"><path
           id="path486"
           style="fill:#000000;fill-opacity:1;fill-rule:nonzero;stroke:none"
           d="m 2970,5860 80,0 0,20 -90,0 0,-20 10,0" /></g></g><g
       id="g488"
       transform="matrix(0.1,0,0,0.1,-1.9280645,1.0381886)"><g
         clip-path="url(#clipPath492)"
         id="g490"><g
           transform="scale(10,10)"
           id="g496"><text
   id="text498"
   transform="matrix(1,0,0,-1,293,623)"><tspan
     id="tspan500"
     y="0"
     x="0"
     style="font-size:18px;font-style:oblique;font-variant:normal;writing-mode:lr-tb;fill:#000000;fill-opacity:1;fill-rule:nonzero;stroke:none;font-family:Helvetica;-inkscape-font-specification:Helvetica-Oblique">D</tspan></text>

</g></g></g><g
       id="g502"
       transform="scale(0.1,0.1)"><g
         clip-path="url(#clipPath506)"
         id="g504"><path
           id="path510"
           style="fill:#000000;fill-opacity:1;fill-rule:nonzero;stroke:none"
           d="m 2977.07,5917.07 -40,40 -7.07,7.07 -14.14,-14.14 7.07,-7.07 40,-40 7.07,-7.07 14.14,14.14 -7.07,7.07" /></g></g><g
       id="g512"
       transform="scale(0.1,0.1)"><g
         clip-path="url(#clipPath516)"
         id="g514"><path
           id="path520"
           style="fill:#000000;fill-opacity:1;fill-rule:nonzero;stroke:none"
           d="m 2977.07,5902.93 40,40 7.07,7.07 -14.14,14.14 -7.07,-7.07 -40,-40 -7.07,-7.07 14.14,-14.14 7.07,7.07" /></g></g><g
       id="g522"
       transform="scale(0.1,0.1)"><g
         clip-path="url(#clipPath526)"
         id="g524"><path
           id="path530"
           style="fill:#000000;fill-opacity:1;fill-rule:nonzero;stroke:none"
           d="m 2920,5970 60,0 0,20 -70,0 0,-20 10,0" /></g></g><g
       id="g532"
       transform="scale(0.1,0.1)"><g
         clip-path="url(#clipPath536)"
         id="g534"><g
           transform="scale(10,10)"
           id="g540"><text
   id="text542"
   transform="matrix(1,0,0,-1,314,624)"><tspan
     id="tspan544"
     y="0"
     x="0"
     style="font-size:18px;font-style:oblique;font-variant:normal;writing-mode:lr-tb;fill:#000000;fill-opacity:1;fill-rule:nonzero;stroke:none;font-family:Helvetica;-inkscape-font-specification:Helvetica-Oblique">Q</tspan><tspan
     id="tspan546"
     y="39"
     x="0"
     style="font-size:18px;font-style:oblique;font-variant:normal;writing-mode:lr-tb;fill:#000000;fill-opacity:1;fill-rule:nonzero;stroke:none;font-family:Helvetica;-inkscape-font-specification:Helvetica-Oblique">Q</tspan></text>

</g></g></g><g
       id="g548"
       transform="scale(0.1,0.1)"><g
         clip-path="url(#clipPath552)"
         id="g550"><path
           id="path556"
           style="fill:#000000;fill-opacity:1;fill-rule:nonzero;stroke:none"
           d="m 3150,6015 135,0 0,10 -140,0 0,-10 5,0" /></g></g><g
       id="g558"
       transform="scale(0.1,0.1)"><g
         clip-path="url(#clipPath562)"
         id="g560"><path
           id="path566"
           style="fill:#000000;fill-opacity:1;fill-rule:nonzero;stroke:none"
           d="m 2860,6400 500,0 0,10 -10,0 0,-600 10,0 0,10 -500,0 0,-10 10,0 0,600 -10,0 0,-10 z m -10,10 0,-610 520,0 0,620 -520,0 0,-10" /></g></g><g
       id="g568"
       transform="scale(0.1,0.1)"><g
         clip-path="url(#clipPath572)"
         id="g570"><path
           id="path576"
           style="fill:#000000;fill-opacity:1;fill-rule:nonzero;stroke:none"
           d="m 2960,5980 0,-110 20,0 0,120 -20,0 0,-10" /></g></g><g
       id="g628"
       transform="matrix(0.1,0,0,0.1,10.381886,0)"><g
         clip-path="url(#clipPath632)"
         id="g630"><g
           transform="scale(10,10)"
           id="g636"><text
   id="text638"
   transform="matrix(1,0,0,-1,113,502)"><tspan
     id="tspan640"
     y="0"
     x="0"
     style="font-size:18px;font-style:oblique;font-variant:normal;writing-mode:lr-tb;fill:#000000;fill-opacity:1;fill-rule:nonzero;stroke:none;font-family:Helvetica;-inkscape-font-specification:Helvetica-Oblique">X</tspan></text>

</g></g></g><g
       id="g656"
       transform="scale(0.1,0.1)"><g
         clip-path="url(#clipPath660)"
         id="g658"><path
           id="path664"
           style="fill:#000000;fill-opacity:1;fill-rule:nonzero;stroke:none"
           d="m 1860,6400 500,0 0,10 -10,0 0,-600 10,0 0,10 -500,0 0,-10 10,0 0,600 -10,0 0,-10 z m -10,10 0,-610 520,0 0,620 -520,0 0,-10" /></g></g><g
       id="g666"
       transform="matrix(0.1,0,0,0.1,-1.9280645,1.0381886)"><g
         clip-path="url(#clipPath670)"
         id="g668"><g
           transform="scale(10,10)"
           id="g674"><text
   id="text676"
   transform="matrix(1,0,0,-1,193,623)"><tspan
     id="tspan678"
     y="0"
     x="0"
     style="font-size:18px;font-style:oblique;font-variant:normal;writing-mode:lr-tb;fill:#000000;fill-opacity:1;fill-rule:nonzero;stroke:none;font-family:Helvetica;-inkscape-font-specification:Helvetica-Oblique">D</tspan></text>

</g></g></g><g
       id="g680"
       transform="scale(0.1,0.1)"><g
         clip-path="url(#clipPath684)"
         id="g682"><path
           id="path688"
           style="fill:#000000;fill-opacity:1;fill-rule:nonzero;stroke:none"
           d="m 1920,5970 60,0 0,20 -70,0 0,-20 10,0" /></g></g><g
       id="g690"
       transform="scale(0.1,0.1)"><g
         clip-path="url(#clipPath694)"
         id="g692"><path
           id="path698"
           style="fill:#000000;fill-opacity:1;fill-rule:nonzero;stroke:none"
           d="m 1960,5980 0,-110 20,0 0,120 -20,0 0,-10" /></g></g><g
       id="g700"
       transform="scale(0.1,0.1)"><g
         clip-path="url(#clipPath704)"
         id="g702"><path
           id="path708"
           style="fill:#000000;fill-opacity:1;fill-rule:nonzero;stroke:none"
           d="m 1970,5860 80,0 0,20 -90,0 0,-20 10,0" /></g></g><g
       id="g710"
       transform="scale(0.1,0.1)"><g
         clip-path="url(#clipPath714)"
         id="g712"><path
           id="path718"
           style="fill:#000000;fill-opacity:1;fill-rule:nonzero;stroke:none"
           d="m 1977.07,5902.93 40,40 7.07,7.07 -14.14,14.14 -7.07,-7.07 -40,-40 -7.07,-7.07 14.14,-14.14 7.07,7.07" /></g></g><g
       id="g720"
       transform="scale(0.1,0.1)"><g
         clip-path="url(#clipPath724)"
         id="g722"><path
           id="path728"
           style="fill:#000000;fill-opacity:1;fill-rule:nonzero;stroke:none"
           d="m 1977.07,5917.07 -40,40 -7.07,7.07 -14.14,-14.14 7.07,-7.07 40,-40 7.07,-7.07 14.14,14.14 -7.07,7.07" /></g></g><g
       id="g730"
       transform="scale(0.1,0.1)"><g
         clip-path="url(#clipPath734)"
         id="g732"><g
           transform="scale(10,10)"
           id="g738"><text
   id="text740"
   transform="matrix(1,0,0,-1,214,624)"><tspan
     id="tspan742"
     y="0"
     x="0"
     style="font-size:18px;font-style:oblique;font-variant:normal;writing-mode:lr-tb;fill:#000000;fill-opacity:1;fill-rule:nonzero;stroke:none;font-family:Helvetica;-inkscape-font-specification:Helvetica-Oblique">Q</tspan><tspan
     id="tspan744"
     y="39"
     x="0"
     style="font-size:18px;font-style:oblique;font-variant:normal;writing-mode:lr-tb;fill:#000000;fill-opacity:1;fill-rule:nonzero;stroke:none;font-family:Helvetica;-inkscape-font-specification:Helvetica-Oblique">Q</tspan></text>

</g></g></g><g
       id="g746"
       transform="scale(0.1,0.1)"><g
         clip-path="url(#clipPath750)"
         id="g748"><path
           id="path754"
           style="fill:#000000;fill-opacity:1;fill-rule:nonzero;stroke:none"
           d="m 2150,6015 135,0 0,10 -140,0 0,-10 5,0" /></g></g><g
       id="g796"
       transform="scale(0.1,0.1)"><g
         clip-path="url(#clipPath800)"
         id="g798"><g
           transform="scale(10,10)"
           id="g804"><text
   id="text806"
   transform="matrix(1,0,0,-1,457,643)"><tspan
     id="tspan808"
     sodipodi:role="line"
     y="0"
     x="0 12.552326"
     style="font-size:18px;font-style:oblique;font-variant:normal;writing-mode:lr-tb;fill:#000000;fill-opacity:1;fill-rule:nonzero;stroke:none;font-family:Helvetica;-inkscape-font-specification:Helvetica-Oblique">Y<tspan
   style="font-size:12.80000019px"
   id="tspan3988"
   dy="3.5595036">1</tspan></tspan></text>

</g></g></g><g
       id="g820"
       transform="matrix(0.1,0,0,0.1,-6.4,18.984019)"><g
         clip-path="url(#clipPath824)"
         id="g822"><g
           transform="scale(10,10)"
           id="g828"><text
   id="text830"
   transform="matrix(1,0,0,-1,254,411)"><tspan
     id="tspan832"
     sodipodi:role="line"
     y="0"
     x="0 15.19228"
     style="font-size:18px;font-style:oblique;font-variant:normal;writing-mode:lr-tb;fill:#000000;fill-opacity:1;fill-rule:nonzero;stroke:none;font-family:Helvetica;-inkscape-font-specification:Helvetica-Oblique">Q<tspan
   style="font-size:12.80000019px"
   id="tspan3982"
   dy="3.5595036">1</tspan></tspan></text>

</g></g></g><g
       id="g858"
       transform="matrix(0.1,0,0,0.1,10.678511,0)"><g
         clip-path="url(#clipPath862)"
         id="g860"><g
           transform="scale(10,10)"
           id="g866"><text
   id="text868"
   transform="matrix(1,0,0,-1,101,542)"><tspan
     id="tspan870"
     sodipodi:role="line"
     y="0"
     x="0 14.04069"
     style="font-size:18px;font-style:oblique;font-variant:normal;writing-mode:lr-tb;fill:#000000;fill-opacity:1;fill-rule:nonzero;stroke:none;font-family:Helvetica;-inkscape-font-specification:Helvetica-Oblique">Ck</tspan></text>

</g></g></g><g
       id="g886"
       transform="scale(0.1,0.1)"><g
         clip-path="url(#clipPath890)"
         id="g888"><g
           transform="scale(10,10)"
           id="g894"><text
   id="text896"
   transform="matrix(1,0,0,-1,391,641)"><tspan
     id="tspan898"
     sodipodi:role="line"
     y="0"
     x="0 12.552326"
     style="font-size:18px;font-style:oblique;font-variant:normal;writing-mode:lr-tb;fill:#000000;fill-opacity:1;fill-rule:nonzero;stroke:none;font-family:Helvetica;-inkscape-font-specification:Helvetica-Oblique">Y<tspan
   style="font-size:12.80000019px"
   id="tspan3986"
   dy="3.5595036">0</tspan></tspan></text>

</g></g></g><g
       transform="matrix(0.1,0,0,0.1,30.029218,0)"
       id="g4009"><g
         id="g4011"
         clip-path="url(#clipPath880)"><path
           d="m 1480,5510 c 0,-11.05 -8.95,-20 -20,-20 -11.05,0 -20,8.95 -20,20 0,11.05 8.95,20 20,20 11.05,0 20,-8.95 20,-20"
           style="fill:#000000;fill-opacity:1;fill-rule:nonzero;stroke:none"
           id="path4013" /></g></g><path
       style="color:#000000;fill:none;stroke:#000000;stroke-width:1.5;stroke-linecap:round;stroke-linejoin:miter;stroke-miterlimit:4;stroke-opacity:1;stroke-dasharray:none;stroke-dashoffset:0;marker:none;visibility:visible;display:inline;overflow:visible;enable-background:accumulate"
       d="m 478.74471,51.818271 0,-50.0705016 -401.065958,0 0,87.5044646 12.791966,0"
       id="path4015"
       transform="matrix(0.8,0,0,-0.8,113.69451,702.5)" /><path
       style="color:#000000;fill:none;stroke:#000000;stroke-width:1.5;stroke-linecap:round;stroke-linejoin:miter;stroke-miterlimit:4;stroke-opacity:1;stroke-dasharray:none;stroke-dashoffset:0;marker:none;visibility:visible;display:inline;overflow:visible;enable-background:accumulate"
       d="m 153.04886,89.375872 25.42651,0 0,224.940808"
       id="path4017"
       transform="matrix(0.8,0,0,-0.8,113.69451,702.5)"
       sodipodi:nodetypes="ccc" /><path
       id="path4019"
       d="m 335.85796,630.9993 29.41685,0 0,-179.95264"
       style="color:#000000;fill:none;stroke:#000000;stroke-width:1.2;stroke-linecap:round;stroke-linejoin:miter;stroke-miterlimit:4;stroke-opacity:1;stroke-dasharray:none;stroke-dashoffset:0;marker:none;visibility:visible;display:inline;overflow:visible;enable-background:accumulate"
       sodipodi:nodetypes="ccc" /><g
       id="g4021"
       transform="matrix(0.1,0,0,0.1,110.41658,-20.015659)"><g
         clip-path="url(#clipPath880)"
         id="g4023"><path
           id="path4025"
           style="fill:#000000;fill-opacity:1;fill-rule:nonzero;stroke:none"
           d="m 1480,5510 c 0,-11.05 -8.95,-20 -20,-20 -11.05,0 -20,8.95 -20,20 0,11.05 8.95,20 20,20 11.05,0 20,-8.95 20,-20" /></g></g><path
       style="color:#000000;fill:none;stroke:#000000;stroke-width:1.20000005;stroke-linecap:round;stroke-linejoin:miter;stroke-miterlimit:4;stroke-opacity:1;stroke-dasharray:none;stroke-dashoffset:0;marker:none;visibility:visible;display:inline;overflow:visible;enable-background:accumulate"
       d="m 256.66656,530.87905 159.56822,0 0,71.9428"
       id="path4027"
       sodipodi:nodetypes="ccc" /><g
       transform="matrix(0.1,0,0,0.1,219.27877,-59.972227)"
       id="g4029"><g
         id="g4031"
         clip-path="url(#clipPath880)"><path
           d="m 1480,5510 c 0,-11.05 -8.95,-20 -20,-20 -11.05,0 -20,8.95 -20,20 0,11.05 8.95,20 20,20 11.05,0 20,-8.95 20,-20"
           style="fill:#000000;fill-opacity:1;fill-rule:nonzero;stroke:none"
           id="path4033" /></g></g><path
       style="color:#000000;fill:none;stroke:#000000;stroke-width:1.5;stroke-linecap:round;stroke-linejoin:miter;stroke-miterlimit:4;stroke-opacity:1;stroke-dasharray:none;stroke-dashoffset:0;marker:none;visibility:visible;display:inline;overflow:visible;enable-background:accumulate"
       d="m 314.51552,264.26116 175.93588,0 0,-152.76203"
       id="path4035"
       transform="matrix(0.8,0,0,-0.8,113.69451,702.5)" /><path
       style="color:#000000;fill:none;stroke:#000000;stroke-width:1.5;stroke-linecap:round;stroke-linejoin:miter;stroke-miterlimit:4;stroke-opacity:1;stroke-dasharray:none;stroke-dashoffset:0;marker:none;visibility:visible;display:inline;overflow:visible;enable-background:accumulate"
       d="m 39.982786,239.40964 425.259534,0 0,-127.74828"
       id="path4037"
       transform="matrix(0.8,0,0,-0.8,113.69451,702.5)" /><path
       style="color:#000000;fill:none;stroke:#000000;stroke-width:1.5;stroke-linecap:round;stroke-linejoin:miter;stroke-miterlimit:4;stroke-opacity:1;stroke-dasharray:none;stroke-dashoffset:0;marker:none;visibility:visible;display:inline;overflow:visible;enable-background:accumulate"
       d="m 402.94694,239.14071 0,-114.84961"
       id="path4039"
       transform="matrix(0.8,0,0,-0.8,113.69451,702.5)" /><g
       id="g4041"
       transform="matrix(0.1,0,0,0.1,290.04175,-40.256125)"><g
         clip-path="url(#clipPath880)"
         id="g4043"><path
           id="path4045"
           style="fill:#000000;fill-opacity:1;fill-rule:nonzero;stroke:none"
           d="m 1480,5510 c 0,-11.05 -8.95,-20 -20,-20 -11.05,0 -20,8.95 -20,20 0,11.05 8.95,20 20,20 11.05,0 20,-8.95 20,-20" /></g></g><path
       style="color:#000000;fill:none;stroke:#000000;stroke-width:1.5;stroke-linecap:round;stroke-linejoin:miter;stroke-miterlimit:4;stroke-opacity:1;stroke-dasharray:none;stroke-dashoffset:0;marker:none;visibility:visible;display:inline;overflow:visible;enable-background:accumulate"
       d="m 215.31714,89.310326 -12.49959,0 0,-37.321646 187.61551,0 0,25.305847"
       id="path4049"
       transform="matrix(0.8,0,0,-0.8,113.69451,702.5)" /></g></svg>