<?xml version="1.0" encoding="UTF-8" standalone="no"?>
<!-- Created with Inkscape (http://www.inkscape.org/) -->

<svg
   xmlns:dc="http://purl.org/dc/elements/1.1/"
   xmlns:cc="http://creativecommons.org/ns#"
   xmlns:rdf="http://www.w3.org/1999/02/22-rdf-syntax-ns#"
   xmlns:svg="http://www.w3.org/2000/svg"
   xmlns="http://www.w3.org/2000/svg"
   xmlns:sodipodi="http://sodipodi.sourceforge.net/DTD/sodipodi-0.dtd"
   xmlns:inkscape="http://www.inkscape.org/namespaces/inkscape"
   id="svg6554"
   version="1.1"
   inkscape:version="0.47 r22583"
   width="279.95621"
   height="211.35059"
   xml:space="preserve"
   sodipodi:docname="exemplo3.svg"><metadata
     id="metadata6560"><rdf:RDF><cc:Work
         rdf:about=""><dc:format>image/svg+xml</dc:format><dc:type
           rdf:resource="http://purl.org/dc/dcmitype/StillImage" /><dc:title></dc:title></cc:Work></rdf:RDF></metadata><defs
     id="defs6558"><inkscape:perspective
       sodipodi:type="inkscape:persp3d"
       inkscape:vp_x="0 : 0.5 : 1"
       inkscape:vp_y="0 : 1000 : 0"
       inkscape:vp_z="1 : 0.5 : 1"
       inkscape:persp3d-origin="0.5 : 0.33333333 : 1"
       id="perspective6562" /><clipPath
       clipPathUnits="userSpaceOnUse"
       id="clipPath6660"><path
         d="m 0,0 4.979,0 0,4.979 L 0,4.979 0,0 z"
         id="path6662" /></clipPath><radialGradient
       fx="1.6207401"
       fy="3.5510099"
       cx="2.4893601"
       cy="2.4893601"
       r="2.4893601"
       gradientUnits="userSpaceOnUse"
       id="radialGradient6664"><stop
         style="stop-opacity:1;stop-color:#e0e0f4"
         offset="0"
         id="stop6666" /><stop
         style="stop-opacity:1;stop-color:#6666c6"
         offset="0.77208"
         id="stop6668" /><stop
         style="stop-opacity:1;stop-color:#24247d"
         offset="1.54417"
         id="stop6670" /><stop
         style="stop-opacity:1;stop-color:#191959"
         offset="2.12328"
         id="stop6672" /><stop
         style="stop-opacity:1;stop-color:#ffffff"
         offset="2.48936"
         id="stop6674" /></radialGradient><inkscape:perspective
       id="perspective3588"
       inkscape:persp3d-origin="250 : 60 : 1"
       inkscape:vp_z="500 : 90 : 1"
       inkscape:vp_y="0 : 1000 : 0"
       inkscape:vp_x="0 : 90 : 1"
       sodipodi:type="inkscape:persp3d" /><inkscape:perspective
       id="perspective7452"
       inkscape:persp3d-origin="0.5 : 0.33333333 : 1"
       inkscape:vp_z="1 : 0.5 : 1"
       inkscape:vp_y="0 : 1000 : 0"
       inkscape:vp_x="0 : 0.5 : 1"
       sodipodi:type="inkscape:persp3d" /></defs><sodipodi:namedview
     pagecolor="#ffffff"
     bordercolor="#666666"
     borderopacity="1"
     objecttolerance="10"
     gridtolerance="10"
     guidetolerance="10"
     inkscape:pageopacity="0"
     inkscape:pageshadow="2"
     inkscape:window-width="1024"
     inkscape:window-height="696"
     id="namedview6556"
     showgrid="true"
     inkscape:zoom="1.4142136"
     inkscape:cx="90.273001"
     inkscape:cy="54.884863"
     inkscape:window-x="0"
     inkscape:window-y="25"
     inkscape:window-maximized="1"
     inkscape:current-layer="g6564"><inkscape:grid
       type="xygrid"
       id="grid6902"
       empspacing="5"
       visible="true"
       enabled="true"
       snapvisiblegridlinesonly="true" /></sodipodi:namedview><g
     id="g6564"
     inkscape:groupmode="layer"
     inkscape:label="aula12"
     transform="matrix(1.25,0,0,-1.25,-61.391999,241.88401)"><g
       id="g3364"
       transform="matrix(0.8,0,0,-0.8,223.30194,129.00934)"><path
         id="path3349"
         d="m 17.872575,43.261671 12.999996,0"
         style="fill:none;stroke:#000000;stroke-width:0.69999999;stroke-linecap:round;stroke-linejoin:miter;stroke-miterlimit:4;stroke-opacity:1;stroke-dasharray:none"
         sodipodi:nodetypes="cc" /><path
         style="fill:none;stroke:#000000;stroke-width:0.69999999;stroke-linecap:round;stroke-linejoin:miter;stroke-miterlimit:4;stroke-opacity:1;stroke-dasharray:none"
         d="m 17.872575,55.561569 12.999996,0"
         id="use1318"
         sodipodi:nodetypes="cc" /><path
         style="fill:none;stroke:#000000;stroke-width:0.69999999;stroke-linecap:round;stroke-linejoin:miter;stroke-miterlimit:4;stroke-opacity:1;stroke-dasharray:none"
         d="m 44.051707,49.41162 17.819083,0"
         id="use2208" /><path
         sodipodi:nodetypes="czscs"
         d="m 23.094251,61.908627 c -0.01971,8.63e-4 5.904421,-1.172546 5.904421,-12.497007 0,-11.435945 -5.904856,-12.49706 -5.904421,-12.497007 9.538284,1.145471 15.750332,-0.476745 22.314958,12.497008 C 40.514314,60.883013 34.094862,61.42751 23.094251,61.908627 z"
         style="fill:#ffffff;fill-opacity:1;fill-rule:evenodd;stroke:#000000;stroke-width:1;stroke-linecap:butt;stroke-linejoin:round;stroke-miterlimit:4;stroke-opacity:1;stroke-dasharray:none;stroke-dashoffset:0"
         id="path3353" /></g><text
       xml:space="preserve"
       style="font-size:11.19999981px;font-style:normal;font-variant:normal;font-weight:normal;font-stretch:normal;fill:#000000;fill-opacity:1;stroke:none;font-family:LMSans10;-inkscape-font-specification:LMSans10"
       x="48.799999"
       y="-185.60001"
       id="text6888"
       transform="scale(1,-1)"><tspan
         sodipodi:role="line"
         id="tspan6890"
         x="48.799999"
         y="-185.60001"
         style="font-style:italic">A B C D</tspan></text>
<path
       style="fill:#ffffff;fill-opacity:1;stroke:#000000;stroke-width:0.56;stroke-linecap:butt;stroke-miterlimit:4;stroke-opacity:1;stroke-dasharray:none;stroke-dashoffset:0"
       d="M 52,184 52,24.706734"
       id="path6892" /><path
       id="path6894"
       d="M 64,184 64,24.706735"
       style="fill:#ffffff;fill-opacity:1;stroke:#000000;stroke-width:0.56;stroke-linecap:butt;stroke-miterlimit:4;stroke-opacity:1;stroke-dasharray:none;stroke-dashoffset:0" /><path
       style="fill:#ffffff;fill-opacity:1;stroke:#000000;stroke-width:0.56;stroke-linecap:butt;stroke-miterlimit:4;stroke-opacity:1;stroke-dasharray:none;stroke-dashoffset:0"
       d="M 76,184 76,24.706735"
       id="path6900" /><path
       id="path6904"
       d="M 88,184 88,24.706734"
       style="fill:#ffffff;fill-opacity:1;stroke:#000000;stroke-width:0.56;stroke-linecap:butt;stroke-miterlimit:4;stroke-opacity:1;stroke-dasharray:none;stroke-dashoffset:0" /><g
       transform="matrix(0.8,0,0,-0.8,91.301943,192.44925)"
       id="g7416"><path
         style="fill:none;stroke:#000000;stroke-width:0.69999999;stroke-linecap:round;stroke-linejoin:miter;stroke-miterlimit:4;stroke-opacity:1;stroke-dasharray:none"
         d="m -49.127429,43.261671 73.037066,0"
         id="path7418"
         sodipodi:nodetypes="cc" /><path
         id="path7420"
         d="m -34.127429,53.141749 59,0"
         style="fill:none;stroke:#000000;stroke-width:0.69999999;stroke-linecap:round;stroke-linejoin:miter;stroke-miterlimit:4;stroke-opacity:1;stroke-dasharray:none"
         sodipodi:nodetypes="cc" /><path
         id="path7422"
         d="m 55.872571,52.561564 39,0 0,17 1,0"
         style="fill:none;stroke:#000000;stroke-width:0.69999999;stroke-linecap:round;stroke-linejoin:miter;stroke-miterlimit:4;stroke-opacity:1;stroke-dasharray:none"
         sodipodi:nodetypes="cccc" /><path
         id="path7424"
         style="fill:#ffffff;fill-opacity:1;fill-rule:evenodd;stroke:#000000;stroke-width:0.99999982;stroke-linecap:butt;stroke-linejoin:round;stroke-miterlimit:4;stroke-opacity:1;stroke-dasharray:none;stroke-dashoffset:0"
         d="m 24.59767,70.561558 c -0.02793,0.0013 8.368998,-1.66198 8.368998,-17.713409 0,-16.209449 -8.369614,-17.713485 -8.368998,-17.71341 C 38.117351,36.758343 46.922382,34.458994 56.227164,52.84815 49.28908,69.107841 40.190071,69.879617 24.59767,70.561558 z"
         sodipodi:nodetypes="czscs" /><path
         id="path7428"
         style="fill:none;stroke:#000000;stroke-width:0.99999982;stroke-linecap:round;stroke-linejoin:round;stroke-miterlimit:4;stroke-opacity:1;stroke-dasharray:none;stroke-dashoffset:0"
         d="m 16.287546,70.134736 c -0.03061,0.0013 9.166761,-1.621935 9.166761,-17.286587 0,-15.818865 -9.167438,-17.28666 -9.166761,-17.28659"
         sodipodi:nodetypes="czs" /><path
         sodipodi:nodetypes="cc"
         style="fill:none;stroke:#000000;stroke-width:0.69999999;stroke-linecap:round;stroke-linejoin:miter;stroke-miterlimit:4;stroke-opacity:1;stroke-dasharray:none"
         d="m -19.127429,62.561564 43,0"
         id="path7430" /></g><g
       id="g7483"
       transform="translate(0,-20.8)"><path
         id="path7490"
         d="m 64,85.907149 82.42619,0"
         style="fill:none;stroke:#000000;stroke-width:0.55999994;stroke-linecap:round;stroke-linejoin:miter;stroke-miterlimit:4;stroke-opacity:1;stroke-dasharray:none"
         sodipodi:nodetypes="cc" /><path
         style="fill:none;stroke:#000000;stroke-width:0.55999994;stroke-linecap:round;stroke-linejoin:miter;stroke-miterlimit:4;stroke-opacity:1;stroke-dasharray:none"
         d="m 76,74.707149 70.42619,0"
         id="path7492"
         sodipodi:nodetypes="cc" /><path
         style="fill:none;stroke:#000000;stroke-width:0.55999994;stroke-linecap:round;stroke-linejoin:miter;stroke-miterlimit:4;stroke-opacity:1;stroke-dasharray:none"
         d="m 52,97.107149 94.42619,0"
         id="path7434"
         sodipodi:nodetypes="cc" /><path
         id="path7436"
         d="m 88,62.399999 58.42619,0"
         style="fill:none;stroke:#000000;stroke-width:0.55999994;stroke-linecap:round;stroke-linejoin:miter;stroke-miterlimit:4;stroke-opacity:1;stroke-dasharray:none"
         sodipodi:nodetypes="cc" /><path
         id="path7438"
         d="m 170.4,80.000003 67.2,0 0,25.306157"
         style="fill:none;stroke:#000000;stroke-width:0.55999994;stroke-linecap:round;stroke-linejoin:miter;stroke-miterlimit:4;stroke-opacity:1;stroke-dasharray:none"
         sodipodi:nodetypes="ccc" /><path
         id="path7440"
         style="fill:#ffffff;fill-opacity:1;fill-rule:evenodd;stroke:#000000;stroke-width:0.80000001;stroke-linecap:butt;stroke-linejoin:round;stroke-miterlimit:4;stroke-opacity:1;stroke-dasharray:none;stroke-dashoffset:0"
         d="m 148.79999,55.999999 -17.9313,1.8e-5 0,47.999983 18.04699,1e-5 c 9.78238,1e-5 17.81561,-10.751996 17.81561,-24.000001 0,-13.248006 -8.03323,-24.00001 -17.9313,-24.00001 z"
         sodipodi:nodetypes="ccccsc" /><path
         sodipodi:type="arc"
         style="fill:#ffffff;fill-opacity:1;fill-rule:evenodd;stroke:#000000;stroke-width:6.34151602;stroke-linecap:round;stroke-linejoin:round;stroke-miterlimit:4;stroke-opacity:1;stroke-dasharray:none;stroke-dashoffset:0"
         id="path3393-4"
         sodipodi:cx="285.3176"
         sodipodi:cy="89.843887"
         sodipodi:rx="20.152544"
         sodipodi:ry="20.152544"
         d="m 305.47014,89.843887 c 0,11.129943 -9.0226,20.152543 -20.15254,20.152543 -11.12995,0 -20.15255,-9.0226 -20.15255,-20.152543 0,-11.129942 9.0226,-20.152544 20.15255,-20.152544 11.12994,0 20.15254,9.022602 20.15254,20.152544 z"
         transform="matrix(0.1261528,0,0,-0.1261528,133.74869,91.334057)" /></g><g
       id="g7505"
       transform="translate(-0.55203133,-30.72944)"><path
         id="path7498"
         style="fill:#ffffff;fill-opacity:1;fill-rule:evenodd;stroke:#000000;stroke-width:0.79999995;stroke-linecap:round;stroke-linejoin:round;stroke-miterlimit:4;stroke-opacity:1;stroke-dasharray:none;stroke-dashoffset:0"
         d="M 100,101.98335 100,112 108.44793,106.99167 100,101.98335 z"
         sodipodi:nodetypes="cccc" /><path
         sodipodi:type="arc"
         style="fill:#ffffff;fill-opacity:1;fill-rule:evenodd;stroke:#000000;stroke-width:7.49154329;stroke-linecap:round;stroke-linejoin:round;stroke-miterlimit:4;stroke-opacity:1;stroke-dasharray:none;stroke-dashoffset:0"
         id="path7500"
         sodipodi:cx="285.3176"
         sodipodi:cy="89.843887"
         sodipodi:rx="20.152544"
         sodipodi:ry="20.152544"
         d="m 305.47014,89.843887 c 0,11.129943 -9.0226,20.152543 -20.15254,20.152543 -11.12995,0 -20.15255,-9.0226 -20.15255,-20.152543 0,-11.129942 9.0226,-20.152544 20.15255,-20.152544 11.12994,0 20.15254,9.022602 20.15254,20.152544 z"
         transform="matrix(0.10678708,0,0,-0.10678708,79.931767,116.58584)" /></g><g
       transform="translate(-0.55203133,-65.391675)"
       id="g7509"><path
         sodipodi:nodetypes="cccc"
         d="M 100,101.98335 100,112 108.44793,106.99167 100,101.98335 z"
         style="fill:#ffffff;fill-opacity:1;fill-rule:evenodd;stroke:#000000;stroke-width:0.79999995;stroke-linecap:round;stroke-linejoin:round;stroke-miterlimit:4;stroke-opacity:1;stroke-dasharray:none;stroke-dashoffset:0"
         id="path7511" /><path
         transform="matrix(0.10678708,0,0,-0.10678708,79.931767,116.58584)"
         d="m 305.47014,89.843887 c 0,11.129943 -9.0226,20.152543 -20.15254,20.152543 -11.12995,0 -20.15255,-9.0226 -20.15255,-20.152543 0,-11.129942 9.0226,-20.152544 20.15255,-20.152544 11.12994,0 20.15254,9.022602 20.15254,20.152544 z"
         sodipodi:ry="20.152544"
         sodipodi:rx="20.152544"
         sodipodi:cy="89.843887"
         sodipodi:cx="285.3176"
         id="path7513"
         style="fill:#ffffff;fill-opacity:1;fill-rule:evenodd;stroke:#000000;stroke-width:7.49154329;stroke-linecap:round;stroke-linejoin:round;stroke-miterlimit:4;stroke-opacity:1;stroke-dasharray:none;stroke-dashoffset:0"
         sodipodi:type="arc" /></g><g
       transform="matrix(0.8,0,0,-0.8,95.301943,148.44925)"
       id="g7515"><path
         style="fill:none;stroke:#000000;stroke-width:0.69999999;stroke-linecap:round;stroke-linejoin:miter;stroke-miterlimit:4;stroke-opacity:1;stroke-dasharray:none"
         d="m -39.127429,43.261671 70,0"
         id="path7517"
         sodipodi:nodetypes="cc" /><path
         id="path7519"
         d="m -9.1274287,55.561569 39.9999997,0"
         style="fill:none;stroke:#000000;stroke-width:0.69999999;stroke-linecap:round;stroke-linejoin:miter;stroke-miterlimit:4;stroke-opacity:1;stroke-dasharray:none"
         sodipodi:nodetypes="cc" /><path
         id="path7521"
         d="m 44.051707,49.41162 45.819083,0 0.0018,-12.871666 0.999981,0.02161"
         style="fill:none;stroke:#000000;stroke-width:0.69999999;stroke-linecap:round;stroke-linejoin:miter;stroke-miterlimit:4;stroke-opacity:1;stroke-dasharray:none"
         sodipodi:nodetypes="cccc" /><path
         id="path7523"
         style="fill:#ffffff;fill-opacity:1;fill-rule:evenodd;stroke:#000000;stroke-width:1;stroke-linecap:butt;stroke-linejoin:round;stroke-miterlimit:4;stroke-opacity:1;stroke-dasharray:none;stroke-dashoffset:0"
         d="m 23.094251,61.908627 c -0.01971,8.63e-4 5.904421,-1.172546 5.904421,-12.497007 0,-11.435945 -5.904856,-12.49706 -5.904421,-12.497007 9.538284,1.145471 15.750332,-0.476745 22.314958,12.497008 C 40.514314,60.883013 34.094862,61.42751 23.094251,61.908627 z"
         sodipodi:nodetypes="czscs" /><path
         sodipodi:type="arc"
         style="fill:#ffffff;fill-opacity:1;fill-rule:evenodd;stroke:#000000;stroke-width:6.34151602;stroke-linecap:round;stroke-linejoin:round;stroke-miterlimit:4;stroke-opacity:1;stroke-dasharray:none;stroke-dashoffset:0"
         id="path7525"
         sodipodi:cx="285.3176"
         sodipodi:cy="89.843887"
         sodipodi:rx="20.152544"
         sodipodi:ry="20.152544"
         d="m 305.47014,89.843887 c 0,11.129943 -9.0226,20.152543 -20.15254,20.152543 -11.12995,0 -20.15255,-9.0226 -20.15255,-20.152543 0,-11.129942 9.0226,-20.152544 20.15255,-20.152544 11.12994,0 20.15254,9.022602 20.15254,20.152544 z"
         transform="matrix(0.157691,0,0,0.157691,3.6937498,35.244048)" /></g><g
       id="g7529"
       transform="matrix(1.7771199,0,0,1.7771199,-171.78785,-177.66462)"><path
         style="fill:none;stroke:#000000;stroke-width:0.31511661;stroke-linecap:round;stroke-linejoin:miter;stroke-miterlimit:4;stroke-opacity:1;stroke-dasharray:none"
         d="m 191.20142,176.91996 14.25527,0"
         id="path7531" /><path
         id="path7533"
         d="m 191.20142,167.08004 14.25527,0"
         style="fill:none;stroke:#000000;stroke-width:0.31511661;stroke-linecap:round;stroke-linejoin:miter;stroke-miterlimit:4;stroke-opacity:1;stroke-dasharray:none" /><path
         id="path7535"
         d="m 216,172 14.36591,0 0,-18.907"
         style="fill:none;stroke:#000000;stroke-width:0.31511661;stroke-linecap:round;stroke-linejoin:miter;stroke-miterlimit:4;stroke-opacity:1;stroke-dasharray:none"
         sodipodi:nodetypes="ccc" /><path
         id="path7537"
         style="fill:#ffffff;fill-opacity:1;fill-rule:evenodd;stroke:#000000;stroke-width:0.45016658;stroke-linecap:butt;stroke-linejoin:round;stroke-miterlimit:4;stroke-opacity:1;stroke-dasharray:none;stroke-dashoffset:0"
         d="m 208.23205,161.78162 -8.99469,1e-5 0,19.99521 9.05272,0 c 4.90704,1e-5 8.93667,-4.47892 8.93667,-9.99761 0,-5.51868 -4.02963,-9.99761 -8.9947,-9.99761 z"
         sodipodi:nodetypes="ccccsc" /></g><path
       sodipodi:type="arc"
       style="fill:#000000;fill-opacity:1;stroke:#000000;stroke-width:0.69999999000000002;stroke-linecap:butt;stroke-miterlimit:4;stroke-opacity:1;stroke-dasharray:none;stroke-dashoffset:0"
       id="path7562"
       sodipodi:cx="3.6665804"
       sodipodi:cy="44.582287"
       sodipodi:rx="1.2317001"
       sodipodi:ry="1.2317001"
       d="m 4.8982805,44.582287 a 1.2317001,1.2317001 0 1 1 -2.4634001,0 1.2317001,1.2317001 0 1 1 2.4634001,0 z"
       transform="matrix(0.8,0,0,-0.8,49.113599,193.50721)" /><path
       transform="matrix(0.8,0,0,-0.8,61.138801,185.69257)"
       d="m 4.8982805,44.582287 a 1.2317001,1.2317001 0 1 1 -2.4634001,0 1.2317001,1.2317001 0 1 1 2.4634001,0 z"
       sodipodi:ry="1.2317001"
       sodipodi:rx="1.2317001"
       sodipodi:cy="44.582287"
       sodipodi:cx="3.6665804"
       id="path7564"
       style="fill:#000000;fill-opacity:1;stroke:#000000;stroke-width:0.69999999;stroke-linecap:butt;stroke-miterlimit:4;stroke-opacity:1;stroke-dasharray:none;stroke-dashoffset:0"
       sodipodi:type="arc" /><path
       sodipodi:type="arc"
       style="fill:#000000;fill-opacity:1;stroke:#000000;stroke-width:0.69999999;stroke-linecap:butt;stroke-miterlimit:4;stroke-opacity:1;stroke-dasharray:none;stroke-dashoffset:0"
       id="path7566"
       sodipodi:cx="3.6665804"
       sodipodi:cy="44.582287"
       sodipodi:rx="1.2317001"
       sodipodi:ry="1.2317001"
       d="m 4.8982805,44.582287 a 1.2317001,1.2317001 0 1 1 -2.4634001,0 1.2317001,1.2317001 0 1 1 2.4634001,0 z"
       transform="matrix(0.8,0,0,-0.8,73.082475,178.11971)" /><path
       sodipodi:type="arc"
       style="fill:#000000;fill-opacity:1;stroke:#000000;stroke-width:0.69999999;stroke-linecap:butt;stroke-miterlimit:4;stroke-opacity:1;stroke-dasharray:none;stroke-dashoffset:0"
       id="path7568"
       sodipodi:cx="3.6665804"
       sodipodi:cy="44.582287"
       sodipodi:rx="1.2317001"
       sodipodi:ry="1.2317001"
       d="m 4.8982805,44.582287 a 1.2317001,1.2317001 0 1 1 -2.4634001,0 1.2317001,1.2317001 0 1 1 2.4634001,0 z"
       transform="matrix(0.8,0,0,-0.8,61.138801,149.50721)" /><path
       transform="matrix(0.8,0,0,-0.8,84.992835,139.77168)"
       d="m 4.8982805,44.582287 a 1.2317001,1.2317001 0 1 1 -2.4634001,0 1.2317001,1.2317001 0 1 1 2.4634001,0 z"
       sodipodi:ry="1.2317001"
       sodipodi:rx="1.2317001"
       sodipodi:cy="44.582287"
       sodipodi:cx="3.6665804"
       id="path7570"
       style="fill:#000000;fill-opacity:1;stroke:#000000;stroke-width:0.69999999;stroke-linecap:butt;stroke-miterlimit:4;stroke-opacity:1;stroke-dasharray:none;stroke-dashoffset:0"
       sodipodi:type="arc" /><path
       transform="matrix(0.8,0,0,-0.8,49.113599,111.90721)"
       d="m 4.8982805,44.582287 a 1.2317001,1.2317001 0 1 1 -2.4634001,0 1.2317001,1.2317001 0 1 1 2.4634001,0 z"
       sodipodi:ry="1.2317001"
       sodipodi:rx="1.2317001"
       sodipodi:cy="44.582287"
       sodipodi:cx="3.6665804"
       id="path7572"
       style="fill:#000000;fill-opacity:1;stroke:#000000;stroke-width:0.69999999;stroke-linecap:butt;stroke-miterlimit:4;stroke-opacity:1;stroke-dasharray:none;stroke-dashoffset:0"
       sodipodi:type="arc" /><path
       sodipodi:type="arc"
       style="fill:#000000;fill-opacity:1;stroke:#000000;stroke-width:0.69999999;stroke-linecap:butt;stroke-miterlimit:4;stroke-opacity:1;stroke-dasharray:none;stroke-dashoffset:0"
       id="path7574"
       sodipodi:cx="3.6665804"
       sodipodi:cy="44.582287"
       sodipodi:rx="1.2317001"
       sodipodi:ry="1.2317001"
       d="m 4.8982805,44.582287 a 1.2317001,1.2317001 0 1 1 -2.4634001,0 1.2317001,1.2317001 0 1 1 2.4634001,0 z"
       transform="matrix(0.8,0,0,-0.8,61.138801,100.89257)" /><path
       transform="matrix(0.8,0,0,-0.8,73.082475,89.692569)"
       d="m 4.8982805,44.582287 a 1.2317001,1.2317001 0 1 1 -2.4634001,0 1.2317001,1.2317001 0 1 1 2.4634001,0 z"
       sodipodi:ry="1.2317001"
       sodipodi:rx="1.2317001"
       sodipodi:cy="44.582287"
       sodipodi:cx="3.6665804"
       id="path7576"
       style="fill:#000000;fill-opacity:1;stroke:#000000;stroke-width:0.69999999;stroke-linecap:butt;stroke-miterlimit:4;stroke-opacity:1;stroke-dasharray:none;stroke-dashoffset:0"
       sodipodi:type="arc" /><path
       sodipodi:type="arc"
       style="fill:#000000;fill-opacity:1;stroke:#000000;stroke-width:0.69999999;stroke-linecap:butt;stroke-miterlimit:4;stroke-opacity:1;stroke-dasharray:none;stroke-dashoffset:0"
       id="path7578"
       sodipodi:cx="3.6665804"
       sodipodi:cy="44.582287"
       sodipodi:rx="1.2317001"
       sodipodi:ry="1.2317001"
       d="m 4.8982805,44.582287 a 1.2317001,1.2317001 0 1 1 -2.4634001,0 1.2317001,1.2317001 0 1 1 2.4634001,0 z"
       transform="matrix(0.8,0,0,-0.8,84.992835,77.263885)" /><text
       xml:space="preserve"
       style="font-size:11.19999981px;font-style:normal;font-variant:normal;font-weight:normal;font-stretch:normal;fill:#000000;fill-opacity:1;stroke:none;font-family:LMSans10;-inkscape-font-specification:LMSans10"
       x="265.11359"
       y="-78.826736"
       id="text7580"
       transform="scale(1,-1)"><tspan
         sodipodi:role="line"
         id="tspan7582"
         x="265.11359"
         y="-78.826736"
         style="font-style:italic">E</tspan></text>
</g></svg>