<?xml version="1.0" encoding="UTF-8" standalone="no"?>
<!-- Created with Inkscape (http://www.inkscape.org/) -->

<svg
   xmlns:dc="http://purl.org/dc/elements/1.1/"
   xmlns:cc="http://creativecommons.org/ns#"
   xmlns:rdf="http://www.w3.org/1999/02/22-rdf-syntax-ns#"
   xmlns:svg="http://www.w3.org/2000/svg"
   xmlns="http://www.w3.org/2000/svg"
   xmlns:sodipodi="http://sodipodi.sourceforge.net/DTD/sodipodi-0.dtd"
   xmlns:inkscape="http://www.inkscape.org/namespaces/inkscape"
   id="svg2"
   version="1.1"
   inkscape:version="0.47 r22583"
   width="736.47797"
   height="541.20575"
   xml:space="preserve"
   sodipodi:docname="exemplo2.svg"><metadata
     id="metadata8"><rdf:RDF><cc:Work
         rdf:about=""><dc:format>image/svg+xml</dc:format><dc:type
           rdf:resource="http://purl.org/dc/dcmitype/StillImage" /><dc:title></dc:title></cc:Work></rdf:RDF></metadata><defs
     id="defs6"><inkscape:perspective
       sodipodi:type="inkscape:persp3d"
       inkscape:vp_x="0 : 0.5 : 1"
       inkscape:vp_y="0 : 1000 : 0"
       inkscape:vp_z="1 : 0.5 : 1"
       inkscape:persp3d-origin="0.5 : 0.33333333 : 1"
       id="perspective10" /><clipPath
       clipPathUnits="userSpaceOnUse"
       id="clipPath20"><path
         d="m 720,7200 4680,0 0,-6480 -4680,0 0,6480 z"
         id="path22" /></clipPath><clipPath
       clipPathUnits="userSpaceOnUse"
       id="clipPath34"><path
         d="m 1255,6570 0,-200 0,-15 30,0 0,15 0,200 0,15 -30,0 0,-15 z"
         id="path36" /></clipPath><clipPath
       clipPathUnits="userSpaceOnUse"
       id="clipPath44"><path
         d="m 1070,4355 800,0 15,0 0,30 -15,0 -800,0 -15,0 0,-30 15,0 z"
         id="path46" /></clipPath><clipPath
       clipPathUnits="userSpaceOnUse"
       id="clipPath54"><path
         d="m 2170,4355 100,0 15,0 0,30 -15,0 -100,0 -15,0 0,-30 15,0 z"
         id="path56" /></clipPath><clipPath
       clipPathUnits="userSpaceOnUse"
       id="clipPath64"><path
         d="m 2170,6355 100,0 15,0 0,30 -15,0 -100,0 -15,0 0,-30 15,0 z"
         id="path66" /></clipPath><clipPath
       clipPathUnits="userSpaceOnUse"
       id="clipPath74"><path
         d="m 2570,3555 800,0 15,0 0,30 -15,0 -800,0 -15,0 0,-30 15,0 z"
         id="path76" /></clipPath><clipPath
       clipPathUnits="userSpaceOnUse"
       id="clipPath84"><path
         d="m 3355,6270 0,-1200 0,-15 30,0 0,15 0,1200 0,15 -30,0 0,-15 z"
         id="path86" /></clipPath><clipPath
       clipPathUnits="userSpaceOnUse"
       id="clipPath94"><path
         d="m 1255,6370 0,-800 0,-15 30,0 0,15 0,800 0,15 -30,0 0,-15 z"
         id="path96" /></clipPath><clipPath
       clipPathUnits="userSpaceOnUse"
       id="clipPath104"><path
         d="m 2170,5755 100,0 15,0 0,30 -15,0 -100,0 -15,0 0,-30 15,0 z"
         id="path106" /></clipPath><clipPath
       clipPathUnits="userSpaceOnUse"
       id="clipPath114"><path
         d="m 3170,4755 400,0 15,0 0,30 -15,0 -400,0 -15,0 0,-30 15,0 z"
         id="path116" /></clipPath><clipPath
       clipPathUnits="userSpaceOnUse"
       id="clipPath124"><path
         d="m 2170,4655 100,0 15,0 0,30 -15,0 -100,0 -15,0 0,-30 15,0 z"
         id="path126" /></clipPath><clipPath
       clipPathUnits="userSpaceOnUse"
       id="clipPath134"><path
         d="m 2970,6255 400,0 15,0 0,30 -15,0 -400,0 -15,0 0,-30 15,0 z"
         id="path136" /></clipPath><clipPath
       clipPathUnits="userSpaceOnUse"
       id="clipPath144"><path
         d="m 3370,5055 200,0 15,0 0,30 -15,0 -200,0 -15,0 0,-30 15,0 z"
         id="path146" /></clipPath><clipPath
       clipPathUnits="userSpaceOnUse"
       id="clipPath154"><path
         d="m 1455,4870 0,-700 0,-15 30,0 0,15 0,700 0,15 -30,0 0,-15 z"
         id="path156" /></clipPath><clipPath
       clipPathUnits="userSpaceOnUse"
       id="clipPath164"><path
         d="m 1670,3955 600,0 15,0 0,30 -15,0 -600,0 -15,0 0,-30 15,0 z"
         id="path166" /></clipPath><clipPath
       clipPathUnits="userSpaceOnUse"
       id="clipPath174"><path
         d="m 1670,5355 600,0 15,0 0,30 -15,0 -600,0 -15,0 0,-30 15,0 z"
         id="path176" /></clipPath><clipPath
       clipPathUnits="userSpaceOnUse"
       id="clipPath184"><path
         d="m 2770,4855 800,0 15,0 0,30 -15,0 -800,0 -15,0 0,-30 15,0 z"
         id="path186" /></clipPath><clipPath
       clipPathUnits="userSpaceOnUse"
       id="clipPath194"><path
         d="m 1470,4155 800,0 15,0 0,30 -15,0 -800,0 -15,0 0,-30 15,0 z"
         id="path196" /></clipPath><clipPath
       clipPathUnits="userSpaceOnUse"
       id="clipPath204"><path
         d="m 1270,3655 1000,0 15,0 0,30 -15,0 -1000,0 -15,0 0,-30 15,0 z"
         id="path206" /></clipPath><clipPath
       clipPathUnits="userSpaceOnUse"
       id="clipPath214"><path
         d="m 3355,4670 0,-1100 0,-15 30,0 0,15 0,1100 0,15 -30,0 0,-15 z"
         id="path216" /></clipPath><clipPath
       clipPathUnits="userSpaceOnUse"
       id="clipPath224"><path
         d="m 4270,4855 300,0 15,0 0,30 -15,0 -300,0 -15,0 0,-30 15,0 z"
         id="path226" /></clipPath><clipPath
       clipPathUnits="userSpaceOnUse"
       id="clipPath234"><path
         d="m 1670,4655 200,0 15,0 0,30 -15,0 -200,0 -15,0 0,-30 15,0 z"
         id="path236" /></clipPath><clipPath
       clipPathUnits="userSpaceOnUse"
       id="clipPath244"><path
         d="m 1070,5055 1200,0 15,0 0,30 -15,0 -1200,0 -15,0 0,-30 15,0 z"
         id="path246" /></clipPath><clipPath
       clipPathUnits="userSpaceOnUse"
       id="clipPath254"><path
         d="m 3155,4770 0,-600 0,-15 30,0 0,15 0,600 0,15 -30,0 0,-15 z"
         id="path256" /></clipPath><clipPath
       clipPathUnits="userSpaceOnUse"
       id="clipPath264"><path
         d="m 1270,5555 1000,0 15,0 0,30 -15,0 -1000,0 -15,0 0,-30 15,0 z"
         id="path266" /></clipPath><clipPath
       clipPathUnits="userSpaceOnUse"
       id="clipPath274"><path
         d="m 1655,5370 0,-700 0,-15 30,0 0,15 0,700 0,15 -30,0 0,-15 z"
         id="path276" /></clipPath><clipPath
       clipPathUnits="userSpaceOnUse"
       id="clipPath284"><path
         d="m 1055,6470 0,-700 0,-15 30,0 0,15 0,700 0,15 -30,0 0,-15 z"
         id="path286" /></clipPath><clipPath
       clipPathUnits="userSpaceOnUse"
       id="clipPath294"><path
         d="m 1655,4670 0,-700 0,-15 30,0 0,15 0,700 0,15 -30,0 0,-15 z"
         id="path296" /></clipPath><clipPath
       clipPathUnits="userSpaceOnUse"
       id="clipPath304"><path
         d="m 1455,3470 0,-400 0,-15 30,0 0,15 0,400 0,15 -30,0 0,-15 z"
         id="path306" /></clipPath><clipPath
       clipPathUnits="userSpaceOnUse"
       id="clipPath314"><path
         d="m 1070,5755 800,0 15,0 0,30 -15,0 -800,0 -15,0 0,-30 15,0 z"
         id="path316" /></clipPath><clipPath
       clipPathUnits="userSpaceOnUse"
       id="clipPath324"><path
         d="m 1255,5570 0,-1900 0,-15 30,0 0,15 0,1900 0,15 -30,0 0,-15 z"
         id="path326" /></clipPath><clipPath
       clipPathUnits="userSpaceOnUse"
       id="clipPath334"><path
         d="m 3370,4655 200,0 15,0 0,30 -15,0 -200,0 -15,0 0,-30 15,0 z"
         id="path336" /></clipPath><clipPath
       clipPathUnits="userSpaceOnUse"
       id="clipPath344"><path
         d="m 1055,6570 0,-100 0,-15 30,0 0,15 0,100 0,15 -30,0 0,-15 z"
         id="path346" /></clipPath><clipPath
       clipPathUnits="userSpaceOnUse"
       id="clipPath354"><path
         d="m 1455,6570 0,-400 0,-15 30,0 0,15 0,400 0,15 -30,0 0,-15 z"
         id="path356" /></clipPath><clipPath
       clipPathUnits="userSpaceOnUse"
       id="clipPath364"><path
         d="m 1455,4170 0,-700 0,-15 30,0 0,15 0,700 0,15 -30,0 0,-15 z"
         id="path366" /></clipPath><clipPath
       clipPathUnits="userSpaceOnUse"
       id="clipPath374"><path
         d="m 1670,6055 600,0 15,0 0,30 -15,0 -600,0 -15,0 0,-30 15,0 z"
         id="path376" /></clipPath><clipPath
       clipPathUnits="userSpaceOnUse"
       id="clipPath384"><path
         d="m 1655,6570 0,-500 0,-15 30,0 0,15 0,500 0,15 -30,0 0,-15 z"
         id="path386" /></clipPath><clipPath
       clipPathUnits="userSpaceOnUse"
       id="clipPath394"><path
         d="m 2170,6155 100,0 15,0 0,30 -15,0 -100,0 -15,0 0,-30 15,0 z"
         id="path396" /></clipPath><clipPath
       clipPathUnits="userSpaceOnUse"
       id="clipPath404"><path
         d="m 1055,5770 0,-700 0,-15 30,0 0,15 0,700 0,15 -30,0 0,-15 z"
         id="path406" /></clipPath><clipPath
       clipPathUnits="userSpaceOnUse"
       id="clipPath414"><path
         d="m 1255,3670 0,-600 0,-15 30,0 0,15 0,600 0,15 -30,0 0,-15 z"
         id="path416" /></clipPath><clipPath
       clipPathUnits="userSpaceOnUse"
       id="clipPath424"><path
         d="m 1470,4855 800,0 15,0 0,30 -15,0 -800,0 -15,0 0,-30 15,0 z"
         id="path426" /></clipPath><clipPath
       clipPathUnits="userSpaceOnUse"
       id="clipPath434"><path
         d="m 1455,6170 0,-1300 0,-15 30,0 0,15 0,1300 0,15 -30,0 0,-15 z"
         id="path436" /></clipPath><clipPath
       clipPathUnits="userSpaceOnUse"
       id="clipPath444"><path
         d="m 1055,5070 0,-700 0,-15 30,0 0,15 0,700 0,15 -30,0 0,-15 z"
         id="path446" /></clipPath><clipPath
       clipPathUnits="userSpaceOnUse"
       id="clipPath454"><path
         d="m 1655,3970 0,-900 0,-15 30,0 0,15 0,900 0,15 -30,0 0,-15 z"
         id="path456" /></clipPath><clipPath
       clipPathUnits="userSpaceOnUse"
       id="clipPath464"><path
         d="m 1055,4370 0,-1300 0,-15 30,0 0,15 0,1300 0,15 -30,0 0,-15 z"
         id="path466" /></clipPath><clipPath
       clipPathUnits="userSpaceOnUse"
       id="clipPath474"><path
         d="m 2770,5555 400,0 15,0 0,30 -15,0 -400,0 -15,0 0,-30 15,0 z"
         id="path476" /></clipPath><clipPath
       clipPathUnits="userSpaceOnUse"
       id="clipPath484"><path
         d="m 1270,6355 600,0 15,0 0,30 -15,0 -600,0 -15,0 0,-30 15,0 z"
         id="path486" /></clipPath><clipPath
       clipPathUnits="userSpaceOnUse"
       id="clipPath494"><path
         d="m 2770,4155 400,0 15,0 0,30 -15,0 -400,0 -15,0 0,-30 15,0 z"
         id="path496" /></clipPath><clipPath
       clipPathUnits="userSpaceOnUse"
       id="clipPath504"><path
         d="m 1470,3455 800,0 15,0 0,30 -15,0 -800,0 -15,0 0,-30 15,0 z"
         id="path506" /></clipPath><clipPath
       clipPathUnits="userSpaceOnUse"
       id="clipPath514"><path
         d="m 1470,6155 400,0 15,0 0,30 -15,0 -400,0 -15,0 0,-30 15,0 z"
         id="path516" /></clipPath><clipPath
       clipPathUnits="userSpaceOnUse"
       id="clipPath524"><path
         d="m 1070,6455 1200,0 15,0 0,30 -15,0 -1200,0 -15,0 0,-30 15,0 z"
         id="path526" /></clipPath><clipPath
       clipPathUnits="userSpaceOnUse"
       id="clipPath534"><path
         d="m 3170,4955 400,0 15,0 0,30 -15,0 -400,0 -15,0 0,-30 15,0 z"
         id="path536" /></clipPath><clipPath
       clipPathUnits="userSpaceOnUse"
       id="clipPath544"><path
         d="m 3155,5570 0,-600 0,-15 30,0 0,15 0,600 0,15 -30,0 0,-15 z"
         id="path546" /></clipPath><clipPath
       clipPathUnits="userSpaceOnUse"
       id="clipPath554"><path
         d="m 1655,6070 0,-700 0,-15 30,0 0,15 0,700 0,15 -30,0 0,-15 z"
         id="path556" /></clipPath><clipPath
       clipPathUnits="userSpaceOnUse"
       id="clipPath564"><path
         d="m 1110,5070 c 0,-22.09 -17.91,-40 -40,-40 -22.09,0 -40,17.91 -40,40 0,22.09 17.91,40 40,40 22.09,0 40,-17.91 40,-40 z"
         id="path566" /></clipPath><clipPath
       clipPathUnits="userSpaceOnUse"
       id="clipPath574"><path
         d="m 1110,6470 c 0,-22.09 -17.91,-40 -40,-40 -22.09,0 -40,17.91 -40,40 0,22.09 17.91,40 40,40 22.09,0 40,-17.91 40,-40 z"
         id="path576" /></clipPath><clipPath
       clipPathUnits="userSpaceOnUse"
       id="clipPath584"><path
         d="m 1710,4670 c 0,-22.09 -17.91,-40 -40,-40 -22.09,0 -40,17.91 -40,40 0,22.09 17.91,40 40,40 22.09,0 40,-17.91 40,-40 z"
         id="path586" /></clipPath><clipPath
       clipPathUnits="userSpaceOnUse"
       id="clipPath594"><path
         d="m 1710,6070 c 0,-22.09 -17.91,-40 -40,-40 -22.09,0 -40,17.91 -40,40 0,22.09 17.91,40 40,40 22.09,0 40,-17.91 40,-40 z"
         id="path596" /></clipPath><clipPath
       clipPathUnits="userSpaceOnUse"
       id="clipPath604"><path
         d="m 1310,5570 c 0,-22.09 -17.91,-40 -40,-40 -22.09,0 -40,17.91 -40,40 0,22.09 17.91,40 40,40 22.09,0 40,-17.91 40,-40 z"
         id="path606" /></clipPath><clipPath
       clipPathUnits="userSpaceOnUse"
       id="clipPath614"><path
         d="m 1510,4870 c 0,-22.09 -17.91,-40 -40,-40 -22.09,0 -40,17.91 -40,40 0,22.09 17.91,40 40,40 22.09,0 40,-17.91 40,-40 z"
         id="path616" /></clipPath><clipPath
       clipPathUnits="userSpaceOnUse"
       id="clipPath624"><path
         d="m 1510,3470 c 0,-22.09 -17.91,-40 -40,-40 -22.09,0 -40,17.91 -40,40 0,22.09 17.91,40 40,40 22.09,0 40,-17.91 40,-40 z"
         id="path626" /></clipPath><clipPath
       clipPathUnits="userSpaceOnUse"
       id="clipPath634"><path
         d="m 1310,3670 c 0,-22.09 -17.91,-40 -40,-40 -22.09,0 -40,17.91 -40,40 0,22.09 17.91,40 40,40 22.09,0 40,-17.91 40,-40 z"
         id="path636" /></clipPath><clipPath
       clipPathUnits="userSpaceOnUse"
       id="clipPath644"><path
         d="m 1310,6370 c 0,-22.09 -17.91,-40 -40,-40 -22.09,0 -40,17.91 -40,40 0,22.09 17.91,40 40,40 22.09,0 40,-17.91 40,-40 z"
         id="path646" /></clipPath><clipPath
       clipPathUnits="userSpaceOnUse"
       id="clipPath654"><path
         d="m 1110,5770 c 0,-22.09 -17.91,-40 -40,-40 -22.09,0 -40,17.91 -40,40 0,22.09 17.91,40 40,40 22.09,0 40,-17.91 40,-40 z"
         id="path656" /></clipPath><clipPath
       clipPathUnits="userSpaceOnUse"
       id="clipPath664"><path
         d="m 1110,4370 c 0,-22.09 -17.91,-40 -40,-40 -22.09,0 -40,17.91 -40,40 0,22.09 17.91,40 40,40 22.09,0 40,-17.91 40,-40 z"
         id="path666" /></clipPath><clipPath
       clipPathUnits="userSpaceOnUse"
       id="clipPath674"><path
         d="m 1710,3970 c 0,-22.09 -17.91,-40 -40,-40 -22.09,0 -40,17.91 -40,40 0,22.09 17.91,40 40,40 22.09,0 40,-17.91 40,-40 z"
         id="path676" /></clipPath><clipPath
       clipPathUnits="userSpaceOnUse"
       id="clipPath684"><path
         d="m 1510,6170 c 0,-22.09 -17.91,-40 -40,-40 -22.09,0 -40,17.91 -40,40 0,22.09 17.91,40 40,40 22.09,0 40,-17.91 40,-40 z"
         id="path686" /></clipPath><clipPath
       clipPathUnits="userSpaceOnUse"
       id="clipPath694"><path
         d="m 1710,5370 c 0,-22.09 -17.91,-40 -40,-40 -22.09,0 -40,17.91 -40,40 0,22.09 17.91,40 40,40 22.09,0 40,-17.91 40,-40 z"
         id="path696" /></clipPath><clipPath
       clipPathUnits="userSpaceOnUse"
       id="clipPath704"><path
         d="m 1510,4170 c 0,-22.09 -17.91,-40 -40,-40 -22.09,0 -40,17.91 -40,40 0,22.09 17.91,40 40,40 22.09,0 40,-17.91 40,-40 z"
         id="path706" /></clipPath><clipPath
       clipPathUnits="userSpaceOnUse"
       id="clipPath714"><path
         d="m 2073.46,6379.38 -190,70 -9.39,3.46 -6.91,-18.77 9.38,-3.45 190,-70 9.39,-3.46 6.91,18.77 -9.38,3.45 z"
         id="path716" /></clipPath><clipPath
       clipPathUnits="userSpaceOnUse"
       id="clipPath724"><path
         d="m 1870,6440 0,-140 0,-10 20,0 0,10 0,140 0,10 -20,0 0,-10 z"
         id="path726" /></clipPath><clipPath
       clipPathUnits="userSpaceOnUse"
       id="clipPath734"><path
         d="m 1883.46,6290.62 190,70 9.38,3.45 -6.91,18.77 -9.39,-3.46 -190,-70 -9.38,-3.45 6.91,-18.77 9.39,3.46 z"
         id="path736" /></clipPath><clipPath
       clipPathUnits="userSpaceOnUse"
       id="clipPath744"><path
         d="m 2160,6365 c 0,-19.33 -15.67,-35 -35,-35 -19.33,0 -35,15.67 -35,35 0,19.33 15.67,35 35,35 19.33,0 35,-15.67 35,-35 z m 20,0 c 0,30.38 -24.62,55 -55,55 -30.38,0 -55,-24.62 -55,-55 0,-30.38 24.62,-55 55,-55 30.38,0 55,24.62 55,55 z"
         id="path746" /></clipPath><clipPath
       clipPathUnits="userSpaceOnUse"
       id="clipPath754"><path
         d="m 2190,6370 c 0,-11.05 -8.95,-20 -20,-20 -11.05,0 -20,8.95 -20,20 0,11.05 8.95,20 20,20 11.05,0 20,-8.95 20,-20 z"
         id="path756" /></clipPath><clipPath
       clipPathUnits="userSpaceOnUse"
       id="clipPath764"><path
         d="m 1890,6370 c 0,-11.05 -8.95,-20 -20,-20 -11.05,0 -20,8.95 -20,20 0,11.05 8.95,20 20,20 11.05,0 20,-8.95 20,-20 z"
         id="path766" /></clipPath><clipPath
       clipPathUnits="userSpaceOnUse"
       id="clipPath774"><path
         d="m 2073.46,5779.38 -190,70 -9.39,3.46 -6.91,-18.77 9.38,-3.45 190,-70 9.39,-3.46 6.91,18.77 -9.38,3.45 z"
         id="path776" /></clipPath><clipPath
       clipPathUnits="userSpaceOnUse"
       id="clipPath784"><path
         d="m 1870,5840 0,-140 0,-10 20,0 0,10 0,140 0,10 -20,0 0,-10 z"
         id="path786" /></clipPath><clipPath
       clipPathUnits="userSpaceOnUse"
       id="clipPath794"><path
         d="m 1883.46,5690.62 190,70 9.38,3.45 -6.91,18.77 -9.39,-3.46 -190,-70 -9.38,-3.45 6.91,-18.77 9.39,3.46 z"
         id="path796" /></clipPath><clipPath
       clipPathUnits="userSpaceOnUse"
       id="clipPath804"><path
         d="m 2160,5765 c 0,-19.33 -15.67,-35 -35,-35 -19.33,0 -35,15.67 -35,35 0,19.33 15.67,35 35,35 19.33,0 35,-15.67 35,-35 z m 20,0 c 0,30.38 -24.62,55 -55,55 -30.38,0 -55,-24.62 -55,-55 0,-30.38 24.62,-55 55,-55 30.38,0 55,24.62 55,55 z"
         id="path806" /></clipPath><clipPath
       clipPathUnits="userSpaceOnUse"
       id="clipPath814"><path
         d="m 2190,5770 c 0,-11.05 -8.95,-20 -20,-20 -11.05,0 -20,8.95 -20,20 0,11.05 8.95,20 20,20 11.05,0 20,-8.95 20,-20 z"
         id="path816" /></clipPath><clipPath
       clipPathUnits="userSpaceOnUse"
       id="clipPath824"><path
         d="m 1890,5770 c 0,-11.05 -8.95,-20 -20,-20 -11.05,0 -20,8.95 -20,20 0,11.05 8.95,20 20,20 11.05,0 20,-8.95 20,-20 z"
         id="path826" /></clipPath><clipPath
       clipPathUnits="userSpaceOnUse"
       id="clipPath834"><path
         d="m 720,7200 4680,0 0,-6480 -4680,0 0,6480 z"
         id="path836" /></clipPath><clipPath
       clipPathUnits="userSpaceOnUse"
       id="clipPath848"><path
         d="m 2073.46,4379.38 -190,70 -9.39,3.46 -6.91,-18.77 9.38,-3.45 190,-70 9.39,-3.46 6.91,18.77 -9.38,3.45 z"
         id="path850" /></clipPath><clipPath
       clipPathUnits="userSpaceOnUse"
       id="clipPath858"><path
         d="m 1870,4440 0,-140 0,-10 20,0 0,10 0,140 0,10 -20,0 0,-10 z"
         id="path860" /></clipPath><clipPath
       clipPathUnits="userSpaceOnUse"
       id="clipPath868"><path
         d="m 1883.46,4290.62 190,70 9.38,3.45 -6.91,18.77 -9.39,-3.46 -190,-70 -9.38,-3.45 6.91,-18.77 9.39,3.46 z"
         id="path870" /></clipPath><clipPath
       clipPathUnits="userSpaceOnUse"
       id="clipPath878"><path
         d="m 2160,4365 c 0,-19.33 -15.67,-35 -35,-35 -19.33,0 -35,15.67 -35,35 0,19.33 15.67,35 35,35 19.33,0 35,-15.67 35,-35 z m 20,0 c 0,30.38 -24.62,55 -55,55 -30.38,0 -55,-24.62 -55,-55 0,-30.38 24.62,-55 55,-55 30.38,0 55,24.62 55,55 z"
         id="path880" /></clipPath><clipPath
       clipPathUnits="userSpaceOnUse"
       id="clipPath888"><path
         d="m 2190,4370 c 0,-11.05 -8.95,-20 -20,-20 -11.05,0 -20,8.95 -20,20 0,11.05 8.95,20 20,20 11.05,0 20,-8.95 20,-20 z"
         id="path890" /></clipPath><clipPath
       clipPathUnits="userSpaceOnUse"
       id="clipPath898"><path
         d="m 1890,4370 c 0,-11.05 -8.95,-20 -20,-20 -11.05,0 -20,8.95 -20,20 0,11.05 8.95,20 20,20 11.05,0 20,-8.95 20,-20 z"
         id="path900" /></clipPath><clipPath
       clipPathUnits="userSpaceOnUse"
       id="clipPath908"><path
         d="m 3570,5055 60,0 15,0 0,30 -15,0 -60,0 -15,0 0,-30 15,0 z"
         id="path910" /></clipPath><clipPath
       clipPathUnits="userSpaceOnUse"
       id="clipPath918"><path
         d="m 3570,4955 90,0 15,0 0,30 -15,0 -90,0 -15,0 0,-30 15,0 z"
         id="path920" /></clipPath><clipPath
       clipPathUnits="userSpaceOnUse"
       id="clipPath928"><path
         d="m 3570,4855 90,0 15,0 0,30 -15,0 -90,0 -15,0 0,-30 15,0 z"
         id="path930" /></clipPath><clipPath
       clipPathUnits="userSpaceOnUse"
       id="clipPath938"><path
         d="m 3570,4755 90,0 15,0 0,30 -15,0 -90,0 -15,0 0,-30 15,0 z"
         id="path940" /></clipPath><clipPath
       clipPathUnits="userSpaceOnUse"
       id="clipPath948"><path
         d="m 3570,4655 60,0 15,0 0,30 -15,0 -60,0 -15,0 0,-30 15,0 z"
         id="path950" /></clipPath><clipPath
       clipPathUnits="userSpaceOnUse"
       id="clipPath958"><path
         d="M 4278.14,4875.81 C 4109.44,5111.85 3873.39,5229.92 3570,5230 l -17.22,0 8.53,-14.96 c 131.59,-230.03 131.59,-460.05 0,-690.08 l -8.53,-14.96 17.22,0 c 303.39,0.08 539.44,118.15 708.14,354.19 l 4.14,5.81 -4.14,5.81 z m -16.28,0 C 4097.23,4645.19 3866.61,4529.92 3570,4530 l 0,-10 8.69,-4.96 c 135.08,236.64 135.08,473.28 0,709.92 l -8.69,-4.96 0,-10 c 296.61,0.08 527.23,-115.19 691.86,-345.81 l 8.14,5.81 -8.14,5.81 z"
         id="path960" /></clipPath><clipPath
       clipPathUnits="userSpaceOnUse"
       id="clipPath968"><path
         d="m 2073.46,4679.38 -190,70 -9.39,3.46 -6.91,-18.77 9.38,-3.45 190,-70 9.39,-3.46 6.91,18.77 -9.38,3.45 z"
         id="path970" /></clipPath><clipPath
       clipPathUnits="userSpaceOnUse"
       id="clipPath978"><path
         d="m 1870,4740 0,-140 0,-10 20,0 0,10 0,140 0,10 -20,0 0,-10 z"
         id="path980" /></clipPath><clipPath
       clipPathUnits="userSpaceOnUse"
       id="clipPath988"><path
         d="m 1883.46,4590.62 190,70 9.38,3.45 -6.91,18.77 -9.39,-3.46 -190,-70 -9.38,-3.45 6.91,-18.77 9.39,3.46 z"
         id="path990" /></clipPath><clipPath
       clipPathUnits="userSpaceOnUse"
       id="clipPath998"><path
         d="m 2160,4665 c 0,-19.33 -15.67,-35 -35,-35 -19.33,0 -35,15.67 -35,35 0,19.33 15.67,35 35,35 19.33,0 35,-15.67 35,-35 z m 20,0 c 0,30.38 -24.62,55 -55,55 -30.38,0 -55,-24.62 -55,-55 0,-30.38 24.62,-55 55,-55 30.38,0 55,24.62 55,55 z"
         id="path1000" /></clipPath><clipPath
       clipPathUnits="userSpaceOnUse"
       id="clipPath1008"><path
         d="m 2190,4670 c 0,-11.05 -8.95,-20 -20,-20 -11.05,0 -20,8.95 -20,20 0,11.05 8.95,20 20,20 11.05,0 20,-8.95 20,-20 z"
         id="path1010" /></clipPath><clipPath
       clipPathUnits="userSpaceOnUse"
       id="clipPath1018"><path
         d="m 1890,4670 c 0,-11.05 -8.95,-20 -20,-20 -11.05,0 -20,8.95 -20,20 0,11.05 8.95,20 20,20 11.05,0 20,-8.95 20,-20 z"
         id="path1020" /></clipPath><clipPath
       clipPathUnits="userSpaceOnUse"
       id="clipPath1028"><path
         d="m 4760,4865 c 0,-46.94 -38.06,-85 -85,-85 -46.94,0 -85,38.06 -85,85 0,46.94 38.06,85 85,85 46.94,0 85,-38.06 85,-85 z m 20,0 c 0,57.99 -47.01,105 -105,105 -57.99,0 -105,-47.01 -105,-105 0,-57.99 47.01,-105 105,-105 57.99,0 105,47.01 105,105 z"
         id="path1030" /></clipPath><clipPath
       clipPathUnits="userSpaceOnUse"
       id="clipPath1038"><path
         d="m 720,7200 4680,0 0,-6480 -4680,0 0,6480 z"
         id="path1040" /></clipPath><clipPath
       clipPathUnits="userSpaceOnUse"
       id="clipPath1052"><path
         d="m 4590,4870 c 0,-11.05 -8.95,-20 -20,-20 -11.05,0 -20,8.95 -20,20 0,11.05 8.95,20 20,20 11.05,0 20,-8.95 20,-20 z"
         id="path1054" /></clipPath><clipPath
       clipPathUnits="userSpaceOnUse"
       id="clipPath1062"><path
         d="m 1380,6750 190,0 0,10 -10,0 0,-190 10,0 0,10 -190,0 0,-10 10,0 0,190 -10,0 0,-10 z m -10,10 0,-190 0,-10 10,0 190,0 10,0 0,10 0,190 0,10 -10,0 -190,0 -10,0 0,-10 z"
         id="path1064" /></clipPath><clipPath
       clipPathUnits="userSpaceOnUse"
       id="clipPath1072"><path
         d="m 720,7200 4680,0 0,-6480 -4680,0 0,6480 z"
         id="path1074" /></clipPath><clipPath
       clipPathUnits="userSpaceOnUse"
       id="clipPath1090"><path
         d="m 1490,6570 c 0,-11.05 -8.95,-20 -20,-20 -11.05,0 -20,8.95 -20,20 0,11.05 8.95,20 20,20 11.05,0 20,-8.95 20,-20 z"
         id="path1092" /></clipPath><clipPath
       clipPathUnits="userSpaceOnUse"
       id="clipPath1100"><path
         d="m 1180,6750 190,0 0,10 -10,0 0,-190 10,0 0,10 -190,0 0,-10 10,0 0,190 -10,0 0,-10 z m -10,10 0,-190 0,-10 10,0 190,0 10,0 0,10 0,190 0,10 -10,0 -190,0 -10,0 0,-10 z"
         id="path1102" /></clipPath><clipPath
       clipPathUnits="userSpaceOnUse"
       id="clipPath1110"><path
         d="m 720,7200 4680,0 0,-6480 -4680,0 0,6480 z"
         id="path1112" /></clipPath><clipPath
       clipPathUnits="userSpaceOnUse"
       id="clipPath1128"><path
         d="m 1290,6570 c 0,-11.05 -8.95,-20 -20,-20 -11.05,0 -20,8.95 -20,20 0,11.05 8.95,20 20,20 11.05,0 20,-8.95 20,-20 z"
         id="path1130" /></clipPath><clipPath
       clipPathUnits="userSpaceOnUse"
       id="clipPath1138"><path
         d="m 2520,4610 c 143.6,0 260,116.4 260,260 0,143.6 -116.4,260 -260,260 l -10,0 0,-20 10,0 c 132.55,0 240,-107.45 240,-240 0,-132.55 -107.45,-240 -240,-240 l -10,0 0,-20 10,0 z"
         id="path1140" /></clipPath><clipPath
       clipPathUnits="userSpaceOnUse"
       id="clipPath1148"><path
         d="m 2520,5130 -240,0 -10,0 0,-20 10,0 240,0 10,0 0,20 -10,0 z"
         id="path1150" /></clipPath><clipPath
       clipPathUnits="userSpaceOnUse"
       id="clipPath1158"><path
         d="m 2270,5120 0,-500 0,-10 20,0 0,10 0,500 0,10 -20,0 0,-10 z"
         id="path1160" /></clipPath><clipPath
       clipPathUnits="userSpaceOnUse"
       id="clipPath1168"><path
         d="m 2280,4610 240,0 10,0 0,20 -10,0 -240,0 -10,0 0,-20 10,0 z"
         id="path1170" /></clipPath><clipPath
       clipPathUnits="userSpaceOnUse"
       id="clipPath1178"><path
         d="m 2520,3910 c 143.6,0 260,116.4 260,260 0,143.6 -116.4,260 -260,260 l -10,0 0,-20 10,0 c 132.55,0 240,-107.45 240,-240 0,-132.55 -107.45,-240 -240,-240 l -10,0 0,-20 10,0 z"
         id="path1180" /></clipPath><clipPath
       clipPathUnits="userSpaceOnUse"
       id="clipPath1188"><path
         d="m 2520,4430 -240,0 -10,0 0,-20 10,0 240,0 10,0 0,20 -10,0 z"
         id="path1190" /></clipPath><clipPath
       clipPathUnits="userSpaceOnUse"
       id="clipPath1198"><path
         d="m 2270,4420 0,-500 0,-10 20,0 0,10 0,500 0,10 -20,0 0,-10 z"
         id="path1200" /></clipPath><clipPath
       clipPathUnits="userSpaceOnUse"
       id="clipPath1208"><path
         d="m 2280,3910 240,0 10,0 0,20 -10,0 -240,0 -10,0 0,-20 10,0 z"
         id="path1210" /></clipPath><clipPath
       clipPathUnits="userSpaceOnUse"
       id="clipPath1218"><path
         d="m 1580,6750 190,0 0,10 -10,0 0,-190 10,0 0,10 -190,0 0,-10 10,0 0,190 -10,0 0,-10 z m -10,10 0,-190 0,-10 10,0 190,0 10,0 0,10 0,190 0,10 -10,0 -190,0 -10,0 0,-10 z"
         id="path1220" /></clipPath><clipPath
       clipPathUnits="userSpaceOnUse"
       id="clipPath1228"><path
         d="m 720,7200 4680,0 0,-6480 -4680,0 0,6480 z"
         id="path1230" /></clipPath><clipPath
       clipPathUnits="userSpaceOnUse"
       id="clipPath1246"><path
         d="m 1690,6570 c 0,-11.05 -8.95,-20 -20,-20 -11.05,0 -20,8.95 -20,20 0,11.05 8.95,20 20,20 11.05,0 20,-8.95 20,-20 z"
         id="path1248" /></clipPath><clipPath
       clipPathUnits="userSpaceOnUse"
       id="clipPath1256"><path
         d="m 2073.46,6179.38 -190,70 -9.39,3.46 -6.91,-18.77 9.38,-3.45 190,-70 9.39,-3.46 6.91,18.77 -9.38,3.45 z"
         id="path1258" /></clipPath><clipPath
       clipPathUnits="userSpaceOnUse"
       id="clipPath1266"><path
         d="m 1870,6240 0,-140 0,-10 20,0 0,10 0,140 0,10 -20,0 0,-10 z"
         id="path1268" /></clipPath><clipPath
       clipPathUnits="userSpaceOnUse"
       id="clipPath1276"><path
         d="m 1883.46,6090.62 190,70 9.38,3.45 -6.91,18.77 -9.39,-3.46 -190,-70 -9.38,-3.45 6.91,-18.77 9.39,3.46 z"
         id="path1278" /></clipPath><clipPath
       clipPathUnits="userSpaceOnUse"
       id="clipPath1286"><path
         d="m 2160,6165 c 0,-19.33 -15.67,-35 -35,-35 -19.33,0 -35,15.67 -35,35 0,19.33 15.67,35 35,35 19.33,0 35,-15.67 35,-35 z m 20,0 c 0,30.38 -24.62,55 -55,55 -30.38,0 -55,-24.62 -55,-55 0,-30.38 24.62,-55 55,-55 30.38,0 55,24.62 55,55 z"
         id="path1288" /></clipPath><clipPath
       clipPathUnits="userSpaceOnUse"
       id="clipPath1296"><path
         d="m 2190,6170 c 0,-11.05 -8.95,-20 -20,-20 -11.05,0 -20,8.95 -20,20 0,11.05 8.95,20 20,20 11.05,0 20,-8.95 20,-20 z"
         id="path1298" /></clipPath><clipPath
       clipPathUnits="userSpaceOnUse"
       id="clipPath1306"><path
         d="m 1890,6170 c 0,-11.05 -8.95,-20 -20,-20 -11.05,0 -20,8.95 -20,20 0,11.05 8.95,20 20,20 11.05,0 20,-8.95 20,-20 z"
         id="path1308" /></clipPath><clipPath
       clipPathUnits="userSpaceOnUse"
       id="clipPath1316"><path
         d="m 2420,3410 c 88.37,0 160,71.63 160,160 0,88.37 -71.63,160 -160,160 l -10,0 0,-20 10,0 c 77.32,0 140,-62.68 140,-140 0,-77.32 -62.68,-140 -140,-140 l -10,0 0,-20 10,0 z"
         id="path1318" /></clipPath><clipPath
       clipPathUnits="userSpaceOnUse"
       id="clipPath1326"><path
         d="m 2420,3730 -140,0 -10,0 0,-20 10,0 140,0 10,0 0,20 -10,0 z"
         id="path1328" /></clipPath><clipPath
       clipPathUnits="userSpaceOnUse"
       id="clipPath1336"><path
         d="m 2270,3720 0,-300 0,-10 20,0 0,10 0,300 0,10 -20,0 0,-10 z"
         id="path1338" /></clipPath><clipPath
       clipPathUnits="userSpaceOnUse"
       id="clipPath1346"><path
         d="m 2280,3410 140,0 10,0 0,20 -10,0 -140,0 -10,0 0,-20 10,0 z"
         id="path1348" /></clipPath><clipPath
       clipPathUnits="userSpaceOnUse"
       id="clipPath1356"><path
         d="m 2520,5310 c 143.6,0 260,116.4 260,260 0,143.6 -116.4,260 -260,260 l -10,0 0,-20 10,0 c 132.55,0 240,-107.45 240,-240 0,-132.55 -107.45,-240 -240,-240 l -10,0 0,-20 10,0 z"
         id="path1358" /></clipPath><clipPath
       clipPathUnits="userSpaceOnUse"
       id="clipPath1366"><path
         d="m 2520,5830 -240,0 -10,0 0,-20 10,0 240,0 10,0 0,20 -10,0 z"
         id="path1368" /></clipPath><clipPath
       clipPathUnits="userSpaceOnUse"
       id="clipPath1376"><path
         d="m 2270,5820 0,-500 0,-10 20,0 0,10 0,500 0,10 -20,0 0,-10 z"
         id="path1378" /></clipPath><clipPath
       clipPathUnits="userSpaceOnUse"
       id="clipPath1386"><path
         d="m 2280,5310 240,0 10,0 0,20 -10,0 -240,0 -10,0 0,-20 10,0 z"
         id="path1388" /></clipPath><clipPath
       clipPathUnits="userSpaceOnUse"
       id="clipPath1396"><path
         d="m 2620,5910 c 198.82,0 360,161.18 360,360 0,198.82 -161.18,360 -360,360 l -10,0 0,-20 10,0 c 187.78,0 340,-152.22 340,-340 0,-187.78 -152.22,-340 -340,-340 l -10,0 0,-20 10,0 z"
         id="path1398" /></clipPath><clipPath
       clipPathUnits="userSpaceOnUse"
       id="clipPath1406"><path
         d="m 2620,6630 -340,0 -10,0 0,-20 10,0 340,0 10,0 0,20 -10,0 z"
         id="path1408" /></clipPath><clipPath
       clipPathUnits="userSpaceOnUse"
       id="clipPath1416"><path
         d="m 2270,6620 0,-700 0,-10 20,0 0,10 0,700 0,10 -20,0 0,-10 z"
         id="path1418" /></clipPath><clipPath
       clipPathUnits="userSpaceOnUse"
       id="clipPath1426"><path
         d="m 2280,5910 340,0 10,0 0,20 -10,0 -340,0 -10,0 0,-20 10,0 z"
         id="path1428" /></clipPath><clipPath
       clipPathUnits="userSpaceOnUse"
       id="clipPath1436"><path
         d="m 980,6750 190,0 0,10 -10,0 0,-190 10,0 0,10 -190,0 0,-10 10,0 0,190 -10,0 0,-10 z m -10,10 0,-190 0,-10 10,0 190,0 10,0 0,10 0,190 0,10 -10,0 -190,0 -10,0 0,-10 z"
         id="path1438" /></clipPath><clipPath
       clipPathUnits="userSpaceOnUse"
       id="clipPath1446"><path
         d="m 720,7200 4680,0 0,-6480 -4680,0 0,6480 z"
         id="path1448" /></clipPath><clipPath
       clipPathUnits="userSpaceOnUse"
       id="clipPath1464"><path
         d="m 1090,6570 c 0,-11.05 -8.95,-20 -20,-20 -11.05,0 -20,8.95 -20,20 0,11.05 8.95,20 20,20 11.05,0 20,-8.95 20,-20 z"
         id="path1466" /></clipPath><inkscape:perspective
       id="perspective4471"
       inkscape:persp3d-origin="0.5 : 0.33333333 : 1"
       inkscape:vp_z="1 : 0.5 : 1"
       inkscape:vp_y="0 : 1000 : 0"
       inkscape:vp_x="0 : 0.5 : 1"
       sodipodi:type="inkscape:persp3d" /></defs><sodipodi:namedview
     pagecolor="#ffffff"
     bordercolor="#666666"
     borderopacity="1"
     objecttolerance="10"
     gridtolerance="10"
     guidetolerance="10"
     inkscape:pageopacity="0"
     inkscape:pageshadow="2"
     inkscape:window-width="1440"
     inkscape:window-height="825"
     id="namedview4"
     showgrid="false"
     inkscape:zoom="0.69139331"
     inkscape:cx="73.782981"
     inkscape:cy="269.28068"
     inkscape:window-x="0"
     inkscape:window-y="25"
     inkscape:window-maximized="1"
     inkscape:current-layer="g14"
     showguides="true"
     inkscape:guide-bbox="true"><sodipodi:guide
       orientation="0,1"
       position="-28.636363,515.45452"
       id="guide10749" /></sodipodi:namedview><g
     id="g12"
     inkscape:groupmode="layer"
     inkscape:label="out"
     transform="matrix(1.25,0,0,-1.25,-23.781651,945.58074)"><g
       id="g14"
       transform="scale(0.1,0.1)">










































































</g></g></svg>