<?xml version="1.0" encoding="UTF-8" standalone="no"?>
<!-- Created with Inkscape (http://www.inkscape.org/) -->

<svg
   xmlns:dc="http://purl.org/dc/elements/1.1/"
   xmlns:cc="http://creativecommons.org/ns#"
   xmlns:rdf="http://www.w3.org/1999/02/22-rdf-syntax-ns#"
   xmlns:svg="http://www.w3.org/2000/svg"
   xmlns="http://www.w3.org/2000/svg"
   xmlns:sodipodi="http://sodipodi.sourceforge.net/DTD/sodipodi-0.dtd"
   xmlns:inkscape="http://www.inkscape.org/namespaces/inkscape"
   id="svg2"
   version="1.1"
   inkscape:version="0.47 r22583"
   width="263.55545"
   height="159.13193"
   xml:space="preserve"
   sodipodi:docname="aula12.pdf"><metadata
     id="metadata8"><rdf:RDF><cc:Work
         rdf:about=""><dc:format>image/svg+xml</dc:format><dc:type
           rdf:resource="http://purl.org/dc/dcmitype/StillImage" /><dc:title></dc:title></cc:Work></rdf:RDF></metadata><defs
     id="defs6"><inkscape:perspective
       sodipodi:type="inkscape:persp3d"
       inkscape:vp_x="0 : 0.5 : 1"
       inkscape:vp_y="0 : 1000 : 0"
       inkscape:vp_z="1 : 0.5 : 1"
       inkscape:persp3d-origin="0.5 : 0.33333333 : 1"
       id="perspective10" /><clipPath
       clipPathUnits="userSpaceOnUse"
       id="clipPath108"><path
         d="m 0,0 4.979,0 0,4.979 L 0,4.979 0,0 z"
         id="path110" /></clipPath><radialGradient
       fx="1.6207401"
       fy="3.5510099"
       cx="2.4893601"
       cy="2.4893601"
       r="2.4893601"
       gradientUnits="userSpaceOnUse"
       id="radialGradient112"><stop
         style="stop-opacity:1;stop-color:#e0e0f4"
         offset="0"
         id="stop114" /><stop
         style="stop-opacity:1;stop-color:#6666c6"
         offset="0.77208"
         id="stop116" /><stop
         style="stop-opacity:1;stop-color:#24247d"
         offset="1.54417"
         id="stop118" /><stop
         style="stop-opacity:1;stop-color:#191959"
         offset="2.12328"
         id="stop120" /><stop
         style="stop-opacity:1;stop-color:#ffffff"
         offset="2.48936"
         id="stop122" /></radialGradient><clipPath
       id="clipPath3689"
       clipPathUnits="userSpaceOnUse"><path
         id="path3691"
         d="m 2180,6200 c 0,-11.05 -8.95,-20 -20,-20 -11.05,0 -20,8.95 -20,20 0,11.05 8.95,20 20,20 11.05,0 20,-8.95 20,-20 z" /></clipPath><clipPath
       id="clipPath3679"
       clipPathUnits="userSpaceOnUse"><path
         id="path3681"
         d="m 2480,6200 c 0,-11.05 -8.95,-20 -20,-20 -11.05,0 -20,8.95 -20,20 0,11.05 8.95,20 20,20 11.05,0 20,-8.95 20,-20 z" /></clipPath><clipPath
       id="clipPath3669"
       clipPathUnits="userSpaceOnUse"><path
         id="path3671"
         d="m 2450,6195 c 0,-19.33 -15.67,-35 -35,-35 -19.33,0 -35,15.67 -35,35 0,19.33 15.67,35 35,35 19.33,0 35,-15.67 35,-35 z m 20,0 c 0,30.38 -24.62,55 -55,55 -30.38,0 -55,-24.62 -55,-55 0,-30.38 24.62,-55 55,-55 30.38,0 55,24.62 55,55 z" /></clipPath><clipPath
       id="clipPath3659"
       clipPathUnits="userSpaceOnUse"><path
         id="path3661"
         d="m 2173.46,6120.62 190,70 9.38,3.45 -6.91,18.77 -9.39,-3.46 -190,-70 -9.38,-3.45 6.91,-18.77 9.39,3.46 z" /></clipPath><clipPath
       id="clipPath3649"
       clipPathUnits="userSpaceOnUse"><path
         id="path3651"
         d="m 2160,6270 0,-140 0,-10 20,0 0,10 0,140 0,10 -20,0 0,-10 z" /></clipPath><clipPath
       id="clipPath3639"
       clipPathUnits="userSpaceOnUse"><path
         id="path3641"
         d="m 2363.46,6209.38 -190,70 -9.39,3.46 -6.91,-18.77 9.38,-3.45 190,-70 9.39,-3.46 6.91,18.77 -9.38,3.45 z" /></clipPath><clipPath
       id="clipPath3629"
       clipPathUnits="userSpaceOnUse"><path
         id="path3631"
         d="m 1780,6500 c 0,-11.05 -8.95,-20 -20,-20 -11.05,0 -20,8.95 -20,20 0,11.05 8.95,20 20,20 11.05,0 20,-8.95 20,-20 z" /></clipPath><clipPath
       id="clipPath3611"
       clipPathUnits="userSpaceOnUse"><path
         id="path3613"
         d="m 720,7200 4680,0 0,-6480 -4680,0 0,6480 z" /></clipPath><clipPath
       id="clipPath3601"
       clipPathUnits="userSpaceOnUse"><path
         id="path3603"
         d="m 1670,6680 190,0 0,10 -10,0 0,-190 10,0 0,10 -190,0 0,-10 10,0 0,190 -10,0 0,-10 z m -10,10 0,-190 0,-10 10,0 190,0 10,0 0,10 0,190 0,10 -10,0 -190,0 -10,0 0,-10 z" /></clipPath><clipPath
       id="clipPath3591"
       clipPathUnits="userSpaceOnUse"><path
         id="path3593"
         d="m 1380,6500 c 0,-11.05 -8.95,-20 -20,-20 -11.05,0 -20,8.95 -20,20 0,11.05 8.95,20 20,20 11.05,0 20,-8.95 20,-20 z" /></clipPath><clipPath
       id="clipPath3573"
       clipPathUnits="userSpaceOnUse"><path
         id="path3575"
         d="m 720,7200 4680,0 0,-6480 -4680,0 0,6480 z" /></clipPath><clipPath
       id="clipPath3563"
       clipPathUnits="userSpaceOnUse"><path
         id="path3565"
         d="m 1270,6680 190,0 0,10 -10,0 0,-190 10,0 0,10 -190,0 0,-10 10,0 0,190 -10,0 0,-10 z m -10,10 0,-190 0,-10 10,0 190,0 10,0 0,10 0,190 0,10 -10,0 -190,0 -10,0 0,-10 z" /></clipPath><clipPath
       id="clipPath3553"
       clipPathUnits="userSpaceOnUse"><path
         id="path3555"
         d="m 4680,5500 c 0,-11.05 -8.95,-20 -20,-20 -11.05,0 -20,8.95 -20,20 0,11.05 8.95,20 20,20 11.05,0 20,-8.95 20,-20 z" /></clipPath><clipPath
       id="clipPath3539"
       clipPathUnits="userSpaceOnUse"><path
         id="path3541"
         d="m 720,7200 4680,0 0,-6480 -4680,0 0,6480 z" /></clipPath><clipPath
       id="clipPath3529"
       clipPathUnits="userSpaceOnUse"><path
         id="path3531"
         d="m 4850,5495 c 0,-46.94 -38.06,-85 -85,-85 -46.94,0 -85,38.06 -85,85 0,46.94 38.06,85 85,85 46.94,0 85,-38.06 85,-85 z m 20,0 c 0,57.99 -47.01,105 -105,105 -57.99,0 -105,-47.01 -105,-105 0,-57.99 47.01,-105 105,-105 57.99,0 105,47.01 105,105 z" /></clipPath><clipPath
       id="clipPath3519"
       clipPathUnits="userSpaceOnUse"><path
         id="path3521"
         d="m 2770,5740 240,0 10,0 0,20 -10,0 -240,0 -10,0 0,-20 10,0 z" /></clipPath><clipPath
       id="clipPath3509"
       clipPathUnits="userSpaceOnUse"><path
         id="path3511"
         d="m 2760,6250 0,-500 0,-10 20,0 0,10 0,500 0,10 -20,0 0,-10 z" /></clipPath><clipPath
       id="clipPath3499"
       clipPathUnits="userSpaceOnUse"><path
         id="path3501"
         d="m 3010,6260 -240,0 -10,0 0,-20 10,0 240,0 10,0 0,20 -10,0 z" /></clipPath><clipPath
       id="clipPath3489"
       clipPathUnits="userSpaceOnUse"><path
         id="path3491"
         d="m 3010,5740 c 143.6,0 260,116.4 260,260 0,143.6 -116.4,260 -260,260 l -10,0 0,-20 10,0 c 132.55,0 240,-107.45 240,-240 0,-132.55 -107.45,-240 -240,-240 l -10,0 0,-20 10,0 z" /></clipPath><clipPath
       id="clipPath3479"
       clipPathUnits="userSpaceOnUse"><path
         id="path3481"
         d="m 2770,4740 240,0 10,0 0,20 -10,0 -240,0 -10,0 0,-20 10,0 z" /></clipPath><clipPath
       id="clipPath3469"
       clipPathUnits="userSpaceOnUse"><path
         id="path3471"
         d="m 2760,5250 0,-500 0,-10 20,0 0,10 0,500 0,10 -20,0 0,-10 z" /></clipPath><clipPath
       id="clipPath3459"
       clipPathUnits="userSpaceOnUse"><path
         id="path3461"
         d="m 3010,5260 -240,0 -10,0 0,-20 10,0 240,0 10,0 0,20 -10,0 z" /></clipPath><clipPath
       id="clipPath3449"
       clipPathUnits="userSpaceOnUse"><path
         id="path3451"
         d="m 3010,4740 c 143.6,0 260,116.4 260,260 0,143.6 -116.4,260 -260,260 l -10,0 0,-20 10,0 c 132.55,0 240,-107.45 240,-240 0,-132.55 -107.45,-240 -240,-240 l -10,0 0,-20 10,0 z" /></clipPath><clipPath
       id="clipPath3439"
       clipPathUnits="userSpaceOnUse"><path
         id="path3441"
         d="M 4367.81,5506.25 C 4232.44,5675.35 4063.17,5759.94 3860,5760 l -16.45,0 7.57,-14.61 c 85.17,-163.59 85.17,-327.19 0,-490.78 l -7.57,-14.61 16.45,0 c 203.17,0.06 372.44,84.65 507.81,253.75 l 5,6.25 -5,6.25 z m -15.62,0 C 4220.89,5342.02 4056.83,5259.94 3860,5260 l 0,-10 8.88,-4.61 c 88.16,169.74 88.16,339.48 0,509.22 l -8.88,-4.61 0,-10 c 196.83,0.06 360.89,-82.02 492.19,-246.25 l 7.81,6.25 -7.81,6.25 z" /></clipPath><clipPath
       id="clipPath3429"
       clipPathUnits="userSpaceOnUse"><path
         id="path3431"
         d="m 3860,5285 20,0 15,0 0,30 -15,0 -20,0 -15,0 0,-30 15,0 z" /></clipPath><clipPath
       id="clipPath3419"
       clipPathUnits="userSpaceOnUse"><path
         id="path3421"
         d="m 3860,5685 20,0 15,0 0,30 -15,0 -20,0 -15,0 0,-30 15,0 z" /></clipPath><clipPath
       id="clipPath3409"
       clipPathUnits="userSpaceOnUse"><path
         id="path3411"
         d="m 2180,4800 c 0,-11.05 -8.95,-20 -20,-20 -11.05,0 -20,8.95 -20,20 0,11.05 8.95,20 20,20 11.05,0 20,-8.95 20,-20 z" /></clipPath><clipPath
       id="clipPath3399"
       clipPathUnits="userSpaceOnUse"><path
         id="path3401"
         d="m 2480,4800 c 0,-11.05 -8.95,-20 -20,-20 -11.05,0 -20,8.95 -20,20 0,11.05 8.95,20 20,20 11.05,0 20,-8.95 20,-20 z" /></clipPath><clipPath
       id="clipPath3389"
       clipPathUnits="userSpaceOnUse"><path
         id="path3391"
         d="m 2450,4795 c 0,-19.33 -15.67,-35 -35,-35 -19.33,0 -35,15.67 -35,35 0,19.33 15.67,35 35,35 19.33,0 35,-15.67 35,-35 z m 20,0 c 0,30.38 -24.62,55 -55,55 -30.38,0 -55,-24.62 -55,-55 0,-30.38 24.62,-55 55,-55 30.38,0 55,24.62 55,55 z" /></clipPath><clipPath
       id="clipPath3379"
       clipPathUnits="userSpaceOnUse"><path
         id="path3381"
         d="m 2173.46,4720.62 190,70 9.38,3.45 -6.91,18.77 -9.39,-3.46 -190,-70 -9.38,-3.45 6.91,-18.77 9.39,3.46 z" /></clipPath><clipPath
       id="clipPath3369"
       clipPathUnits="userSpaceOnUse"><path
         id="path3371"
         d="m 2160,4870 0,-140 0,-10 20,0 0,10 0,140 0,10 -20,0 0,-10 z" /></clipPath><clipPath
       id="clipPath3359"
       clipPathUnits="userSpaceOnUse"><path
         id="path3361"
         d="m 2363.46,4809.38 -190,70 -9.39,3.46 -6.91,-18.77 9.38,-3.45 190,-70 9.39,-3.46 6.91,18.77 -9.38,3.45 z" /></clipPath><clipPath
       id="clipPath3349"
       clipPathUnits="userSpaceOnUse"><path
         id="path3351"
         d="m 1800,5800 c 0,-22.09 -17.91,-40 -40,-40 -22.09,0 -40,17.91 -40,40 0,22.09 17.91,40 40,40 22.09,0 40,-17.91 40,-40 z" /></clipPath><clipPath
       id="clipPath3339"
       clipPathUnits="userSpaceOnUse"><path
         id="path3341"
         d="m 1400,6200 c 0,-22.09 -17.91,-40 -40,-40 -22.09,0 -40,17.91 -40,40 0,22.09 17.91,40 40,40 22.09,0 40,-17.91 40,-40 z" /></clipPath><clipPath
       id="clipPath3329"
       clipPathUnits="userSpaceOnUse"><path
         id="path3331"
         d="m 1800,4800 c 0,-22.09 -17.91,-40 -40,-40 -22.09,0 -40,17.91 -40,40 0,22.09 17.91,40 40,40 22.09,0 40,-17.91 40,-40 z" /></clipPath><clipPath
       id="clipPath3319"
       clipPathUnits="userSpaceOnUse"><path
         id="path3321"
         d="m 1400,5200 c 0,-22.09 -17.91,-40 -40,-40 -22.09,0 -40,17.91 -40,40 0,22.09 17.91,40 40,40 22.09,0 40,-17.91 40,-40 z" /></clipPath><clipPath
       id="clipPath3309"
       clipPathUnits="userSpaceOnUse"><path
         id="path3311"
         d="m 3260,4985 400,0 15,0 0,30 -15,0 -400,0 -15,0 0,-30 15,0 z" /></clipPath><clipPath
       id="clipPath3299"
       clipPathUnits="userSpaceOnUse"><path
         id="path3301"
         d="m 3260,5985 400,0 15,0 0,30 -15,0 -400,0 -15,0 0,-30 15,0 z" /></clipPath><clipPath
       id="clipPath3289"
       clipPathUnits="userSpaceOnUse"><path
         id="path3291"
         d="m 2460,6185 300,0 15,0 0,30 -15,0 -300,0 -15,0 0,-30 15,0 z" /></clipPath><clipPath
       id="clipPath3279"
       clipPathUnits="userSpaceOnUse"><path
         id="path3281"
         d="m 1345,6500 0,-300 0,-15 30,0 0,15 0,300 0,15 -30,0 0,-15 z" /></clipPath><clipPath
       id="clipPath3269"
       clipPathUnits="userSpaceOnUse"><path
         id="path3271"
         d="m 1345,6200 0,-1000 0,-15 30,0 0,15 0,1000 0,15 -30,0 0,-15 z" /></clipPath><clipPath
       id="clipPath3259"
       clipPathUnits="userSpaceOnUse"><path
         id="path3261"
         d="m 3660,5285 200,0 15,0 0,30 -15,0 -200,0 -15,0 0,-30 15,0 z" /></clipPath><clipPath
       id="clipPath3249"
       clipPathUnits="userSpaceOnUse"><path
         id="path3251"
         d="m 3660,5685 200,0 15,0 0,30 -15,0 -200,0 -15,0 0,-30 15,0 z" /></clipPath><clipPath
       id="clipPath3239"
       clipPathUnits="userSpaceOnUse"><path
         id="path3241"
         d="m 3645,5300 0,-300 0,-15 30,0 0,15 0,300 0,15 -30,0 0,-15 z" /></clipPath><clipPath
       id="clipPath3229"
       clipPathUnits="userSpaceOnUse"><path
         id="path3231"
         d="m 3645,6000 0,-300 0,-15 30,0 0,15 0,300 0,15 -30,0 0,-15 z" /></clipPath><clipPath
       id="clipPath3219"
       clipPathUnits="userSpaceOnUse"><path
         id="path3221"
         d="m 1760,5785 1000,0 15,0 0,30 -15,0 -1000,0 -15,0 0,-30 15,0 z" /></clipPath><clipPath
       id="clipPath3209"
       clipPathUnits="userSpaceOnUse"><path
         id="path3211"
         d="m 1360,5185 1400,0 15,0 0,30 -15,0 -1400,0 -15,0 0,-30 15,0 z" /></clipPath><clipPath
       id="clipPath3199"
       clipPathUnits="userSpaceOnUse"><path
         id="path3201"
         d="m 4360,5485 300,0 15,0 0,30 -15,0 -300,0 -15,0 0,-30 15,0 z" /></clipPath><clipPath
       id="clipPath3189"
       clipPathUnits="userSpaceOnUse"><path
         id="path3191"
         d="m 1345,5200 0,-1300 0,-15 30,0 0,15 0,1300 0,15 -30,0 0,-15 z" /></clipPath><clipPath
       id="clipPath3179"
       clipPathUnits="userSpaceOnUse"><path
         id="path3181"
         d="m 1360,6185 800,0 15,0 0,30 -15,0 -800,0 -15,0 0,-30 15,0 z" /></clipPath><clipPath
       id="clipPath3169"
       clipPathUnits="userSpaceOnUse"><path
         id="path3171"
         d="m 1745,6500 0,-700 0,-15 30,0 0,15 0,700 0,15 -30,0 0,-15 z" /></clipPath><clipPath
       id="clipPath3159"
       clipPathUnits="userSpaceOnUse"><path
         id="path3161"
         d="m 2460,4785 300,0 15,0 0,30 -15,0 -300,0 -15,0 0,-30 15,0 z" /></clipPath><clipPath
       id="clipPath3149"
       clipPathUnits="userSpaceOnUse"><path
         id="path3151"
         d="m 1760,4785 400,0 15,0 0,30 -15,0 -400,0 -15,0 0,-30 15,0 z" /></clipPath><clipPath
       id="clipPath3139"
       clipPathUnits="userSpaceOnUse"><path
         id="path3141"
         d="m 1745,5800 0,-1000 0,-15 30,0 0,15 0,1000 0,15 -30,0 0,-15 z" /></clipPath><clipPath
       id="clipPath3129"
       clipPathUnits="userSpaceOnUse"><path
         id="path3131"
         d="m 1745,4800 0,-900 0,-15 30,0 0,15 0,900 0,15 -30,0 0,-15 z" /></clipPath><clipPath
       id="clipPath3115"
       clipPathUnits="userSpaceOnUse"><path
         id="path3117"
         d="m 720,7200 4680,0 0,-6480 -4680,0 0,6480 z" /></clipPath><inkscape:perspective
       id="perspective3105"
       inkscape:persp3d-origin="0.5 : 0.33333333 : 1"
       inkscape:vp_z="1 : 0.5 : 1"
       inkscape:vp_y="0 : 1000 : 0"
       inkscape:vp_x="0 : 0.5 : 1"
       sodipodi:type="inkscape:persp3d" /></defs><sodipodi:namedview
     pagecolor="#ffffff"
     bordercolor="#666666"
     borderopacity="1"
     objecttolerance="10"
     gridtolerance="10"
     guidetolerance="10"
     inkscape:pageopacity="0"
     inkscape:pageshadow="2"
     inkscape:window-width="1024"
     inkscape:window-height="696"
     id="namedview4"
     showgrid="false"
     inkscape:zoom="1.4228703"
     inkscape:cx="135.51432"
     inkscape:cy="110.58661"
     inkscape:window-x="0"
     inkscape:window-y="25"
     inkscape:window-maximized="1"
     inkscape:current-layer="g12" /><g
     id="g12"
     inkscape:groupmode="layer"
     inkscape:label="aula12"
     transform="matrix(1.25,0,0,-1.25,-48.777119,198.9873)"><g
       transform="matrix(0.53973069,0,0,0.53973069,-30.371623,-202.68482)"
       inkscape:label="out"
       id="g3107"><g
         transform="scale(0.1,0.1)"
         id="g3109"><g
           id="g3125"><g
             clip-path="url(#clipPath3129)"
             id="g3127"><path
               id="path3133"
               style="fill:#000000;fill-opacity:1;fill-rule:nonzero;stroke:none"
               d="m 1745,4943.8583 0,-597.8184 30,0 0,607.6187 -30,0 0,-9.8003" /></g></g><g
           id="g3135"><g
             clip-path="url(#clipPath3139)"
             id="g3137"><path
               id="path3143"
               style="fill:#000000;fill-opacity:1;fill-rule:nonzero;stroke:none"
               d="m 1745,5800 0,-1015 30,0 0,1030 -30,0 0,-15" /></g></g><g
           id="g3145"><g
             clip-path="url(#clipPath3149)"
             id="g3147"><path
               id="path3153"
               style="fill:#000000;fill-opacity:1;fill-rule:nonzero;stroke:none"
               d="m 1760,4785 415,0 0,30 -430,0 0,-30 15,0" /></g></g><g
           id="g3155"><g
             clip-path="url(#clipPath3159)"
             id="g3157"><path
               id="path3163"
               style="fill:#000000;fill-opacity:1;fill-rule:nonzero;stroke:none"
               d="m 2460,4785 315,0 0,30 -330,0 0,-30 15,0" /></g></g><g
           id="g3165"><g
             clip-path="url(#clipPath3169)"
             id="g3167"><path
               id="path3173"
               style="fill:#000000;fill-opacity:1;fill-rule:nonzero;stroke:none"
               d="m 1745,6500 0,-715 30,0 0,730 -30,0 0,-15" /></g></g><g
           id="g3175"><g
             clip-path="url(#clipPath3179)"
             id="g3177"><path
               id="path3183"
               style="fill:#000000;fill-opacity:1;fill-rule:nonzero;stroke:none"
               d="m 1360,6185 815,0 0,30 -830,0 0,-30 15,0" /></g></g><g
           id="g3185"
           transform="matrix(1,0,0,0.65335344,0,1807.7618)"><g
             clip-path="url(#clipPath3189)"
             id="g3187"><path
               id="path3193"
               style="fill:#000000;fill-opacity:1;fill-rule:nonzero;stroke:none"
               d="m 1345,5200 0,-1315 30,0 0,1330 -30,0 0,-15" /></g></g><g
           id="g3195"><g
             clip-path="url(#clipPath3199)"
             id="g3197"><path
               id="path3203"
               style="fill:#000000;fill-opacity:1;fill-rule:nonzero;stroke:none"
               d="m 4360,5485 315,0 0,30 -330,0 0,-30 15,0" /></g></g><g
           id="g3205"><g
             clip-path="url(#clipPath3209)"
             id="g3207"><path
               id="path3213"
               style="fill:#000000;fill-opacity:1;fill-rule:nonzero;stroke:none"
               d="m 1360,5185 1415,0 0,30 -1430,0 0,-30 15,0" /></g></g><g
           id="g3215"><g
             clip-path="url(#clipPath3219)"
             id="g3217"><path
               id="path3223"
               style="fill:#000000;fill-opacity:1;fill-rule:nonzero;stroke:none"
               d="m 1760,5785 1015,0 0,30 -1030,0 0,-30 15,0" /></g></g><g
           id="g3225"><g
             clip-path="url(#clipPath3229)"
             id="g3227"><path
               id="path3233"
               style="fill:#000000;fill-opacity:1;fill-rule:nonzero;stroke:none"
               d="m 3645,6000 0,-315 30,0 0,330 -30,0 0,-15" /></g></g><g
           id="g3235"><g
             clip-path="url(#clipPath3239)"
             id="g3237"><path
               id="path3243"
               style="fill:#000000;fill-opacity:1;fill-rule:nonzero;stroke:none"
               d="m 3645,5300 0,-315 30,0 0,330 -30,0 0,-15" /></g></g><g
           id="g3245"><g
             clip-path="url(#clipPath3249)"
             id="g3247"><path
               id="path3253"
               style="fill:#000000;fill-opacity:1;fill-rule:nonzero;stroke:none"
               d="m 3660,5685 215,0 0,30 -230,0 0,-30 15,0" /></g></g><g
           id="g3255"><g
             clip-path="url(#clipPath3259)"
             id="g3257"><path
               id="path3263"
               style="fill:#000000;fill-opacity:1;fill-rule:nonzero;stroke:none"
               d="m 3660,5285 215,0 0,30 -230,0 0,-30 15,0" /></g></g><g
           id="g3265"><g
             clip-path="url(#clipPath3269)"
             id="g3267"><path
               id="path3273"
               style="fill:#000000;fill-opacity:1;fill-rule:nonzero;stroke:none"
               d="m 1345,6200 0,-1015 30,0 0,1030 -30,0 0,-15" /></g></g><g
           id="g3275"><g
             clip-path="url(#clipPath3279)"
             id="g3277"><path
               id="path3283"
               style="fill:#000000;fill-opacity:1;fill-rule:nonzero;stroke:none"
               d="m 1345,6500 0,-315 30,0 0,330 -30,0 0,-15" /></g></g><g
           id="g3285"><g
             clip-path="url(#clipPath3289)"
             id="g3287"><path
               id="path3293"
               style="fill:#000000;fill-opacity:1;fill-rule:nonzero;stroke:none"
               d="m 2460,6185 315,0 0,30 -330,0 0,-30 15,0" /></g></g><g
           id="g3295"><g
             clip-path="url(#clipPath3299)"
             id="g3297"><path
               id="path3303"
               style="fill:#000000;fill-opacity:1;fill-rule:nonzero;stroke:none"
               d="m 3260,5985 415,0 0,30 -430,0 0,-30 15,0" /></g></g><g
           id="g3305"><g
             clip-path="url(#clipPath3309)"
             id="g3307"><path
               id="path3313"
               style="fill:#000000;fill-opacity:1;fill-rule:nonzero;stroke:none"
               d="m 3260,4985 415,0 0,30 -430,0 0,-30 15,0" /></g></g><g
           id="g3315"><g
             clip-path="url(#clipPath3319)"
             id="g3317"><path
               id="path3323"
               style="fill:#000000;fill-opacity:1;fill-rule:nonzero;stroke:none"
               d="m 1400,5200 c 0,-22.09 -17.91,-40 -40,-40 -22.09,0 -40,17.91 -40,40 0,22.09 17.91,40 40,40 22.09,0 40,-17.91 40,-40" /></g></g><g
           id="g3325"><g
             clip-path="url(#clipPath3329)"
             id="g3327"><path
               id="path3333"
               style="fill:#000000;fill-opacity:1;fill-rule:nonzero;stroke:none"
               d="m 1800,4800 c 0,-22.09 -17.91,-40 -40,-40 -22.09,0 -40,17.91 -40,40 0,22.09 17.91,40 40,40 22.09,0 40,-17.91 40,-40" /></g></g><g
           id="g3335"><g
             clip-path="url(#clipPath3339)"
             id="g3337"><path
               id="path3343"
               style="fill:#000000;fill-opacity:1;fill-rule:nonzero;stroke:none"
               d="m 1400,6200 c 0,-22.09 -17.91,-40 -40,-40 -22.09,0 -40,17.91 -40,40 0,22.09 17.91,40 40,40 22.09,0 40,-17.91 40,-40" /></g></g><g
           id="g3345"><g
             clip-path="url(#clipPath3349)"
             id="g3347"><path
               id="path3353"
               style="fill:#000000;fill-opacity:1;fill-rule:nonzero;stroke:none"
               d="m 1800,5800 c 0,-22.09 -17.91,-40 -40,-40 -22.09,0 -40,17.91 -40,40 0,22.09 17.91,40 40,40 22.09,0 40,-17.91 40,-40" /></g></g><g
           id="g3355"><g
             clip-path="url(#clipPath3359)"
             id="g3357"><path
               id="path3363"
               style="fill:#000000;fill-opacity:1;fill-rule:nonzero;stroke:none"
               d="m 2363.46,4809.38 -190,70 -9.39,3.46 -6.91,-18.77 9.38,-3.45 190,-70 9.39,-3.46 6.91,18.77 -9.38,3.45" /></g></g><g
           id="g3365"><g
             clip-path="url(#clipPath3369)"
             id="g3367"><path
               id="path3373"
               style="fill:#000000;fill-opacity:1;fill-rule:nonzero;stroke:none"
               d="m 2160,4870 0,-150 20,0 0,160 -20,0 0,-10" /></g></g><g
           id="g3375"><g
             clip-path="url(#clipPath3379)"
             id="g3377"><path
               id="path3383"
               style="fill:#000000;fill-opacity:1;fill-rule:nonzero;stroke:none"
               d="m 2173.46,4720.62 190,70 9.38,3.45 -6.91,18.77 -9.39,-3.46 -190,-70 -9.38,-3.45 6.91,-18.77 9.39,3.46" /></g></g><g
           id="g3385"><g
             clip-path="url(#clipPath3389)"
             id="g3387"><path
               id="path3393"
               style="fill:#000000;fill-opacity:1;fill-rule:nonzero;stroke:none"
               d="m 2450,4795 c 0,-19.33 -15.67,-35 -35,-35 -19.33,0 -35,15.67 -35,35 0,19.33 15.67,35 35,35 19.33,0 35,-15.67 35,-35 z m 20,0 c 0,30.38 -24.62,55 -55,55 -30.38,0 -55,-24.62 -55,-55 0,-30.38 24.62,-55 55,-55 30.38,0 55,24.62 55,55" /></g></g><g
           id="g3395"><g
             clip-path="url(#clipPath3399)"
             id="g3397"><path
               id="path3403"
               style="fill:#000000;fill-opacity:1;fill-rule:nonzero;stroke:none"
               d="m 2480,4800 c 0,-11.05 -8.95,-20 -20,-20 -11.05,0 -20,8.95 -20,20 0,11.05 8.95,20 20,20 11.05,0 20,-8.95 20,-20" /></g></g><g
           id="g3405"><g
             clip-path="url(#clipPath3409)"
             id="g3407"><path
               id="path3413"
               style="fill:#000000;fill-opacity:1;fill-rule:nonzero;stroke:none"
               d="m 2180,4800 c 0,-11.05 -8.95,-20 -20,-20 -11.05,0 -20,8.95 -20,20 0,11.05 8.95,20 20,20 11.05,0 20,-8.95 20,-20" /></g></g><g
           id="g3415"><g
             clip-path="url(#clipPath3419)"
             id="g3417"><path
               id="path3423"
               style="fill:#000000;fill-opacity:1;fill-rule:nonzero;stroke:none"
               d="m 3860,5685 35,0 0,30 -50,0 0,-30 15,0" /></g></g><g
           id="g3425"><g
             clip-path="url(#clipPath3429)"
             id="g3427"><path
               id="path3433"
               style="fill:#000000;fill-opacity:1;fill-rule:nonzero;stroke:none"
               d="m 3860,5285 35,0 0,30 -50,0 0,-30 15,0" /></g></g><g
           id="g3435"><g
             clip-path="url(#clipPath3439)"
             id="g3437"><path
               id="path3443"
               style="fill:#000000;fill-opacity:1;fill-rule:nonzero;stroke:none"
               d="M 4367.81,5506.25 C 4232.44,5675.35 4063.17,5759.94 3860,5760 l -16.45,0 7.57,-14.61 c 85.17,-163.59 85.17,-327.19 0,-490.78 l -7.57,-14.61 16.45,0 c 203.17,0.06 372.44,84.65 507.81,253.75 l 5,6.25 -5,6.25 z m -15.62,0 C 4220.89,5342.02 4056.83,5259.94 3860,5260 l 0,-10 8.88,-4.61 c 88.16,169.74 88.16,339.48 0,509.22 l -8.88,-4.61 0,-10 c 196.83,0.06 360.89,-82.02 492.19,-246.25 l 7.81,6.25 -7.81,6.25" /></g></g><g
           id="g3445"><g
             clip-path="url(#clipPath3449)"
             id="g3447"><path
               id="path3453"
               style="fill:#000000;fill-opacity:1;fill-rule:nonzero;stroke:none"
               d="m 3010,4740 c 143.6,0 260,116.4 260,260 0,143.6 -116.4,260 -260,260 l -10,0 0,-20 10,0 c 132.55,0 240,-107.45 240,-240 0,-132.55 -107.45,-240 -240,-240 l -10,0 0,-20 10,0" /></g></g><g
           id="g3455"><g
             clip-path="url(#clipPath3459)"
             id="g3457"><path
               id="path3463"
               style="fill:#000000;fill-opacity:1;fill-rule:nonzero;stroke:none"
               d="m 3010,5260 -250,0 0,-20 260,0 0,20 -10,0" /></g></g><g
           id="g3465"><g
             clip-path="url(#clipPath3469)"
             id="g3467"><path
               id="path3473"
               style="fill:#000000;fill-opacity:1;fill-rule:nonzero;stroke:none"
               d="m 2760,5250 0,-510 20,0 0,520 -20,0 0,-10" /></g></g><g
           id="g3475"><g
             clip-path="url(#clipPath3479)"
             id="g3477"><path
               id="path3483"
               style="fill:#000000;fill-opacity:1;fill-rule:nonzero;stroke:none"
               d="m 2770,4740 250,0 0,20 -260,0 0,-20 10,0" /></g></g><g
           id="g3485"><g
             clip-path="url(#clipPath3489)"
             id="g3487"><path
               id="path3493"
               style="fill:#000000;fill-opacity:1;fill-rule:nonzero;stroke:none"
               d="m 3010,5740 c 143.6,0 260,116.4 260,260 0,143.6 -116.4,260 -260,260 l -10,0 0,-20 10,0 c 132.55,0 240,-107.45 240,-240 0,-132.55 -107.45,-240 -240,-240 l -10,0 0,-20 10,0" /></g></g><g
           id="g3495"><g
             clip-path="url(#clipPath3499)"
             id="g3497"><path
               id="path3503"
               style="fill:#000000;fill-opacity:1;fill-rule:nonzero;stroke:none"
               d="m 3010,6260 -250,0 0,-20 260,0 0,20 -10,0" /></g></g><g
           id="g3505"><g
             clip-path="url(#clipPath3509)"
             id="g3507"><path
               id="path3513"
               style="fill:#000000;fill-opacity:1;fill-rule:nonzero;stroke:none"
               d="m 2760,6250 0,-510 20,0 0,520 -20,0 0,-10" /></g></g><g
           id="g3515"><g
             clip-path="url(#clipPath3519)"
             id="g3517"><path
               id="path3523"
               style="fill:#000000;fill-opacity:1;fill-rule:nonzero;stroke:none"
               d="m 2770,5740 250,0 0,20 -260,0 0,-20 10,0" /></g></g><g
           id="g3549"><g
             clip-path="url(#clipPath3553)"
             id="g3551"><path
               id="path3557"
               style="fill:#000000;fill-opacity:1;fill-rule:nonzero;stroke:none"
               d="m 4680,5500 c 0,-11.05 -8.95,-20 -20,-20 -11.05,0 -20,8.95 -20,20 0,11.05 8.95,20 20,20 11.05,0 20,-8.95 20,-20" /></g></g><g
           id="g3635"><g
             clip-path="url(#clipPath3639)"
             id="g3637"><path
               id="path3643"
               style="fill:#000000;fill-opacity:1;fill-rule:nonzero;stroke:none"
               d="m 2363.46,6209.38 -190,70 -9.39,3.46 -6.91,-18.77 9.38,-3.45 190,-70 9.39,-3.46 6.91,18.77 -9.38,3.45" /></g></g><g
           id="g3645"><g
             clip-path="url(#clipPath3649)"
             id="g3647"><path
               id="path3653"
               style="fill:#000000;fill-opacity:1;fill-rule:nonzero;stroke:none"
               d="m 2160,6270 0,-150 20,0 0,160 -20,0 0,-10" /></g></g><g
           id="g3655"><g
             clip-path="url(#clipPath3659)"
             id="g3657"><path
               id="path3663"
               style="fill:#000000;fill-opacity:1;fill-rule:nonzero;stroke:none"
               d="m 2173.46,6120.62 190,70 9.38,3.45 -6.91,18.77 -9.39,-3.46 -190,-70 -9.38,-3.45 6.91,-18.77 9.39,3.46" /></g></g><g
           id="g3665"><g
             clip-path="url(#clipPath3669)"
             id="g3667"><path
               id="path3673"
               style="fill:#000000;fill-opacity:1;fill-rule:nonzero;stroke:none"
               d="m 2450,6195 c 0,-19.33 -15.67,-35 -35,-35 -19.33,0 -35,15.67 -35,35 0,19.33 15.67,35 35,35 19.33,0 35,-15.67 35,-35 z m 20,0 c 0,30.38 -24.62,55 -55,55 -30.38,0 -55,-24.62 -55,-55 0,-30.38 24.62,-55 55,-55 30.38,0 55,24.62 55,55" /></g></g><g
           id="g3675"><g
             clip-path="url(#clipPath3679)"
             id="g3677"><path
               id="path3683"
               style="fill:#000000;fill-opacity:1;fill-rule:nonzero;stroke:none"
               d="m 2480,6200 c 0,-11.05 -8.95,-20 -20,-20 -11.05,0 -20,8.95 -20,20 0,11.05 8.95,20 20,20 11.05,0 20,-8.95 20,-20" /></g></g><g
           id="g3685"><g
             clip-path="url(#clipPath3689)"
             id="g3687"><path
               id="path3693"
               style="fill:#000000;fill-opacity:1;fill-rule:nonzero;stroke:none"
               d="m 2180,6200 c 0,-11.05 -8.95,-20 -20,-20 -11.05,0 -20,8.95 -20,20 0,11.05 8.95,20 20,20 11.05,0 20,-8.95 20,-20" /></g></g></g></g><text
       xml:space="preserve"
       style="font-size:9.60000038px;font-style:normal;font-variant:normal;font-weight:normal;font-stretch:normal;fill:#000000;fill-opacity:1;stroke:none;font-family:LMSans10;-inkscape-font-specification:LMSans10"
       x="106.17735"
       y="-137.36095"
       id="text3990"
       transform="scale(1,-1)"><tspan
         sodipodi:role="line"
         id="tspan3992"
         x="106.17735"
         y="-137.36095"
         style="font-size:11.19999981px;font-style:italic;-inkscape-font-specification:Bitstream Vera Sans Oblique">A</tspan></text>
<text
       transform="scale(1,-1)"
       id="text3994"
       y="-114.13549"
       x="106.17735"
       style="font-size:9.60000038px;font-style:normal;font-variant:normal;font-weight:normal;font-stretch:normal;fill:#000000;fill-opacity:1;stroke:none;font-family:LMSans10;-inkscape-font-specification:LMSans10"
       xml:space="preserve"><tspan
         style="font-size:11.19999981px;font-style:italic;-inkscape-font-specification:Bitstream Vera Sans Oblique"
         y="-114.13549"
         x="106.17735"
         id="tspan3996"
         sodipodi:role="line">B</tspan></text>
<path
       style="fill:#aaeeff;fill-opacity:1;stroke:#000000;stroke-width:0.56;stroke-linecap:butt;stroke-miterlimit:4;stroke-opacity:1;stroke-dasharray:none;stroke-dashoffset:0"
       d="m 106.73959,146.95423 7.30917,0"
       id="path3998" /><text
       transform="scale(1,-1)"
       id="text4000"
       y="-81.136566"
       x="106.17735"
       style="font-size:9.60000038px;font-style:normal;font-variant:normal;font-weight:normal;font-stretch:normal;fill:#000000;fill-opacity:1;stroke:none;font-family:LMSans10;-inkscape-font-specification:LMSans10"
       xml:space="preserve"><tspan
         style="font-size:11.19999981px;font-style:italic;-inkscape-font-specification:Bitstream Vera Sans Oblique"
         y="-81.136566"
         x="106.17735"
         id="tspan4002"
         sodipodi:role="line">A</tspan></text>
<text
       xml:space="preserve"
       style="font-size:9.60000038px;font-style:normal;font-variant:normal;font-weight:normal;font-stretch:normal;fill:#000000;fill-opacity:1;stroke:none;font-family:LMSans10;-inkscape-font-specification:LMSans10"
       x="106.17735"
       y="-57.91111"
       id="text4004"
       transform="scale(1,-1)"><tspan
         sodipodi:role="line"
         id="tspan4006"
         x="106.17735"
         y="-57.91111"
         style="font-size:11.19999981px;font-style:italic;-inkscape-font-specification:Bitstream Vera Sans Oblique">B</tspan></text>
<path
       id="path4008"
       d="m 106.73959,67.11561 7.30917,0"
       style="fill:#aaeeff;fill-opacity:1;stroke:#000000;stroke-width:0.56;stroke-linecap:butt;stroke-miterlimit:4;stroke-opacity:1;stroke-dasharray:none;stroke-dashoffset:0" /><text
       xml:space="preserve"
       style="font-size:11.19999981px;font-style:normal;font-variant:normal;font-weight:normal;font-stretch:normal;fill:#000000;fill-opacity:1;stroke:none;font-family:LMSans10;-inkscape-font-specification:LMSans10"
       x="149.27573"
       y="-124.53701"
       id="text4010"
       transform="scale(1,-1)"><tspan
         sodipodi:role="line"
         id="tspan4012"
         x="149.27573"
         y="-124.53701"
         style="font-style:italic">AB</tspan></text>
<path
       id="path4014"
       d="m 149.47012,133.46038 7.30917,0"
       style="fill:#aaeeff;fill-opacity:1;stroke:#000000;stroke-width:0.56;stroke-linecap:butt;stroke-miterlimit:4;stroke-opacity:1;stroke-dasharray:none;stroke-dashoffset:0" /><text
       transform="scale(1,-1)"
       id="text4016"
       y="-70.561607"
       x="149.27573"
       style="font-size:11.19999981px;font-style:normal;font-variant:normal;font-weight:normal;font-stretch:normal;fill:#000000;fill-opacity:1;stroke:none;font-family:LMSans10;-inkscape-font-specification:LMSans10"
       xml:space="preserve"><tspan
         style="font-style:italic"
         y="-70.561607"
         x="149.27573"
         id="tspan4018"
         sodipodi:role="line">AB</tspan></text>
<path
       style="fill:#aaeeff;fill-opacity:1;stroke:#000000;stroke-width:0.56;stroke-linecap:butt;stroke-miterlimit:4;stroke-opacity:1;stroke-dasharray:none;stroke-dashoffset:0"
       d="m 157.34153,79.484975 7.30917,0"
       id="path4020" /><text
       xml:space="preserve"
       style="font-size:9.60000038px;font-style:normal;font-variant:normal;font-weight:normal;font-stretch:normal;fill:#000000;fill-opacity:1;stroke:none;font-family:LMSans10;-inkscape-font-specification:LMSans10"
       x="38.708096"
       y="-151.41704"
       id="text4022"
       transform="scale(1,-1)"><tspan
         sodipodi:role="line"
         id="tspan4024"
         x="38.708096"
         y="-151.41704"
         style="font-size:11.19999981px;font-style:italic;-inkscape-font-specification:Bitstream Vera Sans Oblique">A</tspan></text>
<text
       transform="scale(1,-1)"
       id="text4026"
       y="-151.41704"
       x="60.354481"
       style="font-size:9.60000038px;font-style:normal;font-variant:normal;font-weight:normal;font-stretch:normal;fill:#000000;fill-opacity:1;stroke:none;font-family:LMSans10;-inkscape-font-specification:LMSans10"
       xml:space="preserve"><tspan
         style="font-size:11.19999981px;font-style:italic;-inkscape-font-specification:Bitstream Vera Sans Oblique"
         y="-151.41704"
         x="60.354481"
         id="tspan4028"
         sodipodi:role="line">B</tspan></text>
<text
       transform="scale(1,-1)"
       id="text4030"
       y="-98.673798"
       x="209.15469"
       style="font-size:11.19999981px;font-style:normal;font-variant:normal;font-weight:normal;font-stretch:normal;fill:#000000;fill-opacity:1;stroke:none;font-family:LMSans10;-inkscape-font-specification:LMSans10"
       xml:space="preserve"><tspan
         style="font-style:italic"
         y="-98.673798"
         x="209.15469"
         id="tspan4032"
         sodipodi:role="line">AB<tspan
   style="font-style:normal"
   id="tspan4036"><tspan
     style="font-weight:bold"
     id="tspan4040">+</tspan><tspan
     style="font-style:italic"
     id="tspan4038">AB</tspan></tspan></tspan></text>
<path
       style="fill:#aaeeff;fill-opacity:1;stroke:#000000;stroke-width:0.56;stroke-linecap:butt;stroke-miterlimit:4;stroke-opacity:1;stroke-dasharray:none;stroke-dashoffset:0"
       d="m 209.34909,107.59717 7.30917,0"
       id="path4034" /><path
       id="path4042"
       d="m 242.27688,107.59717 7.30917,0"
       style="fill:#aaeeff;fill-opacity:1;stroke:#000000;stroke-width:0.56;stroke-linecap:butt;stroke-miterlimit:4;stroke-opacity:1;stroke-dasharray:none;stroke-dashoffset:0" /></g></svg>