<?xml version="1.0" encoding="UTF-8" standalone="no"?>
<!-- Created with Inkscape (http://www.inkscape.org/) -->

<svg
   xmlns:dc="http://purl.org/dc/elements/1.1/"
   xmlns:cc="http://creativecommons.org/ns#"
   xmlns:rdf="http://www.w3.org/1999/02/22-rdf-syntax-ns#"
   xmlns:svg="http://www.w3.org/2000/svg"
   xmlns="http://www.w3.org/2000/svg"
   xmlns:sodipodi="http://sodipodi.sourceforge.net/DTD/sodipodi-0.dtd"
   xmlns:inkscape="http://www.inkscape.org/namespaces/inkscape"
   id="svg2"
   version="1.1"
   inkscape:version="0.47 r22583"
   width="101.58636"
   height="49"
   xml:space="preserve"
   sodipodi:docname="nand_univ1.svg"><metadata
     id="metadata8"><rdf:RDF><cc:Work
         rdf:about=""><dc:format>image/svg+xml</dc:format><dc:type
           rdf:resource="http://purl.org/dc/dcmitype/StillImage" /><dc:title></dc:title></cc:Work></rdf:RDF></metadata><defs
     id="defs6"><inkscape:perspective
       sodipodi:type="inkscape:persp3d"
       inkscape:vp_x="0 : 0.5 : 1"
       inkscape:vp_y="0 : 1000 : 0"
       inkscape:vp_z="1 : 0.5 : 1"
       inkscape:persp3d-origin="0.5 : 0.33333333 : 1"
       id="perspective10" /></defs><sodipodi:namedview
     pagecolor="#ffffff"
     bordercolor="#666666"
     borderopacity="1"
     objecttolerance="10"
     gridtolerance="10"
     guidetolerance="10"
     inkscape:pageopacity="0"
     inkscape:pageshadow="2"
     inkscape:window-width="1440"
     inkscape:window-height="825"
     id="namedview4"
     showgrid="true"
     showguides="false"
     inkscape:guide-bbox="true"
     inkscape:zoom="5.55037"
     inkscape:cx="77.875451"
     inkscape:cy="9.4696809"
     inkscape:window-x="0"
     inkscape:window-y="25"
     inkscape:window-maximized="1"
     inkscape:current-layer="g12"><inkscape:grid
       type="xygrid"
       id="grid4142"
       empspacing="5"
       visible="true"
       enabled="true"
       snapvisiblegridlinesonly="true"
       spacingx="0.6px"
       spacingy="0.6px"
       dotted="true" /></sodipodi:namedview><g
     id="g12"
     inkscape:groupmode="layer"
     inkscape:label="aula12"
     transform="matrix(1.25,0,0,-1.25,-156.76364,183.49999)">













<path
   id="path14406"
   style="fill:none;stroke:#000000;stroke-width:0.56;stroke-linecap:butt;stroke-miterlimit:4;stroke-opacity:1;stroke-dasharray:none;stroke-dashoffset:0"
   d="m 163.20451,115.2 -18.02843,0.11999 0.0894,23.92 L 163.2,139.2"
   sodipodi:nodetypes="cccc" /><text
   id="text3079"
   transform="scale(1,-1)"
   x="125.10545"
   y="-124.39999"><tspan
     id="tspan3081"
     y="-124.39999"
     x="125.10545"
     style="font-size:10.90909958px;font-style:oblique;font-variant:normal;writing-mode:lr-tb;fill:#000000;fill-opacity:1;fill-rule:nonzero;stroke:none;font-family:LMSans10;-inkscape-font-specification:LMSans10-Oblique">A</tspan></text>










<path
   transform="scale(1,-1)"
   style="fill:#ffffff;fill-opacity:1;stroke:#000000;stroke-width:0.79999995"
   d="m 158.4,-146.39999 12.8,0 c 11.50546,0.4 18,12.3635 18,19.19999 0,6.6612 -6.49454,18.64001 -18,19.20001 l -12.8,0 0,-38.4 z"
   id="rect3093"
   sodipodi:nodetypes="ccsccc" /><path
   sodipodi:nodetypes="cc"
   style="fill:none;stroke:#000000;stroke-width:0.56;stroke-linecap:butt;stroke-miterlimit:4;stroke-opacity:1;stroke-dasharray:none;stroke-dashoffset:0"
   d="m 189.6,127.2 16.8,0"
   id="path3096" />




<path
   sodipodi:type="arc"
   style="fill:#ffffff;fill-opacity:1;stroke:#000000;stroke-width:1;stroke-linecap:butt;stroke-miterlimit:4;stroke-opacity:1;stroke-dasharray:none;stroke-dashoffset:0"
   id="path4955"
   sodipodi:cx="82.199997"
   sodipodi:cy="24.4"
   sodipodi:rx="3"
   sodipodi:ry="3"
   d="m 85.199997,24.4 c 0,1.656854 -1.343146,3 -3,3 -1.656854,0 -3,-1.343146 -3,-3 0,-1.656855 1.343146,-3 3,-3 1.656854,0 3,1.343145 3,3 z"
   transform="matrix(0.8,0,0,-0.8,126.06546,146.79999)" /><path
   style="fill:#ffffff;fill-opacity:1;stroke:#000000;stroke-width:0.56;stroke-linecap:butt;stroke-miterlimit:4;stroke-opacity:1;stroke-dasharray:none;stroke-dashoffset:0"
   d="m 134.22546,127.75999 11.04,0"
   id="path14408"
   sodipodi:nodetypes="cc" /><path
   sodipodi:type="arc"
   style="fill:#000000;fill-opacity:1;stroke:none"
   id="path14413"
   sodipodi:cx="24"
   sodipodi:cy="23.799999"
   sodipodi:rx="1.8"
   sodipodi:ry="1.8"
   d="m 25.8,23.799999 c 0,0.994113 -0.805887,1.8 -1.8,1.8 -0.994113,0 -1.8,-0.805887 -1.8,-1.8 0,-0.994112 0.805887,-1.8 1.8,-1.8 0.994113,0 1.8,0.805888 1.8,1.8 z"
   transform="matrix(0.80000351,0,0,-0.80000351,126.06537,146.80007)" /></g></svg>