<?xml version="1.0" encoding="UTF-8" standalone="no"?>
<!-- Created with Inkscape (http://www.inkscape.org/) -->

<svg
   xmlns:dc="http://purl.org/dc/elements/1.1/"
   xmlns:cc="http://creativecommons.org/ns#"
   xmlns:rdf="http://www.w3.org/1999/02/22-rdf-syntax-ns#"
   xmlns:svg="http://www.w3.org/2000/svg"
   xmlns="http://www.w3.org/2000/svg"
   xmlns:xlink="http://www.w3.org/1999/xlink"
   xmlns:sodipodi="http://sodipodi.sourceforge.net/DTD/sodipodi-0.dtd"
   xmlns:inkscape="http://www.inkscape.org/namespaces/inkscape"
   id="svg4196"
   version="1.1"
   inkscape:version="0.47 r22583"
   width="379.19113"
   height="226.40852"
   xml:space="preserve"
   sodipodi:docname="magneto1.svg"><metadata
     id="metadata4202"><rdf:RDF><cc:Work
         rdf:about=""><dc:format>image/svg+xml</dc:format><dc:type
           rdf:resource="http://purl.org/dc/dcmitype/StillImage" /><dc:title></dc:title></cc:Work></rdf:RDF></metadata><defs
     id="defs4200"><inkscape:perspective
       sodipodi:type="inkscape:persp3d"
       inkscape:vp_x="0 : 0.5 : 1"
       inkscape:vp_y="0 : 1000 : 0"
       inkscape:vp_z="1 : 0.5 : 1"
       inkscape:persp3d-origin="0.5 : 0.33333333 : 1"
       id="perspective4204" /><clipPath
       clipPathUnits="userSpaceOnUse"
       id="clipPath4302"><path
         d="m 0,0 4.979,0 0,4.979 L 0,4.979 0,0 z"
         id="path4304" /></clipPath><radialGradient
       fx="1.6207401"
       fy="3.5510099"
       cx="2.4893601"
       cy="2.4893601"
       r="2.4893601"
       gradientUnits="userSpaceOnUse"
       id="radialGradient4306"><stop
         style="stop-opacity:1;stop-color:#e0e0f4"
         offset="0"
         id="stop4308" /><stop
         style="stop-opacity:1;stop-color:#6666c6"
         offset="0.77208"
         id="stop4310" /><stop
         style="stop-opacity:1;stop-color:#24247d"
         offset="1.54417"
         id="stop4312" /><stop
         style="stop-opacity:1;stop-color:#191959"
         offset="2.12328"
         id="stop4314" /><stop
         style="stop-opacity:1;stop-color:#ffffff"
         offset="2.48936"
         id="stop4316" /></radialGradient><clipPath
       clipPathUnits="userSpaceOnUse"
       id="clipPath4354"><path
         d="m 0,0 4.979,0 0,4.979 L 0,4.979 0,0 z"
         id="path4356" /></clipPath><radialGradient
       fx="1.6207401"
       fy="3.5510099"
       cx="2.4893601"
       cy="2.4893601"
       r="2.4893601"
       gradientUnits="userSpaceOnUse"
       id="radialGradient4358"><stop
         style="stop-opacity:1;stop-color:#e0e0f4"
         offset="0"
         id="stop4360" /><stop
         style="stop-opacity:1;stop-color:#6666c6"
         offset="0.77208"
         id="stop4362" /><stop
         style="stop-opacity:1;stop-color:#24247d"
         offset="1.54417"
         id="stop4364" /><stop
         style="stop-opacity:1;stop-color:#191959"
         offset="2.12328"
         id="stop4366" /><stop
         style="stop-opacity:1;stop-color:#ffffff"
         offset="2.48936"
         id="stop4368" /></radialGradient><clipPath
       clipPathUnits="userSpaceOnUse"
       id="clipPath4382"><path
         d="m 0,0 4.979,0 0,4.979 L 0,4.979 0,0 z"
         id="path4384" /></clipPath><radialGradient
       fx="1.6207401"
       fy="3.5510099"
       cx="2.4893601"
       cy="2.4893601"
       r="2.4893601"
       gradientUnits="userSpaceOnUse"
       id="radialGradient4386"><stop
         style="stop-opacity:1;stop-color:#e0e0f4"
         offset="0"
         id="stop4388" /><stop
         style="stop-opacity:1;stop-color:#6666c6"
         offset="0.77208"
         id="stop4390" /><stop
         style="stop-opacity:1;stop-color:#24247d"
         offset="1.54417"
         id="stop4392" /><stop
         style="stop-opacity:1;stop-color:#191959"
         offset="2.12328"
         id="stop4394" /><stop
         style="stop-opacity:1;stop-color:#ffffff"
         offset="2.48936"
         id="stop4396" /></radialGradient><inkscape:perspective
       id="perspective4485"
       inkscape:persp3d-origin="0.5 : 0.33333333 : 1"
       inkscape:vp_z="1 : 0.5 : 1"
       inkscape:vp_y="0 : 1000 : 0"
       inkscape:vp_x="0 : 0.5 : 1"
       sodipodi:type="inkscape:persp3d" /><linearGradient
       y2="28.375"
       x2="9.4992361"
       y1="28.375"
       x1="33.50008"
       gradientTransform="translate(2,0)"
       gradientUnits="userSpaceOnUse"
       id="linearGradient3407"
       xlink:href="#linearGradient3367"
       inkscape:collect="always" /><linearGradient
       y2="19.125"
       x2="9.4987011"
       y1="19.125"
       x1="33.5625"
       gradientTransform="translate(2,0)"
       gradientUnits="userSpaceOnUse"
       id="linearGradient3404"
       xlink:href="#linearGradient3146"
       inkscape:collect="always" /><linearGradient
       y2="34.173542"
       x2="17.125"
       y1="20.230709"
       x1="12.25"
       gradientTransform="translate(2,0)"
       gradientUnits="userSpaceOnUse"
       id="linearGradient3401"
       xlink:href="#linearGradient3254"
       inkscape:collect="always" /><linearGradient
       gradientTransform="translate(2,0)"
       y2="31.382992"
       x2="20.682875"
       y1="10.495919"
       x1="13.96536"
       gradientUnits="userSpaceOnUse"
       id="linearGradient3398"
       xlink:href="#linearGradient3290"
       inkscape:collect="always" /><linearGradient
       gradientTransform="translate(-2,0)"
       y2="32.383766"
       x2="13.375"
       y1="23.221346"
       x1="13.375"
       gradientUnits="userSpaceOnUse"
       id="linearGradient3393"
       xlink:href="#linearGradient3351"
       inkscape:collect="always" /><linearGradient
       y2="10.985043"
       x2="17.499449"
       y1="10.985043"
       x1="25.500298"
       gradientTransform="translate(2,0)"
       gradientUnits="userSpaceOnUse"
       id="linearGradient3384"
       xlink:href="#linearGradient3146"
       inkscape:collect="always" /><linearGradient
       y2="12.534899"
       x2="17.71875"
       y1="11.1875"
       x1="18.5625"
       gradientTransform="translate(2,0)"
       gradientUnits="userSpaceOnUse"
       id="linearGradient3380"
       xlink:href="#linearGradient3217"
       inkscape:collect="always" /><radialGradient
       r="4"
       fy="11.205179"
       fx="19.863604"
       cy="11.205179"
       cx="19.863604"
       gradientTransform="matrix(1.499279,-0.163895,0.03603099,0.557877,-10.01886,8.004429)"
       gradientUnits="userSpaceOnUse"
       id="radialGradient3347"
       xlink:href="#linearGradient3227"
       inkscape:collect="always" /><radialGradient
       r="12.46875"
       fy="24.691038"
       fx="19.161945"
       cy="24.691038"
       cx="19.161945"
       gradientTransform="matrix(1.253821,-0.396912,0.124986,0.425706,-7.949749,14.71501)"
       gradientUnits="userSpaceOnUse"
       id="radialGradient3343"
       xlink:href="#linearGradient3174"
       inkscape:collect="always" /><linearGradient
       y2="18.613125"
       x2="25.531752"
       y1="9.9904861"
       x1="31.18708"
       gradientUnits="userSpaceOnUse"
       id="linearGradient3341"
       xlink:href="#linearGradient3265"
       inkscape:collect="always" /><radialGradient
       r="12.46875"
       fy="24.691038"
       fx="19.161945"
       cy="24.691038"
       cx="19.161945"
       gradientTransform="matrix(1.253821,-0.396912,0.124986,0.425706,-7.949749,14.71501)"
       gradientUnits="userSpaceOnUse"
       id="radialGradient3339"
       xlink:href="#linearGradient3174"
       inkscape:collect="always" /><radialGradient
       r="12.46875"
       fy="16.677069"
       fx="19.717636"
       cy="16.677069"
       cx="19.717636"
       gradientTransform="matrix(0.690032,0,0,0.228281,6.615871,10.90053)"
       gradientUnits="userSpaceOnUse"
       id="radialGradient3337"
       xlink:href="#linearGradient3236"
       inkscape:collect="always" /><linearGradient
       id="linearGradient3146"><stop
         style="stop-color:#c4a000"
         offset="0"
         id="stop3148" /><stop
         id="stop3160"
         offset="0.35133624"
         style="stop-color:#d8ba00;stop-opacity:1;" /><stop
         id="stop3152"
         offset="0.50020754"
         style="stop-color:#edd400;stop-opacity:1;" /><stop
         style="stop-color:#fdf4a7;stop-opacity:1;"
         offset="0.85000002"
         id="stop3162" /><stop
         style="stop-color:#fce94f"
         offset="1"
         id="stop3158" /></linearGradient><linearGradient
       id="linearGradient3174"
       inkscape:collect="always"><stop
         id="stop3176"
         offset="0"
         style="stop-color:#ffffff;stop-opacity:1;" /><stop
         id="stop3178"
         offset="1"
         style="stop-color:#ffffff;stop-opacity:0;" /></linearGradient><linearGradient
       id="linearGradient3217"
       inkscape:collect="always"><stop
         id="stop3219"
         offset="0"
         style="stop-color:#c4a000;stop-opacity:1;" /><stop
         id="stop3221"
         offset="1"
         style="stop-color:#edd400" /></linearGradient><linearGradient
       id="linearGradient3227"
       inkscape:collect="always"><stop
         id="stop3229"
         offset="0"
         style="stop-color:#ffffff;stop-opacity:1;" /><stop
         id="stop3231"
         offset="1"
         style="stop-color:#ffffff;stop-opacity:0;" /></linearGradient><linearGradient
       id="linearGradient3236"><stop
         id="stop3238"
         offset="0"
         style="stop-color:#ffffff;stop-opacity:1;" /><stop
         id="stop3240"
         offset="1"
         style="stop-color:#fce94f" /></linearGradient><linearGradient
       id="linearGradient3254"
       inkscape:collect="always"><stop
         id="stop3256"
         offset="0"
         style="stop-color:#ffffff;stop-opacity:1;" /><stop
         id="stop3258"
         offset="1"
         style="stop-color:#ffffff;stop-opacity:0;" /></linearGradient><linearGradient
       id="linearGradient3265"
       inkscape:collect="always"><stop
         id="stop3267"
         offset="0"
         style="stop-color:#c4a000;stop-opacity:1;" /><stop
         id="stop3269"
         offset="1"
         style="stop-color:#c4a000;stop-opacity:0;" /></linearGradient><linearGradient
       id="linearGradient3290"
       inkscape:collect="always"><stop
         id="stop3292"
         offset="0"
         style="stop-color:#ffffff;stop-opacity:1;" /><stop
         id="stop3294"
         offset="1"
         style="stop-color:#ffffff;stop-opacity:0;" /></linearGradient><linearGradient
       id="linearGradient3351"
       inkscape:collect="always"><stop
         id="stop3353"
         offset="0"
         style="stop-color:#888a85" /><stop
         id="stop3355"
         offset="1"
         style="stop-color:#555753" /></linearGradient><linearGradient
       id="linearGradient3367"><stop
         style="stop-color:#555753"
         offset="0"
         id="stop3369" /><stop
         id="stop3371"
         offset="0.32156199"
         style="stop-color:#8a8d85;stop-opacity:1;" /><stop
         id="stop3373"
         offset="0.53021115"
         style="stop-color:#babdb6;stop-opacity:1;" /><stop
         style="stop-color:#dcdeda;stop-opacity:1;"
         offset="0.85266888"
         id="stop3375" /><stop
         style="stop-color:#babdb6"
         offset="1"
         id="stop3377" /></linearGradient><inkscape:perspective
       id="perspective4678"
       inkscape:persp3d-origin="24 : 16 : 1"
       inkscape:vp_z="48 : 24 : 1"
       inkscape:vp_y="0 : 1000 : 0"
       inkscape:vp_x="0 : 24 : 1"
       sodipodi:type="inkscape:persp3d" /><inkscape:perspective
       id="perspective4783"
       inkscape:persp3d-origin="0.5 : 0.33333333 : 1"
       inkscape:vp_z="1 : 0.5 : 1"
       inkscape:vp_y="0 : 1000 : 0"
       inkscape:vp_x="0 : 0.5 : 1"
       sodipodi:type="inkscape:persp3d" /><inkscape:perspective
       id="perspective5325"
       inkscape:persp3d-origin="0.5 : 0.33333333 : 1"
       inkscape:vp_z="1 : 0.5 : 1"
       inkscape:vp_y="0 : 1000 : 0"
       inkscape:vp_x="0 : 0.5 : 1"
       sodipodi:type="inkscape:persp3d" /></defs><sodipodi:namedview
     pagecolor="#ffffff"
     bordercolor="#666666"
     borderopacity="1"
     objecttolerance="10"
     gridtolerance="10"
     guidetolerance="10"
     inkscape:pageopacity="0"
     inkscape:pageshadow="2"
     inkscape:window-width="1024"
     inkscape:window-height="696"
     id="namedview4198"
     showgrid="false"
     showguides="true"
     inkscape:guide-bbox="true"
     inkscape:zoom="1.9623521"
     inkscape:cx="211.65341"
     inkscape:cy="116.34604"
     inkscape:window-x="0"
     inkscape:window-y="25"
     inkscape:window-maximized="1"
     inkscape:current-layer="g4803" /><g
     id="g4206"
     inkscape:groupmode="layer"
     inkscape:label="aula11"
     transform="matrix(1.25,0,0,-1.25,-34.533633,272.47292)"><image
       y="253.00186"
       x="-55.387779"
       id="image4487"
       height="70.880951"
       width="129.68755"
       xlink:href="electromagnet.gif"
       transform="matrix(-0.49316739,0.86993444,0.86993444,0.49316739,0,0)" /><path
       style="fill:none;stroke:#000000;stroke-width:2.4000001;stroke-linecap:butt;stroke-miterlimit:4;stroke-opacity:1;stroke-dasharray:none;stroke-dashoffset:0"
       d="M 249.59409,129.52096 C 234.02756,111.07174 218.46102,77.055999 191.36374,70.714079 159.80205,63.327299 76.05611,63.795623 76.05611,63.795623"
       id="path4752-3"
       sodipodi:nodetypes="csc" /><g
       id="g4733"
       transform="matrix(2.1871594,0,0,-3.8427343,35.291753,227.28105)"><g
         style="display:inline"
         inkscape:label="Battery"
         id="layer2" /><g
         style="display:inline"
         inkscape:label="inner stroke"
         id="layer4" /><g
         style="display:inline"
         inkscape:label="tip"
         id="layer5"
         transform="translate(-4.744824,3.6007994)"><path
           sodipodi:nodetypes="csssssssc"
           id="path2230"
           d="M 22,10.5 C 16.084021,10.716519 11.5,12.21646 11.5,14 l 0,23 c 0,1.932002 5.376,3.500001 12,3.5 6.624,0 12,-1.567997 12,-3.5 l 0,-23 c 0,-1.932002 -5.375999,-3.5 -12,-3.5 -0.36225,0 -0.70839,-0.0092 -1.0625,0 -0.143462,0.0037 -0.295517,-0.0052 -0.4375,0 z"
           style="color:#000000;fill:url(#linearGradient3407);fill-opacity:1;fill-rule:nonzero;stroke:none;stroke-width:1;marker:none;visibility:visible;display:inline;overflow:visible" /><path
           sodipodi:nodetypes="cssssssc"
           id="path2232"
           d="M 22.4375,10.5 C 16.316456,10.658717 11.5,12.173655 11.5,14 l 0,6.5 c 0,1.932002 5.375999,3.500001 12,3.5 6.624,0 12,-1.567999 12,-3.5 l 0,-6.5 c 0,-1.932002 -5.376,-3.5 -12,-3.5 -0.36225,0 -0.70839,-0.0092 -1.0625,0 z"
           style="color:#000000;fill:url(#linearGradient3404);fill-opacity:1;fill-rule:nonzero;stroke:none;stroke-width:1;marker:none;visibility:visible;display:inline;overflow:visible" /><path
           sodipodi:nodetypes="ccccc"
           id="rect3244"
           d="m 15,16 5,0 0,24.3125 L 15,39.5 15,16 z"
           style="opacity:0.36862745;color:#000000;fill:url(#linearGradient3401);fill-opacity:1;fill-rule:nonzero;stroke:none;stroke-width:1;marker:none;visibility:visible;display:inline;overflow:visible" /><path
           transform="matrix(1.002611,0,0,0.965518,2.100522,0.362061)"
           d="m 33.3125,14.125 c 0,2.002032 -5.358592,3.625 -11.96875,3.625 -6.610158,0 -11.96875,-1.622968 -11.96875,-3.625 0,-2.002032 5.358592,-3.625 11.96875,-3.625 6.610158,0 11.96875,1.622968 11.96875,3.625 z"
           sodipodi:ry="3.625"
           sodipodi:rx="11.96875"
           sodipodi:cy="14.125"
           sodipodi:cx="21.34375"
           id="path3164"
           style="color:#000000;fill:url(#radialGradient3337);fill-opacity:1;fill-rule:nonzero;stroke:url(#radialGradient3339);stroke-width:0.27594948;stroke-linecap:round;stroke-linejoin:round;stroke-miterlimit:4;stroke-opacity:1;stroke-dasharray:none;stroke-dashoffset:0;marker:none;visibility:visible;display:inline;overflow:visible"
           sodipodi:type="arc" /><path
           transform="matrix(1.002611,0,0,0.965518,2.100522,0.362061)"
           d="m 33.3125,14.125 c 0,2.002032 -5.358592,3.625 -11.96875,3.625 -6.610158,0 -11.96875,-1.622968 -11.96875,-3.625 0,-2.002032 5.358592,-3.625 11.96875,-3.625 6.610158,0 11.96875,1.622968 11.96875,3.625 z"
           sodipodi:ry="3.625"
           sodipodi:rx="11.96875"
           sodipodi:cy="14.125"
           sodipodi:cx="21.34375"
           id="path3263"
           style="opacity:0.63921569;color:#000000;fill:url(#linearGradient3341);fill-opacity:1;fill-rule:nonzero;stroke:url(#radialGradient3343);stroke-width:0.27594948;stroke-linecap:round;stroke-linejoin:round;stroke-miterlimit:4;stroke-opacity:1;stroke-dasharray:none;stroke-dashoffset:0;marker:none;visibility:visible;display:inline;overflow:visible"
           sodipodi:type="arc" /><path
           sodipodi:nodetypes="ccscc"
           id="path2217"
           d="m 11.5,21.5 0,15.5 c 0,1.932002 5.376,3.500001 12,3.5 6.624,0 12,-1.567997 12,-3.5 l 0,-15.5"
           style="color:#000000;fill:none;stroke:url(#linearGradient3393);stroke-width:0.27594948;stroke-linecap:round;stroke-linejoin:round;stroke-miterlimit:4;stroke-opacity:1;stroke-dasharray:none;stroke-dashoffset:0;marker:none;visibility:visible;display:inline;overflow:visible" /><path
           sodipodi:nodetypes="cssscsc"
           id="path2219"
           d="m 35.5,21.5 0,-7.5 c 0,-1.932002 -5.375999,-3.5 -12,-3.5 -0.36225,0 -0.70839,-0.0092 -1.0625,0 -0.143462,0.0037 -0.295517,-0.0052 -0.4375,0 -5.915979,0.216519 -10.5,1.71646 -10.5,3.5 l 0,7.5"
           style="color:#000000;fill:none;stroke:#c4a000;stroke-width:0.27594948;stroke-linecap:round;stroke-linejoin:round;stroke-miterlimit:4;stroke-opacity:1;stroke-dasharray:none;stroke-dashoffset:0;marker:none;visibility:visible;display:inline;overflow:visible" /><path
           sodipodi:nodetypes="csssssssc"
           id="path2206"
           d="M 21.84375,11.5 C 16.548895,11.680925 12.5,12.74668 12.5,14 c 0,1.142813 0,21.855219 0,23 0,1.38 4.927994,2.5 11,2.5 6.072006,0 11,-1.12 11,-2.5 0,-1.059216 -10e-7,-21.940784 0,-23 0,-1.38 -4.927993,-2.5 -11,-2.5 -0.3795,0 -0.755361,-0.0085 -1.125,0 -0.173268,0.004 -0.360448,-0.0058 -0.53125,0 z"
           style="opacity:0.49019608;color:#000000;fill:none;stroke:#ffffff;stroke-width:0.27594948;stroke-linecap:round;stroke-linejoin:round;stroke-miterlimit:4;stroke-opacity:1;stroke-dasharray:none;stroke-dashoffset:0;marker:none;visibility:visible;display:inline;overflow:visible" /><path
           sodipodi:nodetypes="cssssssssssssssssssssssssssssc"
           id="path3198"
           d="m 23,9.5 c -1.684334,0.080367 -3.049808,0.574035 -3.40625,1.1875 -0.0067,0.0122 -0.02538,0.05019 -0.03125,0.0625 -0.0027,0.0062 -0.02872,0.02505 -0.03125,0.03125 -0.0023,0.0062 0.0021,0.025 0,0.03125 -0.0096,0.03139 -0.02693,0.09306 -0.03125,0.125 -6.5e-4,0.0064 4.35e-4,0.02482 0,0.03125 -2.18e-4,0.0064 0,2.024781 0,2.03125 0,0.0065 -2.18e-4,0.0248 0,0.03125 4.35e-4,0.0064 -6.5e-4,0.02484 0,0.03125 0.0043,0.03194 0.02167,0.09361 0.03125,0.125 0.0021,0.0063 -0.0023,0.02502 0,0.03125 0.0025,0.0062 0.02852,0.02507 0.03125,0.03125 0.0059,0.01231 0.02459,0.0503 0.03125,0.0625 0.391733,0.674204 1.9915,1.1875 3.90625,1.1875 1.91475,0 3.514517,-0.513296 3.90625,-1.1875 0.0067,-0.0122 0.02538,-0.05019 0.03125,-0.0625 0.0027,-0.0062 0.02872,-0.02505 0.03125,-0.03125 0.0023,-0.0062 -0.0021,-0.025 0,-0.03125 0.0096,-0.03139 0.02693,-0.09306 0.03125,-0.125 6.5e-4,-0.0064 -4.35e-4,-0.02482 0,-0.03125 2.18e-4,-0.0064 0,-0.02478 0,-0.03125 0,-0.0065 2.18e-4,-2.024801 0,-2.03125 -4.35e-4,-0.0064 6.5e-4,-0.02484 0,-0.03125 -0.0043,-0.03194 -0.02167,-0.09361 -0.03125,-0.125 -0.0021,-0.0063 0.0023,-0.02502 0,-0.03125 C 27.46625,10.77505 27.44023,10.75618 27.4375,10.75 27.4316,10.73769 27.41291,10.6997 27.40625,10.6875 27.014517,10.013296 25.41475,9.5 23.5,9.5 23.3275,9.5 23.166766,9.49204 23,9.5 z"
           style="color:#000000;fill:url(#linearGradient3384);fill-opacity:1;fill-rule:nonzero;stroke:none;stroke-width:1;marker:none;visibility:visible;display:inline;overflow:visible" /><path
           transform="matrix(0.867417,0,0,0.666667,4.820203,3.666665)"
           d="m 25.5,11 c 0,0.828427 -1.790861,1.5 -4,1.5 -2.209139,0 -4,-0.671573 -4,-1.5 0,-0.828427 1.790861,-1.5 4,-1.5 2.209139,0 4,0.671573 4,1.5 z"
           sodipodi:ry="1.5"
           sodipodi:rx="4"
           sodipodi:cy="11"
           sodipodi:cx="21.5"
           id="path3225"
           style="color:#000000;fill:url(#radialGradient3347);fill-opacity:1;fill-rule:nonzero;stroke:none;stroke-width:1;marker:none;visibility:visible;display:inline;overflow:visible"
           sodipodi:type="arc" /><path
           sodipodi:nodetypes="cssssssssssssssssssssssssssssc"
           id="path3205"
           d="m 23,9.5 c -1.684334,0.080367 -3.049808,0.574035 -3.40625,1.1875 -0.0067,0.0122 -0.02538,0.05019 -0.03125,0.0625 -0.0027,0.0062 -0.02872,0.02505 -0.03125,0.03125 -0.0023,0.0062 0.0021,0.025 0,0.03125 -0.0096,0.03139 -0.02693,0.09306 -0.03125,0.125 -6.5e-4,0.0064 4.35e-4,0.02482 0,0.03125 -2.18e-4,0.0064 0,2.024781 0,2.03125 0,0.0065 -2.18e-4,0.0248 0,0.03125 4.35e-4,0.0064 -6.5e-4,0.02484 0,0.03125 0.0043,0.03194 0.02167,0.09361 0.03125,0.125 0.0021,0.0063 -0.0023,0.02502 0,0.03125 0.0025,0.0062 0.02852,0.02507 0.03125,0.03125 0.0059,0.01231 0.02459,0.0503 0.03125,0.0625 0.391733,0.674204 1.9915,1.1875 3.90625,1.1875 1.91475,0 3.514517,-0.513296 3.90625,-1.1875 0.0067,-0.0122 0.02538,-0.05019 0.03125,-0.0625 0.0027,-0.0062 0.02872,-0.02505 0.03125,-0.03125 0.0023,-0.0062 -0.0021,-0.025 0,-0.03125 0.0096,-0.03139 0.02693,-0.09306 0.03125,-0.125 6.5e-4,-0.0064 -4.35e-4,-0.02482 0,-0.03125 2.18e-4,-0.0064 0,-0.02478 0,-0.03125 0,-0.0065 2.18e-4,-2.024801 0,-2.03125 -4.35e-4,-0.0064 6.5e-4,-0.02484 0,-0.03125 -0.0043,-0.03194 -0.02167,-0.09361 -0.03125,-0.125 -0.0021,-0.0063 0.0023,-0.02502 0,-0.03125 C 27.46625,10.77505 27.44023,10.75618 27.4375,10.75 27.4316,10.73769 27.41291,10.6997 27.40625,10.6875 27.014517,10.013296 25.41475,9.5 23.5,9.5 23.3275,9.5 23.166766,9.49204 23,9.5 z"
           style="color:#000000;fill:none;stroke:url(#linearGradient3380);stroke-width:0.27594948;stroke-linecap:round;stroke-linejoin:round;stroke-miterlimit:4;stroke-opacity:1;stroke-dasharray:none;stroke-dashoffset:0;marker:none;visibility:visible;display:inline;overflow:visible" /><path
           sodipodi:nodetypes="csssssssc"
           id="path3288"
           d="M 22,10.5 C 16.084021,10.716519 11.5,12.21646 11.5,14 l 0,23 c 0,1.932002 5.376,3.500001 12,3.5 6.624,0 12,-1.567997 12,-3.5 l 0,-23 c 0,-1.932002 -5.375999,-3.5 -12,-3.5 -0.36225,0 -0.70839,-0.0092 -1.0625,0 -0.143462,0.0037 -0.295517,-0.0052 -0.4375,0 z"
           style="opacity:0.34509804;color:#000000;fill:url(#linearGradient3398);fill-opacity:1;fill-rule:nonzero;stroke:none;stroke-width:1;marker:none;visibility:visible;display:inline;overflow:visible" /></g><path
         style="fill:none;fill-opacity:1;stroke:#000000;stroke-width:3;stroke-linecap:butt;stroke-miterlimit:4;stroke-opacity:1;stroke-dasharray:none;stroke-dashoffset:0"
         d="M 61.257177,54.167755 C 80.715343,31.10623 79.99467,29.664884 113.86628,21.737484 c 39.45211,-9.233474 72.78794,4.324036 72.78794,4.324036"
         id="path4752"
         transform="matrix(0.36577124,0,0,0.20818509,-3.5044755,2.420858)"
         sodipodi:nodetypes="csc" /></g><g
       id="g4803"
       style="stroke:#000000"><path
         transform="matrix(0.71628269,0.35628515,0.35628515,-0.71628269,-16.217633,84.387827)"
         d="m 323.08166,183.34796 a 9.1726656,3.821944 0 1 1 -18.34533,0 9.1726656,3.821944 0 1 1 18.34533,0 z"
         sodipodi:ry="3.821944"
         sodipodi:rx="9.1726656"
         sodipodi:cy="183.34796"
         sodipodi:cx="313.909"
         id="path4799"
         style="fill:#b3b3b3;stroke:#000000;stroke-width:1.5;stroke-linecap:butt;stroke-miterlimit:4;stroke-opacity:1;stroke-dasharray:none;stroke-dashoffset:0"
         sodipodi:type="arc" /><path
         id="path4801"
         d="m 273.13876,63.473116 7.7458,-8.968824 -5.29976,10.59952"
         style="fill:#b3b3b3;fill-opacity:1;stroke:#000000;stroke-width:0.80000001" /><path
         transform="matrix(0.54825468,-0.58259489,-0.58259489,-0.54825468,232.61316,345.1747)"
         d="m 323.08166,183.34796 a 9.1726656,3.821944 0 1 1 -18.34533,0 9.1726656,3.821944 0 1 1 18.34533,0 z"
         sodipodi:ry="3.821944"
         sodipodi:rx="9.1726656"
         sodipodi:cy="183.34796"
         sodipodi:cx="313.909"
         id="path4799-0"
         style="fill:#b3b3b3;stroke:#000000;stroke-width:1.5;stroke-linecap:butt;stroke-miterlimit:4;stroke-opacity:1;stroke-dasharray:none;stroke-dashoffset:0"
         sodipodi:type="arc" /><path
         id="path4801-2"
         d="m 296.29595,62.139286 -6.34471,-10.009086 8.61327,8.139343"
         style="fill:#b3b3b3;fill-opacity:1;stroke:#000000;stroke-width:0.80000001" /></g></g></svg>
