<?xml version="1.0" encoding="UTF-8" standalone="no"?>
<!-- Created with Inkscape (http://www.inkscape.org/) -->

<svg
   xmlns:dc="http://purl.org/dc/elements/1.1/"
   xmlns:cc="http://creativecommons.org/ns#"
   xmlns:rdf="http://www.w3.org/1999/02/22-rdf-syntax-ns#"
   xmlns:svg="http://www.w3.org/2000/svg"
   xmlns="http://www.w3.org/2000/svg"
   xmlns:sodipodi="http://sodipodi.sourceforge.net/DTD/sodipodi-0.dtd"
   xmlns:inkscape="http://www.inkscape.org/namespaces/inkscape"
   id="svg2"
   version="1.1"
   inkscape:version="0.48.3.1 r9886"
   width="147.49745"
   height="60.025993"
   xml:space="preserve"
   sodipodi:docname="circuit1.pdf"><metadata
     id="metadata8"><rdf:RDF><cc:Work
         rdf:about=""><dc:format>image/svg+xml</dc:format><dc:type
           rdf:resource="http://purl.org/dc/dcmitype/StillImage" /><dc:title></dc:title></cc:Work></rdf:RDF></metadata><defs
     id="defs6" /><sodipodi:namedview
     pagecolor="#ffffff"
     bordercolor="#666666"
     borderopacity="1"
     objecttolerance="10"
     gridtolerance="10"
     guidetolerance="10"
     inkscape:pageopacity="0"
     inkscape:pageshadow="2"
     inkscape:window-width="640"
     inkscape:window-height="480"
     id="namedview4"
     showgrid="false"
     inkscape:zoom="2.0949514"
     inkscape:cx="73.748726"
     inkscape:cy="30.012997"
     inkscape:window-x="65"
     inkscape:window-y="24"
     inkscape:window-maximized="0"
     inkscape:current-layer="g10" /><g
     id="g10"
     inkscape:groupmode="layer"
     inkscape:label="circuit1"
     transform="matrix(1.25,0,0,-1.25,0,60.025992)"><g
       id="g12"><text
         transform="matrix(1,0,0,-1,-0.305453,4.646723)"
         id="text14"><tspan
           style="fill:#000000;fill-opacity:1;fill-rule:nonzero;stroke:none;font-family:LMSans10;font-style:oblique;font-variant:normal;font-size:10.90910000000000046;writing-mode:lr;-inkscape-font-specification:LMSans10"
           x="0"
           y="0"
           id="tspan16">A</tspan></text>
<path
         d="m 10.102,7.599 34.683,0"
         style="fill:#ffffff;fill-opacity:1;fill-rule:nonzero;stroke:#000000;stroke-opacity:1;stroke-width:0.56;stroke-linecap:butt;stroke-linejoin:miter;stroke-miterlimit:4;stroke-dasharray:none"
         id="path18" /><path
         d="m 23.695,31.599 20.969,0 m 31.031,-12 16.801,0 0,28.141 -68.547,0 -0.254,-16.141"
         style="fill:none;stroke:#000000;stroke-opacity:1;stroke-width:0.56;stroke-linecap:butt;stroke-linejoin:miter;stroke-miterlimit:4;stroke-dasharray:none"
         id="path20" /><path
         d="m 41.293,38.798 c 17.105,0.082 33.562,-19.105 34,-19.199 0,0.031 -16.895,-19.117 -34,-19.199 7.508,11.601 7.508,26 0,38.398 z"
         style="fill:#ffffff;fill-opacity:1;fill-rule:nonzero;stroke:#000000;stroke-opacity:1;stroke-width:0.8;stroke-linecap:butt;stroke-linejoin:miter;stroke-miterlimit:4;stroke-dasharray:none"
         id="path22" /><g
         id="g24"
         transform="matrix(1,0,0,-1,0,48.020794)"><path
           d="m 92.43,28.422 15.269,0"
           style="fill:none;stroke:#000000;stroke-opacity:1;stroke-width:0.56;stroke-linecap:butt;stroke-linejoin:miter;stroke-miterlimit:4;stroke-dasharray:none"
           id="path26" /></g><g
         id="g28"
         transform="matrix(1,0,0,-1,0,48.020794)"><path
           d="m 93.324,28.387 c 0,0.465 -0.379,0.843 -0.847,0.843 -0.469,0 -0.848,-0.378 -0.848,-0.843 0,-0.469 0.379,-0.848 0.848,-0.848 0.468,0 0.847,0.379 0.847,0.848 z"
           style="fill:#000000;fill-opacity:1;fill-rule:nonzero;stroke:#000000;stroke-opacity:1;stroke-width:0.56;stroke-linecap:butt;stroke-linejoin:miter;stroke-miterlimit:4;stroke-dasharray:none"
           id="path30" /></g><text
         transform="matrix(1,0,0,-1,109.72887,16.777713)"
         id="text32"><tspan
           style="fill:#000000;fill-opacity:1;fill-rule:nonzero;stroke:none;font-family:LMSans10;font-style:oblique;font-variant:normal;font-size:10.90910000000000046;writing-mode:lr;-inkscape-font-specification:LMSans10"
           x="0"
           y="0"
           id="tspan34">X</tspan></text>
</g></g></svg>