<?xml version="1.0" encoding="UTF-8" standalone="no"?>
<!-- Created with Inkscape (http://www.inkscape.org/) -->

<svg
   xmlns:dc="http://purl.org/dc/elements/1.1/"
   xmlns:cc="http://creativecommons.org/ns#"
   xmlns:rdf="http://www.w3.org/1999/02/22-rdf-syntax-ns#"
   xmlns:svg="http://www.w3.org/2000/svg"
   xmlns="http://www.w3.org/2000/svg"
   xmlns:sodipodi="http://sodipodi.sourceforge.net/DTD/sodipodi-0.dtd"
   xmlns:inkscape="http://www.inkscape.org/namespaces/inkscape"
   id="svg2"
   version="1.1"
   inkscape:version="0.47 r22583"
   width="134.02786"
   height="168.26204"
   xml:space="preserve"
   sodipodi:docname="decod_high.svg"><metadata
     id="metadata8"><rdf:RDF><cc:Work
         rdf:about=""><dc:format>image/svg+xml</dc:format><dc:type
           rdf:resource="http://purl.org/dc/dcmitype/StillImage" /><dc:title></dc:title></cc:Work></rdf:RDF></metadata><defs
     id="defs6"><marker
       inkscape:stockid="Arrow1Mend"
       orient="auto"
       refY="0"
       refX="0"
       id="Arrow1Mend"
       style="overflow:visible"><path
         id="path7205"
         d="M 0,0 5,-5 -12.5,0 5,5 0,0 z"
         style="fill-rule:evenodd;stroke:#000000;stroke-width:1pt;marker-start:none"
         transform="matrix(-0.4,0,0,-0.4,-4,0)" /></marker><inkscape:perspective
       sodipodi:type="inkscape:persp3d"
       inkscape:vp_x="0 : 0.5 : 1"
       inkscape:vp_y="0 : 1000 : 0"
       inkscape:vp_z="1 : 0.5 : 1"
       inkscape:persp3d-origin="0.5 : 0.33333333 : 1"
       id="perspective10" /><clipPath
       clipPathUnits="userSpaceOnUse"
       id="clipPath136"><path
         d="m 0,0 4.979,0 0,4.979 L 0,4.979 0,0 z"
         id="path138" /></clipPath><radialGradient
       fx="1.6207401"
       fy="3.5510099"
       cx="2.4893601"
       cy="2.4893601"
       r="2.4893601"
       gradientUnits="userSpaceOnUse"
       id="radialGradient140"><stop
         style="stop-opacity:1;stop-color:#e0e0f4"
         offset="0"
         id="stop142" /><stop
         style="stop-opacity:1;stop-color:#6666c6"
         offset="0.77208"
         id="stop144" /><stop
         style="stop-opacity:1;stop-color:#24247d"
         offset="1.54417"
         id="stop146" /><stop
         style="stop-opacity:1;stop-color:#191959"
         offset="2.12328"
         id="stop148" /><stop
         style="stop-opacity:1;stop-color:#ffffff"
         offset="2.48936"
         id="stop150" /></radialGradient><clipPath
       clipPathUnits="userSpaceOnUse"
       id="clipPath228"><path
         d="m 0,0 4.979,0 0,4.979 L 0,4.979 0,0 z"
         id="path230" /></clipPath><radialGradient
       fx="1.6207401"
       fy="3.5510099"
       cx="2.4893601"
       cy="2.4893601"
       r="2.4893601"
       gradientUnits="userSpaceOnUse"
       id="radialGradient232"><stop
         style="stop-opacity:1;stop-color:#e0e0f4"
         offset="0"
         id="stop234" /><stop
         style="stop-opacity:1;stop-color:#6666c6"
         offset="0.77208"
         id="stop236" /><stop
         style="stop-opacity:1;stop-color:#24247d"
         offset="1.54417"
         id="stop238" /><stop
         style="stop-opacity:1;stop-color:#191959"
         offset="2.12328"
         id="stop240" /><stop
         style="stop-opacity:1;stop-color:#ffffff"
         offset="2.48936"
         id="stop242" /></radialGradient><inkscape:perspective
       id="perspective5948"
       inkscape:persp3d-origin="0.5 : 0.33333333 : 1"
       inkscape:vp_z="1 : 0.5 : 1"
       inkscape:vp_y="0 : 1000 : 0"
       inkscape:vp_x="0 : 0.5 : 1"
       sodipodi:type="inkscape:persp3d" /><inkscape:perspective
       id="perspective5984"
       inkscape:persp3d-origin="0.5 : 0.33333333 : 1"
       inkscape:vp_z="1 : 0.5 : 1"
       inkscape:vp_y="0 : 1000 : 0"
       inkscape:vp_x="0 : 0.5 : 1"
       sodipodi:type="inkscape:persp3d" /><inkscape:perspective
       id="perspective3864"
       inkscape:persp3d-origin="0.5 : 0.33333333 : 1"
       inkscape:vp_z="1 : 0.5 : 1"
       inkscape:vp_y="0 : 1000 : 0"
       inkscape:vp_x="0 : 0.5 : 1"
       sodipodi:type="inkscape:persp3d" /></defs><sodipodi:namedview
     pagecolor="#ffffff"
     bordercolor="#666666"
     borderopacity="1"
     objecttolerance="10"
     gridtolerance="10"
     guidetolerance="10"
     inkscape:pageopacity="0"
     inkscape:pageshadow="2"
     inkscape:window-width="1440"
     inkscape:window-height="825"
     id="namedview4"
     showgrid="false"
     inkscape:zoom="2.775185"
     inkscape:cx="61.252313"
     inkscape:cy="82.51888"
     inkscape:window-x="0"
     inkscape:window-y="25"
     inkscape:window-maximized="1"
     inkscape:current-layer="g12"
     units="mm" /><g
     id="g12"
     inkscape:groupmode="layer"
     inkscape:label="aula11"
     transform="matrix(1.25,0,0,-1.25,-135.15288,217.30997)"><rect
   y="-173.84796"
   x="120.74057"
   height="134.60963"
   width="73.596947"
   id="rect14193"
   style="fill:#afc6e9;fill-opacity:1;stroke:none"
   transform="scale(1,-1)" /><text
   xml:space="preserve"
   style="font-size:11.19999981px;font-style:normal;font-variant:normal;font-weight:normal;font-stretch:normal;text-align:center;text-anchor:middle;fill:#000000;fill-opacity:1;stroke:none;font-family:LMSans10;-inkscape-font-specification:LMSans10"
   x="157.61366"
   y="-113.7358"
   id="text14360"
   transform="scale(1,-1)"><tspan
     sodipodi:role="line"
     id="tspan14362"
     x="157.61366"
     y="-113.7358"
     style="font-size:9.60000038px;text-align:center;text-anchor:middle">decod.</tspan><tspan
     sodipodi:role="line"
     x="157.61366"
     y="-100.15822"
     style="font-size:11.19999981px;text-align:center;text-anchor:middle"
     id="tspan5974">4 x 16</tspan></text>

<g
   id="g6131"
   transform="matrix(0.71527699,0,0,0.71527699,111.75076,-87.162282)"><text
   y="-194.659"
   x="98.544998"
   transform="scale(1,-1)"
   id="text270"><tspan
     style="font-size:10.90909958px;font-style:oblique;font-variant:normal;writing-mode:lr-tb;fill:#000000;fill-opacity:1;fill-rule:nonzero;stroke:none;font-family:LMSans10;-inkscape-font-specification:LMSans10-Oblique"
     x="98.544998"
     y="-194.659"
     id="tspan272">X</tspan></text>

<text
   y="-193.022"
   x="105.818"
   transform="scale(1,-1)"
   id="text274"><tspan
     style="font-size:7.97009993px;font-variant:normal;font-weight:normal;writing-mode:lr-tb;fill:#000000;fill-opacity:1;fill-rule:nonzero;stroke:none;font-family:LMSans8;-inkscape-font-specification:LMSans8-Regular"
     x="105.818"
     y="-193.022"
     id="tspan276">1</tspan></text>

</g><g
   transform="matrix(0.71527699,0,0,0.71527699,111.75076,-79.162282)"
   id="g6177"><text
   id="text6179"
   transform="scale(1,-1)"
   x="98.544998"
   y="-194.659"><tspan
     id="tspan6181"
     y="-194.659"
     x="98.544998"
     style="font-size:10.90909958px;font-style:oblique;font-variant:normal;writing-mode:lr-tb;fill:#000000;fill-opacity:1;fill-rule:nonzero;stroke:none;font-family:LMSans10;-inkscape-font-specification:LMSans10-Oblique">X</tspan></text>

<text
   id="text6183"
   transform="scale(1,-1)"
   x="105.818"
   y="-193.022"><tspan
     id="tspan6185"
     y="-193.022"
     x="105.818"
     style="font-size:7.97009993px;font-variant:normal;font-weight:normal;writing-mode:lr-tb;fill:#000000;fill-opacity:1;fill-rule:nonzero;stroke:none;font-family:LMSans8;-inkscape-font-specification:LMSans8-Regular">2</tspan></text>

</g><g
   id="g6187"
   transform="matrix(0.71527699,0,0,0.71527699,111.75076,-71.162282)"><text
   y="-194.659"
   x="98.544998"
   transform="scale(1,-1)"
   id="text6189"><tspan
     style="font-size:10.90909958px;font-style:oblique;font-variant:normal;writing-mode:lr-tb;fill:#000000;fill-opacity:1;fill-rule:nonzero;stroke:none;font-family:LMSans10;-inkscape-font-specification:LMSans10-Oblique"
     x="98.544998"
     y="-194.659"
     id="tspan6191">X</tspan></text>

<text
   y="-193.022"
   x="105.818"
   transform="scale(1,-1)"
   id="text6193"><tspan
     style="font-size:7.97009993px;font-variant:normal;font-weight:normal;writing-mode:lr-tb;fill:#000000;fill-opacity:1;fill-rule:nonzero;stroke:none;font-family:LMSans8;-inkscape-font-specification:LMSans8-Regular"
     x="105.818"
     y="-193.022"
     id="tspan6195">3</tspan></text>

</g><g
   transform="matrix(0.71527699,0,0,0.71527699,111.75076,-63.162282)"
   id="g6197"><text
   id="text6199"
   transform="scale(1,-1)"
   x="98.544998"
   y="-194.659"><tspan
     id="tspan6201"
     y="-194.659"
     x="98.544998"
     style="font-size:10.90909958px;font-style:oblique;font-variant:normal;writing-mode:lr-tb;fill:#000000;fill-opacity:1;fill-rule:nonzero;stroke:none;font-family:LMSans10;-inkscape-font-specification:LMSans10-Oblique">X</tspan></text>

<text
   id="text6203"
   transform="scale(1,-1)"
   x="105.818"
   y="-193.022"><tspan
     id="tspan6205"
     y="-193.022"
     x="105.818"
     style="font-size:7.97009993px;font-variant:normal;font-weight:normal;writing-mode:lr-tb;fill:#000000;fill-opacity:1;fill-rule:nonzero;stroke:none;font-family:LMSans8;-inkscape-font-specification:LMSans8-Regular">4</tspan></text>

</g><g
   transform="matrix(0.71527699,0,0,0.71527699,111.75076,-55.162282)"
   id="g6217"><text
   id="text6219"
   transform="scale(1,-1)"
   x="98.544998"
   y="-194.659"><tspan
     id="tspan6221"
     y="-194.659"
     x="98.544998"
     style="font-size:10.90909958px;font-style:oblique;font-variant:normal;writing-mode:lr-tb;fill:#000000;fill-opacity:1;fill-rule:nonzero;stroke:none;font-family:LMSans10;-inkscape-font-specification:LMSans10-Oblique">X</tspan></text>

<text
   id="text6223"
   transform="scale(1,-1)"
   x="105.818"
   y="-193.022"><tspan
     id="tspan6225"
     y="-193.022"
     x="105.818"
     style="font-size:7.97009993px;font-variant:normal;font-weight:normal;writing-mode:lr-tb;fill:#000000;fill-opacity:1;fill-rule:nonzero;stroke:none;font-family:LMSans8;-inkscape-font-specification:LMSans8-Regular">5</tspan></text>

</g><g
   id="g6227"
   transform="matrix(0.71527699,0,0,0.71527699,111.75076,-47.162282)"><text
   y="-194.659"
   x="98.544998"
   transform="scale(1,-1)"
   id="text6229"><tspan
     style="font-size:10.90909958px;font-style:oblique;font-variant:normal;writing-mode:lr-tb;fill:#000000;fill-opacity:1;fill-rule:nonzero;stroke:none;font-family:LMSans10;-inkscape-font-specification:LMSans10-Oblique"
     x="98.544998"
     y="-194.659"
     id="tspan6231">X</tspan></text>

<text
   y="-193.022"
   x="105.818"
   transform="scale(1,-1)"
   id="text6233"><tspan
     style="font-size:7.97009993px;font-variant:normal;font-weight:normal;writing-mode:lr-tb;fill:#000000;fill-opacity:1;fill-rule:nonzero;stroke:none;font-family:LMSans8;-inkscape-font-specification:LMSans8-Regular"
     x="105.818"
     y="-193.022"
     id="tspan6235">6</tspan></text>

</g><g
   transform="matrix(0.71527699,0,0,0.71527699,111.75076,-39.162282)"
   id="g6237"><text
   id="text6239"
   transform="scale(1,-1)"
   x="98.544998"
   y="-194.659"><tspan
     id="tspan6241"
     y="-194.659"
     x="98.544998"
     style="font-size:10.90909958px;font-style:oblique;font-variant:normal;writing-mode:lr-tb;fill:#000000;fill-opacity:1;fill-rule:nonzero;stroke:none;font-family:LMSans10;-inkscape-font-specification:LMSans10-Oblique">X</tspan></text>

<text
   id="text6243"
   transform="scale(1,-1)"
   x="105.818"
   y="-193.022"><tspan
     id="tspan6245"
     y="-193.022"
     x="105.818"
     style="font-size:7.97009993px;font-variant:normal;font-weight:normal;writing-mode:lr-tb;fill:#000000;fill-opacity:1;fill-rule:nonzero;stroke:none;font-family:LMSans8;-inkscape-font-specification:LMSans8-Regular">7</tspan></text>

</g><g
   id="g6247"
   transform="matrix(0.71527699,0,0,0.71527699,111.75076,-31.162282)"><text
   y="-194.659"
   x="98.544998"
   transform="scale(1,-1)"
   id="text6249"><tspan
     style="font-size:10.90909958px;font-style:oblique;font-variant:normal;writing-mode:lr-tb;fill:#000000;fill-opacity:1;fill-rule:nonzero;stroke:none;font-family:LMSans10;-inkscape-font-specification:LMSans10-Oblique"
     x="98.544998"
     y="-194.659"
     id="tspan6251">X</tspan></text>

<text
   y="-193.022"
   x="105.818"
   transform="scale(1,-1)"
   id="text6253"><tspan
     style="font-size:7.97009993px;font-variant:normal;font-weight:normal;writing-mode:lr-tb;fill:#000000;fill-opacity:1;fill-rule:nonzero;stroke:none;font-family:LMSans8;-inkscape-font-specification:LMSans8-Regular"
     x="105.818"
     y="-193.022"
     id="tspan6255">8</tspan></text>

</g><g
   id="g6257"
   transform="matrix(0.71527699,0,0,0.71527699,111.75076,-23.162282)"><text
   y="-194.659"
   x="98.544998"
   transform="scale(1,-1)"
   id="text6259"><tspan
     style="font-size:10.90909958px;font-style:oblique;font-variant:normal;writing-mode:lr-tb;fill:#000000;fill-opacity:1;fill-rule:nonzero;stroke:none;font-family:LMSans10;-inkscape-font-specification:LMSans10-Oblique"
     x="98.544998"
     y="-194.659"
     id="tspan6261">X</tspan></text>

<text
   y="-193.022"
   x="105.818"
   transform="scale(1,-1)"
   id="text6263"><tspan
     style="font-size:7.97009993px;font-variant:normal;font-weight:normal;writing-mode:lr-tb;fill:#000000;fill-opacity:1;fill-rule:nonzero;stroke:none;font-family:LMSans8;-inkscape-font-specification:LMSans8-Regular"
     x="105.818"
     y="-193.022"
     id="tspan6265">9</tspan></text>

</g><g
   transform="matrix(0.71527699,0,0,0.71527699,108.55076,-15.162282)"
   id="g6267"><text
   id="text6269"
   transform="scale(1,-1)"
   x="98.544998"
   y="-194.659"><tspan
     id="tspan6271"
     y="-194.659"
     x="98.544998"
     style="font-size:10.90909958px;font-style:oblique;font-variant:normal;writing-mode:lr-tb;fill:#000000;fill-opacity:1;fill-rule:nonzero;stroke:none;font-family:LMSans10;-inkscape-font-specification:LMSans10-Oblique">X</tspan></text>

<text
   id="text6273"
   transform="scale(1,-1)"
   x="105.818"
   y="-193.022"><tspan
     id="tspan6275"
     y="-193.022"
     x="105.818"
     style="font-size:7.97009993px;font-variant:normal;font-weight:normal;writing-mode:lr-tb;fill:#000000;fill-opacity:1;fill-rule:nonzero;stroke:none;font-family:LMSans8;-inkscape-font-specification:LMSans8-Regular">10</tspan></text>

</g><g
   id="g6277"
   transform="matrix(0.71527699,0,0,0.71527699,108.55076,-7.162282)"><text
   y="-194.659"
   x="98.544998"
   transform="scale(1,-1)"
   id="text6279"><tspan
     style="font-size:10.90909958px;font-style:oblique;font-variant:normal;writing-mode:lr-tb;fill:#000000;fill-opacity:1;fill-rule:nonzero;stroke:none;font-family:LMSans10;-inkscape-font-specification:LMSans10-Oblique"
     x="98.544998"
     y="-194.659"
     id="tspan6281">X</tspan></text>

<text
   y="-193.022"
   x="105.818"
   transform="scale(1,-1)"
   id="text6283"><tspan
     style="font-size:7.97009993px;font-variant:normal;font-weight:normal;writing-mode:lr-tb;fill:#000000;fill-opacity:1;fill-rule:nonzero;stroke:none;font-family:LMSans8;-inkscape-font-specification:LMSans8-Regular"
     x="105.818"
     y="-193.022"
     id="tspan6285">11</tspan></text>

</g><g
   transform="matrix(0.71527699,0,0,0.71527699,108.55076,0.837718)"
   id="g6287"><text
   id="text6289"
   transform="scale(1,-1)"
   x="98.544998"
   y="-194.659"><tspan
     id="tspan6291"
     y="-194.659"
     x="98.544998"
     style="font-size:10.90909958px;font-style:oblique;font-variant:normal;writing-mode:lr-tb;fill:#000000;fill-opacity:1;fill-rule:nonzero;stroke:none;font-family:LMSans10;-inkscape-font-specification:LMSans10-Oblique">X</tspan></text>

<text
   id="text6293"
   transform="scale(1,-1)"
   x="105.818"
   y="-193.022"><tspan
     id="tspan6295"
     y="-193.022"
     x="105.818"
     style="font-size:7.97009993px;font-variant:normal;font-weight:normal;writing-mode:lr-tb;fill:#000000;fill-opacity:1;fill-rule:nonzero;stroke:none;font-family:LMSans8;-inkscape-font-specification:LMSans8-Regular">12</tspan></text>

</g><g
   transform="matrix(0.71527699,0,0,0.71527699,108.55076,8.837718)"
   id="g6297"><text
   id="text6299"
   transform="scale(1,-1)"
   x="98.544998"
   y="-194.659"><tspan
     id="tspan6301"
     y="-194.659"
     x="98.544998"
     style="font-size:10.90909958px;font-style:oblique;font-variant:normal;writing-mode:lr-tb;fill:#000000;fill-opacity:1;fill-rule:nonzero;stroke:none;font-family:LMSans10;-inkscape-font-specification:LMSans10-Oblique">X</tspan></text>

<text
   id="text6303"
   transform="scale(1,-1)"
   x="105.818"
   y="-193.022"><tspan
     id="tspan6305"
     y="-193.022"
     x="105.818"
     style="font-size:7.97009993px;font-variant:normal;font-weight:normal;writing-mode:lr-tb;fill:#000000;fill-opacity:1;fill-rule:nonzero;stroke:none;font-family:LMSans8;-inkscape-font-specification:LMSans8-Regular">13</tspan></text>

</g><g
   id="g6307"
   transform="matrix(0.71527699,0,0,0.71527699,108.55076,16.837718)"><text
   y="-194.659"
   x="98.544998"
   transform="scale(1,-1)"
   id="text6309"><tspan
     style="font-size:10.90909958px;font-style:oblique;font-variant:normal;writing-mode:lr-tb;fill:#000000;fill-opacity:1;fill-rule:nonzero;stroke:none;font-family:LMSans10;-inkscape-font-specification:LMSans10-Oblique"
     x="98.544998"
     y="-194.659"
     id="tspan6311">X</tspan></text>

<text
   y="-193.022"
   x="105.818"
   transform="scale(1,-1)"
   id="text6313"><tspan
     style="font-size:7.97009993px;font-variant:normal;font-weight:normal;writing-mode:lr-tb;fill:#000000;fill-opacity:1;fill-rule:nonzero;stroke:none;font-family:LMSans8;-inkscape-font-specification:LMSans8-Regular"
     x="105.818"
     y="-193.022"
     id="tspan6315">14</tspan></text>

</g><g
   transform="matrix(0.71527699,0,0,0.71527699,108.55076,24.837718)"
   id="g6317"><text
   id="text6319"
   transform="scale(1,-1)"
   x="98.544998"
   y="-194.659"><tspan
     id="tspan6321"
     y="-194.659"
     x="98.544998"
     style="font-size:10.90909958px;font-style:oblique;font-variant:normal;writing-mode:lr-tb;fill:#000000;fill-opacity:1;fill-rule:nonzero;stroke:none;font-family:LMSans10;-inkscape-font-specification:LMSans10-Oblique">X</tspan></text>

<text
   id="text6323"
   transform="scale(1,-1)"
   x="105.818"
   y="-193.022"><tspan
     id="tspan6325"
     y="-193.022"
     x="105.818"
     style="font-size:7.97009993px;font-variant:normal;font-weight:normal;writing-mode:lr-tb;fill:#000000;fill-opacity:1;fill-rule:nonzero;stroke:none;font-family:LMSans8;-inkscape-font-specification:LMSans8-Regular">15</tspan></text>

</g><g
   transform="matrix(0.71527699,0,0,0.71527699,111.75076,-95.162282)"
   id="g6337"><text
   id="text6339"
   transform="scale(1,-1)"
   x="98.544998"
   y="-194.659"><tspan
     id="tspan6341"
     y="-194.659"
     x="98.544998"
     style="font-size:10.90909958px;font-style:oblique;font-variant:normal;writing-mode:lr-tb;fill:#000000;fill-opacity:1;fill-rule:nonzero;stroke:none;font-family:LMSans10;-inkscape-font-specification:LMSans10-Oblique">X</tspan></text>

<text
   id="text6343"
   transform="scale(1,-1)"
   x="105.818"
   y="-193.022"><tspan
     id="tspan6345"
     y="-193.022"
     x="105.818"
     style="font-size:7.97009993px;font-variant:normal;font-weight:normal;writing-mode:lr-tb;fill:#000000;fill-opacity:1;fill-rule:nonzero;stroke:none;font-family:LMSans8;-inkscape-font-specification:LMSans8-Regular">0</tspan></text>

</g><g
   transform="translate(-46.438318,-87.89708)"
   id="g6411"><text
   id="text6413"
   transform="scale(1,-1)"
   x="169.576"
   y="-211.19701"><tspan
     id="tspan6415"
     y="-211.19701"
     x="169.576"
     style="font-size:10.90909958px;font-style:oblique;font-variant:normal;writing-mode:lr-tb;fill:#000000;fill-opacity:1;fill-rule:nonzero;stroke:none;font-family:LMSans10;-inkscape-font-specification:LMSans10-Oblique">a</tspan></text>

<text
   id="text6417"
   transform="scale(1,-1)"
   x="174.81799"
   y="-209.56"><tspan
     id="tspan6419"
     y="-209.56"
     x="174.81799"
     style="font-size:7.97009993px;font-variant:normal;font-weight:normal;writing-mode:lr-tb;fill:#000000;fill-opacity:1;fill-rule:nonzero;stroke:none;font-family:LMSans8;-inkscape-font-specification:LMSans8-Regular">3</tspan></text>

</g><g
   id="g3820"
   transform="matrix(0,-1,1,0,81.38515,256.65987)"><path
     sodipodi:nodetypes="cc"
     style="fill:#89abdf;fill-opacity:1;stroke:#000000;stroke-width:0.80000001;stroke-linecap:round;stroke-linejoin:miter;stroke-miterlimit:4;stroke-opacity:1;stroke-dasharray:none;marker-end:url(#Arrow1Mend)"
     d="m 131.08502,27.137156 0,10.85816"
     id="path6409" /><path
     id="path7641"
     d="m 143.88502,27.137156 0,10.85816"
     style="fill:#89abdf;fill-opacity:1;stroke:#000000;stroke-width:0.80000001;stroke-linecap:round;stroke-linejoin:miter;stroke-miterlimit:4;stroke-opacity:1;stroke-dasharray:none;marker-end:url(#Arrow1Mend)"
     sodipodi:nodetypes="cc" /><path
     sodipodi:nodetypes="cc"
     style="fill:#89abdf;fill-opacity:1;stroke:#000000;stroke-width:0.80000001;stroke-linecap:round;stroke-linejoin:miter;stroke-miterlimit:4;stroke-opacity:1;stroke-dasharray:none;marker-end:url(#Arrow1Mend)"
     d="m 156.68502,27.137156 0,10.85816"
     id="path7643" /><path
     id="path7645"
     d="m 169.48502,27.137156 0,10.85816"
     style="fill:#89abdf;fill-opacity:1;stroke:#000000;stroke-width:0.80000001;stroke-linecap:round;stroke-linejoin:miter;stroke-miterlimit:4;stroke-opacity:1;stroke-dasharray:none;marker-end:url(#Arrow1Mend)"
     sodipodi:nodetypes="cc" /></g><path
   id="path7647"
   d="m 194.74487,47.135555 19.59973,0"
   style="fill:#89abdf;fill-opacity:1;stroke:#000000;stroke-width:0.80000001;stroke-linecap:round;stroke-linejoin:miter;stroke-miterlimit:4;stroke-opacity:1;stroke-dasharray:none;marker-end:url(#Arrow1Mend)"
   sodipodi:nodetypes="cc" /><path
   sodipodi:nodetypes="cc"
   style="fill:#89abdf;fill-opacity:1;stroke:#000000;stroke-width:0.80000001;stroke-linecap:round;stroke-linejoin:miter;stroke-miterlimit:4;stroke-opacity:1;stroke-dasharray:none;marker-end:url(#Arrow1Mend)"
   d="m 194.74487,55.135555 19.59973,0"
   id="path7649" /><path
   sodipodi:nodetypes="cc"
   style="fill:#89abdf;fill-opacity:1;stroke:#000000;stroke-width:0.80000001;stroke-linecap:round;stroke-linejoin:miter;stroke-miterlimit:4;stroke-opacity:1;stroke-dasharray:none;marker-end:url(#Arrow1Mend)"
   d="m 194.74487,63.135555 19.59973,0"
   id="path7651" /><path
   id="path7653"
   d="m 194.74487,71.135555 19.59973,0"
   style="fill:#89abdf;fill-opacity:1;stroke:#000000;stroke-width:0.80000001;stroke-linecap:round;stroke-linejoin:miter;stroke-miterlimit:4;stroke-opacity:1;stroke-dasharray:none;marker-end:url(#Arrow1Mend)"
   sodipodi:nodetypes="cc" /><path
   sodipodi:nodetypes="cc"
   style="fill:#89abdf;fill-opacity:1;stroke:#000000;stroke-width:0.80000001;stroke-linecap:round;stroke-linejoin:miter;stroke-miterlimit:4;stroke-opacity:1;stroke-dasharray:none;marker-end:url(#Arrow1Mend)"
   d="m 194.74487,79.135555 19.59973,0"
   id="path7655" /><path
   id="path7657"
   d="m 194.74487,87.135555 19.59973,0"
   style="fill:#89abdf;fill-opacity:1;stroke:#000000;stroke-width:0.80000001;stroke-linecap:round;stroke-linejoin:miter;stroke-miterlimit:4;stroke-opacity:1;stroke-dasharray:none;marker-end:url(#Arrow1Mend)"
   sodipodi:nodetypes="cc" /><path
   id="path7659"
   d="m 194.74487,95.135555 19.59973,0"
   style="fill:#89abdf;fill-opacity:1;stroke:#000000;stroke-width:0.80000001;stroke-linecap:round;stroke-linejoin:miter;stroke-miterlimit:4;stroke-opacity:1;stroke-dasharray:none;marker-end:url(#Arrow1Mend)"
   sodipodi:nodetypes="cc" /><path
   sodipodi:nodetypes="cc"
   style="fill:#89abdf;fill-opacity:1;stroke:#000000;stroke-width:0.80000001;stroke-linecap:round;stroke-linejoin:miter;stroke-miterlimit:4;stroke-opacity:1;stroke-dasharray:none;marker-end:url(#Arrow1Mend)"
   d="m 194.74487,103.13555 19.59973,0"
   id="path7661" /><path
   sodipodi:nodetypes="cc"
   style="fill:#89abdf;fill-opacity:1;stroke:#000000;stroke-width:0.80000001;stroke-linecap:round;stroke-linejoin:miter;stroke-miterlimit:4;stroke-opacity:1;stroke-dasharray:none;marker-end:url(#Arrow1Mend)"
   d="m 194.74487,111.13555 19.59973,0"
   id="path7663" /><path
   id="path7665"
   d="m 194.74487,119.13555 19.59973,0"
   style="fill:#89abdf;fill-opacity:1;stroke:#000000;stroke-width:0.80000001;stroke-linecap:round;stroke-linejoin:miter;stroke-miterlimit:4;stroke-opacity:1;stroke-dasharray:none;marker-end:url(#Arrow1Mend)"
   sodipodi:nodetypes="cc" /><path
   id="path7667"
   d="m 194.74487,127.13555 19.59973,0"
   style="fill:#89abdf;fill-opacity:1;stroke:#000000;stroke-width:0.80000001;stroke-linecap:round;stroke-linejoin:miter;stroke-miterlimit:4;stroke-opacity:1;stroke-dasharray:none;marker-end:url(#Arrow1Mend)"
   sodipodi:nodetypes="cc" /><path
   sodipodi:nodetypes="cc"
   style="fill:#89abdf;fill-opacity:1;stroke:#000000;stroke-width:0.80000001;stroke-linecap:round;stroke-linejoin:miter;stroke-miterlimit:4;stroke-opacity:1;stroke-dasharray:none;marker-end:url(#Arrow1Mend)"
   d="m 194.74487,135.13555 19.59973,0"
   id="path7669" /><path
   id="path7671"
   d="m 194.74487,143.13555 19.59973,0"
   style="fill:#89abdf;fill-opacity:1;stroke:#000000;stroke-width:0.80000001;stroke-linecap:round;stroke-linejoin:miter;stroke-miterlimit:4;stroke-opacity:1;stroke-dasharray:none;marker-end:url(#Arrow1Mend)"
   sodipodi:nodetypes="cc" /><path
   sodipodi:nodetypes="cc"
   style="fill:#89abdf;fill-opacity:1;stroke:#000000;stroke-width:0.80000001;stroke-linecap:round;stroke-linejoin:miter;stroke-miterlimit:4;stroke-opacity:1;stroke-dasharray:none;marker-end:url(#Arrow1Mend)"
   d="m 194.74487,151.13555 19.59973,0"
   id="path7673" /><path
   sodipodi:nodetypes="cc"
   style="fill:#89abdf;fill-opacity:1;stroke:#000000;stroke-width:0.80000001;stroke-linecap:round;stroke-linejoin:miter;stroke-miterlimit:4;stroke-opacity:1;stroke-dasharray:none;marker-end:url(#Arrow1Mend)"
   d="m 194.74487,159.13555 19.59973,0"
   id="path7675" /><path
   id="path7677"
   d="m 194.74487,167.13555 19.59973,0"
   style="fill:#89abdf;fill-opacity:1;stroke:#000000;stroke-width:0.80000001;stroke-linecap:round;stroke-linejoin:miter;stroke-miterlimit:4;stroke-opacity:1;stroke-dasharray:none;marker-end:url(#Arrow1Mend)"
   sodipodi:nodetypes="cc" /><g
   id="g3826"
   transform="translate(-46.438318,-100.69708)"><text
   y="-211.19701"
   x="169.576"
   transform="scale(1,-1)"
   id="text3828"><tspan
     style="font-size:10.90909958px;font-style:oblique;font-variant:normal;writing-mode:lr-tb;fill:#000000;fill-opacity:1;fill-rule:nonzero;stroke:none;font-family:LMSans10;-inkscape-font-specification:LMSans10-Oblique"
     x="169.576"
     y="-211.19701"
     id="tspan3830">a</tspan></text>

<text
   y="-209.56"
   x="174.81799"
   transform="scale(1,-1)"
   id="text3832"><tspan
     style="font-size:7.97009993px;font-variant:normal;font-weight:normal;writing-mode:lr-tb;fill:#000000;fill-opacity:1;fill-rule:nonzero;stroke:none;font-family:LMSans8;-inkscape-font-specification:LMSans8-Regular"
     x="174.81799"
     y="-209.56"
     id="tspan3834">2</tspan></text>

</g><g
   transform="translate(-46.438318,-113.49708)"
   id="g3836"><text
   id="text3838"
   transform="scale(1,-1)"
   x="169.576"
   y="-211.19701"><tspan
     id="tspan3840"
     y="-211.19701"
     x="169.576"
     style="font-size:10.90909958px;font-style:oblique;font-variant:normal;writing-mode:lr-tb;fill:#000000;fill-opacity:1;fill-rule:nonzero;stroke:none;font-family:LMSans10;-inkscape-font-specification:LMSans10-Oblique">a</tspan></text>

<text
   id="text3842"
   transform="scale(1,-1)"
   x="174.81799"
   y="-209.56"><tspan
     id="tspan3844"
     y="-209.56"
     x="174.81799"
     style="font-size:7.97009993px;font-variant:normal;font-weight:normal;writing-mode:lr-tb;fill:#000000;fill-opacity:1;fill-rule:nonzero;stroke:none;font-family:LMSans8;-inkscape-font-specification:LMSans8-Regular">1</tspan></text>

</g><g
   id="g3846"
   transform="translate(-46.438318,-126.29708)"><text
   y="-211.19701"
   x="169.576"
   transform="scale(1,-1)"
   id="text3848"><tspan
     style="font-size:10.90909958px;font-style:oblique;font-variant:normal;writing-mode:lr-tb;fill:#000000;fill-opacity:1;fill-rule:nonzero;stroke:none;font-family:LMSans10;-inkscape-font-specification:LMSans10-Oblique"
     x="169.576"
     y="-211.19701"
     id="tspan3850">a</tspan></text>

<text
   y="-209.56"
   x="174.81799"
   transform="scale(1,-1)"
   id="text3852"><tspan
     style="font-size:7.97009993px;font-variant:normal;font-weight:normal;writing-mode:lr-tb;fill:#000000;fill-opacity:1;fill-rule:nonzero;stroke:none;font-family:LMSans8;-inkscape-font-specification:LMSans8-Regular"
     x="174.81799"
     y="-209.56"
     id="tspan3854">0</tspan></text>

</g><path
   inkscape:connector-curvature="0"
   d="m 197.31885,49.835493 c 1.519,0 2.75,-1.234 2.75,-2.754 0,-1.519 -1.231,-2.75 -2.75,-2.75 -1.52,0 -2.754,1.231 -2.754,2.75 0,1.52 1.234,2.754 2.754,2.754 z"
   style="fill:#ffffff;fill-opacity:1;fill-rule:nonzero;stroke:#000000;stroke-width:0.80000001;stroke-linecap:round;stroke-linejoin:miter;stroke-miterlimit:4;stroke-opacity:1;stroke-dasharray:none"
   id="path6978" /><path
   id="path7830"
   style="fill:#ffffff;fill-opacity:1;fill-rule:nonzero;stroke:#000000;stroke-width:0.80000001;stroke-linecap:round;stroke-linejoin:miter;stroke-miterlimit:4;stroke-opacity:1;stroke-dasharray:none"
   d="m 197.31885,57.835493 c 1.519,0 2.75,-1.234 2.75,-2.754 0,-1.519 -1.231,-2.75 -2.75,-2.75 -1.52,0 -2.754,1.231 -2.754,2.75 0,1.52 1.234,2.754 2.754,2.754 z"
   inkscape:connector-curvature="0" /><path
   id="path7832"
   style="fill:#ffffff;fill-opacity:1;fill-rule:nonzero;stroke:#000000;stroke-width:0.80000001;stroke-linecap:round;stroke-linejoin:miter;stroke-miterlimit:4;stroke-opacity:1;stroke-dasharray:none"
   d="m 197.31885,65.835493 c 1.519,0 2.75,-1.234 2.75,-2.754 0,-1.519 -1.231,-2.75 -2.75,-2.75 -1.52,0 -2.754,1.231 -2.754,2.75 0,1.52 1.234,2.754 2.754,2.754 z"
   inkscape:connector-curvature="0" /><path
   inkscape:connector-curvature="0"
   d="m 197.31885,73.835493 c 1.519,0 2.75,-1.234 2.75,-2.754 0,-1.519 -1.231,-2.75 -2.75,-2.75 -1.52,0 -2.754,1.231 -2.754,2.75 0,1.52 1.234,2.754 2.754,2.754 z"
   style="fill:#ffffff;fill-opacity:1;fill-rule:nonzero;stroke:#000000;stroke-width:0.80000001;stroke-linecap:round;stroke-linejoin:miter;stroke-miterlimit:4;stroke-opacity:1;stroke-dasharray:none"
   id="path7834" /><path
   id="path7836"
   style="fill:#ffffff;fill-opacity:1;fill-rule:nonzero;stroke:#000000;stroke-width:0.80000001;stroke-linecap:round;stroke-linejoin:miter;stroke-miterlimit:4;stroke-opacity:1;stroke-dasharray:none"
   d="m 197.31885,81.835493 c 1.519,0 2.75,-1.234 2.75,-2.754 0,-1.519 -1.231,-2.75 -2.75,-2.75 -1.52,0 -2.754,1.231 -2.754,2.75 0,1.52 1.234,2.754 2.754,2.754 z"
   inkscape:connector-curvature="0" /><path
   inkscape:connector-curvature="0"
   d="m 197.31885,89.835493 c 1.519,0 2.75,-1.234 2.75,-2.754 0,-1.519 -1.231,-2.75 -2.75,-2.75 -1.52,0 -2.754,1.231 -2.754,2.75 0,1.52 1.234,2.754 2.754,2.754 z"
   style="fill:#ffffff;fill-opacity:1;fill-rule:nonzero;stroke:#000000;stroke-width:0.80000001;stroke-linecap:round;stroke-linejoin:miter;stroke-miterlimit:4;stroke-opacity:1;stroke-dasharray:none"
   id="path7838" /><path
   inkscape:connector-curvature="0"
   d="m 197.31885,97.835487 c 1.519,0 2.75,-1.234 2.75,-2.753996 0,-1.519 -1.231,-2.75 -2.75,-2.75 -1.52,0 -2.754,1.231 -2.754,2.75 0,1.519996 1.234,2.753996 2.754,2.753996 z"
   style="fill:#ffffff;fill-opacity:1;fill-rule:nonzero;stroke:#000000;stroke-width:0.80000001;stroke-linecap:round;stroke-linejoin:miter;stroke-miterlimit:4;stroke-opacity:1;stroke-dasharray:none"
   id="path7840" /><path
   id="path7842"
   style="fill:#ffffff;fill-opacity:1;fill-rule:nonzero;stroke:#000000;stroke-width:0.80000001;stroke-linecap:round;stroke-linejoin:miter;stroke-miterlimit:4;stroke-opacity:1;stroke-dasharray:none"
   d="m 197.31885,105.8355 c 1.519,0 2.75,-1.234 2.75,-2.754 0,-1.519 -1.231,-2.75 -2.75,-2.75 -1.52,0 -2.754,1.231 -2.754,2.75 0,1.52 1.234,2.754 2.754,2.754 z"
   inkscape:connector-curvature="0" /><path
   id="path7844"
   style="fill:#ffffff;fill-opacity:1;fill-rule:nonzero;stroke:#000000;stroke-width:0.80000001;stroke-linecap:round;stroke-linejoin:miter;stroke-miterlimit:4;stroke-opacity:1;stroke-dasharray:none"
   d="m 197.31885,113.8355 c 1.519,0 2.75,-1.234 2.75,-2.754 0,-1.519 -1.231,-2.75 -2.75,-2.75 -1.52,0 -2.754,1.231 -2.754,2.75 0,1.52 1.234,2.754 2.754,2.754 z"
   inkscape:connector-curvature="0" /><path
   inkscape:connector-curvature="0"
   d="m 197.31885,121.8355 c 1.519,0 2.75,-1.234 2.75,-2.754 0,-1.519 -1.231,-2.75 -2.75,-2.75 -1.52,0 -2.754,1.231 -2.754,2.75 0,1.52 1.234,2.754 2.754,2.754 z"
   style="fill:#ffffff;fill-opacity:1;fill-rule:nonzero;stroke:#000000;stroke-width:0.80000001;stroke-linecap:round;stroke-linejoin:miter;stroke-miterlimit:4;stroke-opacity:1;stroke-dasharray:none"
   id="path7846" /><path
   inkscape:connector-curvature="0"
   d="m 197.31885,129.8355 c 1.519,0 2.75,-1.234 2.75,-2.754 0,-1.519 -1.231,-2.75 -2.75,-2.75 -1.52,0 -2.754,1.231 -2.754,2.75 0,1.52 1.234,2.754 2.754,2.754 z"
   style="fill:#ffffff;fill-opacity:1;fill-rule:nonzero;stroke:#000000;stroke-width:0.80000001;stroke-linecap:round;stroke-linejoin:miter;stroke-miterlimit:4;stroke-opacity:1;stroke-dasharray:none"
   id="path7848" /><path
   id="path7850"
   style="fill:#ffffff;fill-opacity:1;fill-rule:nonzero;stroke:#000000;stroke-width:0.80000001;stroke-linecap:round;stroke-linejoin:miter;stroke-miterlimit:4;stroke-opacity:1;stroke-dasharray:none"
   d="m 197.31885,137.8355 c 1.519,0 2.75,-1.234 2.75,-2.754 0,-1.519 -1.231,-2.75 -2.75,-2.75 -1.52,0 -2.754,1.231 -2.754,2.75 0,1.52 1.234,2.754 2.754,2.754 z"
   inkscape:connector-curvature="0" /><path
   inkscape:connector-curvature="0"
   d="m 197.31885,145.8355 c 1.519,0 2.75,-1.234 2.75,-2.754 0,-1.519 -1.231,-2.75 -2.75,-2.75 -1.52,0 -2.754,1.231 -2.754,2.75 0,1.52 1.234,2.754 2.754,2.754 z"
   style="fill:#ffffff;fill-opacity:1;fill-rule:nonzero;stroke:#000000;stroke-width:0.80000001;stroke-linecap:round;stroke-linejoin:miter;stroke-miterlimit:4;stroke-opacity:1;stroke-dasharray:none"
   id="path7852" /><path
   id="path7854"
   style="fill:#ffffff;fill-opacity:1;fill-rule:nonzero;stroke:#000000;stroke-width:0.80000001;stroke-linecap:round;stroke-linejoin:miter;stroke-miterlimit:4;stroke-opacity:1;stroke-dasharray:none"
   d="m 197.31885,153.8355 c 1.519,0 2.75,-1.234 2.75,-2.754 0,-1.519 -1.231,-2.75 -2.75,-2.75 -1.52,0 -2.754,1.231 -2.754,2.75 0,1.52 1.234,2.754 2.754,2.754 z"
   inkscape:connector-curvature="0" /><path
   id="path7856"
   style="fill:#ffffff;fill-opacity:1;fill-rule:nonzero;stroke:#000000;stroke-width:0.80000001;stroke-linecap:round;stroke-linejoin:miter;stroke-miterlimit:4;stroke-opacity:1;stroke-dasharray:none"
   d="m 197.31885,161.8355 c 1.519,0 2.75,-1.234 2.75,-2.754 0,-1.519 -1.231,-2.75 -2.75,-2.75 -1.52,0 -2.754,1.231 -2.754,2.75 0,1.52 1.234,2.754 2.754,2.754 z"
   inkscape:connector-curvature="0" /><path
   inkscape:connector-curvature="0"
   d="m 197.31885,169.8355 c 1.519,0 2.75,-1.234 2.75,-2.754 0,-1.519 -1.231,-2.75 -2.75,-2.75 -1.52,0 -2.754,1.231 -2.754,2.75 0,1.52 1.234,2.754 2.754,2.754 z"
   style="fill:#ffffff;fill-opacity:1;fill-rule:nonzero;stroke:#000000;stroke-width:0.80000001;stroke-linecap:round;stroke-linejoin:miter;stroke-miterlimit:4;stroke-opacity:1;stroke-dasharray:none"
   id="path7858" /></g></svg>