<?xml version="1.0" encoding="UTF-8" standalone="no"?>
<!-- Created with Inkscape (http://www.inkscape.org/) -->

<svg
   xmlns:dc="http://purl.org/dc/elements/1.1/"
   xmlns:cc="http://creativecommons.org/ns#"
   xmlns:rdf="http://www.w3.org/1999/02/22-rdf-syntax-ns#"
   xmlns:svg="http://www.w3.org/2000/svg"
   xmlns="http://www.w3.org/2000/svg"
   xmlns:sodipodi="http://sodipodi.sourceforge.net/DTD/sodipodi-0.dtd"
   xmlns:inkscape="http://www.inkscape.org/namespaces/inkscape"
   id="svg34973"
   version="1.1"
   inkscape:version="0.47 r22583"
   width="422.77747"
   height="205.34267"
   xml:space="preserve"
   sodipodi:docname="mux4x1_3.svg"><metadata
     id="metadata34979"><rdf:RDF><cc:Work
         rdf:about=""><dc:format>image/svg+xml</dc:format><dc:type
           rdf:resource="http://purl.org/dc/dcmitype/StillImage" /><dc:title></dc:title></cc:Work></rdf:RDF></metadata><defs
     id="defs34977"><inkscape:perspective
       sodipodi:type="inkscape:persp3d"
       inkscape:vp_x="0 : 0.5 : 1"
       inkscape:vp_y="0 : 1000 : 0"
       inkscape:vp_z="1 : 0.5 : 1"
       inkscape:persp3d-origin="0.5 : 0.33333333 : 1"
       id="perspective34981" /><inkscape:perspective
       id="perspective35245"
       inkscape:persp3d-origin="0.5 : 0.33333333 : 1"
       inkscape:vp_z="1 : 0.5 : 1"
       inkscape:vp_y="0 : 1000 : 0"
       inkscape:vp_x="0 : 0.5 : 1"
       sodipodi:type="inkscape:persp3d" /><inkscape:perspective
       id="perspective36349"
       inkscape:persp3d-origin="0.5 : 0.33333333 : 1"
       inkscape:vp_z="1 : 0.5 : 1"
       inkscape:vp_y="0 : 1000 : 0"
       inkscape:vp_x="0 : 0.5 : 1"
       sodipodi:type="inkscape:persp3d" /><inkscape:perspective
       id="perspective36374"
       inkscape:persp3d-origin="0.5 : 0.33333333 : 1"
       inkscape:vp_z="1 : 0.5 : 1"
       inkscape:vp_y="0 : 1000 : 0"
       inkscape:vp_x="0 : 0.5 : 1"
       sodipodi:type="inkscape:persp3d" /></defs><sodipodi:namedview
     pagecolor="#ffffff"
     bordercolor="#666666"
     borderopacity="1"
     objecttolerance="10"
     gridtolerance="10"
     guidetolerance="10"
     inkscape:pageopacity="0"
     inkscape:pageshadow="2"
     inkscape:window-width="1440"
     inkscape:window-height="825"
     id="namedview34975"
     showgrid="false"
     inkscape:zoom="2.0371876"
     inkscape:cx="291.80733"
     inkscape:cy="125.28374"
     inkscape:window-x="0"
     inkscape:window-y="25"
     inkscape:window-maximized="1"
     inkscape:current-layer="g34983" /><g
     id="g34983"
     inkscape:groupmode="layer"
     inkscape:label="aula13"
     transform="matrix(1.25,0,0,-1.25,-8.299453,266.88154)"><g
   transform="matrix(0,0.8,0.8,0,53.854409,108.29373)"
   id="g36172"><path
     sodipodi:nodetypes="cccc"
     style="fill:none;stroke:#000000;stroke-width:1;stroke-linecap:round;stroke-linejoin:round;stroke-miterlimit:4;stroke-opacity:1;stroke-dasharray:none"
     d="m -40.093847,33.848232 0,-13.590084 142.154047,0 c 0,26.934156 0,29.363853 0,29.363853"
     id="path36174" /><path
     id="path36176"
     style="fill:#ffffff;fill-opacity:1;fill-rule:evenodd;stroke:#000000;stroke-width:1;stroke-linecap:round;stroke-linejoin:round;stroke-miterlimit:4;stroke-opacity:1;stroke-dasharray:none;stroke-dashoffset:0"
     d="m -27.754683,26.788806 0,-13.061319 9.858157,6.53066 -9.858157,6.530659 z"
     sodipodi:nodetypes="cccc" /><path
     sodipodi:type="arc"
     style="fill:#ffffff;fill-opacity:1;fill-rule:evenodd;stroke:#000000;stroke-width:7.41318464;stroke-linecap:round;stroke-linejoin:round;stroke-miterlimit:4;stroke-opacity:1;stroke-dasharray:none;stroke-dashoffset:0"
     id="path36178"
     sodipodi:cx="285.3176"
     sodipodi:cy="89.843887"
     sodipodi:rx="20.152544"
     sodipodi:ry="20.152544"
     d="m 305.47014,89.843887 c 0,11.129943 -9.0226,20.152543 -20.15254,20.152543 -11.12995,0 -20.15255,-9.0226 -20.15255,-20.152543 0,-11.129942 9.0226,-20.152544 20.15255,-20.152544 11.12994,0 20.15254,9.022602 20.15254,20.152544 z"
     transform="matrix(0.13492698,0,0,0.13486262,-53.590008,8.1415651)" /></g><g
   id="g3343"
   transform="matrix(0,0.8,0.8,0,29.854409,108.29373)"><path
     id="path1316"
     d="m -40.093847,33.848232 0,-13.590084 150.154047,0 c 0,26.934156 0,59.363853 0,59.363853"
     style="fill:none;stroke:#000000;stroke-width:1;stroke-linecap:round;stroke-linejoin:round;stroke-miterlimit:4;stroke-opacity:1;stroke-dasharray:none"
     sodipodi:nodetypes="cccc" /><path
     sodipodi:nodetypes="cccc"
     d="m -27.754683,26.788806 0,-13.061319 9.858157,6.53066 -9.858157,6.530659 z"
     style="fill:#ffffff;fill-opacity:1;fill-rule:evenodd;stroke:#000000;stroke-width:1;stroke-linecap:round;stroke-linejoin:round;stroke-miterlimit:4;stroke-opacity:1;stroke-dasharray:none;stroke-dashoffset:0"
     id="rect2193" /><path
     transform="matrix(0.13492698,0,0,0.13486262,-53.590008,8.1415651)"
     d="m 305.47014,89.843887 c 0,11.129943 -9.0226,20.152543 -20.15254,20.152543 -11.12995,0 -20.15255,-9.0226 -20.15255,-20.152543 0,-11.129942 9.0226,-20.152544 20.15255,-20.152544 11.12994,0 20.15254,9.022602 20.15254,20.152544 z"
     sodipodi:ry="20.152544"
     sodipodi:rx="20.152544"
     sodipodi:cy="89.843887"
     sodipodi:cx="285.3176"
     id="path2247"
     style="fill:#ffffff;fill-opacity:1;fill-rule:evenodd;stroke:#000000;stroke-width:7.41318464;stroke-linecap:round;stroke-linejoin:round;stroke-miterlimit:4;stroke-opacity:1;stroke-dasharray:none;stroke-dashoffset:0"
     sodipodi:type="arc" /></g><g
   id="g34503"
   transform="matrix(0.8,0,0,-0.8,52.60782,260.69916)"><path
     sodipodi:nodetypes="cc"
     id="path34505"
     d="m -38.097342,72.485741 90.594917,0"
     style="fill:none;stroke:#000000;stroke-width:1;stroke-linecap:round;stroke-linejoin:miter;stroke-miterlimit:4;stroke-opacity:1;stroke-dasharray:none" /><path
     style="fill:none;stroke:#000000;stroke-width:1;stroke-linecap:round;stroke-linejoin:miter;stroke-miterlimit:4;stroke-opacity:1;stroke-dasharray:none"
     d="m 69.676711,80.63569 25.819083,0 0,41.56093 17.153566,0"
     id="path34507"
     sodipodi:nodetypes="cscc" /><path
     sodipodi:nodetypes="ccccsc"
     d="m 59.966777,93.408661 -11.243368,-9e-6 0,-24.994015 11.315906,-4e-6 c 6.133801,-4e-6 11.17083,5.598659 11.17083,12.497012 0,6.898353 -5.037029,12.497016 -11.243368,12.497016 z"
     style="fill:#ffffff;fill-opacity:1;fill-rule:evenodd;stroke:#000000;stroke-width:1;stroke-linecap:butt;stroke-linejoin:round;stroke-miterlimit:4;stroke-opacity:1;stroke-dasharray:none;stroke-dashoffset:0"
     id="path34509" /></g><path
   sodipodi:nodetypes="ccc"
   id="path36180"
   d="m 81.52205,59.8544 0,103.00928 11.83936,0"
   style="fill:none;stroke:#000000;stroke-width:0.80000001px;stroke-linecap:round;stroke-linejoin:round;stroke-opacity:1" /><path
   style="fill:none;stroke:#000000;stroke-width:0.80000001px;stroke-linecap:round;stroke-linejoin:round;stroke-opacity:1"
   d="m 57.52205,59.8544 0,82.20928"
   id="path33971"
   sodipodi:nodetypes="cc" /><g
   id="g36296"><path
     sodipodi:nodetypes="cc"
     id="path36250"
     d="m 46.129946,169.52117 50.075934,0"
     style="fill:none;stroke:#000000;stroke-width:0.80000001;stroke-linecap:round;stroke-linejoin:miter;stroke-miterlimit:4;stroke-opacity:1;stroke-dasharray:none" /><path
     style="fill:none;stroke:#000000;stroke-width:0.80000001;stroke-linecap:round;stroke-linejoin:miter;stroke-miterlimit:4;stroke-opacity:1;stroke-dasharray:none"
     d="m 22.129946,175.92117 75.675934,0"
     id="path33975"
     sodipodi:nodetypes="cc" /><path
     id="path33979"
     d="m 108.34919,169.40121 14.25527,0"
     style="fill:none;stroke:#000000;stroke-width:0.80000001;stroke-linecap:round;stroke-linejoin:miter;stroke-miterlimit:4;stroke-opacity:1;stroke-dasharray:none" /><path
     id="path33981"
     style="fill:#ffffff;fill-opacity:1;fill-rule:evenodd;stroke:#000000;stroke-width:0.80000001;stroke-linecap:butt;stroke-linejoin:round;stroke-miterlimit:4;stroke-opacity:1;stroke-dasharray:none;stroke-dashoffset:0"
     d="m 100.58124,159.18283 -8.994693,1e-5 0,19.99521 9.052723,0 c 4.90704,10e-6 8.93667,-4.47892 8.93667,-9.99761 0,-5.51868 -4.02963,-9.99761 -8.9947,-9.99761 z"
     sodipodi:nodetypes="ccccsc" /></g><path
   sodipodi:type="arc"
   style="fill:#000000;stroke:none"
   id="path34495"
   sodipodi:cx="206.41202"
   sodipodi:cy="144.91284"
   sodipodi:rx="1.9941708"
   sodipodi:ry="1.9941708"
   d="m 208.40619,144.91284 c 0,1.10135 -0.89282,1.99417 -1.99417,1.99417 -1.10135,0 -1.99417,-0.89282 -1.99417,-1.99417 0,-1.10135 0.89282,-1.99417 1.99417,-1.99417 1.10135,0 1.99417,0.89282 1.99417,1.99417 z"
   transform="matrix(0.91411784,0,0,-0.91411784,-131.16287,208.71119)" /><path
   transform="matrix(0.91411784,0,0,-0.91411784,-107.16287,208.71119)"
   d="m 208.40619,144.91284 c 0,1.10135 -0.89282,1.99417 -1.99417,1.99417 -1.10135,0 -1.99417,-0.89282 -1.99417,-1.99417 0,-1.10135 0.89282,-1.99417 1.99417,-1.99417 1.10135,0 1.99417,0.89282 1.99417,1.99417 z"
   sodipodi:ry="1.9941708"
   sodipodi:rx="1.9941708"
   sodipodi:cy="144.91284"
   sodipodi:cx="206.41202"
   id="path36182"
   style="fill:#000000;stroke:none"
   sodipodi:type="arc" /><g
   id="g36244"
   transform="translate(-1.9342841,25.6)"><text
   id="text36184"
   transform="scale(1,-1)"
   x="60.327713"
   y="-25.435484"><tspan
     id="tspan36186"
     sodipodi:role="line"
     style="font-size:10.90909958px;font-style:oblique;font-variant:normal;text-align:end;writing-mode:lr-tb;text-anchor:end;fill:#000000;fill-opacity:1;fill-rule:nonzero;stroke:none;font-family:LMSans10;-inkscape-font-specification:LMSans10-Oblique"
     x="60.327713"
     y="-25.435484">S</tspan></text>


<text
   id="text36188"
   transform="scale(1,-1)"
   x="60.575459"
   y="-23.798475"><tspan
     id="tspan36190"
     y="-23.798475"
     x="60.575459"
     style="font-size:7.97009993px;font-variant:normal;font-weight:normal;writing-mode:lr-tb;fill:#000000;fill-opacity:1;fill-rule:nonzero;stroke:none;font-family:LMSans8;-inkscape-font-specification:LMSans8-Regular">1</tspan></text>


</g><path
   transform="matrix(0.91411784,0,0,-0.91411784,-142.70997,301.85829)"
   d="m 208.40619,144.91284 c 0,1.10135 -0.89282,1.99417 -1.99417,1.99417 -1.10135,0 -1.99417,-0.89282 -1.99417,-1.99417 0,-1.10135 0.89282,-1.99417 1.99417,-1.99417 1.10135,0 1.99417,0.89282 1.99417,1.99417 z"
   sodipodi:ry="1.9941708"
   sodipodi:rx="1.9941708"
   sodipodi:cy="144.91284"
   sodipodi:cx="206.41202"
   id="path36252"
   style="fill:#000000;stroke:none"
   sodipodi:type="arc" />



<g
   transform="translate(20.465716,25.6)"
   id="g2936"><text
   y="-25.435484"
   x="60.327713"
   transform="scale(1,-1)"
   id="text2938"><tspan
     y="-25.435484"
     x="60.327713"
     style="font-size:10.90909958px;font-style:oblique;font-variant:normal;text-align:end;writing-mode:lr-tb;text-anchor:end;fill:#000000;fill-opacity:1;fill-rule:nonzero;stroke:none;font-family:LMSans10;-inkscape-font-specification:LMSans10-Oblique"
     sodipodi:role="line"
     id="tspan2940">S</tspan></text>


<text
   y="-23.798475"
   x="60.575459"
   transform="scale(1,-1)"
   id="text2942"><tspan
     style="font-size:7.97009993px;font-variant:normal;font-weight:normal;writing-mode:lr-tb;fill:#000000;fill-opacity:1;fill-rule:nonzero;stroke:none;font-family:LMSans8;-inkscape-font-specification:LMSans8-Regular"
     x="60.575459"
     y="-23.798475"
     id="tspan2944">0</tspan></text>


</g><g
   id="g2956"
   transform="translate(-226.17323,58.564551)"><text
   y="-114.01492"
   x="239.64905"
   transform="scale(1,-1)"
   id="text2958"
   style="text-align:end;text-anchor:end"><tspan
     style="font-size:10.90909958px;font-style:oblique;font-variant:normal;text-align:end;writing-mode:lr-tb;text-anchor:end;fill:#000000;fill-opacity:1;fill-rule:nonzero;stroke:none;font-family:LMSans10;-inkscape-font-specification:LMSans10-Oblique"
     x="239.64905"
     y="-114.01492"
     id="tspan2960">D</tspan></text>


<text
   y="-112.37792"
   x="240.17345"
   transform="scale(1,-1)"
   id="text2962"><tspan
     style="font-size:7.97009993px;font-variant:normal;font-weight:normal;writing-mode:lr-tb;fill:#000000;fill-opacity:1;fill-rule:nonzero;stroke:none;font-family:LMSans8;-inkscape-font-specification:LMSans8-Regular"
     x="240.17345"
     y="-112.37792"
     id="tspan2964">1</tspan></text>


</g><g
   transform="translate(-226.17323,85.764551)"
   id="g2966"><text
   style="text-align:end;text-anchor:end"
   id="text2968"
   transform="scale(1,-1)"
   x="239.64905"
   y="-114.01492"><tspan
     id="tspan2970"
     y="-114.01492"
     x="239.64905"
     style="font-size:10.90909958px;font-style:oblique;font-variant:normal;text-align:end;writing-mode:lr-tb;text-anchor:end;fill:#000000;fill-opacity:1;fill-rule:nonzero;stroke:none;font-family:LMSans10;-inkscape-font-specification:LMSans10-Oblique">D</tspan></text>


<text
   id="text2972"
   transform="scale(1,-1)"
   x="240.17345"
   y="-112.37792"><tspan
     id="tspan2974"
     y="-112.37792"
     x="240.17345"
     style="font-size:7.97009993px;font-variant:normal;font-weight:normal;writing-mode:lr-tb;fill:#000000;fill-opacity:1;fill-rule:nonzero;stroke:none;font-family:LMSans8;-inkscape-font-specification:LMSans8-Regular">0</tspan></text>


</g></g></svg>