<?xml version="1.0" encoding="UTF-8" standalone="no"?>
<!-- Created with Inkscape (http://www.inkscape.org/) -->

<svg
   xmlns:dc="http://purl.org/dc/elements/1.1/"
   xmlns:cc="http://creativecommons.org/ns#"
   xmlns:rdf="http://www.w3.org/1999/02/22-rdf-syntax-ns#"
   xmlns:svg="http://www.w3.org/2000/svg"
   xmlns="http://www.w3.org/2000/svg"
   xmlns:sodipodi="http://sodipodi.sourceforge.net/DTD/sodipodi-0.dtd"
   xmlns:inkscape="http://www.inkscape.org/namespaces/inkscape"
   id="svg34973"
   version="1.1"
   inkscape:version="0.47 r22583"
   width="422.77747"
   height="205.34267"
   xml:space="preserve"
   sodipodi:docname="mux4x1_8.svg"><metadata
     id="metadata34979"><rdf:RDF><cc:Work
         rdf:about=""><dc:format>image/svg+xml</dc:format><dc:type
           rdf:resource="http://purl.org/dc/dcmitype/StillImage" /><dc:title></dc:title></cc:Work></rdf:RDF></metadata><defs
     id="defs34977"><inkscape:perspective
       sodipodi:type="inkscape:persp3d"
       inkscape:vp_x="0 : 0.5 : 1"
       inkscape:vp_y="0 : 1000 : 0"
       inkscape:vp_z="1 : 0.5 : 1"
       inkscape:persp3d-origin="0.5 : 0.33333333 : 1"
       id="perspective34981" /><inkscape:perspective
       id="perspective35245"
       inkscape:persp3d-origin="0.5 : 0.33333333 : 1"
       inkscape:vp_z="1 : 0.5 : 1"
       inkscape:vp_y="0 : 1000 : 0"
       inkscape:vp_x="0 : 0.5 : 1"
       sodipodi:type="inkscape:persp3d" /><inkscape:perspective
       id="perspective36349"
       inkscape:persp3d-origin="0.5 : 0.33333333 : 1"
       inkscape:vp_z="1 : 0.5 : 1"
       inkscape:vp_y="0 : 1000 : 0"
       inkscape:vp_x="0 : 0.5 : 1"
       sodipodi:type="inkscape:persp3d" /><inkscape:perspective
       id="perspective36374"
       inkscape:persp3d-origin="0.5 : 0.33333333 : 1"
       inkscape:vp_z="1 : 0.5 : 1"
       inkscape:vp_y="0 : 1000 : 0"
       inkscape:vp_x="0 : 0.5 : 1"
       sodipodi:type="inkscape:persp3d" /></defs><sodipodi:namedview
     pagecolor="#ffffff"
     bordercolor="#666666"
     borderopacity="1"
     objecttolerance="10"
     gridtolerance="10"
     guidetolerance="10"
     inkscape:pageopacity="0"
     inkscape:pageshadow="2"
     inkscape:window-width="1440"
     inkscape:window-height="825"
     id="namedview34975"
     showgrid="false"
     inkscape:zoom="2.0371876"
     inkscape:cx="291.80733"
     inkscape:cy="125.28374"
     inkscape:window-x="0"
     inkscape:window-y="25"
     inkscape:window-maximized="1"
     inkscape:current-layer="g34983" /><g
     id="g34983"
     inkscape:groupmode="layer"
     inkscape:label="aula13"
     transform="matrix(1.25,0,0,-1.25,-8.299453,266.88154)"><rect
   style="fill:#afc6e9;fill-opacity:1;stroke:none"
   id="rect15292"
   width="139.27075"
   height="147.86131"
   x="31.849785"
   y="-213.50523"
   transform="scale(1,-1)" /><g
   transform="matrix(0,0.8,0.8,0,53.854409,108.29373)"
   id="g36172"><path
     sodipodi:nodetypes="cccc"
     style="fill:none;stroke:#000000;stroke-width:1;stroke-linecap:round;stroke-linejoin:round;stroke-miterlimit:4;stroke-opacity:1;stroke-dasharray:none"
     d="m -40.093847,33.848232 0,-13.590084 142.154047,0 c 0,26.934156 0,29.363853 0,29.363853"
     id="path36174" /><path
     id="path36176"
     style="fill:#ffffff;fill-opacity:1;fill-rule:evenodd;stroke:#000000;stroke-width:1;stroke-linecap:round;stroke-linejoin:round;stroke-miterlimit:4;stroke-opacity:1;stroke-dasharray:none;stroke-dashoffset:0"
     d="m -27.754683,26.788806 0,-13.061319 9.858157,6.53066 -9.858157,6.530659 z"
     sodipodi:nodetypes="cccc" /><path
     sodipodi:type="arc"
     style="fill:#ffffff;fill-opacity:1;fill-rule:evenodd;stroke:#000000;stroke-width:7.41318464;stroke-linecap:round;stroke-linejoin:round;stroke-miterlimit:4;stroke-opacity:1;stroke-dasharray:none;stroke-dashoffset:0"
     id="path36178"
     sodipodi:cx="285.3176"
     sodipodi:cy="89.843887"
     sodipodi:rx="20.152544"
     sodipodi:ry="20.152544"
     d="m 305.47014,89.843887 c 0,11.129943 -9.0226,20.152543 -20.15254,20.152543 -11.12995,0 -20.15255,-9.0226 -20.15255,-20.152543 0,-11.129942 9.0226,-20.152544 20.15255,-20.152544 11.12994,0 20.15254,9.022602 20.15254,20.152544 z"
     transform="matrix(0.13492698,0,0,0.13486262,-53.590008,8.1415651)" /></g><g
   id="g3343"
   transform="matrix(0,0.8,0.8,0,29.854409,108.29373)"><path
     id="path1316"
     d="m -40.093847,33.848232 0,-13.590084 150.154047,0 c 0,26.934156 0,59.363853 0,59.363853"
     style="fill:none;stroke:#000000;stroke-width:1;stroke-linecap:round;stroke-linejoin:round;stroke-miterlimit:4;stroke-opacity:1;stroke-dasharray:none"
     sodipodi:nodetypes="cccc" /><path
     sodipodi:nodetypes="cccc"
     d="m -27.754683,26.788806 0,-13.061319 9.858157,6.53066 -9.858157,6.530659 z"
     style="fill:#ffffff;fill-opacity:1;fill-rule:evenodd;stroke:#000000;stroke-width:1;stroke-linecap:round;stroke-linejoin:round;stroke-miterlimit:4;stroke-opacity:1;stroke-dasharray:none;stroke-dashoffset:0"
     id="rect2193" /><path
     transform="matrix(0.13492698,0,0,0.13486262,-53.590008,8.1415651)"
     d="m 305.47014,89.843887 c 0,11.129943 -9.0226,20.152543 -20.15254,20.152543 -11.12995,0 -20.15255,-9.0226 -20.15255,-20.152543 0,-11.129942 9.0226,-20.152544 20.15255,-20.152544 11.12994,0 20.15254,9.022602 20.15254,20.152544 z"
     sodipodi:ry="20.152544"
     sodipodi:rx="20.152544"
     sodipodi:cy="89.843887"
     sodipodi:cx="285.3176"
     id="path2247"
     style="fill:#ffffff;fill-opacity:1;fill-rule:evenodd;stroke:#000000;stroke-width:7.41318464;stroke-linecap:round;stroke-linejoin:round;stroke-miterlimit:4;stroke-opacity:1;stroke-dasharray:none;stroke-dashoffset:0"
     sodipodi:type="arc" /></g><g
   id="g34503"
   transform="matrix(0.8,0,0,-0.8,52.60782,260.69916)"><path
     sodipodi:nodetypes="cc"
     id="path34505"
     d="m -38.097342,72.485741 90.594917,0"
     style="fill:none;stroke:#000000;stroke-width:1;stroke-linecap:round;stroke-linejoin:miter;stroke-miterlimit:4;stroke-opacity:1;stroke-dasharray:none" /><path
     style="fill:none;stroke:#000000;stroke-width:1;stroke-linecap:round;stroke-linejoin:miter;stroke-miterlimit:4;stroke-opacity:1;stroke-dasharray:none"
     d="m 69.676711,80.63569 25.819083,0 0,41.56093 17.153566,0"
     id="path34507"
     sodipodi:nodetypes="cscc" /><path
     sodipodi:nodetypes="ccccsc"
     d="m 59.966777,93.408661 -11.243368,-9e-6 0,-24.994015 11.315906,-4e-6 c 6.133801,-4e-6 11.17083,5.598659 11.17083,12.497012 0,6.898353 -5.037029,12.497016 -11.243368,12.497016 z"
     style="fill:#ffffff;fill-opacity:1;fill-rule:evenodd;stroke:#000000;stroke-width:1;stroke-linecap:butt;stroke-linejoin:round;stroke-miterlimit:4;stroke-opacity:1;stroke-dasharray:none;stroke-dashoffset:0"
     id="path34509" /></g><path
   sodipodi:nodetypes="cc"
   id="path36313"
   d="m 22.129946,123.12117 75.675934,0"
   style="fill:none;stroke:#000000;stroke-width:0.80000001;stroke-linecap:round;stroke-linejoin:miter;stroke-miterlimit:4;stroke-opacity:1;stroke-dasharray:none" /><g
   transform="matrix(0.8,0,0,-0.8,78.20782,181.10976)"
   id="g36315"><path
     sodipodi:nodetypes="cc"
     id="path36317"
     d="m 3.902658,88.485741 18.594917,0"
     style="fill:none;stroke:#000000;stroke-width:1;stroke-linecap:round;stroke-linejoin:miter;stroke-miterlimit:4;stroke-opacity:1;stroke-dasharray:none" /><path
     style="fill:none;stroke:#000000;stroke-width:1;stroke-linecap:round;stroke-linejoin:miter;stroke-miterlimit:4;stroke-opacity:1;stroke-dasharray:none"
     d="m -25.849551,80.485741 50.347126,0"
     id="path36319"
     sodipodi:nodetypes="cc" /><path
     id="path36321"
     d="m 37.676711,80.63569 27.819083,0 0,-37.571292 16.541968,0"
     style="fill:none;stroke:#000000;stroke-width:1;stroke-linecap:round;stroke-linejoin:miter;stroke-miterlimit:4;stroke-opacity:1;stroke-dasharray:none"
     sodipodi:nodetypes="cccc" /><path
     id="path36323"
     style="fill:#ffffff;fill-opacity:1;fill-rule:evenodd;stroke:#000000;stroke-width:1;stroke-linecap:butt;stroke-linejoin:round;stroke-miterlimit:4;stroke-opacity:1;stroke-dasharray:none;stroke-dashoffset:0"
     d="m 27.966777,93.408661 -11.243368,-9e-6 0,-24.994015 11.315906,-4e-6 c 6.133801,-4e-6 11.17083,5.598659 11.17083,12.497012 0,6.898353 -5.037029,12.497016 -11.243368,12.497016 z"
     sodipodi:nodetypes="ccccsc" /></g><path
   style="fill:none;stroke:#000000;stroke-width:0.80000001;stroke-linecap:round;stroke-linejoin:miter;stroke-miterlimit:4;stroke-opacity:1;stroke-dasharray:none"
   d="m 22.129946,148.72117 75.675934,0"
   id="path36294"
   sodipodi:nodetypes="cc" /><path
   sodipodi:nodetypes="ccc"
   id="path36180"
   d="m 81.52205,59.8544 0,103.00928 11.83936,0"
   style="fill:none;stroke:#000000;stroke-width:0.80000001px;stroke-linecap:round;stroke-linejoin:round;stroke-opacity:1" /><g
   id="g3364"
   transform="matrix(0.8,0,0,-0.8,118.74902,194.32424)"><path
     id="path3349"
     d="m 30.872571,45.261671 -25.819083,0 0,-14.162961"
     style="fill:none;stroke:#000000;stroke-width:1;stroke-linecap:round;stroke-linejoin:miter;stroke-miterlimit:4;stroke-opacity:1;stroke-dasharray:none"
     sodipodi:nodetypes="ccc" /><path
     style="fill:none;stroke:#000000;stroke-width:1;stroke-linecap:round;stroke-linejoin:miter;stroke-miterlimit:4;stroke-opacity:1;stroke-dasharray:none"
     d="m 30.872571,53.561569 -25.819083,0 0,11.617916"
     id="use1318"
     sodipodi:nodetypes="ccc" /><path
     style="fill:none;stroke:#000000;stroke-width:1;stroke-linecap:round;stroke-linejoin:miter;stroke-miterlimit:4;stroke-opacity:1;stroke-dasharray:none"
     d="m 44.051707,49.41162 33.719774,0"
     id="use2208"
     sodipodi:nodetypes="cc" /><path
     sodipodi:nodetypes="czscs"
     d="m 22.400074,66.420919 c -0.02829,0.0012 8.475955,-1.595917 8.475955,-17.0093 0,-15.565121 -8.47658,-17.009373 -8.475955,-17.0093 13.692463,1.559066 22.610025,-0.648884 32.033722,17.009301 -7.026753,15.613366 -16.242049,16.354465 -32.033722,17.009299 z"
     style="fill:#ffffff;fill-opacity:1;fill-rule:evenodd;stroke:#000000;stroke-width:0.99999994;stroke-linecap:butt;stroke-linejoin:round;stroke-miterlimit:4;stroke-opacity:1;stroke-dasharray:none;stroke-dashoffset:0"
     id="path3353" /></g><path
   style="fill:none;stroke:#000000;stroke-width:0.80000001px;stroke-linecap:round;stroke-linejoin:round;stroke-opacity:1"
   d="m 57.52205,59.8544 0,82.20928"
   id="path33971"
   sodipodi:nodetypes="cc" /><g
   id="g36296"><path
     sodipodi:nodetypes="cc"
     id="path36250"
     d="m 46.129946,169.52117 50.075934,0"
     style="fill:none;stroke:#000000;stroke-width:0.80000001;stroke-linecap:round;stroke-linejoin:miter;stroke-miterlimit:4;stroke-opacity:1;stroke-dasharray:none" /><path
     style="fill:none;stroke:#000000;stroke-width:0.80000001;stroke-linecap:round;stroke-linejoin:miter;stroke-miterlimit:4;stroke-opacity:1;stroke-dasharray:none"
     d="m 22.129946,175.92117 75.675934,0"
     id="path33975"
     sodipodi:nodetypes="cc" /><path
     id="path33979"
     d="m 108.34919,169.40121 14.25527,0"
     style="fill:none;stroke:#000000;stroke-width:0.80000001;stroke-linecap:round;stroke-linejoin:miter;stroke-miterlimit:4;stroke-opacity:1;stroke-dasharray:none" /><path
     id="path33981"
     style="fill:#ffffff;fill-opacity:1;fill-rule:evenodd;stroke:#000000;stroke-width:0.80000001;stroke-linecap:butt;stroke-linejoin:round;stroke-miterlimit:4;stroke-opacity:1;stroke-dasharray:none;stroke-dashoffset:0"
     d="m 100.58124,159.18283 -8.994693,1e-5 0,19.99521 9.052723,0 c 4.90704,10e-6 8.93667,-4.47892 8.93667,-9.99761 0,-5.51868 -4.02963,-9.99761 -8.9947,-9.99761 z"
     sodipodi:nodetypes="ccccsc" /></g><path
   sodipodi:type="arc"
   style="fill:#000000;stroke:none"
   id="path34495"
   sodipodi:cx="206.41202"
   sodipodi:cy="144.91284"
   sodipodi:rx="1.9941708"
   sodipodi:ry="1.9941708"
   d="m 208.40619,144.91284 c 0,1.10135 -0.89282,1.99417 -1.99417,1.99417 -1.10135,0 -1.99417,-0.89282 -1.99417,-1.99417 0,-1.10135 0.89282,-1.99417 1.99417,-1.99417 1.10135,0 1.99417,0.89282 1.99417,1.99417 z"
   transform="matrix(0.91411784,0,0,-0.91411784,-131.16287,208.71119)" /><path
   transform="matrix(0.91411784,0,0,-0.91411784,-107.16287,208.71119)"
   d="m 208.40619,144.91284 c 0,1.10135 -0.89282,1.99417 -1.99417,1.99417 -1.10135,0 -1.99417,-0.89282 -1.99417,-1.99417 0,-1.10135 0.89282,-1.99417 1.99417,-1.99417 1.10135,0 1.99417,0.89282 1.99417,1.99417 z"
   sodipodi:ry="1.9941708"
   sodipodi:rx="1.9941708"
   sodipodi:cy="144.91284"
   sodipodi:cx="206.41202"
   id="path36182"
   style="fill:#000000;stroke:none"
   sodipodi:type="arc" /><g
   id="g36244"
   transform="translate(-1.9342841,25.6)"><text
   id="text36184"
   transform="scale(1,-1)"
   x="60.327713"
   y="-25.435484"><tspan
     id="tspan36186"
     sodipodi:role="line"
     style="font-size:10.90909958px;font-style:oblique;font-variant:normal;text-align:end;writing-mode:lr-tb;text-anchor:end;fill:#000000;fill-opacity:1;fill-rule:nonzero;stroke:none;font-family:LMSans10;-inkscape-font-specification:LMSans10-Oblique"
     x="60.327713"
     y="-25.435484">S</tspan></text>


<text
   id="text36188"
   transform="scale(1,-1)"
   x="60.575459"
   y="-23.798475"><tspan
     id="tspan36190"
     y="-23.798475"
     x="60.575459"
     style="font-size:7.97009993px;font-variant:normal;font-weight:normal;writing-mode:lr-tb;fill:#000000;fill-opacity:1;fill-rule:nonzero;stroke:none;font-family:LMSans8;-inkscape-font-specification:LMSans8-Regular">1</tspan></text>


</g><path
   transform="matrix(0.91411784,0,0,-0.91411784,-142.70997,301.85829)"
   d="m 208.40619,144.91284 c 0,1.10135 -0.89282,1.99417 -1.99417,1.99417 -1.10135,0 -1.99417,-0.89282 -1.99417,-1.99417 0,-1.10135 0.89282,-1.99417 1.99417,-1.99417 1.10135,0 1.99417,0.89282 1.99417,1.99417 z"
   sodipodi:ry="1.9941708"
   sodipodi:rx="1.9941708"
   sodipodi:cy="144.91284"
   sodipodi:cx="206.41202"
   id="path36252"
   style="fill:#000000;stroke:none"
   sodipodi:type="arc" /><g
   id="g36254"
   transform="matrix(0.8,0,0,-0.8,78.20782,206.70976)"><path
     style="fill:none;stroke:#000000;stroke-width:1;stroke-linecap:round;stroke-linejoin:miter;stroke-miterlimit:4;stroke-opacity:1;stroke-dasharray:none"
     d="m -10.097342,88.485741 32.594917,0"
     id="path36256"
     sodipodi:nodetypes="cc" /><path
     sodipodi:nodetypes="cc"
     id="path36258"
     d="m -25.849551,80.485741 50.347126,0"
     style="fill:none;stroke:#000000;stroke-width:1;stroke-linecap:round;stroke-linejoin:miter;stroke-miterlimit:4;stroke-opacity:1;stroke-dasharray:none" /><path
     style="fill:none;stroke:#000000;stroke-width:1;stroke-linecap:round;stroke-linejoin:miter;stroke-miterlimit:4;stroke-opacity:1;stroke-dasharray:none"
     d="m 37.676711,80.63569 17.819083,0"
     id="path36260" /><path
     sodipodi:nodetypes="ccccsc"
     d="m 27.966777,93.408661 -11.243368,-9e-6 0,-24.994015 11.315906,-4e-6 c 6.133801,-4e-6 11.17083,5.598659 11.17083,12.497012 0,6.898353 -5.037029,12.497016 -11.243368,12.497016 z"
     style="fill:#ffffff;fill-opacity:1;fill-rule:evenodd;stroke:#000000;stroke-width:1;stroke-linecap:butt;stroke-linejoin:round;stroke-miterlimit:4;stroke-opacity:1;stroke-dasharray:none;stroke-dashoffset:0"
     id="path36262" /></g><path
   sodipodi:type="arc"
   style="fill:#000000;stroke:none"
   id="path36266"
   sodipodi:cx="206.41202"
   sodipodi:cy="144.91284"
   sodipodi:rx="1.9941708"
   sodipodi:ry="1.9941708"
   d="m 208.40619,144.91284 c 0,1.10135 -0.89282,1.99417 -1.99417,1.99417 -1.10135,0 -1.99417,-0.89282 -1.99417,-1.99417 0,-1.10135 0.89282,-1.99417 1.99417,-1.99417 1.10135,0 1.99417,0.89282 1.99417,1.99417 z"
   transform="matrix(0.91411784,0,0,-0.91411784,-118.73135,268.26253)" /><path
   transform="matrix(0.91411784,0,0,-0.91411784,-107.18425,242.66253)"
   d="m 208.40619,144.91284 c 0,1.10135 -0.89282,1.99417 -1.99417,1.99417 -1.10135,0 -1.99417,-0.89282 -1.99417,-1.99417 0,-1.10135 0.89282,-1.99417 1.99417,-1.99417 1.10135,0 1.99417,0.89282 1.99417,1.99417 z"
   sodipodi:ry="1.9941708"
   sodipodi:rx="1.9941708"
   sodipodi:cy="144.91284"
   sodipodi:cx="206.41202"
   id="path36327"
   style="fill:#000000;stroke:none"
   sodipodi:type="arc" /><g
   id="g36329"
   transform="translate(-226.17323,5.764551)"><text
   y="-114.01492"
   x="239.64905"
   transform="scale(1,-1)"
   id="text36331"
   style="text-align:end;text-anchor:end"><tspan
     style="font-size:10.90909958px;font-style:oblique;font-variant:normal;text-align:end;writing-mode:lr-tb;text-anchor:end;fill:#000000;fill-opacity:1;fill-rule:nonzero;stroke:none;font-family:LMSans10;-inkscape-font-specification:LMSans10-Oblique"
     x="239.64905"
     y="-114.01492"
     id="tspan36333">D</tspan></text>


<text
   y="-112.37792"
   x="240.17345"
   transform="scale(1,-1)"
   id="text36335"><tspan
     style="font-size:7.97009993px;font-variant:normal;font-weight:normal;writing-mode:lr-tb;fill:#000000;fill-opacity:1;fill-rule:nonzero;stroke:none;font-family:LMSans8;-inkscape-font-specification:LMSans8-Regular"
     x="240.17345"
     y="-112.37792"
     id="tspan36337">3</tspan></text>


</g><path
   sodipodi:type="arc"
   style="fill:#000000;stroke:none"
   id="path36339"
   sodipodi:cx="206.41202"
   sodipodi:cy="144.91284"
   sodipodi:rx="1.9941708"
   sodipodi:ry="1.9941708"
   d="m 208.40619,144.91284 c 0,1.10135 -0.89282,1.99417 -1.99417,1.99417 -1.10135,0 -1.99417,-0.89282 -1.99417,-1.99417 0,-1.10135 0.89282,-1.99417 1.99417,-1.99417 1.10135,0 1.99417,0.89282 1.99417,1.99417 z"
   transform="matrix(0.91411784,0,0,-0.91411784,-131.18425,249.06253)" /><text
   style="font-size:12px"
   id="text35073-8"
   x="183.62695"
   y="-151.26791"
   transform="scale(1,-1)"><tspan
     id="tspan35075-0"
     sodipodi:role="line"
     style="font-size:10.90909958px;font-style:oblique;font-variant:normal;writing-mode:lr-tb;fill:#000000;fill-opacity:1;fill-rule:nonzero;stroke:none;font-family:LMSans10;-inkscape-font-specification:LMSans10-Oblique"
     x="183.62695"
     y="-151.26791">Y</tspan></text>


<g
   id="g36505"><path
   id="path36489"
   d="m 248.66208,140.42476 32.21082,0"
   style="fill:none;stroke:#000000;stroke-width:0.80000001px;stroke-linecap:butt;stroke-linejoin:miter;stroke-opacity:1" /><path
   style="fill:none;stroke:#000000;stroke-width:0.80000001px;stroke-linecap:butt;stroke-linejoin:miter;stroke-opacity:1"
   d="m 248.66208,158.02476 32.21082,0"
   id="path36477" /><path
   sodipodi:nodetypes="cc"
   style="fill:none;stroke:#000000;stroke-width:0.80000001px;stroke-linecap:butt;stroke-linejoin:miter;stroke-opacity:1"
   d="m 310.05601,124.479 0,-40.210833"
   id="path36451" /><path
   id="path34738"
   d="m 248.66208,178.82476 32.21082,0"
   style="fill:none;stroke:#000000;stroke-width:0.80000001px;stroke-linecap:butt;stroke-linejoin:miter;stroke-opacity:1" /><path
   style="fill:#d45500;stroke:#000000;stroke-width:0.80000001px;stroke-linecap:butt;stroke-linejoin:miter;stroke-opacity:1"
   d="m 248.66208,122.16475 32.21082,0"
   id="path34740" /><path
   style="fill:none;stroke:#000000;stroke-width:0.80000001px;stroke-linecap:butt;stroke-linejoin:miter;stroke-opacity:1"
   d="m 312.25071,151.74431 32.21082,0"
   id="path34736" /><path
   id="path34734"
   d="m 294.05601,114.879 0,-32.210833"
   style="fill:none;stroke:#000000;stroke-width:0.80000001px;stroke-linecap:butt;stroke-linejoin:miter;stroke-opacity:1" /><path
   sodipodi:nodetypes="ccccc"
   id="rect34687"
   d="m 267.88416,198.96502 55.84732,-27.06744 0,-45.86011 -55.84732,-27.067463 0,99.995013 z"
   style="fill:#afc6e9;fill-opacity:1;stroke:#000000;stroke-width:0.80000001;stroke-linecap:round;stroke-linejoin:round;stroke-miterlimit:4" /><text
   transform="scale(1,-1)"
   id="text34690"
   y="-159.65723"
   x="285.633"
   style="font-size:11.19999981px;font-style:normal;font-variant:normal;font-weight:normal;font-stretch:normal;fill:#000000;fill-opacity:1;stroke:none;font-family:LMSans10;-inkscape-font-specification:LMSans10"
   xml:space="preserve"><tspan
     y="-159.65723"
     x="285.633"
     id="tspan34692"
     sodipodi:role="line"
     style="font-size:10.90880013px"
     dx="0 -0.78539646 -0.78539646">MUX</tspan><tspan
     id="tspan34694"
     y="-146.02122"
     x="285.633"
     sodipodi:role="line"
     style="font-size:10.90880013px">4 x 1</tspan></text>




<g
   id="g34720"
   transform="translate(32.763031,4.5938246)">



</g></g><text
   xml:space="preserve"
   style="font-size:11.19999981px;font-style:normal;font-variant:normal;font-weight:normal;font-stretch:normal;fill:#000000;fill-opacity:1;stroke:none;font-family:LMSans10;-inkscape-font-specification:LMSans10"
   x="202.4366"
   y="-144.55605"
   id="text36501"
   transform="scale(1,-1)"><tspan
     sodipodi:role="line"
     id="tspan36503"
     x="202.4366"
     y="-144.55605"
     style="font-size:32px;font-weight:bold;-inkscape-font-specification:Andale Mono Bold">=</tspan></text>


<g
   transform="translate(20.465716,25.6)"
   id="g2936"><text
   y="-25.435484"
   x="60.327713"
   transform="scale(1,-1)"
   id="text2938"><tspan
     y="-25.435484"
     x="60.327713"
     style="font-size:10.90909958px;font-style:oblique;font-variant:normal;text-align:end;writing-mode:lr-tb;text-anchor:end;fill:#000000;fill-opacity:1;fill-rule:nonzero;stroke:none;font-family:LMSans10;-inkscape-font-specification:LMSans10-Oblique"
     sodipodi:role="line"
     id="tspan2940">S</tspan></text>


<text
   y="-23.798475"
   x="60.575459"
   transform="scale(1,-1)"
   id="text2942"><tspan
     style="font-size:7.97009993px;font-variant:normal;font-weight:normal;writing-mode:lr-tb;fill:#000000;fill-opacity:1;fill-rule:nonzero;stroke:none;font-family:LMSans8;-inkscape-font-specification:LMSans8-Regular"
     x="60.575459"
     y="-23.798475"
     id="tspan2944">0</tspan></text>


</g><g
   transform="translate(-226.17323,31.364551)"
   id="g2946"><text
   style="text-align:end;text-anchor:end"
   id="text2948"
   transform="scale(1,-1)"
   x="239.64905"
   y="-114.01492"><tspan
     id="tspan2950"
     y="-114.01492"
     x="239.64905"
     style="font-size:10.90909958px;font-style:oblique;font-variant:normal;text-align:end;writing-mode:lr-tb;text-anchor:end;fill:#000000;fill-opacity:1;fill-rule:nonzero;stroke:none;font-family:LMSans10;-inkscape-font-specification:LMSans10-Oblique">D</tspan></text>


<text
   id="text2952"
   transform="scale(1,-1)"
   x="240.17345"
   y="-112.37792"><tspan
     id="tspan2954"
     y="-112.37792"
     x="240.17345"
     style="font-size:7.97009993px;font-variant:normal;font-weight:normal;writing-mode:lr-tb;fill:#000000;fill-opacity:1;fill-rule:nonzero;stroke:none;font-family:LMSans8;-inkscape-font-specification:LMSans8-Regular">2</tspan></text>


</g><g
   id="g2956"
   transform="translate(-226.17323,58.564551)"><text
   y="-114.01492"
   x="239.64905"
   transform="scale(1,-1)"
   id="text2958"
   style="text-align:end;text-anchor:end"><tspan
     style="font-size:10.90909958px;font-style:oblique;font-variant:normal;text-align:end;writing-mode:lr-tb;text-anchor:end;fill:#000000;fill-opacity:1;fill-rule:nonzero;stroke:none;font-family:LMSans10;-inkscape-font-specification:LMSans10-Oblique"
     x="239.64905"
     y="-114.01492"
     id="tspan2960">D</tspan></text>


<text
   y="-112.37792"
   x="240.17345"
   transform="scale(1,-1)"
   id="text2962"><tspan
     style="font-size:7.97009993px;font-variant:normal;font-weight:normal;writing-mode:lr-tb;fill:#000000;fill-opacity:1;fill-rule:nonzero;stroke:none;font-family:LMSans8;-inkscape-font-specification:LMSans8-Regular"
     x="240.17345"
     y="-112.37792"
     id="tspan2964">1</tspan></text>


</g><g
   transform="translate(-226.17323,85.764551)"
   id="g2966"><text
   style="text-align:end;text-anchor:end"
   id="text2968"
   transform="scale(1,-1)"
   x="239.64905"
   y="-114.01492"><tspan
     id="tspan2970"
     y="-114.01492"
     x="239.64905"
     style="font-size:10.90909958px;font-style:oblique;font-variant:normal;text-align:end;writing-mode:lr-tb;text-anchor:end;fill:#000000;fill-opacity:1;fill-rule:nonzero;stroke:none;font-family:LMSans10;-inkscape-font-specification:LMSans10-Oblique">D</tspan></text>


<text
   id="text2972"
   transform="scale(1,-1)"
   x="240.17345"
   y="-112.37792"><tspan
     id="tspan2974"
     y="-112.37792"
     x="240.17345"
     style="font-size:7.97009993px;font-variant:normal;font-weight:normal;writing-mode:lr-tb;fill:#000000;fill-opacity:1;fill-rule:nonzero;stroke:none;font-family:LMSans8;-inkscape-font-specification:LMSans8-Regular">0</tspan></text>


</g><g
   transform="matrix(0.85,0,0,0.85,71.856509,21.463446)"
   id="g2980"><text
   style="text-align:end;text-anchor:end"
   id="text2982"
   transform="scale(1,-1)"
   x="239.64905"
   y="-114.01492"><tspan
     id="tspan2984"
     y="-114.01492"
     x="239.64905"
     style="font-size:10.90909958px;font-style:oblique;font-variant:normal;text-align:end;writing-mode:lr-tb;text-anchor:end;fill:#000000;fill-opacity:1;fill-rule:nonzero;stroke:none;font-family:LMSans10;-inkscape-font-specification:LMSans10-Oblique">D</tspan></text>


<text
   id="text2986"
   transform="scale(1,-1)"
   x="240.17345"
   y="-112.37792"><tspan
     id="tspan2988"
     y="-112.37792"
     x="240.17345"
     style="font-size:7.97009993px;font-variant:normal;font-weight:normal;writing-mode:lr-tb;fill:#000000;fill-opacity:1;fill-rule:nonzero;stroke:none;font-family:LMSans8;-inkscape-font-specification:LMSans8-Regular">3</tspan></text>


</g><g
   id="g2990"
   transform="matrix(0.85,0,0,0.85,71.856509,39.088552)"><text
   y="-114.01492"
   x="239.64905"
   transform="scale(1,-1)"
   id="text2992"
   style="text-align:end;text-anchor:end"><tspan
     style="font-size:10.90909958px;font-style:oblique;font-variant:normal;text-align:end;writing-mode:lr-tb;text-anchor:end;fill:#000000;fill-opacity:1;fill-rule:nonzero;stroke:none;font-family:LMSans10;-inkscape-font-specification:LMSans10-Oblique"
     x="239.64905"
     y="-114.01492"
     id="tspan2994">D</tspan></text>


<text
   y="-112.37792"
   x="240.17345"
   transform="scale(1,-1)"
   id="text2996"><tspan
     style="font-size:7.97009993px;font-variant:normal;font-weight:normal;writing-mode:lr-tb;fill:#000000;fill-opacity:1;fill-rule:nonzero;stroke:none;font-family:LMSans8;-inkscape-font-specification:LMSans8-Regular"
     x="240.17345"
     y="-112.37792"
     id="tspan2998">2</tspan></text>


</g><g
   transform="matrix(0.85,0,0,0.85,71.856509,56.688552)"
   id="g3000"><text
   style="text-align:end;text-anchor:end"
   id="text3002"
   transform="scale(1,-1)"
   x="239.64905"
   y="-114.01492"><tspan
     id="tspan3004"
     y="-114.01492"
     x="239.64905"
     style="font-size:10.90909958px;font-style:oblique;font-variant:normal;text-align:end;writing-mode:lr-tb;text-anchor:end;fill:#000000;fill-opacity:1;fill-rule:nonzero;stroke:none;font-family:LMSans10;-inkscape-font-specification:LMSans10-Oblique">D</tspan></text>


<text
   id="text3006"
   transform="scale(1,-1)"
   x="240.17345"
   y="-112.37792"><tspan
     id="tspan3008"
     y="-112.37792"
     x="240.17345"
     style="font-size:7.97009993px;font-variant:normal;font-weight:normal;writing-mode:lr-tb;fill:#000000;fill-opacity:1;fill-rule:nonzero;stroke:none;font-family:LMSans8;-inkscape-font-specification:LMSans8-Regular">1</tspan></text>


</g><g
   id="g3010"
   transform="matrix(0.85,0,0,0.85,71.856509,77.463446)"><text
   y="-114.01492"
   x="239.64905"
   transform="scale(1,-1)"
   id="text3012"
   style="text-align:end;text-anchor:end"><tspan
     style="font-size:10.90909958px;font-style:oblique;font-variant:normal;text-align:end;writing-mode:lr-tb;text-anchor:end;fill:#000000;fill-opacity:1;fill-rule:nonzero;stroke:none;font-family:LMSans10;-inkscape-font-specification:LMSans10-Oblique"
     x="239.64905"
     y="-114.01492"
     id="tspan3014">D</tspan></text>


<text
   y="-112.37792"
   x="240.17345"
   transform="scale(1,-1)"
   id="text3016"><tspan
     style="font-size:7.97009993px;font-variant:normal;font-weight:normal;writing-mode:lr-tb;fill:#000000;fill-opacity:1;fill-rule:nonzero;stroke:none;font-family:LMSans8;-inkscape-font-specification:LMSans8-Regular"
     x="240.17345"
     y="-112.37792"
     id="tspan3018">0</tspan></text>


</g><text
   transform="scale(1,-1)"
   y="-146.55554"
   x="312.67908"
   id="text3020"
   style="font-size:10.19999981px"><tspan
     y="-146.55554"
     x="312.67908"
     style="font-size:9.27273464px;font-style:oblique;font-variant:normal;writing-mode:lr-tb;fill:#000000;fill-opacity:1;fill-rule:nonzero;stroke:none;font-family:LMSans10;-inkscape-font-specification:LMSans10-Oblique"
     sodipodi:role="line"
     id="tspan3022">Y</tspan></text>
<g
   transform="matrix(0.85,0,0,0.85,241.51861,95.928471)"
   id="g3024"><text
   y="-25.435484"
   x="60.327713"
   transform="scale(1,-1)"
   id="text3026"><tspan
     y="-25.435484"
     x="60.327713"
     style="font-size:10.90909958px;font-style:oblique;font-variant:normal;text-align:end;writing-mode:lr-tb;text-anchor:end;fill:#000000;fill-opacity:1;fill-rule:nonzero;stroke:none;font-family:LMSans10;-inkscape-font-specification:LMSans10-Oblique"
     sodipodi:role="line"
     id="tspan3028">S</tspan></text>


<text
   y="-23.798475"
   x="60.575459"
   transform="scale(1,-1)"
   id="text3030"><tspan
     style="font-size:7.97009993px;font-variant:normal;font-weight:normal;writing-mode:lr-tb;fill:#000000;fill-opacity:1;fill-rule:nonzero;stroke:none;font-family:LMSans8;-inkscape-font-specification:LMSans8-Regular"
     x="60.575459"
     y="-23.798475"
     id="tspan3032">1</tspan></text>


</g><g
   id="g3034"
   transform="matrix(0.85,0,0,0.85,255.27925,102.18654)"><text
   id="text3036"
   transform="scale(1,-1)"
   x="60.327713"
   y="-25.435484"><tspan
     id="tspan3038"
     sodipodi:role="line"
     style="font-size:10.90909958px;font-style:oblique;font-variant:normal;text-align:end;writing-mode:lr-tb;text-anchor:end;fill:#000000;fill-opacity:1;fill-rule:nonzero;stroke:none;font-family:LMSans10;-inkscape-font-specification:LMSans10-Oblique"
     x="60.327713"
     y="-25.435484">S</tspan></text>


<text
   id="text3040"
   transform="scale(1,-1)"
   x="60.575459"
   y="-23.798475"><tspan
     id="tspan3042"
     y="-23.798475"
     x="60.575459"
     style="font-size:7.97009993px;font-variant:normal;font-weight:normal;writing-mode:lr-tb;fill:#000000;fill-opacity:1;fill-rule:nonzero;stroke:none;font-family:LMSans8;-inkscape-font-specification:LMSans8-Regular">0</tspan></text>


</g></g></svg>