<?xml version="1.0" encoding="UTF-8" standalone="no"?>
<svg
   xmlns:dc="http://purl.org/dc/elements/1.1/"
   xmlns:cc="http://creativecommons.org/ns#"
   xmlns:rdf="http://www.w3.org/1999/02/22-rdf-syntax-ns#"
   xmlns:svg="http://www.w3.org/2000/svg"
   xmlns="http://www.w3.org/2000/svg"
   xmlns:xlink="http://www.w3.org/1999/xlink"
   xmlns:sodipodi="http://sodipodi.sourceforge.net/DTD/sodipodi-0.dtd"
   xmlns:inkscape="http://www.inkscape.org/namespaces/inkscape"
   version="1.1"
   width="100%"
   height="100%"
   viewBox="-128 -216 557.82744 383.05785"
   id="svg2"
   inkscape:version="0.47 r22583"
   sodipodi:docname="bricks.svg">
  <metadata
     id="metadata51">
    <rdf:RDF>
      <cc:Work
         rdf:about="">
        <dc:format>image/svg+xml</dc:format>
        <dc:type
           rdf:resource="http://purl.org/dc/dcmitype/StillImage" />
        <dc:title>Nominal dimensions of standard Lego bricks</dc:title>
      </cc:Work>
    </rdf:RDF>
  </metadata>
  <sodipodi:namedview
     pagecolor="#ffffff"
     bordercolor="#666666"
     borderopacity="1"
     objecttolerance="10"
     gridtolerance="10"
     guidetolerance="10"
     inkscape:pageopacity="0"
     inkscape:pageshadow="2"
     inkscape:window-width="1024"
     inkscape:window-height="696"
     id="namedview49"
     showgrid="false"
     inkscape:zoom="0.9453125"
     inkscape:cx="412.52581"
     inkscape:cy="189.73379"
     inkscape:window-x="0"
     inkscape:window-y="25"
     inkscape:window-maximized="1"
     inkscape:current-layer="svg2" />
  <title
     id="title4">Nominal dimensions of standard Lego bricks</title>
  <desc
     id="desc6">Nominal dimensions of standard Lego bricks compiled by CMG Lee.</desc>
  <defs
     id="defs8">
    <inkscape:perspective
       sodipodi:type="inkscape:persp3d"
       inkscape:vp_x="0 : 128 : 1"
       inkscape:vp_y="0 : 1000 : 0"
       inkscape:vp_z="256 : 128 : 1"
       inkscape:persp3d-origin="128 : 85.333333 : 1"
       id="perspective53" />
    <linearGradient
       id="grad"
       x1="0"
       y1="0"
       x2="1"
       y2="0">
      <stop
         offset="20%"
         stop-color="#000000"
         stop-opacity="0.25"
         id="stop11" />
      <stop
         offset="80%"
         stop-color="#000000"
         stop-opacity="0.5"
         id="stop13" />
    </linearGradient>
    <g
       id="stud">
      <ellipse
         cx="8.5"
         cy="0"
         rx="30.618601"
         ry="17.6777"
         id="ellipse16"
         d="M 39.118601,0 C 39.118601,9.7631241 25.410186,17.6777 8.5,17.6777 -8.4101863,17.6777 -22.118601,9.7631241 -22.118601,0 c 0,-9.7631241 13.7084147,-17.6777 30.618601,-17.6777 16.910186,0 30.618601,7.9145759 30.618601,17.6777 z"
         sodipodi:cx="8.5"
         sodipodi:cy="0"
         sodipodi:rx="30.618601"
         sodipodi:ry="17.6777"
         style="fill:#000000;fill-opacity:0.25;stroke:none" />
      <path
         d="m -30.6186,-17 a 30.6186,17.6777 0 0 1 61.2372,0 V 0 a 30.6186,17.6777 0 0 1 -61.2372,0 z"
         id="path18" />
      <path
         d="m -30.6186,-17 a 30.6186,17.6777 0 0 0 61.2372,0 V 0 a 30.6186,17.6777 0 0 1 -61.2372,0 z"
         id="path20"
         style="fill:url(#grad)" />
    </g>
    <g
       id="brick">
      <path
         d="M 0,40 69.282,0 v -96 l -138.564,-80 -69.282,40 v 96 z"
         id="path23" />
      <path
         d="M 0,40 V -56 L 69.282,-96 V 0 z"
         id="path25"
         style="fill:#000000;fill-opacity:0.5" />
      <path
         d="m 0,40 v -96 l -138.564,-80 v 96 z"
         id="path27"
         style="fill:#000000;fill-opacity:0.25" />
      <use
         transform="translate(-69.282,-136)"
         xlink:href="#stud"
         id="use29"
         x="0"
         y="0"
         width="256"
         height="256" />
      <use
         transform="translate(0,-96)"
         xlink:href="#stud"
         id="use31"
         x="0"
         y="0"
         width="256"
         height="256" />
    </g>
    <g
       id="plate">
      <path
         d="M 0,40 69.282,0 V -32 L 0,-72 -69.282,-32 V 0 z"
         id="path34" />
      <path
         d="M 0,40 V 8 L 69.282,-32 V 0 z"
         id="path36"
         style="fill:#000000;fill-opacity:0.5" />
      <path
         d="M 0,40 V 8 L -69.282,-32 V 0 z"
         id="path38"
         style="fill:#000000;fill-opacity:0.25" />
      <use
         transform="translate(0,-32)"
         xlink:href="#stud"
         id="use40"
         x="0"
         y="0"
         width="256"
         height="256" />
    </g>
    <!--
  <g id="plate">
   <path d="M 0 40 l 69.282 -40 v -32 l -138.564 -80 l -69.282 40 v 32 Z"/>
   <path d="M 0 40 v -32 l 69.282 -40 v 32 Z" fill="#000000" fill-opacity="0.5"/>
   <path d="M 0 40 v -32 l -138.564 -80 v 32 Z" fill="#000000" fill-opacity="0.25"/>
   <use transform="translate(-69.282,-72)" xlink:href="#stud"/>
   <use transform="translate(0,-32)" xlink:href="#stud"/>
  </g>
-->
    <g
       id="main"
       style="text-anchor:middle;stroke:#000000;font-family:sans-serif">
      <use
         transform="translate(69.282,-40)"
         xlink:href="#brick"
         id="use43"
         style="fill:#ffcc00"
         x="0"
         y="0"
         width="256"
         height="256" />
      <use
         xlink:href="#plate"
         id="use45"
         style="fill:#ff0000"
         x="0"
         y="0"
         width="256"
         height="256" />
    </g>
    <inkscape:perspective
       id="perspective2927"
       inkscape:persp3d-origin="0.5 : 0.33333333 : 1"
       inkscape:vp_z="1 : 0.5 : 1"
       inkscape:vp_y="0 : 1000 : 0"
       inkscape:vp_x="0 : 0.5 : 1"
       sodipodi:type="inkscape:persp3d" />
    <linearGradient
       inkscape:collect="always"
       xlink:href="#linearGradient3288"
       id="linearGradient3452"
       gradientUnits="userSpaceOnUse"
       gradientTransform="translate(-39.5,55)"
       x1="264.49884"
       y1="158.75"
       x2="320.00116"
       y2="158.75" />
    <linearGradient
       id="linearGradient3288">
      <stop
         style="stop-color:#ff1414;stop-opacity:1;"
         offset="0"
         id="stop3290" />
      <stop
         id="stop3296"
         offset="0.7429719"
         style="stop-color:#cf0000;stop-opacity:1;" />
      <stop
         style="stop-color:#ff0000;stop-opacity:1;"
         offset="1"
         id="stop3292" />
    </linearGradient>
    <linearGradient
       inkscape:collect="always"
       xlink:href="#linearGradient3288"
       id="linearGradient3454"
       gradientUnits="userSpaceOnUse"
       gradientTransform="translate(-39.5,55)"
       x1="264.49884"
       y1="158.75"
       x2="320.00116"
       y2="158.75" />
    <linearGradient
       id="linearGradient2937">
      <stop
         style="stop-color:#ff1414;stop-opacity:1;"
         offset="0"
         id="stop2939" />
      <stop
         id="stop2941"
         offset="0.7429719"
         style="stop-color:#cf0000;stop-opacity:1;" />
      <stop
         style="stop-color:#ff0000;stop-opacity:1;"
         offset="1"
         id="stop2943" />
    </linearGradient>
    <linearGradient
       inkscape:collect="always"
       xlink:href="#linearGradient3288"
       id="linearGradient3456"
       gradientUnits="userSpaceOnUse"
       gradientTransform="translate(-39.5,55)"
       x1="264.49884"
       y1="158.75"
       x2="320.00116"
       y2="158.75" />
    <linearGradient
       id="linearGradient2946">
      <stop
         style="stop-color:#ff1414;stop-opacity:1;"
         offset="0"
         id="stop2948" />
      <stop
         id="stop2950"
         offset="0.7429719"
         style="stop-color:#cf0000;stop-opacity:1;" />
      <stop
         style="stop-color:#ff0000;stop-opacity:1;"
         offset="1"
         id="stop2952" />
    </linearGradient>
    <linearGradient
       inkscape:collect="always"
       xlink:href="#linearGradient3288"
       id="linearGradient3458"
       gradientUnits="userSpaceOnUse"
       gradientTransform="translate(-39.5,55)"
       x1="264.49884"
       y1="158.75"
       x2="320.00116"
       y2="158.75" />
    <linearGradient
       id="linearGradient2955">
      <stop
         style="stop-color:#ff1414;stop-opacity:1;"
         offset="0"
         id="stop2957" />
      <stop
         id="stop2959"
         offset="0.7429719"
         style="stop-color:#cf0000;stop-opacity:1;" />
      <stop
         style="stop-color:#ff0000;stop-opacity:1;"
         offset="1"
         id="stop2961" />
    </linearGradient>
    <linearGradient
       inkscape:collect="always"
       xlink:href="#linearGradient3288"
       id="linearGradient3404"
       gradientUnits="userSpaceOnUse"
       gradientTransform="translate(-39.5,55)"
       x1="264.49884"
       y1="158.75"
       x2="320.00116"
       y2="158.75" />
    <linearGradient
       id="linearGradient2964">
      <stop
         style="stop-color:#ff1414;stop-opacity:1;"
         offset="0"
         id="stop2966" />
      <stop
         id="stop2968"
         offset="0.7429719"
         style="stop-color:#cf0000;stop-opacity:1;" />
      <stop
         style="stop-color:#ff0000;stop-opacity:1;"
         offset="1"
         id="stop2970" />
    </linearGradient>
    <linearGradient
       inkscape:collect="always"
       xlink:href="#linearGradient3288"
       id="linearGradient3396"
       gradientUnits="userSpaceOnUse"
       gradientTransform="translate(-39.5,55)"
       x1="264.49884"
       y1="158.75"
       x2="320.00116"
       y2="158.75" />
    <linearGradient
       id="linearGradient2973">
      <stop
         style="stop-color:#ff1414;stop-opacity:1;"
         offset="0"
         id="stop2975" />
      <stop
         id="stop2977"
         offset="0.7429719"
         style="stop-color:#cf0000;stop-opacity:1;" />
      <stop
         style="stop-color:#ff0000;stop-opacity:1;"
         offset="1"
         id="stop2979" />
    </linearGradient>
    <linearGradient
       inkscape:collect="always"
       xlink:href="#linearGradient3288"
       id="linearGradient3388"
       gradientUnits="userSpaceOnUse"
       gradientTransform="translate(-39.5,55)"
       x1="264.49884"
       y1="158.75"
       x2="320.00116"
       y2="158.75" />
    <linearGradient
       id="linearGradient2982">
      <stop
         style="stop-color:#ff1414;stop-opacity:1;"
         offset="0"
         id="stop2984" />
      <stop
         id="stop2986"
         offset="0.7429719"
         style="stop-color:#cf0000;stop-opacity:1;" />
      <stop
         style="stop-color:#ff0000;stop-opacity:1;"
         offset="1"
         id="stop2988" />
    </linearGradient>
    <linearGradient
       inkscape:collect="always"
       xlink:href="#linearGradient3288"
       id="linearGradient3380"
       gradientUnits="userSpaceOnUse"
       gradientTransform="translate(-39.5,55)"
       x1="264.49884"
       y1="158.75"
       x2="320.00116"
       y2="158.75" />
    <linearGradient
       id="linearGradient2991">
      <stop
         style="stop-color:#ff1414;stop-opacity:1;"
         offset="0"
         id="stop2993" />
      <stop
         id="stop2995"
         offset="0.7429719"
         style="stop-color:#cf0000;stop-opacity:1;" />
      <stop
         style="stop-color:#ff0000;stop-opacity:1;"
         offset="1"
         id="stop2997" />
    </linearGradient>
  </defs>
  <use
     xlink:href="#main"
     id="use47"
     x="0"
     y="0"
     width="256"
     height="256"
     transform="translate(-58.218,126.55786)" />
  <g
     id="g3170"
     transform="translate(541.58366,-10.962814)">
    <path
       sodipodi:nodetypes="ccccc"
       id="path2160"
       d="m -482.2562,-124.53719 90,-80 280,100 -90,79.999999 -280,-99.999999 z"
       style="fill:#ff0000;fill-opacity:1;fill-rule:evenodd;stroke:#000000;stroke-width:1px;stroke-linecap:round;stroke-linejoin:round;stroke-opacity:1" />
    <path
       sodipodi:nodetypes="ccccc"
       id="path3135"
       d="m -482.2562,-124.53719 0,69.999999 280,99.999999 0,-69.999999 -280,-99.999999 z"
       style="fill:#ff1414;fill-opacity:1;fill-rule:evenodd;stroke:#000000;stroke-width:1px;stroke-linecap:round;stroke-linejoin:round;stroke-opacity:1" />
    <path
       sodipodi:nodetypes="ccccc"
       id="path3137"
       d="m -202.2562,45.462808 0,-69.999999 90,-79.999999 0,69.999999 -90,79.999999 z"
       style="fill:#d70000;fill-opacity:1;fill-rule:evenodd;stroke:#000000;stroke-width:1px;stroke-linecap:round;stroke-linejoin:round;stroke-opacity:1" />
    <g
       transform="translate(-420.0062,-309.78719)"
       id="g3374">
      <path
         style="fill:url(#linearGradient3380);fill-opacity:1;fill-rule:nonzero;stroke:#000000;stroke-width:0.99999994;stroke-linecap:round;stroke-linejoin:round;stroke-miterlimit:4;stroke-opacity:1;stroke-dasharray:none;stroke-dashoffset:0"
         d="m 280,197.5 -54.5,0.5 0,17 c -0.003,0.0843 0,0.16533 0,0.25 0,8.142 12.208,14.75 27.25,14.75 15.042,0 27.25,-6.608 27.25,-14.75 0,-0.0847 0.003,-0.16567 0,-0.25 l 0,-17.5 z"
         id="path3376" />
      <path
         sodipodi:type="arc"
         style="fill:#ee0000;fill-opacity:1;fill-rule:nonzero;stroke:#000000;stroke-width:0.78866166;stroke-linecap:round;stroke-linejoin:round;stroke-miterlimit:4;stroke-opacity:1;stroke-dasharray:none;stroke-dashoffset:0"
         id="path3378"
         sodipodi:cx="90"
         sodipodi:cy="85"
         sodipodi:rx="25"
         sodipodi:ry="10"
         d="m 115,85 c 0,5.522847 -11.19288,10 -25,10 -13.807119,0 -25,-4.477153 -25,-10 0,-5.522847 11.192881,-10 25,-10 13.80712,0 25,4.477153 25,10 z"
         transform="matrix(1.09,0,0,1.475,154.65,72.625)" />
    </g>
    <g
       transform="translate(-488.0062,-335.12052)"
       id="g3382">
      <path
         style="fill:url(#linearGradient3388);fill-opacity:1;fill-rule:nonzero;stroke:#000000;stroke-width:0.99999994;stroke-linecap:round;stroke-linejoin:round;stroke-miterlimit:4;stroke-opacity:1;stroke-dasharray:none;stroke-dashoffset:0"
         d="m 280,197.5 -54.5,0.5 0,17 c -0.003,0.0843 0,0.16533 0,0.25 0,8.142 12.208,14.75 27.25,14.75 15.042,0 27.25,-6.608 27.25,-14.75 0,-0.0847 0.003,-0.16567 0,-0.25 l 0,-17.5 z"
         id="path3384" />
      <path
         sodipodi:type="arc"
         style="fill:#ee0000;fill-opacity:1;fill-rule:nonzero;stroke:#000000;stroke-width:0.78866166;stroke-linecap:round;stroke-linejoin:round;stroke-miterlimit:4;stroke-opacity:1;stroke-dasharray:none;stroke-dashoffset:0"
         id="path3386"
         sodipodi:cx="90"
         sodipodi:cy="85"
         sodipodi:rx="25"
         sodipodi:ry="10"
         d="m 115,85 c 0,5.522847 -11.19288,10 -25,10 -13.807119,0 -25,-4.477153 -25,-10 0,-5.522847 11.192881,-10 25,-10 13.80712,0 25,4.477153 25,10 z"
         transform="matrix(1.09,0,0,1.475,154.65,72.625)" />
    </g>
    <g
       transform="translate(-558.0062,-358.45386)"
       id="g3390">
      <path
         style="fill:url(#linearGradient3396);fill-opacity:1;fill-rule:nonzero;stroke:#000000;stroke-width:0.99999994;stroke-linecap:round;stroke-linejoin:round;stroke-miterlimit:4;stroke-opacity:1;stroke-dasharray:none;stroke-dashoffset:0"
         d="m 280,197.5 -54.5,0.5 0,17 c -0.003,0.0843 0,0.16533 0,0.25 0,8.142 12.208,14.75 27.25,14.75 15.042,0 27.25,-6.608 27.25,-14.75 0,-0.0847 0.003,-0.16567 0,-0.25 l 0,-17.5 z"
         id="path3392" />
      <path
         sodipodi:type="arc"
         style="fill:#ee0000;fill-opacity:1;fill-rule:nonzero;stroke:#000000;stroke-width:0.78866166;stroke-linecap:round;stroke-linejoin:round;stroke-miterlimit:4;stroke-opacity:1;stroke-dasharray:none;stroke-dashoffset:0"
         id="path3394"
         sodipodi:cx="90"
         sodipodi:cy="85"
         sodipodi:rx="25"
         sodipodi:ry="10"
         d="m 115,85 c 0,5.522847 -11.19288,10 -25,10 -13.807119,0 -25,-4.477153 -25,-10 0,-5.522847 11.192881,-10 25,-10 13.80712,0 25,4.477153 25,10 z"
         transform="matrix(1.09,0,0,1.475,154.65,72.625)" />
    </g>
    <g
       transform="translate(-626.0062,-383.78719)"
       id="g3398">
      <path
         style="fill:url(#linearGradient3404);fill-opacity:1;fill-rule:nonzero;stroke:#000000;stroke-width:0.99999994;stroke-linecap:round;stroke-linejoin:round;stroke-miterlimit:4;stroke-opacity:1;stroke-dasharray:none;stroke-dashoffset:0"
         d="m 280,197.5 -54.5,0.5 0,17 c -0.003,0.0843 0,0.16533 0,0.25 0,8.142 12.208,14.75 27.25,14.75 15.042,0 27.25,-6.608 27.25,-14.75 0,-0.0847 0.003,-0.16567 0,-0.25 l 0,-17.5 z"
         id="path3400" />
      <path
         sodipodi:type="arc"
         style="fill:#ee0000;fill-opacity:1;fill-rule:nonzero;stroke:#000000;stroke-width:0.78866166;stroke-linecap:round;stroke-linejoin:round;stroke-miterlimit:4;stroke-opacity:1;stroke-dasharray:none;stroke-dashoffset:0"
         id="path3402"
         sodipodi:cx="90"
         sodipodi:cy="85"
         sodipodi:rx="25"
         sodipodi:ry="10"
         d="m 115,85 c 0,5.522847 -11.19288,10 -25,10 -13.807119,0 -25,-4.477153 -25,-10 0,-5.522847 11.192881,-10 25,-10 13.80712,0 25,4.477153 25,10 z"
         transform="matrix(1.09,0,0,1.475,154.65,72.625)" />
    </g>
    <g
       transform="translate(-502.83436,-224.79965)"
       id="g3438">
      <g
         id="g3406"
         transform="translate(36.078156,-45.737536)">
        <path
           id="path3408"
           d="m 280,197.5 -54.5,0.5 0,17 c -0.003,0.0843 0,0.16533 0,0.25 0,8.142 12.208,14.75 27.25,14.75 15.042,0 27.25,-6.608 27.25,-14.75 0,-0.0847 0.003,-0.16567 0,-0.25 l 0,-17.5 z"
           style="fill:url(#linearGradient3452);fill-opacity:1;fill-rule:nonzero;stroke:#000000;stroke-width:0.99999994;stroke-linecap:round;stroke-linejoin:round;stroke-miterlimit:4;stroke-opacity:1;stroke-dasharray:none;stroke-dashoffset:0" />
        <path
           transform="matrix(1.09,0,0,1.475,154.65,72.625)"
           d="m 115,85 c 0,5.522847 -11.19288,10 -25,10 -13.807119,0 -25,-4.477153 -25,-10 0,-5.522847 11.192881,-10 25,-10 13.80712,0 25,4.477153 25,10 z"
           sodipodi:ry="10"
           sodipodi:rx="25"
           sodipodi:cy="85"
           sodipodi:cx="90"
           id="path3410"
           style="fill:#ee0000;fill-opacity:1;fill-rule:nonzero;stroke:#000000;stroke-width:0.78866166;stroke-linecap:round;stroke-linejoin:round;stroke-miterlimit:4;stroke-opacity:1;stroke-dasharray:none;stroke-dashoffset:0"
           sodipodi:type="arc" />
      </g>
      <g
         id="g3412"
         transform="translate(-31.921844,-71.070866)">
        <path
           id="path3414"
           d="m 280,197.5 -54.5,0.5 0,17 c -0.003,0.0843 0,0.16533 0,0.25 0,8.142 12.208,14.75 27.25,14.75 15.042,0 27.25,-6.608 27.25,-14.75 0,-0.0847 0.003,-0.16567 0,-0.25 l 0,-17.5 z"
           style="fill:url(#linearGradient3454);fill-opacity:1;fill-rule:nonzero;stroke:#000000;stroke-width:0.99999994;stroke-linecap:round;stroke-linejoin:round;stroke-miterlimit:4;stroke-opacity:1;stroke-dasharray:none;stroke-dashoffset:0" />
        <path
           transform="matrix(1.09,0,0,1.475,154.65,72.625)"
           d="m 115,85 c 0,5.522847 -11.19288,10 -25,10 -13.807119,0 -25,-4.477153 -25,-10 0,-5.522847 11.192881,-10 25,-10 13.80712,0 25,4.477153 25,10 z"
           sodipodi:ry="10"
           sodipodi:rx="25"
           sodipodi:cy="85"
           sodipodi:cx="90"
           id="path3416"
           style="fill:#ee0000;fill-opacity:1;fill-rule:nonzero;stroke:#000000;stroke-width:0.78866166;stroke-linecap:round;stroke-linejoin:round;stroke-miterlimit:4;stroke-opacity:1;stroke-dasharray:none;stroke-dashoffset:0"
           sodipodi:type="arc" />
      </g>
      <g
         id="g3418"
         transform="translate(-101.92184,-94.404206)">
        <path
           id="path3420"
           d="m 280,197.5 -54.5,0.5 0,17 c -0.003,0.0843 0,0.16533 0,0.25 0,8.142 12.208,14.75 27.25,14.75 15.042,0 27.25,-6.608 27.25,-14.75 0,-0.0847 0.003,-0.16567 0,-0.25 l 0,-17.5 z"
           style="fill:url(#linearGradient3456);fill-opacity:1;fill-rule:nonzero;stroke:#000000;stroke-width:0.99999994;stroke-linecap:round;stroke-linejoin:round;stroke-miterlimit:4;stroke-opacity:1;stroke-dasharray:none;stroke-dashoffset:0" />
        <path
           transform="matrix(1.09,0,0,1.475,154.65,72.625)"
           d="m 115,85 c 0,5.522847 -11.19288,10 -25,10 -13.807119,0 -25,-4.477153 -25,-10 0,-5.522847 11.192881,-10 25,-10 13.80712,0 25,4.477153 25,10 z"
           sodipodi:ry="10"
           sodipodi:rx="25"
           sodipodi:cy="85"
           sodipodi:cx="90"
           id="path3422"
           style="fill:#ee0000;fill-opacity:1;fill-rule:nonzero;stroke:#000000;stroke-width:0.78866166;stroke-linecap:round;stroke-linejoin:round;stroke-miterlimit:4;stroke-opacity:1;stroke-dasharray:none;stroke-dashoffset:0"
           sodipodi:type="arc" />
      </g>
      <g
         id="g3424"
         transform="translate(-169.92184,-119.73754)">
        <path
           id="path3426"
           d="m 280,197.5 -54.5,0.5 0,17 c -0.003,0.0843 0,0.16533 0,0.25 0,8.142 12.208,14.75 27.25,14.75 15.042,0 27.25,-6.608 27.25,-14.75 0,-0.0847 0.003,-0.16567 0,-0.25 l 0,-17.5 z"
           style="fill:url(#linearGradient3458);fill-opacity:1;fill-rule:nonzero;stroke:#000000;stroke-width:0.99999994;stroke-linecap:round;stroke-linejoin:round;stroke-miterlimit:4;stroke-opacity:1;stroke-dasharray:none;stroke-dashoffset:0" />
        <path
           transform="matrix(1.09,0,0,1.475,154.65,72.625)"
           d="m 115,85 c 0,5.522847 -11.19288,10 -25,10 -13.807119,0 -25,-4.477153 -25,-10 0,-5.522847 11.192881,-10 25,-10 13.80712,0 25,4.477153 25,10 z"
           sodipodi:ry="10"
           sodipodi:rx="25"
           sodipodi:cy="85"
           sodipodi:cx="90"
           id="path3428"
           style="fill:#ee0000;fill-opacity:1;fill-rule:nonzero;stroke:#000000;stroke-width:0.78866166;stroke-linecap:round;stroke-linejoin:round;stroke-miterlimit:4;stroke-opacity:1;stroke-dasharray:none;stroke-dashoffset:0"
           sodipodi:type="arc" />
      </g>
    </g>
  </g>
</svg>
