<?xml version="1.0" encoding="UTF-8" standalone="no"?>
<!-- Created with Inkscape (http://www.inkscape.org/) -->

<svg
   xmlns:dc="http://purl.org/dc/elements/1.1/"
   xmlns:cc="http://creativecommons.org/ns#"
   xmlns:rdf="http://www.w3.org/1999/02/22-rdf-syntax-ns#"
   xmlns:svg="http://www.w3.org/2000/svg"
   xmlns="http://www.w3.org/2000/svg"
   xmlns:sodipodi="http://sodipodi.sourceforge.net/DTD/sodipodi-0.dtd"
   xmlns:inkscape="http://www.inkscape.org/namespaces/inkscape"
   id="svg2"
   version="1.1"
   inkscape:version="0.48.3.1 r9886"
   width="188.77086"
   height="49.661175"
   xml:space="preserve"
   sodipodi:docname="nand_univ2_resp.svg"><metadata
     id="metadata8"><rdf:RDF><cc:Work
         rdf:about=""><dc:format>image/svg+xml</dc:format><dc:type
           rdf:resource="http://purl.org/dc/dcmitype/StillImage" /><dc:title></dc:title></cc:Work></rdf:RDF></metadata><defs
     id="defs6"><inkscape:perspective
       sodipodi:type="inkscape:persp3d"
       inkscape:vp_x="0 : 0.5 : 1"
       inkscape:vp_y="0 : 1000 : 0"
       inkscape:vp_z="1 : 0.5 : 1"
       inkscape:persp3d-origin="0.5 : 0.33333333 : 1"
       id="perspective10" /></defs><sodipodi:namedview
     pagecolor="#ffffff"
     bordercolor="#666666"
     borderopacity="1"
     objecttolerance="10"
     gridtolerance="10"
     guidetolerance="10"
     inkscape:pageopacity="0"
     inkscape:pageshadow="2"
     inkscape:window-width="1301"
     inkscape:window-height="744"
     id="namedview4"
     showgrid="true"
     showguides="false"
     inkscape:guide-bbox="true"
     inkscape:zoom="2.775185"
     inkscape:cx="138.84116"
     inkscape:cy="-7.340113"
     inkscape:window-x="65"
     inkscape:window-y="24"
     inkscape:window-maximized="1"
     inkscape:current-layer="g12"
     fit-margin-top="0"
     fit-margin-left="0"
     fit-margin-right="0"
     fit-margin-bottom="0"><inkscape:grid
       type="xygrid"
       id="grid4142"
       empspacing="5"
       visible="true"
       enabled="false"
       snapvisiblegridlinesonly="true"
       spacingx="0.6px"
       spacingy="0.6px"
       dotted="true"
       originx="-1.8585209e-08px"
       originy="-2.3039722e-06px" /></sodipodi:namedview><g
     id="g12"
     inkscape:groupmode="layer"
     inkscape:label="aula12"
     transform="matrix(1.25,0,0,-1.25,-89.380737,184.16116)">













<path
   id="path14406"
   style="fill:none;stroke:#000000;stroke-width:0.56;stroke-linecap:butt;stroke-miterlimit:4;stroke-opacity:1;stroke-dasharray:none;stroke-dashoffset:0"
   d="m 163.20451,115.2 -18.02843,0.11999 0.0894,23.92 L 163.2,139.2"
   sodipodi:nodetypes="cccc"
   inkscape:connector-curvature="0" /><text
   id="text3079"
   transform="scale(1,-1)"
   x="71.199135"
   y="-136.79556"><tspan
     id="tspan3081"
     y="-136.79556"
     x="71.199135"
     style="font-size:10.90909958px;font-style:oblique;font-variant:normal;writing-mode:lr-tb;fill:#000000;fill-opacity:1;fill-rule:nonzero;stroke:none;font-family:LMSans10;-inkscape-font-specification:LMSans10-Oblique">A</tspan></text>











<path
   transform="scale(1,-1)"
   style="fill:#ffffff;fill-opacity:1;stroke:#000000;stroke-width:0.79999995"
   d="m 158.4,-146.39999 12.8,0 c 11.50546,0.4 18,12.3635 18,19.19999 0,6.6612 -6.49454,18.64001 -18,19.20001 l -12.8,0 0,-38.4 z"
   id="rect3093"
   sodipodi:nodetypes="ccsccc"
   inkscape:connector-curvature="0" /><path
   sodipodi:nodetypes="cc"
   style="fill:none;stroke:#000000;stroke-width:0.56;stroke-linecap:butt;stroke-miterlimit:4;stroke-opacity:1;stroke-dasharray:none;stroke-dashoffset:0"
   d="m 189.6,127.2 16.8,0"
   id="path3096"
   inkscape:connector-curvature="0" />




<path
   sodipodi:type="arc"
   style="fill:#ffffff;fill-opacity:1;stroke:#000000;stroke-width:1;stroke-linecap:butt;stroke-miterlimit:4;stroke-opacity:1;stroke-dasharray:none;stroke-dashoffset:0"
   id="path4955"
   sodipodi:cx="82.199997"
   sodipodi:cy="24.4"
   sodipodi:rx="3"
   sodipodi:ry="3"
   d="m 85.199997,24.4 c 0,1.656854 -1.343146,3 -3,3 -1.656854,0 -3,-1.343146 -3,-3 0,-1.656855 1.343146,-3 3,-3 1.656854,0 3,1.343145 3,3 z"
   transform="matrix(0.8,0,0,-0.8,126.06546,146.79999)" /><path
   style="fill:#ffffff;fill-opacity:1;stroke:#000000;stroke-width:0.56;stroke-linecap:butt;stroke-miterlimit:4;stroke-opacity:1;stroke-dasharray:none;stroke-dashoffset:0"
   d="m 134.22546,127.75999 11.04,0"
   id="path14408"
   sodipodi:nodetypes="cc"
   inkscape:connector-curvature="0" /><path
   sodipodi:type="arc"
   style="fill:#000000;fill-opacity:1;stroke:none"
   id="path14413"
   sodipodi:cx="24"
   sodipodi:cy="23.799999"
   sodipodi:rx="1.8"
   sodipodi:ry="1.8"
   d="m 25.8,23.799999 c 0,0.994113 -0.805887,1.8 -1.8,1.8 -0.994113,0 -1.8,-0.805887 -1.8,-1.8 0,-0.994112 0.805887,-1.8 1.8,-1.8 0.994113,0 1.8,0.805888 1.8,1.8 z"
   transform="matrix(0.80000351,0,0,-0.80000351,126.06537,146.80007)" /><path
   sodipodi:nodetypes="cccc"
   d="m 82.454297,139.76893 17.934523,-0.04 m 0.005,-23.99999 -18.028433,0.11999"
   style="fill:none;stroke:#000000;stroke-width:0.56;stroke-linecap:butt;stroke-miterlimit:4;stroke-opacity:1;stroke-dasharray:none;stroke-dashoffset:0"
   id="path14436"
   inkscape:connector-curvature="0" /><path
   sodipodi:nodetypes="ccsccc"
   id="path14438"
   d="m 95.588817,146.92893 12.799993,0 c 11.50546,-0.4 18,-12.3635 18,-19.19999 0,-6.6612 -6.49454,-18.64001 -18,-19.20001 l -12.799993,0 0,38.4 z"
   style="fill:#ffffff;fill-opacity:1;stroke:#000000;stroke-width:0.79999995"
   inkscape:connector-curvature="0" /><path
   id="path14440"
   d="m 126.78881,127.72894 16.8,0"
   style="fill:none;stroke:#000000;stroke-width:0.56;stroke-linecap:butt;stroke-miterlimit:4;stroke-opacity:1;stroke-dasharray:none;stroke-dashoffset:0"
   sodipodi:nodetypes="cc"
   inkscape:connector-curvature="0" /><path
   transform="matrix(0.8,0,0,-0.8,63.254277,147.32893)"
   d="m 85.199997,24.4 c 0,1.656854 -1.343146,3 -3,3 -1.656854,0 -3,-1.343146 -3,-3 0,-1.656855 1.343146,-3 3,-3 1.656854,0 3,1.343145 3,3 z"
   sodipodi:ry="3"
   sodipodi:rx="3"
   sodipodi:cy="24.4"
   sodipodi:cx="82.199997"
   id="path14442"
   style="fill:#ffffff;fill-opacity:1;stroke:#000000;stroke-width:1;stroke-linecap:butt;stroke-miterlimit:4;stroke-opacity:1;stroke-dasharray:none;stroke-dashoffset:0"
   sodipodi:type="arc" /><text
   y="-112.79554"
   x="71.199135"
   transform="scale(1,-1)"
   id="text14458"><tspan
     style="font-size:10.90909958px;font-style:oblique;font-variant:normal;writing-mode:lr-tb;fill:#000000;fill-opacity:1;fill-rule:nonzero;stroke:none;font-family:LMSans10;-inkscape-font-specification:LMSans10-Oblique"
     x="71.199135"
     y="-112.79554"
     id="tspan14460">B</tspan></text>

<text
   style="font-size:12px"
   y="-122.96674"
   x="207.66342"
   id="text2992"
   transform="scale(1,-1)"><tspan
     style="font-size:10.90909958px;font-style:oblique;font-variant:normal;writing-mode:lr-tb;fill:#000000;fill-opacity:1;fill-rule:nonzero;stroke:none;font-family:LMSans10;-inkscape-font-specification:LMSans10-Oblique"
     x="207.66342"
     y="-122.96674"
     id="tspan2994">AB</tspan></text>
</g></svg>