<?xml version="1.0" encoding="UTF-8" standalone="no"?>
<!-- Created with Inkscape (http://www.inkscape.org/) -->

<svg
   xmlns:dc="http://purl.org/dc/elements/1.1/"
   xmlns:cc="http://creativecommons.org/ns#"
   xmlns:rdf="http://www.w3.org/1999/02/22-rdf-syntax-ns#"
   xmlns:svg="http://www.w3.org/2000/svg"
   xmlns="http://www.w3.org/2000/svg"
   xmlns:sodipodi="http://sodipodi.sourceforge.net/DTD/sodipodi-0.dtd"
   xmlns:inkscape="http://www.inkscape.org/namespaces/inkscape"
   id="svg2"
   version="1.1"
   inkscape:version="0.48.3.1 r9886"
   width="210.9006"
   height="109.93314"
   xml:space="preserve"
   sodipodi:docname="nand_univ3.svg"><metadata
     id="metadata8"><rdf:RDF><cc:Work
         rdf:about=""><dc:format>image/svg+xml</dc:format><dc:type
           rdf:resource="http://purl.org/dc/dcmitype/StillImage" /><dc:title /></cc:Work></rdf:RDF></metadata><defs
     id="defs6"><inkscape:perspective
       sodipodi:type="inkscape:persp3d"
       inkscape:vp_x="0 : 0.5 : 1"
       inkscape:vp_y="0 : 1000 : 0"
       inkscape:vp_z="1 : 0.5 : 1"
       inkscape:persp3d-origin="0.5 : 0.33333333 : 1"
       id="perspective10" /></defs><sodipodi:namedview
     pagecolor="#ffffff"
     bordercolor="#666666"
     borderopacity="1"
     objecttolerance="10"
     gridtolerance="10"
     guidetolerance="10"
     inkscape:pageopacity="0"
     inkscape:pageshadow="2"
     inkscape:window-width="1301"
     inkscape:window-height="744"
     id="namedview4"
     showgrid="true"
     showguides="false"
     inkscape:guide-bbox="true"
     inkscape:zoom="2.775185"
     inkscape:cx="117.55131"
     inkscape:cy="30.955275"
     inkscape:window-x="65"
     inkscape:window-y="24"
     inkscape:window-maximized="1"
     inkscape:current-layer="g12"
     fit-margin-top="0"
     fit-margin-left="0"
     fit-margin-right="0"
     fit-margin-bottom="0"><inkscape:grid
       type="xygrid"
       id="grid4142"
       empspacing="5"
       visible="true"
       enabled="false"
       snapvisiblegridlinesonly="true"
       spacingx="0.6px"
       spacingy="0.6px"
       dotted="true"
       originx="-1.7736054e-07px"
       originy="1.0447502e-07px" /></sodipodi:namedview><g
     id="g12"
     inkscape:groupmode="layer"
     inkscape:label="aula12"
     transform="matrix(1.25,0,0,-1.25,-19.695724,198.99445)">













<path
   sodipodi:nodetypes="cc"
   id="path14491"
   d="m 25.259751,140.15556 11.04,0"
   style="fill:#ffffff;fill-opacity:1;stroke:#000000;stroke-width:0.56;stroke-linecap:butt;stroke-miterlimit:4;stroke-opacity:1;stroke-dasharray:none;stroke-dashoffset:0"
   inkscape:connector-curvature="0" /><text
   id="text3079"
   transform="scale(1,-1)"
   x="14.698397"
   y="-87.789825"><tspan
     id="tspan3081"
     y="-87.789825"
     x="14.698397"
     style="font-size:10.90909958px;font-style:oblique;font-variant:normal;writing-mode:lr-tb;fill:#000000;fill-opacity:1;fill-rule:nonzero;stroke:none;font-family:LMSans10;-inkscape-font-specification:LMSans10-Oblique">B</tspan></text>

















<text
   y="-136.21902"
   x="15.563204"
   transform="scale(1,-1)"
   id="text14531"><tspan
     style="font-size:10.90909958px;font-style:oblique;font-variant:normal;writing-mode:lr-tb;fill:#000000;fill-opacity:1;fill-rule:nonzero;stroke:none;font-family:LMSans10;-inkscape-font-specification:LMSans10-Oblique"
     x="15.563204"
     y="-136.21902"
     id="tspan14533">A</tspan></text>


<path
   id="path14555"
   transform="matrix(0.8,0,0,-0.8,71.50459,147.32893)"
   style="color:#000000;fill:none;stroke:#000000;stroke-width:1;stroke-linecap:butt;stroke-linejoin:miter;stroke-miterlimit:4;stroke-opacity:1;stroke-dasharray:none;stroke-dashoffset:0;marker:none;visibility:visible;display:inline;overflow:visible;enable-background:accumulate"
   d="m 32.160018,9.5737571 0,15.0440419 15.260511,0 M 11.412126,9.6667 l 21,0"
   sodipodi:nodetypes="ccccc"
   inkscape:connector-curvature="0" /><path
   id="path15067"
   style="color:#000000;fill:none;stroke:#000000;stroke-width:0.80000001;stroke-linecap:butt;stroke-linejoin:miter;stroke-miterlimit:4;stroke-opacity:1;stroke-dasharray:none;stroke-dashoffset:0;marker:none;visibility:visible;display:inline;overflow:visible;enable-background:accumulate"
   d="m 80.634291,90.849055 16.699156,-0.0072 -0.100843,12.028045 12.208406,0"
   sodipodi:nodetypes="cccc"
   inkscape:connector-curvature="0" /><g
   id="g15077"><path
     id="path14483"
     style="fill:none;stroke:#000000;stroke-width:0.56;stroke-linecap:butt;stroke-miterlimit:4;stroke-opacity:1;stroke-dasharray:none;stroke-dashoffset:0"
     d="m 54.238801,127.59557 -18.02843,0.11999 0.0894,23.92 17.93452,-0.04"
     sodipodi:nodetypes="cccc"
     inkscape:connector-curvature="0" /><path
     style="fill:#ffffff;fill-opacity:1;stroke:#000000;stroke-width:0.79999995"
     d="m 49.434291,158.79556 12.8,0 c 11.50546,-0.4 18,-12.3635 18,-19.19999 0,-6.6612 -6.49454,-18.64001 -18,-19.20001 l -12.8,0 0,38.4 z"
     id="path14485"
     sodipodi:nodetypes="ccsccc"
     inkscape:connector-curvature="0" /><path
     sodipodi:type="arc"
     style="fill:#000000;fill-opacity:1;stroke:none"
     id="path14493"
     sodipodi:cx="24"
     sodipodi:cy="23.799999"
     sodipodi:rx="1.8"
     sodipodi:ry="1.8"
     d="m 25.8,23.799999 c 0,0.994113 -0.805887,1.8 -1.8,1.8 -0.994113,0 -1.8,-0.805887 -1.8,-1.8 0,-0.994112 0.805887,-1.8 1.8,-1.8 0.994113,0 1.8,0.805888 1.8,1.8 z"
     transform="matrix(0.80000351,0,0,-0.80000351,17.099661,159.19564)" /><path
     sodipodi:type="arc"
     style="fill:#ffffff;fill-opacity:1;stroke:#000000;stroke-width:1;stroke-linecap:butt;stroke-miterlimit:4;stroke-opacity:1;stroke-dasharray:none;stroke-dashoffset:0"
     id="path14489"
     sodipodi:cx="82.199997"
     sodipodi:cy="24.4"
     sodipodi:rx="3"
     sodipodi:ry="3"
     d="m 85.199997,24.4 c 0,1.656854 -1.343146,3 -3,3 -1.656854,0 -3,-1.343146 -3,-3 0,-1.656855 1.343146,-3 3,-3 1.656854,0 3,1.343145 3,3 z"
     transform="matrix(0.8,0,0,-0.8,17.099751,159.19556)" /></g><path
   style="fill:#ffffff;fill-opacity:1;stroke:#000000;stroke-width:0.56;stroke-linecap:butt;stroke-miterlimit:4;stroke-opacity:1;stroke-dasharray:none;stroke-dashoffset:0"
   d="m 25.259751,91.409045 11.04,0"
   id="path14527"
   sodipodi:nodetypes="cc"
   inkscape:connector-curvature="0" /><g
   id="g15088"><path
     sodipodi:nodetypes="cccc"
     d="m 54.238801,78.849055 -18.02843,0.11999 0.0894,23.919995 17.93452,-0.04"
     style="fill:none;stroke:#000000;stroke-width:0.56;stroke-linecap:butt;stroke-miterlimit:4;stroke-opacity:1;stroke-dasharray:none;stroke-dashoffset:0"
     id="path14519"
     inkscape:connector-curvature="0" /><path
     sodipodi:nodetypes="ccsccc"
     id="path14521"
     d="m 49.434291,110.04904 12.8,0 c 11.50546,-0.4 18,-12.363495 18,-19.199985 0,-6.6612 -6.49454,-18.64001 -18,-19.20001 l -12.8,0 0,38.400005 z"
     style="fill:#ffffff;fill-opacity:1;stroke:#000000;stroke-width:0.79999995"
     inkscape:connector-curvature="0" /><path
     transform="matrix(0.8,0,0,-0.8,17.099751,110.44904)"
     d="m 85.199997,24.4 c 0,1.656854 -1.343146,3 -3,3 -1.656854,0 -3,-1.343146 -3,-3 0,-1.656855 1.343146,-3 3,-3 1.656854,0 3,1.343145 3,3 z"
     sodipodi:ry="3"
     sodipodi:rx="3"
     sodipodi:cy="24.4"
     sodipodi:cx="82.199997"
     id="path14525"
     style="fill:#ffffff;fill-opacity:1;stroke:#000000;stroke-width:1;stroke-linecap:butt;stroke-miterlimit:4;stroke-opacity:1;stroke-dasharray:none;stroke-dashoffset:0"
     sodipodi:type="arc" /><path
     transform="matrix(0.80000351,0,0,-0.80000351,17.099661,110.44912)"
     d="m 25.8,23.799999 c 0,0.994113 -0.805887,1.8 -1.8,1.8 -0.994113,0 -1.8,-0.805887 -1.8,-1.8 0,-0.994112 0.805887,-1.8 1.8,-1.8 0.994113,0 1.8,0.805888 1.8,1.8 z"
     sodipodi:ry="1.8"
     sodipodi:rx="1.8"
     sodipodi:cy="23.799999"
     sodipodi:cx="24"
     id="path14529"
     style="fill:#000000;fill-opacity:1;stroke:none"
     sodipodi:type="arc" /></g><g
   id="g15094"><path
     sodipodi:type="arc"
     style="fill:#ffffff;fill-opacity:1;stroke:#000000;stroke-width:1;stroke-linecap:butt;stroke-miterlimit:4;stroke-opacity:1;stroke-dasharray:none;stroke-dashoffset:0"
     id="path14442"
     sodipodi:cx="82.199997"
     sodipodi:cy="24.4"
     sodipodi:rx="3"
     sodipodi:ry="3"
     d="m 85.199997,24.4 c 0,1.656854 -1.343146,3 -3,3 -1.656854,0 -3,-1.343146 -3,-3 0,-1.656855 1.343146,-3 3,-3 1.656854,0 3,1.343145 3,3 z"
     transform="matrix(0.8,0,0,-0.8,64.854277,131.7624)" /><path
     sodipodi:nodetypes="ccsccc"
     id="path14539"
     d="m 107.8233,134.86922 12.8,0 c 11.50546,-0.4 18,-12.36349 18,-19.19998 0,-6.6612 -6.49454,-18.640015 -18,-19.200015 l -12.8,0 0,38.400005 z"
     style="fill:#ffffff;fill-opacity:1;stroke:#000000;stroke-width:0.79999995"
     inkscape:connector-curvature="0" /><path
     id="path14541"
     d="m 139.0233,115.66924 16.8,0"
     style="fill:none;stroke:#000000;stroke-width:0.56;stroke-linecap:butt;stroke-miterlimit:4;stroke-opacity:1;stroke-dasharray:none;stroke-dashoffset:0"
     sodipodi:nodetypes="cc"
     inkscape:connector-curvature="0" /><path
     transform="matrix(0.8,0,0,-0.8,75.488758,135.26922)"
     d="m 85.199997,24.4 c 0,1.656854 -1.343146,3 -3,3 -1.656854,0 -3,-1.343146 -3,-3 0,-1.656855 1.343146,-3 3,-3 1.656854,0 3,1.343145 3,3 z"
     sodipodi:ry="3"
     sodipodi:rx="3"
     sodipodi:cy="24.4"
     sodipodi:cx="82.199997"
     id="path14543"
     style="fill:#ffffff;fill-opacity:1;stroke:#000000;stroke-width:1;stroke-linecap:butt;stroke-miterlimit:4;stroke-opacity:1;stroke-dasharray:none;stroke-dashoffset:0"
     sodipodi:type="arc" /></g>

</g></svg>