<?xml version="1.0" encoding="UTF-8" standalone="no"?>
<!-- Created with Inkscape (http://www.inkscape.org/) -->

<svg
   xmlns:dc="http://purl.org/dc/elements/1.1/"
   xmlns:cc="http://creativecommons.org/ns#"
   xmlns:rdf="http://www.w3.org/1999/02/22-rdf-syntax-ns#"
   xmlns:svg="http://www.w3.org/2000/svg"
   xmlns="http://www.w3.org/2000/svg"
   xmlns:sodipodi="http://sodipodi.sourceforge.net/DTD/sodipodi-0.dtd"
   xmlns:inkscape="http://www.inkscape.org/namespaces/inkscape"
   id="svg2879"
   version="1.1"
   inkscape:version="0.47 r22583"
   width="321"
   height="233"
   xml:space="preserve"
   sodipodi:docname="gray_counter_circuit1.svg"><metadata
     id="metadata2885"><rdf:RDF><cc:Work
         rdf:about=""><dc:format>image/svg+xml</dc:format><dc:type
           rdf:resource="http://purl.org/dc/dcmitype/StillImage" /><dc:title></dc:title></cc:Work></rdf:RDF></metadata><defs
     id="defs2883"><inkscape:perspective
       sodipodi:type="inkscape:persp3d"
       inkscape:vp_x="0 : 0.5 : 1"
       inkscape:vp_y="0 : 1000 : 0"
       inkscape:vp_z="1 : 0.5 : 1"
       inkscape:persp3d-origin="0.5 : 0.33333333 : 1"
       id="perspective2887" /><inkscape:perspective
       id="perspective6464"
       inkscape:persp3d-origin="0.5 : 0.33333333 : 1"
       inkscape:vp_z="1 : 0.5 : 1"
       inkscape:vp_y="0 : 1000 : 0"
       inkscape:vp_x="0 : 0.5 : 1"
       sodipodi:type="inkscape:persp3d" /><inkscape:perspective
       id="perspective6493"
       inkscape:persp3d-origin="0.5 : 0.33333333 : 1"
       inkscape:vp_z="1 : 0.5 : 1"
       inkscape:vp_y="0 : 1000 : 0"
       inkscape:vp_x="0 : 0.5 : 1"
       sodipodi:type="inkscape:persp3d" /><inkscape:perspective
       id="perspective6605"
       inkscape:persp3d-origin="0.5 : 0.33333333 : 1"
       inkscape:vp_z="1 : 0.5 : 1"
       inkscape:vp_y="0 : 1000 : 0"
       inkscape:vp_x="0 : 0.5 : 1"
       sodipodi:type="inkscape:persp3d" /><inkscape:perspective
       id="perspective6619"
       inkscape:persp3d-origin="0.5 : 0.33333333 : 1"
       inkscape:vp_z="1 : 0.5 : 1"
       inkscape:vp_y="0 : 1000 : 0"
       inkscape:vp_x="0 : 0.5 : 1"
       sodipodi:type="inkscape:persp3d" /><inkscape:perspective
       id="perspective6827"
       inkscape:persp3d-origin="0.5 : 0.33333333 : 1"
       inkscape:vp_z="1 : 0.5 : 1"
       inkscape:vp_y="0 : 1000 : 0"
       inkscape:vp_x="0 : 0.5 : 1"
       sodipodi:type="inkscape:persp3d" /><inkscape:perspective
       id="perspective6863"
       inkscape:persp3d-origin="0.5 : 0.33333333 : 1"
       inkscape:vp_z="1 : 0.5 : 1"
       inkscape:vp_y="0 : 1000 : 0"
       inkscape:vp_x="0 : 0.5 : 1"
       sodipodi:type="inkscape:persp3d" /><inkscape:perspective
       id="perspective6899"
       inkscape:persp3d-origin="0.5 : 0.33333333 : 1"
       inkscape:vp_z="1 : 0.5 : 1"
       inkscape:vp_y="0 : 1000 : 0"
       inkscape:vp_x="0 : 0.5 : 1"
       sodipodi:type="inkscape:persp3d" /><inkscape:perspective
       id="perspective6973"
       inkscape:persp3d-origin="0.5 : 0.33333333 : 1"
       inkscape:vp_z="1 : 0.5 : 1"
       inkscape:vp_y="0 : 1000 : 0"
       inkscape:vp_x="0 : 0.5 : 1"
       sodipodi:type="inkscape:persp3d" /><inkscape:perspective
       id="perspective7299"
       inkscape:persp3d-origin="0.5 : 0.33333333 : 1"
       inkscape:vp_z="1 : 0.5 : 1"
       inkscape:vp_y="0 : 1000 : 0"
       inkscape:vp_x="0 : 0.5 : 1"
       sodipodi:type="inkscape:persp3d" /></defs><sodipodi:namedview
     pagecolor="#ffffff"
     bordercolor="#666666"
     borderopacity="1"
     objecttolerance="10"
     gridtolerance="10"
     guidetolerance="10"
     inkscape:pageopacity="0"
     inkscape:pageshadow="2"
     inkscape:window-width="1440"
     inkscape:window-height="825"
     id="namedview2881"
     showgrid="false"
     inkscape:zoom="1.9623521"
     inkscape:cx="171.66341"
     inkscape:cy="116.95724"
     inkscape:window-x="0"
     inkscape:window-y="25"
     inkscape:window-maximized="1"
     inkscape:current-layer="g2889" /><g
     id="g2889"
     inkscape:groupmode="layer"
     inkscape:label="aula14"
     transform="matrix(1.25,0,0,-1.25,-5.7562364,265.37863)"><g
       id="g6481"
       transform="matrix(0.8,0,0,-0.8,-17.915524,216.57117)"><path
         sodipodi:nodetypes="czscs"
         d="m 233.55352,99.007264 c 8e-4,0.0245 -1.46577,-7.33595 -15.6221,-7.33595 -14.29571,0 -15.62217,7.33649 -15.62211,7.33595 1.43192,-11.85083 -0.59597,-19.56897 15.62211,-27.72518 14.34001,6.08165 15.02068,14.05749 15.6221,27.72518 z"
         style="fill:#ffffff;fill-opacity:1;fill-rule:evenodd;stroke:#000000;stroke-width:1;stroke-linecap:butt;stroke-linejoin:round;stroke-miterlimit:4;stroke-opacity:1;stroke-dasharray:none;stroke-dashoffset:0"
         id="path3353-1" /><path
         sodipodi:nodetypes="czs"
         d="m 233.17709,106.29159 c 8e-4,0.0269 -1.43045,-8.035226 -15.24567,-8.035226 -13.95124,0 -15.24575,8.035816 -15.24569,8.035226"
         style="fill:none;stroke:#000000;stroke-width:1;stroke-linecap:round;stroke-linejoin:round;stroke-miterlimit:4;stroke-opacity:1;stroke-dasharray:none;stroke-dashoffset:0"
         id="path1315" /><path
         sodipodi:type="arc"
         style="fill:#ffffff;fill-opacity:1;stroke:#000000;stroke-width:1.25;stroke-linecap:butt;stroke-miterlimit:4;stroke-opacity:1;stroke-dasharray:none;stroke-dashoffset:0"
         id="path3057"
         sodipodi:cx="82.199997"
         sodipodi:cy="24.4"
         sodipodi:rx="3"
         sodipodi:ry="3"
         d="m 85.199997,24.4 c 0,1.656854 -1.343146,3 -3,3 -1.656854,0 -3,-1.343146 -3,-3 0,-1.656855 1.343146,-3 3,-3 1.656854,0 3,1.343145 3,3 z"
         transform="matrix(0,-0.8,-0.8,0,237.34314,134.42053)" /></g><g
       id="g9596"
       transform="translate(183.7142,57.191102)"><text
         transform="scale(1,-1)"
         y="-26.06274"
         x="-107.8304"
         id="text8002-3"
         style="font-size:12px"><tspan
           style="font-size:10.90909958px;font-style:oblique;font-variant:normal;writing-mode:lr-tb;fill:#000000;fill-opacity:1;fill-rule:nonzero;stroke:none;font-family:LMSans10;-inkscape-font-specification:LMSans10-Oblique"
           x="-107.8304"
           y="-26.06274"
           id="tspan8004-5">a</tspan></text>
<text
         transform="scale(1,-1)"
         y="-24.426739"
         x="-101.97691"
         id="text8006-3"
         style="font-size:12px"><tspan
           style="font-size:7.97009945px;font-style:normal;font-variant:normal;font-weight:normal;writing-mode:lr-tb;fill:#000000;fill-opacity:1;fill-rule:nonzero;stroke:none;font-family:LMSans8;-inkscape-font-specification:LMSans8-Regular"
           x="-101.97691"
           y="-24.426739"
           id="tspan8008-9">0</tspan></text>
</g><path
       sodipodi:nodetypes="cc"
       style="fill:none;stroke:#000000;stroke-width:0.80000007;stroke-linecap:round;stroke-linejoin:miter;stroke-miterlimit:4;stroke-opacity:1;stroke-dasharray:none"
       d="m 89.676879,83.980799 155.124171,5e-5"
       id="path3349-0" /><g
       transform="translate(183.98518,44.078103)"
       id="g6633"><text
         style="font-size:12px"
         id="text6635"
         x="-107.8304"
         y="-26.06274"
         transform="scale(1,-1)"><tspan
           id="tspan6637"
           y="-26.06274"
           x="-107.8304"
           style="font-size:10.90909958px;font-style:oblique;font-variant:normal;writing-mode:lr-tb;fill:#000000;fill-opacity:1;fill-rule:nonzero;stroke:none;font-family:LMSans10;-inkscape-font-specification:LMSans10-Oblique">a</tspan></text>
<text
         style="font-size:12px"
         id="text6639"
         x="-101.97691"
         y="-24.426739"
         transform="scale(1,-1)"><tspan
           id="tspan6641"
           y="-24.426739"
           x="-101.97691"
           style="font-size:7.97009945px;font-style:normal;font-variant:normal;font-weight:normal;writing-mode:lr-tb;fill:#000000;fill-opacity:1;fill-rule:nonzero;stroke:none;font-family:LMSans8;-inkscape-font-specification:LMSans8-Regular">1</tspan></text>
</g><path
       id="path6643"
       d="m 89.676879,71.180799 138.104981,5e-5 0,38.649661"
       style="fill:none;stroke:#000000;stroke-width:0.80000007;stroke-linecap:round;stroke-linejoin:miter;stroke-miterlimit:4;stroke-opacity:1;stroke-dasharray:none"
       sodipodi:nodetypes="ccc" /><g
       id="g6645"
       transform="translate(183.80187,18.68194)"><text
         transform="scale(1,-1)"
         y="-26.06274"
         x="-107.8304"
         id="text6647"
         style="font-size:12px"><tspan
           style="font-size:10.90909958px;font-style:oblique;font-variant:normal;writing-mode:lr-tb;fill:#000000;fill-opacity:1;fill-rule:nonzero;stroke:none;font-family:LMSans10;-inkscape-font-specification:LMSans10-Oblique"
           x="-107.8304"
           y="-26.06274"
           id="tspan6649">a</tspan></text>
<text
         transform="scale(1,-1)"
         y="-24.426739"
         x="-101.97691"
         id="text6651"
         style="font-size:12px"><tspan
           style="font-size:7.97009945px;font-style:normal;font-variant:normal;font-weight:normal;writing-mode:lr-tb;fill:#000000;fill-opacity:1;fill-rule:nonzero;stroke:none;font-family:LMSans8;-inkscape-font-specification:LMSans8-Regular"
           x="-101.97691"
           y="-24.426739"
           id="tspan6653">2</tspan></text>
</g><path
       sodipodi:nodetypes="cc"
       style="fill:none;stroke:#000000;stroke-width:0.80000007;stroke-linecap:round;stroke-linejoin:miter;stroke-miterlimit:4;stroke-opacity:1;stroke-dasharray:none"
       d="m 89.676879,45.580799 156.693471,5e-5"
       id="path6655" /><path
       id="path6657"
       d="m 99.2768,45.580799 0,12.8 100.72425,5e-5 0,51.449661"
       style="fill:none;stroke:#000000;stroke-width:0.80000007;stroke-linecap:round;stroke-linejoin:miter;stroke-miterlimit:4;stroke-opacity:1;stroke-dasharray:none"
       sodipodi:nodetypes="ccc" /><path
       sodipodi:nodetypes="cccc"
       style="fill:none;stroke:#000000;stroke-width:0.80000007;stroke-linecap:round;stroke-linejoin:miter;stroke-miterlimit:4;stroke-opacity:1;stroke-dasharray:none"
       d="m 99.2768,83.980799 0,12.8 117.13193,5e-5 0,13.337931"
       id="path6659" /><g
       transform="matrix(0.64,0,0,-0.64,-81.568272,464.36331)"
       id="g3846"><path
         inkscape:connector-curvature="0"
         style="fill:#ffffff;fill-opacity:1;stroke:#000000;stroke-width:1.24999988"
         d="m 321.17374,565.50846 21.5,10.08504 -21.5,10.08505 0,-20.17009 z"
         id="rect3093-8"
         sodipodi:nodetypes="cccc" /><path
         sodipodi:type="arc"
         style="fill:#ffffff;fill-opacity:1;stroke:#000000;stroke-width:1.25;stroke-linecap:round;stroke-miterlimit:4;stroke-opacity:1;stroke-dasharray:none;stroke-dashoffset:0"
         id="path3680"
         sodipodi:cx="76.311485"
         sodipodi:cy="24.157364"
         sodipodi:rx="3.4397497"
         sodipodi:ry="3.4397497"
         d="m 79.751235,24.157364 c 0,1.899721 -1.540028,3.43975 -3.43975,3.43975 -1.899721,0 -3.439749,-1.540029 -3.439749,-3.43975 0,-1.899721 1.540028,-3.43975 3.439749,-3.43975 1.899722,0 3.43975,1.540029 3.43975,3.43975 z"
         transform="translate(269.37601,551.43637)" /></g><g
       id="g6847"
       transform="matrix(0.64,0,0,-0.64,-81.568272,425.96331)"><path
         sodipodi:nodetypes="cccc"
         id="path6849"
         d="m 321.17374,565.50846 21.5,10.08504 -21.5,10.08505 0,-20.17009 z"
         style="fill:#ffffff;fill-opacity:1;stroke:#000000;stroke-width:1.24999988"
         inkscape:connector-curvature="0" /><path
         transform="translate(269.37601,551.43637)"
         d="m 79.751235,24.157364 c 0,1.899721 -1.540028,3.43975 -3.43975,3.43975 -1.899721,0 -3.439749,-1.540029 -3.439749,-3.43975 0,-1.899721 1.540028,-3.43975 3.439749,-3.43975 1.899722,0 3.43975,1.540029 3.43975,3.43975 z"
         sodipodi:ry="3.4397497"
         sodipodi:rx="3.4397497"
         sodipodi:cy="24.157364"
         sodipodi:cx="76.311485"
         id="path6851"
         style="fill:#ffffff;fill-opacity:1;stroke:#000000;stroke-width:1.25;stroke-linecap:round;stroke-miterlimit:4;stroke-opacity:1;stroke-dasharray:none;stroke-dashoffset:0"
         sodipodi:type="arc" /></g><path
       style="color:#000000;fill:none;stroke:#000000;stroke-width:1.00000012;stroke-linecap:round;stroke-linejoin:miter;stroke-miterlimit:4;stroke-opacity:1;stroke-dasharray:none;stroke-dashoffset:0;marker:none;visibility:visible;display:inline;overflow:visible;enable-background:accumulate"
       d="m 234.93929,234.93929 0,-32.43027"
       id="path6853"
       transform="matrix(0.8,0,0,-0.8,0,272.126)" /><path
       style="color:#000000;fill:none;stroke:#000000;stroke-width:1.00000012;stroke-linecap:round;stroke-linejoin:miter;stroke-miterlimit:4;stroke-opacity:1;stroke-dasharray:none;stroke-dashoffset:0;marker:none;visibility:visible;display:inline;overflow:visible;enable-background:accumulate"
       d="m 186.76566,251.2336 0,-82.29919"
       id="path6913"
       transform="matrix(0.8,0,0,-0.8,0,272.126)" /><path
       style="color:#000000;fill:none;stroke:#000000;stroke-width:1.00000012;stroke-linecap:round;stroke-linejoin:miter;stroke-miterlimit:4;stroke-opacity:1;stroke-dasharray:none;stroke-dashoffset:0;marker:none;visibility:visible;display:inline;overflow:visible;enable-background:accumulate"
       d="m 202.30824,282.57354 0,-114.14872"
       id="path6915"
       transform="matrix(0.8,0,0,-0.8,0,272.126)" /><path
       style="color:#000000;fill:none;stroke:#000000;stroke-width:1.00000012;stroke-linecap:round;stroke-linejoin:miter;stroke-miterlimit:4;stroke-opacity:1;stroke-dasharray:none;stroke-dashoffset:0;marker:none;visibility:visible;display:inline;overflow:visible;enable-background:accumulate"
       d="m 242.82084,179.38106 0,-24.71524"
       id="path6930"
       transform="matrix(0.8,0,0,-0.8,0,272.126)" /><path
       style="color:#000000;fill:none;stroke:#000000;stroke-width:1.00000012;stroke-linecap:round;stroke-linejoin:miter;stroke-miterlimit:4;stroke-opacity:1;stroke-dasharray:none;stroke-dashoffset:0;marker:none;visibility:visible;display:inline;overflow:visible;enable-background:accumulate"
       d="m 277.34199,179.84693 10e-6,-16.26343 -19.23338,1.9e-4 0,-9.42746"
       id="path6932"
       transform="matrix(0.8,0,0,-0.8,0,272.126)"
       sodipodi:nodetypes="cccc" /><path
       style="color:#000000;fill:none;stroke:#000000;stroke-width:1.00000012;stroke-linecap:round;stroke-linejoin:miter;stroke-miterlimit:4;stroke-opacity:1;stroke-dasharray:none;stroke-dashoffset:0;marker:none;visibility:visible;display:inline;overflow:visible;enable-background:accumulate"
       d="m 195.68353,135.3013 0,-43.060567"
       id="path6938"
       transform="matrix(0.8,0,0,-0.8,0,272.126)"
       sodipodi:nodetypes="cc" /><path
       style="color:#000000;fill:none;stroke:#000000;stroke-width:1.00000012;stroke-linecap:round;stroke-linejoin:miter;stroke-miterlimit:4;stroke-opacity:1;stroke-dasharray:none;stroke-dashoffset:0;marker:none;visibility:visible;display:inline;overflow:visible;enable-background:accumulate"
       d="m 250.66035,134.13552 0,-50.303063"
       id="path6940"
       transform="matrix(0.8,0,0,-0.8,0,272.126)"
       sodipodi:nodetypes="cc" /><path
       sodipodi:nodetypes="czscs"
       d="m 212.95609,143.48047 c 6.4e-4,-0.0196 -1.17262,5.86876 -12.49768,5.86876 -11.43657,0 -12.49774,-5.86919 -12.49769,-5.86876 1.14554,9.48066 -0.47677,15.65517 12.49769,22.18014 11.47201,-4.86532 12.01655,-11.24599 12.49768,-22.18014 z"
       style="fill:#ffffff;fill-opacity:1;fill-rule:evenodd;stroke:#000000;stroke-width:0.80000001;stroke-linecap:butt;stroke-linejoin:round;stroke-miterlimit:4;stroke-opacity:1;stroke-dasharray:none;stroke-dashoffset:0"
       id="path6919" /><path
       sodipodi:nodetypes="ccsccc"
       id="path3059"
       d="m 183.66143,110.16368 0,7.52154 c 0.2179,6.76085 6.73516,10.57718 10.45942,10.57718 3.62877,0 10.15436,-3.81633 10.45942,-10.57718 l 0,-7.52154 -20.91884,0 z"
       style="fill:#ffffff;fill-opacity:1;stroke:#000000;stroke-width:0.80000001"
       inkscape:connector-curvature="0" /><path
       inkscape:connector-curvature="0"
       style="fill:#ffffff;fill-opacity:1;stroke:#000000;stroke-width:0.80000001"
       d="m 211.64608,110.16368 0,7.52154 c 0.2179,6.76085 6.73516,10.57718 10.45942,10.57718 3.62877,0 10.15436,-3.81633 10.45942,-10.57718 l 0,-7.52154 -20.91884,0 z"
       id="path6887"
       sodipodi:nodetypes="ccsccc" /><path
       sodipodi:type="arc"
       style="fill:#000000;fill-opacity:1;stroke:#000000;stroke-width:2;stroke-linecap:butt;stroke-miterlimit:4;stroke-opacity:1;stroke-dasharray:none;stroke-dashoffset:0"
       id="path9842"
       sodipodi:cx="3.6665804"
       sodipodi:cy="44.582287"
       sodipodi:rx="1.2317001"
       sodipodi:ry="1.2317001"
       d="m 4.8982805,44.582287 c 0,0.680249 -0.5514509,1.2317 -1.2317001,1.2317 -0.6802491,0 -1.2317,-0.551451 -1.2317,-1.2317 0,-0.680249 0.5514509,-1.2317 1.2317,-1.2317 0.6802492,0 1.2317001,0.551451 1.2317001,1.2317 z"
       transform="matrix(0.8,0,0,-0.8,96.335362,119.64668)" /><path
       transform="matrix(0.8,0,0,-0.8,146.41426,106.60111)"
       d="m 4.8982805,44.582287 c 0,0.680249 -0.5514509,1.2317 -1.2317001,1.2317 -0.6802491,0 -1.2317,-0.551451 -1.2317,-1.2317 0,-0.680249 0.5514509,-1.2317 1.2317,-1.2317 0.6802492,0 1.2317001,0.551451 1.2317001,1.2317 z"
       sodipodi:ry="1.2317001"
       sodipodi:rx="1.2317001"
       sodipodi:cy="44.582287"
       sodipodi:cx="3.6665804"
       id="path6987"
       style="fill:#000000;fill-opacity:1;stroke:#000000;stroke-width:2;stroke-linecap:butt;stroke-miterlimit:4;stroke-opacity:1;stroke-dasharray:none;stroke-dashoffset:0"
       sodipodi:type="arc" /><path
       sodipodi:type="arc"
       style="fill:#000000;fill-opacity:1;stroke:#000000;stroke-width:2;stroke-linecap:butt;stroke-miterlimit:4;stroke-opacity:1;stroke-dasharray:none;stroke-dashoffset:0"
       id="path6989"
       sodipodi:cx="3.6665804"
       sodipodi:cy="44.582287"
       sodipodi:rx="1.2317001"
       sodipodi:ry="1.2317001"
       d="m 4.8982805,44.582287 c 0,0.680249 -0.5514509,1.2317 -1.2317001,1.2317 -0.6802491,0 -1.2317,-0.551451 -1.2317,-1.2317 0,-0.680249 0.5514509,-1.2317 1.2317,-1.2317 0.6802492,0 1.2317001,0.551451 1.2317001,1.2317 z"
       transform="matrix(0.8,0,0,-0.8,158.84832,81.121483)" /><path
       transform="matrix(0.8,0,0,-0.8,184.93668,119.46127)"
       d="m 4.8982805,44.582287 c 0,0.680249 -0.5514509,1.2317 -1.2317001,1.2317 -0.6802491,0 -1.2317,-0.551451 -1.2317,-1.2317 0,-0.680249 0.5514509,-1.2317 1.2317,-1.2317 0.6802492,0 1.2317001,0.551451 1.2317001,1.2317 z"
       sodipodi:ry="1.2317001"
       sodipodi:rx="1.2317001"
       sodipodi:cy="44.582287"
       sodipodi:cx="3.6665804"
       id="path6991"
       style="fill:#000000;fill-opacity:1;stroke:#000000;stroke-width:2;stroke-linecap:butt;stroke-miterlimit:4;stroke-opacity:1;stroke-dasharray:none;stroke-dashoffset:0"
       sodipodi:type="arc" /><path
       sodipodi:nodetypes="cc"
       style="fill:none;stroke:#000000;stroke-width:0.80000007;stroke-linecap:round;stroke-linejoin:miter;stroke-miterlimit:4;stroke-opacity:1;stroke-dasharray:none"
       d="m 246.00576,58.380799 -46.00471,5e-5"
       id="path6993" /><path
       sodipodi:type="arc"
       style="fill:#000000;fill-opacity:1;stroke:#000000;stroke-width:2;stroke-linecap:butt;stroke-miterlimit:4;stroke-opacity:1;stroke-dasharray:none;stroke-dashoffset:0"
       id="path6995"
       sodipodi:cx="3.6665804"
       sodipodi:cy="44.582287"
       sodipodi:rx="1.2317001"
       sodipodi:ry="1.2317001"
       d="m 4.8982805,44.582287 c 0,0.680249 -0.5514509,1.2317 -1.2317001,1.2317 -0.6802491,0 -1.2317,-0.551451 -1.2317,-1.2317 0,-0.680249 0.5514509,-1.2317 1.2317,-1.2317 0.6802492,0 1.2317001,0.551451 1.2317001,1.2317 z"
       transform="matrix(0.8,0,0,-0.8,197.12841,93.819809)" /><path
       id="path6997"
       d="m 246.00576,71.180799 -18.18674,5e-5"
       style="fill:none;stroke:#000000;stroke-width:0.80000007;stroke-linecap:round;stroke-linejoin:miter;stroke-miterlimit:4;stroke-opacity:1;stroke-dasharray:none"
       sodipodi:nodetypes="cc" /><path
       transform="matrix(0.8,0,0,-0.8,224.85024,106.66154)"
       d="m 4.8982805,44.582287 c 0,0.680249 -0.5514509,1.2317 -1.2317001,1.2317 -0.6802491,0 -1.2317,-0.551451 -1.2317,-1.2317 0,-0.680249 0.5514509,-1.2317 1.2317,-1.2317 0.6802492,0 1.2317001,0.551451 1.2317001,1.2317 z"
       sodipodi:ry="1.2317001"
       sodipodi:rx="1.2317001"
       sodipodi:cy="44.582287"
       sodipodi:cx="3.6665804"
       id="path6999"
       style="fill:#000000;fill-opacity:1;stroke:#000000;stroke-width:2;stroke-linecap:butt;stroke-miterlimit:4;stroke-opacity:1;stroke-dasharray:none;stroke-dashoffset:0"
       sodipodi:type="arc" /><path
       sodipodi:type="arc"
       style="fill:#000000;fill-opacity:1;stroke:#000000;stroke-width:2;stroke-linecap:butt;stroke-miterlimit:4;stroke-opacity:1;stroke-dasharray:none;stroke-dashoffset:0"
       id="path7003"
       sodipodi:cx="3.6665804"
       sodipodi:cy="44.582287"
       sodipodi:rx="1.2317001"
       sodipodi:ry="1.2317001"
       d="m 4.8982805,44.582287 c 0,0.680249 -0.5514509,1.2317 -1.2317001,1.2317 -0.6802491,0 -1.2317,-0.551451 -1.2317,-1.2317 0,-0.680249 0.5514509,-1.2317 1.2317,-1.2317 0.6802492,0 1.2317001,0.551451 1.2317001,1.2317 z"
       transform="matrix(0.8,0,0,-0.8,213.60775,132.52133)" /><path
       transform="matrix(0.8,0,0,-0.8,96.335362,81.24668)"
       d="m 4.8982805,44.582287 c 0,0.680249 -0.5514509,1.2317 -1.2317001,1.2317 -0.6802491,0 -1.2317,-0.551451 -1.2317,-1.2317 0,-0.680249 0.5514509,-1.2317 1.2317,-1.2317 0.6802492,0 1.2317001,0.551451 1.2317001,1.2317 z"
       sodipodi:ry="1.2317001"
       sodipodi:rx="1.2317001"
       sodipodi:cy="44.582287"
       sodipodi:cx="3.6665804"
       id="path7007"
       style="fill:#000000;fill-opacity:1;stroke:#000000;stroke-width:2;stroke-linecap:butt;stroke-miterlimit:4;stroke-opacity:1;stroke-dasharray:none;stroke-dashoffset:0"
       sodipodi:type="arc" /><g
       transform="translate(247.81963,147.57751)"
       id="g7009"><text
         style="font-size:12px"
         id="text7011"
         x="-107.8304"
         y="-26.06274"
         transform="scale(1,-1)"><tspan
           id="tspan7013"
           y="-26.06274"
           x="-107.8304"
           style="font-size:10.90909958px;font-style:oblique;font-variant:normal;writing-mode:lr-tb;fill:#000000;fill-opacity:1;fill-rule:nonzero;stroke:none;font-family:LMSans10;-inkscape-font-specification:LMSans10-Oblique">A</tspan></text>
<text
         style="font-size:12px"
         id="text7015"
         x="-100.14238"
         y="-24.426739"
         transform="scale(1,-1)"><tspan
           id="tspan7017"
           y="-24.426739"
           x="-100.14238"
           style="font-size:7.97009945px;font-style:normal;font-variant:normal;font-weight:normal;writing-mode:lr-tb;fill:#000000;fill-opacity:1;fill-rule:nonzero;stroke:none;font-family:LMSans8;-inkscape-font-specification:LMSans8-Regular">0</tspan></text>
</g><g
       id="g7019"
       transform="translate(292.61963,147.57751)"><text
         transform="scale(1,-1)"
         y="-26.06274"
         x="-107.8304"
         id="text7021"
         style="font-size:12px"><tspan
           style="font-size:10.90909958px;font-style:oblique;font-variant:normal;writing-mode:lr-tb;fill:#000000;fill-opacity:1;fill-rule:nonzero;stroke:none;font-family:LMSans10;-inkscape-font-specification:LMSans10-Oblique"
           x="-107.8304"
           y="-26.06274"
           id="tspan7023">A</tspan></text>
<text
         transform="scale(1,-1)"
         y="-24.426739"
         x="-100.14238"
         id="text7025"
         style="font-size:12px"><tspan
           style="font-size:7.97009945px;font-style:normal;font-variant:normal;font-weight:normal;writing-mode:lr-tb;fill:#000000;fill-opacity:1;fill-rule:nonzero;stroke:none;font-family:LMSans8;-inkscape-font-specification:LMSans8-Regular"
           x="-100.14238"
           y="-24.426739"
           id="tspan7027">1</tspan></text>
</g></g></svg>