<?xml version="1.0" encoding="UTF-8" standalone="no"?>
<!-- Created with Inkscape (http://www.inkscape.org/) -->

<svg
   xmlns:dc="http://purl.org/dc/elements/1.1/"
   xmlns:cc="http://creativecommons.org/ns#"
   xmlns:rdf="http://www.w3.org/1999/02/22-rdf-syntax-ns#"
   xmlns:svg="http://www.w3.org/2000/svg"
   xmlns="http://www.w3.org/2000/svg"
   xmlns:sodipodi="http://sodipodi.sourceforge.net/DTD/sodipodi-0.dtd"
   xmlns:inkscape="http://www.inkscape.org/namespaces/inkscape"
   id="svg2879"
   version="1.1"
   inkscape:version="0.47 r22583"
   width="321"
   height="233"
   xml:space="preserve"
   sodipodi:docname="gray_counter_circuit.svg"><metadata
     id="metadata2885"><rdf:RDF><cc:Work
         rdf:about=""><dc:format>image/svg+xml</dc:format><dc:type
           rdf:resource="http://purl.org/dc/dcmitype/StillImage" /><dc:title /></cc:Work></rdf:RDF></metadata><defs
     id="defs2883"><inkscape:perspective
       sodipodi:type="inkscape:persp3d"
       inkscape:vp_x="0 : 0.5 : 1"
       inkscape:vp_y="0 : 1000 : 0"
       inkscape:vp_z="1 : 0.5 : 1"
       inkscape:persp3d-origin="0.5 : 0.33333333 : 1"
       id="perspective2887" /><inkscape:perspective
       id="perspective6464"
       inkscape:persp3d-origin="0.5 : 0.33333333 : 1"
       inkscape:vp_z="1 : 0.5 : 1"
       inkscape:vp_y="0 : 1000 : 0"
       inkscape:vp_x="0 : 0.5 : 1"
       sodipodi:type="inkscape:persp3d" /><inkscape:perspective
       id="perspective6493"
       inkscape:persp3d-origin="0.5 : 0.33333333 : 1"
       inkscape:vp_z="1 : 0.5 : 1"
       inkscape:vp_y="0 : 1000 : 0"
       inkscape:vp_x="0 : 0.5 : 1"
       sodipodi:type="inkscape:persp3d" /><inkscape:perspective
       id="perspective6605"
       inkscape:persp3d-origin="0.5 : 0.33333333 : 1"
       inkscape:vp_z="1 : 0.5 : 1"
       inkscape:vp_y="0 : 1000 : 0"
       inkscape:vp_x="0 : 0.5 : 1"
       sodipodi:type="inkscape:persp3d" /><inkscape:perspective
       id="perspective6619"
       inkscape:persp3d-origin="0.5 : 0.33333333 : 1"
       inkscape:vp_z="1 : 0.5 : 1"
       inkscape:vp_y="0 : 1000 : 0"
       inkscape:vp_x="0 : 0.5 : 1"
       sodipodi:type="inkscape:persp3d" /><inkscape:perspective
       id="perspective6827"
       inkscape:persp3d-origin="0.5 : 0.33333333 : 1"
       inkscape:vp_z="1 : 0.5 : 1"
       inkscape:vp_y="0 : 1000 : 0"
       inkscape:vp_x="0 : 0.5 : 1"
       sodipodi:type="inkscape:persp3d" /><inkscape:perspective
       id="perspective6863"
       inkscape:persp3d-origin="0.5 : 0.33333333 : 1"
       inkscape:vp_z="1 : 0.5 : 1"
       inkscape:vp_y="0 : 1000 : 0"
       inkscape:vp_x="0 : 0.5 : 1"
       sodipodi:type="inkscape:persp3d" /><inkscape:perspective
       id="perspective6899"
       inkscape:persp3d-origin="0.5 : 0.33333333 : 1"
       inkscape:vp_z="1 : 0.5 : 1"
       inkscape:vp_y="0 : 1000 : 0"
       inkscape:vp_x="0 : 0.5 : 1"
       sodipodi:type="inkscape:persp3d" /><inkscape:perspective
       id="perspective6973"
       inkscape:persp3d-origin="0.5 : 0.33333333 : 1"
       inkscape:vp_z="1 : 0.5 : 1"
       inkscape:vp_y="0 : 1000 : 0"
       inkscape:vp_x="0 : 0.5 : 1"
       sodipodi:type="inkscape:persp3d" /><inkscape:perspective
       id="perspective7299"
       inkscape:persp3d-origin="0.5 : 0.33333333 : 1"
       inkscape:vp_z="1 : 0.5 : 1"
       inkscape:vp_y="0 : 1000 : 0"
       inkscape:vp_x="0 : 0.5 : 1"
       sodipodi:type="inkscape:persp3d" /></defs><sodipodi:namedview
     pagecolor="#ffffff"
     bordercolor="#666666"
     borderopacity="1"
     objecttolerance="10"
     gridtolerance="10"
     guidetolerance="10"
     inkscape:pageopacity="0"
     inkscape:pageshadow="2"
     inkscape:window-width="1440"
     inkscape:window-height="825"
     id="namedview2881"
     showgrid="false"
     inkscape:zoom="1.3875925"
     inkscape:cx="184.99082"
     inkscape:cy="82.119059"
     inkscape:window-x="0"
     inkscape:window-y="25"
     inkscape:window-maximized="1"
     inkscape:current-layer="g2889" /><g
     id="g2889"
     inkscape:groupmode="layer"
     inkscape:label="aula14"
     transform="matrix(1.25,0,0,-1.25,-5.7562364,265.37863)"><g
   transform="translate(-381.60855,193.04222)"
   id="g5124"><g
   id="g12"
   inkscape:label="aula11"
   transform="translate(486.55701,-361.41493)"><g
   id="g7377"><path
     inkscape:connector-curvature="0"
     sodipodi:nodetypes="cc"
     id="path6574"
     d="m 416.38837,-42.29836 -13.53548,0"
     style="fill:none;stroke:#000000;stroke-width:0.56;stroke-linecap:butt;stroke-miterlimit:4;stroke-opacity:1;stroke-dasharray:none;stroke-dashoffset:0"
     transform="translate(-486.55701,361.41493)" /><g
     transform="translate(-338.25735,268.91062)"
     id="g6648"><path
       style="fill:#afc6e9;fill-opacity:1;fill-rule:nonzero;stroke:#000000;stroke-width:0.56;stroke-miterlimit:4;stroke-dasharray:none"
       d="m 273.82557,72.494399 -6.4,-6.4 73.475,-33.3 6.4,6.4 0,33.3 -73.475,0 z"
       id="path5698"
       inkscape:connector-curvature="0"
       sodipodi:nodetypes="cccccc" /><path
       sodipodi:nodetypes="ccccc"
       d="m 267.42309,66.092881 73.46683,0 0,-33.295 -73.46683,0 0,33.295 z"
       style="fill:#afc6e9;fill-opacity:1;fill-rule:nonzero;stroke:#000000;stroke-width:0.56;stroke-miterlimit:4;stroke-dasharray:none"
       id="path5678"
       inkscape:connector-curvature="0" /><path
       sodipodi:nodetypes="cc"
       style="fill:none;stroke:#000000;stroke-width:0.56;stroke-linecap:butt;stroke-linejoin:miter;stroke-miterlimit:4;stroke-opacity:1;stroke-dasharray:none"
       d="m 340.86177,66.079087 6.43643,6.41772"
       id="path6482"
       inkscape:connector-curvature="0" /></g></g><text
   xml:space="preserve"
   style="font-size:10.90909958px;font-style:oblique;font-variant:normal;font-weight:bold;font-stretch:normal;text-align:center;line-height:125%;letter-spacing:0px;word-spacing:0px;text-anchor:middle;fill:#000000;fill-opacity:1;stroke:none;font-family:LMSans10;-inkscape-font-specification:LMSans10 Bold Oblique"
   x="-34.133121"
   y="-315.4472"
   id="text6484"
   sodipodi:linespacing="125%"
   transform="scale(1,-1)"><tspan
     sodipodi:role="line"
     x="-34.133121"
     y="-315.4472"
     style="font-size:9.60000038px;font-style:normal;font-weight:normal;text-align:center;text-anchor:middle;-inkscape-font-specification:LMSans10 Oblique"
     id="tspan6488"
     dy="0 0 0">Reg. 3 bits</tspan></text>

<g
   transform="matrix(0,-1,1,0,225.77723,342.19877)"
   id="g34720" /><g
   transform="matrix(0.44360344,0,0,-0.44360344,-334.13047,573.93834)"
   id="g2867"><path
     style="color:#000000;fill:none;stroke:#000000;stroke-width:1.50000012;stroke-linecap:butt;stroke-linejoin:miter;stroke-miterlimit:4;stroke-opacity:1;stroke-dasharray:none;stroke-dashoffset:0;marker:none;visibility:visible;display:inline;overflow:visible;enable-background:accumulate"
     d="m 29.107143,39.349997 7.321428,0 0,12.142857 8.392858,0"
     id="path2861"
     transform="translate(568.38668,529.11612)" /><path
     style="color:#000000;fill:none;stroke:#000000;stroke-width:1.50000012;stroke-linecap:butt;stroke-linejoin:miter;stroke-miterlimit:4;stroke-opacity:1;stroke-dasharray:none;stroke-dashoffset:0;marker:none;visibility:visible;display:inline;overflow:visible;enable-background:accumulate"
     d="m 604.88222,575.45272 3.125,-3.125"
     id="path2863" /><path
     style="color:#000000;fill:none;stroke:#000000;stroke-width:1.50000012;stroke-linecap:butt;stroke-linejoin:miter;stroke-miterlimit:4;stroke-opacity:1;stroke-dasharray:none;stroke-dashoffset:0;marker:none;visibility:visible;display:inline;overflow:visible;enable-background:accumulate"
     d="m 604.83757,575.38576 -2.85714,-2.85714"
     id="path2865" /></g></g><text
   transform="scale(1,-1)"
   sodipodi:linespacing="125%"
   id="text5008"
   y="57.265766"
   x="450.93753"
   style="font-size:10.90909958px;font-style:normal;font-variant:normal;font-weight:normal;font-stretch:normal;text-align:center;line-height:125%;letter-spacing:0px;word-spacing:0px;text-anchor:middle;fill:#000000;fill-opacity:1;stroke:none;font-family:LM Sans 10;-inkscape-font-specification:LM Sans 10"
   xml:space="preserve"><tspan
     style="font-size:7.19999981px;font-style:italic;text-align:center;text-anchor:middle;-inkscape-font-specification:Andale Mono Italic"
     y="57.265766"
     x="450.93753"
     id="tspan5010"
     sodipodi:role="line">Saída</tspan></text>

<text
   xml:space="preserve"
   style="font-size:10.90909958px;font-style:normal;font-variant:normal;font-weight:normal;font-stretch:normal;text-align:center;line-height:125%;letter-spacing:0px;word-spacing:0px;text-anchor:middle;fill:#000000;fill-opacity:1;stroke:none;font-family:LM Sans 10;-inkscape-font-specification:LM Sans 10"
   x="450.93753"
   y="34.246731"
   id="text5023"
   sodipodi:linespacing="125%"
   transform="scale(1,-1)"><tspan
     sodipodi:role="line"
     id="tspan5025"
     x="450.93753"
     y="34.246731"
     style="font-size:7.19999981px;font-style:italic;text-align:center;text-anchor:middle;-inkscape-font-specification:Andale Mono Italic">Entrada</tspan></text>

</g><g
   id="g6481"
   transform="matrix(0.8,0,0,-0.8,-17.915524,216.57117)"><path
     sodipodi:nodetypes="czscs"
     d="m 233.55352,99.007264 c 8e-4,0.0245 -1.46577,-7.33595 -15.6221,-7.33595 -14.29571,0 -15.62217,7.33649 -15.62211,7.33595 1.43192,-11.85083 -0.59597,-19.56897 15.62211,-27.72518 14.34001,6.08165 15.02068,14.05749 15.6221,27.72518 z"
     style="fill:#ffffff;fill-opacity:1;fill-rule:evenodd;stroke:#000000;stroke-width:1;stroke-linecap:butt;stroke-linejoin:round;stroke-miterlimit:4;stroke-opacity:1;stroke-dasharray:none;stroke-dashoffset:0"
     id="path3353-1" /><path
     sodipodi:nodetypes="czs"
     d="m 233.17709,106.29159 c 8e-4,0.0269 -1.43045,-8.035226 -15.24567,-8.035226 -13.95124,0 -15.24575,8.035816 -15.24569,8.035226"
     style="fill:none;stroke:#000000;stroke-width:1;stroke-linecap:round;stroke-linejoin:round;stroke-miterlimit:4;stroke-opacity:1;stroke-dasharray:none;stroke-dashoffset:0"
     id="path1315" /><path
     sodipodi:type="arc"
     style="fill:#ffffff;fill-opacity:1;stroke:#000000;stroke-width:1.25;stroke-linecap:butt;stroke-miterlimit:4;stroke-opacity:1;stroke-dasharray:none;stroke-dashoffset:0"
     id="path3057"
     sodipodi:cx="82.199997"
     sodipodi:cy="24.4"
     sodipodi:rx="3"
     sodipodi:ry="3"
     d="m 85.199997,24.4 c 0,1.656854 -1.343146,3 -3,3 -1.656854,0 -3,-1.343146 -3,-3 0,-1.656855 1.343146,-3 3,-3 1.656854,0 3,1.343145 3,3 z"
     transform="matrix(0,-0.8,-0.8,0,237.34314,134.42053)" /></g><path
   sodipodi:nodetypes="ccc"
   style="fill:none;stroke:#000000;stroke-width:0.80000007;stroke-linecap:round;stroke-linejoin:miter;stroke-miterlimit:4;stroke-opacity:1;stroke-dasharray:none"
   d="m 89.676879,83.980799 155.124171,5e-5 0,26.426201"
   id="path3349-0" /><path
   id="path6643"
   d="m 89.676879,71.180799 138.104981,5e-5 0,38.649661"
   style="fill:none;stroke:#000000;stroke-width:0.80000007;stroke-linecap:round;stroke-linejoin:miter;stroke-miterlimit:4;stroke-opacity:1;stroke-dasharray:none"
   sodipodi:nodetypes="ccc" /><path
   sodipodi:nodetypes="ccc"
   style="fill:none;stroke:#000000;stroke-width:0.80000007;stroke-linecap:round;stroke-linejoin:miter;stroke-miterlimit:4;stroke-opacity:1;stroke-dasharray:none"
   d="m 89.676879,45.580799 166.293471,5e-5 0,64.826201"
   id="path6655" /><path
   id="path6657"
   d="m 99.2768,45.580799 0,12.8 100.72425,5e-5 0,51.449661"
   style="fill:none;stroke:#000000;stroke-width:0.80000007;stroke-linecap:round;stroke-linejoin:miter;stroke-miterlimit:4;stroke-opacity:1;stroke-dasharray:none"
   sodipodi:nodetypes="ccc" /><path
   sodipodi:nodetypes="cccc"
   style="fill:none;stroke:#000000;stroke-width:0.80000007;stroke-linecap:round;stroke-linejoin:miter;stroke-miterlimit:4;stroke-opacity:1;stroke-dasharray:none"
   d="m 99.2768,83.980799 0,12.8 117.13193,5e-5 0,13.337931"
   id="path6659" /><g
   transform="matrix(0.64,0,0,-0.64,-81.568272,464.36331)"
   id="g3846"><path
     inkscape:connector-curvature="0"
     style="fill:#ffffff;fill-opacity:1;stroke:#000000;stroke-width:1.24999988"
     d="m 321.17374,565.50846 21.5,10.08504 -21.5,10.08505 0,-20.17009 z"
     id="rect3093-8"
     sodipodi:nodetypes="cccc" /><path
     sodipodi:type="arc"
     style="fill:#ffffff;fill-opacity:1;stroke:#000000;stroke-width:1.25;stroke-linecap:round;stroke-miterlimit:4;stroke-opacity:1;stroke-dasharray:none;stroke-dashoffset:0"
     id="path3680"
     sodipodi:cx="76.311485"
     sodipodi:cy="24.157364"
     sodipodi:rx="3.4397497"
     sodipodi:ry="3.4397497"
     d="m 79.751235,24.157364 c 0,1.899721 -1.540028,3.43975 -3.43975,3.43975 -1.899721,0 -3.439749,-1.540029 -3.439749,-3.43975 0,-1.899721 1.540028,-3.43975 3.439749,-3.43975 1.899722,0 3.43975,1.540029 3.43975,3.43975 z"
     transform="translate(269.37601,551.43637)" /></g><g
   id="g6847"
   transform="matrix(0.64,0,0,-0.64,-81.568272,425.96331)"><path
     sodipodi:nodetypes="cccc"
     id="path6849"
     d="m 321.17374,565.50846 21.5,10.08504 -21.5,10.08505 0,-20.17009 z"
     style="fill:#ffffff;fill-opacity:1;stroke:#000000;stroke-width:1.24999988"
     inkscape:connector-curvature="0" /><path
     transform="translate(269.37601,551.43637)"
     d="m 79.751235,24.157364 c 0,1.899721 -1.540028,3.43975 -3.43975,3.43975 -1.899721,0 -3.439749,-1.540029 -3.439749,-3.43975 0,-1.899721 1.540028,-3.43975 3.439749,-3.43975 1.899722,0 3.43975,1.540029 3.43975,3.43975 z"
     sodipodi:ry="3.4397497"
     sodipodi:rx="3.4397497"
     sodipodi:cy="24.157364"
     sodipodi:cx="76.311485"
     id="path6851"
     style="fill:#ffffff;fill-opacity:1;stroke:#000000;stroke-width:1.25;stroke-linecap:round;stroke-miterlimit:4;stroke-opacity:1;stroke-dasharray:none;stroke-dashoffset:0"
     sodipodi:type="arc" /></g><path
   style="color:#000000;fill:none;stroke:#000000;stroke-width:1.00000012;stroke-linecap:round;stroke-linejoin:miter;stroke-miterlimit:4;stroke-opacity:1;stroke-dasharray:none;stroke-dashoffset:0;marker:none;visibility:visible;display:inline;overflow:visible;enable-background:accumulate"
   d="m 234.93929,234.93929 0,-32.43027"
   id="path6853"
   transform="matrix(0.8,0,0,-0.8,0,272.126)" /><path
   style="color:#000000;fill:none;stroke:#000000;stroke-width:1.00000012;stroke-linecap:round;stroke-linejoin:miter;stroke-miterlimit:4;stroke-opacity:1;stroke-dasharray:none;stroke-dashoffset:0;marker:none;visibility:visible;display:inline;overflow:visible;enable-background:accumulate"
   d="m 186.76566,251.2336 0,-82.29919"
   id="path6913"
   transform="matrix(0.8,0,0,-0.8,0,272.126)" /><path
   style="color:#000000;fill:none;stroke:#000000;stroke-width:1.00000012;stroke-linecap:round;stroke-linejoin:miter;stroke-miterlimit:4;stroke-opacity:1;stroke-dasharray:none;stroke-dashoffset:0;marker:none;visibility:visible;display:inline;overflow:visible;enable-background:accumulate"
   d="m 202.30824,282.57354 0,-114.14872"
   id="path6915"
   transform="matrix(0.8,0,0,-0.8,0,272.126)" /><path
   style="color:#000000;fill:none;stroke:#000000;stroke-width:1.00000012;stroke-linecap:round;stroke-linejoin:miter;stroke-miterlimit:4;stroke-opacity:1;stroke-dasharray:none;stroke-dashoffset:0;marker:none;visibility:visible;display:inline;overflow:visible;enable-background:accumulate"
   d="m 242.82084,179.38106 0,-24.71524"
   id="path6930"
   transform="matrix(0.8,0,0,-0.8,0,272.126)" /><path
   style="color:#000000;fill:none;stroke:#000000;stroke-width:1.00000012;stroke-linecap:round;stroke-linejoin:miter;stroke-miterlimit:4;stroke-opacity:1;stroke-dasharray:none;stroke-dashoffset:0;marker:none;visibility:visible;display:inline;overflow:visible;enable-background:accumulate"
   d="m 277.34199,179.84693 10e-6,-16.26343 -19.23338,1.9e-4 0,-9.42746"
   id="path6932"
   transform="matrix(0.8,0,0,-0.8,0,272.126)"
   sodipodi:nodetypes="cccc" /><path
   style="color:#000000;fill:none;stroke:#000000;stroke-width:1.00000012;stroke-linecap:round;stroke-linejoin:miter;stroke-miterlimit:4;stroke-opacity:1;stroke-dasharray:none;stroke-dashoffset:0;marker:none;visibility:visible;display:inline;overflow:visible;enable-background:accumulate"
   d="m 277.342,163.5835 21.27922,0 0,-9.68207"
   id="path6934"
   transform="matrix(0.8,0,0,-0.8,0,272.126)"
   sodipodi:nodetypes="ccc" /><path
   style="color:#000000;fill:none;stroke:#000000;stroke-width:0.80000007;stroke-linecap:round;stroke-linejoin:miter;stroke-miterlimit:4;stroke-opacity:1;stroke-dasharray:none;stroke-dashoffset:0;marker:none;visibility:visible;display:inline;overflow:visible;enable-background:accumulate"
   d="m 250.26239,128.00964 0,20.17986"
   id="path6936" /><path
   style="color:#000000;fill:none;stroke:#000000;stroke-width:1.00000012;stroke-linecap:round;stroke-linejoin:miter;stroke-miterlimit:4;stroke-opacity:1;stroke-dasharray:none;stroke-dashoffset:0;marker:none;visibility:visible;display:inline;overflow:visible;enable-background:accumulate"
   d="m 195.68353,135.3013 0,-43.060567 -91.95687,0 0,34.906767"
   id="path6938"
   transform="matrix(0.8,0,0,-0.8,0,272.126)"
   sodipodi:nodetypes="cccc" /><path
   style="color:#000000;fill:none;stroke:#000000;stroke-width:1.00000012;stroke-linecap:round;stroke-linejoin:miter;stroke-miterlimit:4;stroke-opacity:1;stroke-dasharray:none;stroke-dashoffset:0;marker:none;visibility:visible;display:inline;overflow:visible;enable-background:accumulate"
   d="m 250.66035,134.13552 0,-50.303063 -162.832378,0 0,43.315043"
   id="path6940"
   transform="matrix(0.8,0,0,-0.8,0,272.126)"
   sodipodi:nodetypes="cccc" /><path
   style="color:#000000;fill:none;stroke:#000000;stroke-width:1.00000012;stroke-linecap:round;stroke-linejoin:miter;stroke-miterlimit:4;stroke-opacity:1;stroke-dasharray:none;stroke-dashoffset:0;marker:none;visibility:visible;display:inline;overflow:visible;enable-background:accumulate"
   d="m 305.87387,133.26293 0,-57.074361 -234.199379,0 0,50.958931"
   id="path6942"
   transform="matrix(0.8,0,0,-0.8,0,272.126)"
   sodipodi:nodetypes="cccc" /><path
   id="path6928"
   style="fill:#ffffff;fill-opacity:1;fill-rule:evenodd;stroke:#000000;stroke-width:0.80000001;stroke-linecap:butt;stroke-linejoin:round;stroke-miterlimit:4;stroke-opacity:1;stroke-dasharray:none;stroke-dashoffset:0"
   d="m 257.17955,143.48047 c 6.4e-4,-0.0196 -1.17262,5.86876 -12.49768,5.86876 -11.43657,0 -12.49774,-5.86919 -12.49769,-5.86876 1.14554,9.48066 -0.47677,15.65517 12.49769,22.18014 11.47201,-4.86532 12.01655,-11.24599 12.49768,-22.18014 z"
   sodipodi:nodetypes="czscs" /><path
   sodipodi:nodetypes="czscs"
   d="m 212.95609,143.48047 c 6.4e-4,-0.0196 -1.17262,5.86876 -12.49768,5.86876 -11.43657,0 -12.49774,-5.86919 -12.49769,-5.86876 1.14554,9.48066 -0.47677,15.65517 12.49769,22.18014 11.47201,-4.86532 12.01655,-11.24599 12.49768,-22.18014 z"
   style="fill:#ffffff;fill-opacity:1;fill-rule:evenodd;stroke:#000000;stroke-width:0.80000001;stroke-linecap:butt;stroke-linejoin:round;stroke-miterlimit:4;stroke-opacity:1;stroke-dasharray:none;stroke-dashoffset:0"
   id="path6919" /><path
   sodipodi:nodetypes="ccsccc"
   id="path3059"
   d="m 183.66143,110.16368 0,7.52154 c 0.2179,6.76085 6.73516,10.57718 10.45942,10.57718 3.62877,0 10.15436,-3.81633 10.45942,-10.57718 l 0,-7.52154 -20.91884,0 z"
   style="fill:#ffffff;fill-opacity:1;stroke:#000000;stroke-width:0.80000001"
   inkscape:connector-curvature="0" /><path
   inkscape:connector-curvature="0"
   style="fill:#ffffff;fill-opacity:1;stroke:#000000;stroke-width:0.80000001"
   d="m 211.64608,110.16368 0,7.52154 c 0.2179,6.76085 6.73516,10.57718 10.45942,10.57718 3.62877,0 10.15436,-3.81633 10.45942,-10.57718 l 0,-7.52154 -20.91884,0 z"
   id="path6887"
   sodipodi:nodetypes="ccsccc" /><path
   sodipodi:nodetypes="ccsccc"
   id="path6889"
   d="m 239.66143,110.16368 0,7.52154 c 0.2179,6.76085 6.73516,10.57718 10.45942,10.57718 3.62877,0 10.15436,-3.81633 10.45942,-10.57718 l 0,-7.52154 -20.91884,0 z"
   style="fill:#ffffff;fill-opacity:1;stroke:#000000;stroke-width:0.80000001"
   inkscape:connector-curvature="0" /><path
   sodipodi:type="arc"
   style="fill:#000000;fill-opacity:1;stroke:#000000;stroke-width:2;stroke-linecap:butt;stroke-miterlimit:4;stroke-opacity:1;stroke-dasharray:none;stroke-dashoffset:0"
   id="path9842"
   sodipodi:cx="3.6665804"
   sodipodi:cy="44.582287"
   sodipodi:rx="1.2317001"
   sodipodi:ry="1.2317001"
   d="m 4.8982805,44.582287 c 0,0.680249 -0.5514509,1.2317 -1.2317001,1.2317 -0.6802491,0 -1.2317,-0.551451 -1.2317,-1.2317 0,-0.680249 0.5514509,-1.2317 1.2317,-1.2317 0.6802492,0 1.2317001,0.551451 1.2317001,1.2317 z"
   transform="matrix(0.8,0,0,-0.8,96.335362,119.64668)" /><path
   transform="matrix(0.8,0,0,-0.8,146.41426,106.60111)"
   d="m 4.8982805,44.582287 c 0,0.680249 -0.5514509,1.2317 -1.2317001,1.2317 -0.6802491,0 -1.2317,-0.551451 -1.2317,-1.2317 0,-0.680249 0.5514509,-1.2317 1.2317,-1.2317 0.6802492,0 1.2317001,0.551451 1.2317001,1.2317 z"
   sodipodi:ry="1.2317001"
   sodipodi:rx="1.2317001"
   sodipodi:cy="44.582287"
   sodipodi:cx="3.6665804"
   id="path6987"
   style="fill:#000000;fill-opacity:1;stroke:#000000;stroke-width:2;stroke-linecap:butt;stroke-miterlimit:4;stroke-opacity:1;stroke-dasharray:none;stroke-dashoffset:0"
   sodipodi:type="arc" /><path
   sodipodi:type="arc"
   style="fill:#000000;fill-opacity:1;stroke:#000000;stroke-width:2;stroke-linecap:butt;stroke-miterlimit:4;stroke-opacity:1;stroke-dasharray:none;stroke-dashoffset:0"
   id="path6989"
   sodipodi:cx="3.6665804"
   sodipodi:cy="44.582287"
   sodipodi:rx="1.2317001"
   sodipodi:ry="1.2317001"
   d="m 4.8982805,44.582287 c 0,0.680249 -0.5514509,1.2317 -1.2317001,1.2317 -0.6802491,0 -1.2317,-0.551451 -1.2317,-1.2317 0,-0.680249 0.5514509,-1.2317 1.2317,-1.2317 0.6802492,0 1.2317001,0.551451 1.2317001,1.2317 z"
   transform="matrix(0.8,0,0,-0.8,158.84832,81.121483)" /><path
   transform="matrix(0.8,0,0,-0.8,184.93668,119.46127)"
   d="m 4.8982805,44.582287 c 0,0.680249 -0.5514509,1.2317 -1.2317001,1.2317 -0.6802491,0 -1.2317,-0.551451 -1.2317,-1.2317 0,-0.680249 0.5514509,-1.2317 1.2317,-1.2317 0.6802492,0 1.2317001,0.551451 1.2317001,1.2317 z"
   sodipodi:ry="1.2317001"
   sodipodi:rx="1.2317001"
   sodipodi:cy="44.582287"
   sodipodi:cx="3.6665804"
   id="path6991"
   style="fill:#000000;fill-opacity:1;stroke:#000000;stroke-width:2;stroke-linecap:butt;stroke-miterlimit:4;stroke-opacity:1;stroke-dasharray:none;stroke-dashoffset:0"
   sodipodi:type="arc" /><path
   sodipodi:nodetypes="cc"
   style="fill:none;stroke:#000000;stroke-width:0.80000007;stroke-linecap:round;stroke-linejoin:miter;stroke-miterlimit:4;stroke-opacity:1;stroke-dasharray:none"
   d="m 246.00576,58.380799 -46.00471,5e-5"
   id="path6993" /><path
   sodipodi:type="arc"
   style="fill:#000000;fill-opacity:1;stroke:#000000;stroke-width:2;stroke-linecap:butt;stroke-miterlimit:4;stroke-opacity:1;stroke-dasharray:none;stroke-dashoffset:0"
   id="path6995"
   sodipodi:cx="3.6665804"
   sodipodi:cy="44.582287"
   sodipodi:rx="1.2317001"
   sodipodi:ry="1.2317001"
   d="m 4.8982805,44.582287 c 0,0.680249 -0.5514509,1.2317 -1.2317001,1.2317 -0.6802491,0 -1.2317,-0.551451 -1.2317,-1.2317 0,-0.680249 0.5514509,-1.2317 1.2317,-1.2317 0.6802492,0 1.2317001,0.551451 1.2317001,1.2317 z"
   transform="matrix(0.8,0,0,-0.8,197.12841,93.819809)" /><path
   id="path6997"
   d="m 246.00576,71.180799 -18.18674,5e-5"
   style="fill:none;stroke:#000000;stroke-width:0.80000007;stroke-linecap:round;stroke-linejoin:miter;stroke-miterlimit:4;stroke-opacity:1;stroke-dasharray:none"
   sodipodi:nodetypes="cc" /><path
   transform="matrix(0.8,0,0,-0.8,224.85024,106.66154)"
   d="m 4.8982805,44.582287 c 0,0.680249 -0.5514509,1.2317 -1.2317001,1.2317 -0.6802491,0 -1.2317,-0.551451 -1.2317,-1.2317 0,-0.680249 0.5514509,-1.2317 1.2317,-1.2317 0.6802492,0 1.2317001,0.551451 1.2317001,1.2317 z"
   sodipodi:ry="1.2317001"
   sodipodi:rx="1.2317001"
   sodipodi:cy="44.582287"
   sodipodi:cx="3.6665804"
   id="path6999"
   style="fill:#000000;fill-opacity:1;stroke:#000000;stroke-width:2;stroke-linecap:butt;stroke-miterlimit:4;stroke-opacity:1;stroke-dasharray:none;stroke-dashoffset:0"
   sodipodi:type="arc" /><path
   sodipodi:type="arc"
   style="fill:#000000;fill-opacity:1;stroke:#000000;stroke-width:2;stroke-linecap:butt;stroke-miterlimit:4;stroke-opacity:1;stroke-dasharray:none;stroke-dashoffset:0"
   id="path7003"
   sodipodi:cx="3.6665804"
   sodipodi:cy="44.582287"
   sodipodi:rx="1.2317001"
   sodipodi:ry="1.2317001"
   d="m 4.8982805,44.582287 c 0,0.680249 -0.5514509,1.2317 -1.2317001,1.2317 -0.6802491,0 -1.2317,-0.551451 -1.2317,-1.2317 0,-0.680249 0.5514509,-1.2317 1.2317,-1.2317 0.6802492,0 1.2317001,0.551451 1.2317001,1.2317 z"
   transform="matrix(0.8,0,0,-0.8,213.60775,132.52133)" /><path
   transform="matrix(0.8,0,0,-0.8,219.00943,176.90684)"
   d="m 4.8982805,44.582287 c 0,0.680249 -0.5514509,1.2317 -1.2317001,1.2317 -0.6802491,0 -1.2317,-0.551451 -1.2317,-1.2317 0,-0.680249 0.5514509,-1.2317 1.2317,-1.2317 0.6802492,0 1.2317001,0.551451 1.2317001,1.2317 z"
   sodipodi:ry="1.2317001"
   sodipodi:rx="1.2317001"
   sodipodi:cy="44.582287"
   sodipodi:cx="3.6665804"
   id="path7005"
   style="fill:#000000;fill-opacity:1;stroke:#000000;stroke-width:2;stroke-linecap:butt;stroke-miterlimit:4;stroke-opacity:1;stroke-dasharray:none;stroke-dashoffset:0"
   sodipodi:type="arc" /><path
   transform="matrix(0.8,0,0,-0.8,96.335362,81.24668)"
   d="m 4.8982805,44.582287 c 0,0.680249 -0.5514509,1.2317 -1.2317001,1.2317 -0.6802491,0 -1.2317,-0.551451 -1.2317,-1.2317 0,-0.680249 0.5514509,-1.2317 1.2317,-1.2317 0.6802492,0 1.2317001,0.551451 1.2317001,1.2317 z"
   sodipodi:ry="1.2317001"
   sodipodi:rx="1.2317001"
   sodipodi:cy="44.582287"
   sodipodi:cx="3.6665804"
   id="path7007"
   style="fill:#000000;fill-opacity:1;stroke:#000000;stroke-width:2;stroke-linecap:butt;stroke-miterlimit:4;stroke-opacity:1;stroke-dasharray:none;stroke-dashoffset:0"
   sodipodi:type="arc" /><g
   transform="translate(247.81963,147.57751)"
   id="g7009"><text
   style="font-size:12px"
   id="text7011"
   x="-107.8304"
   y="-26.06274"
   transform="scale(1,-1)"><tspan
     id="tspan7013"
     y="-26.06274"
     x="-107.8304"
     style="font-size:10.90909958px;font-style:oblique;font-variant:normal;writing-mode:lr-tb;fill:#000000;fill-opacity:1;fill-rule:nonzero;stroke:none;font-family:LMSans10;-inkscape-font-specification:LMSans10-Oblique">A</tspan></text>

<text
   style="font-size:12px"
   id="text7015"
   x="-100.14238"
   y="-24.426739"
   transform="scale(1,-1)"><tspan
     id="tspan7017"
     y="-24.426739"
     x="-100.14238"
     style="font-size:7.97009945px;font-style:normal;font-variant:normal;font-weight:normal;writing-mode:lr-tb;fill:#000000;fill-opacity:1;fill-rule:nonzero;stroke:none;font-family:LMSans8;-inkscape-font-specification:LMSans8-Regular">0</tspan></text>

</g><g
   id="g7019"
   transform="translate(292.61963,147.57751)"><text
   transform="scale(1,-1)"
   y="-26.06274"
   x="-107.8304"
   id="text7021"
   style="font-size:12px"><tspan
     style="font-size:10.90909958px;font-style:oblique;font-variant:normal;writing-mode:lr-tb;fill:#000000;fill-opacity:1;fill-rule:nonzero;stroke:none;font-family:LMSans10;-inkscape-font-specification:LMSans10-Oblique"
     x="-107.8304"
     y="-26.06274"
     id="tspan7023">A</tspan></text>

<text
   transform="scale(1,-1)"
   y="-24.426739"
   x="-100.14238"
   id="text7025"
   style="font-size:12px"><tspan
     style="font-size:7.97009945px;font-style:normal;font-variant:normal;font-weight:normal;writing-mode:lr-tb;fill:#000000;fill-opacity:1;fill-rule:nonzero;stroke:none;font-family:LMSans8;-inkscape-font-specification:LMSans8-Regular"
     x="-100.14238"
     y="-24.426739"
     id="tspan7027">1</tspan></text>

</g><g
   transform="translate(337.41963,147.57751)"
   id="g7029"><text
   style="font-size:12px"
   id="text7031"
   x="-107.8304"
   y="-26.06274"
   transform="scale(1,-1)"><tspan
     id="tspan7033"
     y="-26.06274"
     x="-107.8304"
     style="font-size:10.90909958px;font-style:oblique;font-variant:normal;writing-mode:lr-tb;fill:#000000;fill-opacity:1;fill-rule:nonzero;stroke:none;font-family:LMSans10;-inkscape-font-specification:LMSans10-Oblique">A</tspan></text>

<text
   style="font-size:12px"
   id="text7035"
   x="-100.14238"
   y="-24.426739"
   transform="scale(1,-1)"><tspan
     id="tspan7037"
     y="-24.426739"
     x="-100.14238"
     style="font-size:7.97009945px;font-style:normal;font-variant:normal;font-weight:normal;writing-mode:lr-tb;fill:#000000;fill-opacity:1;fill-rule:nonzero;stroke:none;font-family:LMSans8;-inkscape-font-specification:LMSans8-Regular">2</tspan></text>

</g><path
   sodipodi:nodetypes="cc"
   id="path7384"
   d="m 82.981328,133.22294 0,-49.242141 10.807227,0"
   style="color:#000000;fill:none;stroke:#000000;stroke-width:0.80000007;stroke-linecap:round;stroke-linejoin:miter;stroke-miterlimit:4;stroke-opacity:1;stroke-dasharray:none;stroke-dashoffset:0;marker:none;visibility:visible;display:inline;overflow:visible;enable-background:accumulate" /><path
   style="color:#000000;fill:none;stroke:#000000;stroke-width:0.80000007;stroke-linecap:round;stroke-linejoin:miter;stroke-miterlimit:4;stroke-opacity:1;stroke-dasharray:none;stroke-dashoffset:0;marker:none;visibility:visible;display:inline;overflow:visible;enable-background:accumulate"
   d="m 70.181328,133.22294 0,-62.042141 20.983765,0"
   id="path7386"
   sodipodi:nodetypes="cc" /><path
   sodipodi:nodetypes="ccc"
   id="path7388"
   d="m 57.381328,133.22294 0,-87.642141 33.567563,0"
   style="color:#000000;fill:none;stroke:#000000;stroke-width:0.80000007;stroke-linecap:round;stroke-linejoin:miter;stroke-miterlimit:4;stroke-opacity:1;stroke-dasharray:none;stroke-dashoffset:0;marker:none;visibility:visible;display:inline;overflow:visible;enable-background:accumulate" /><text
   xml:space="preserve"
   style="font-size:10.90880013px;font-style:normal;font-variant:normal;font-weight:normal;font-stretch:normal;text-align:center;text-anchor:middle;fill:#000000;fill-opacity:1;stroke:none;font-family:LMSans10;-inkscape-font-specification:LMSans10"
   x="9.2246103"
   y="-148.1703"
   id="text7392"
   transform="scale(1,-1)"><tspan
     sodipodi:role="line"
     id="tspan7394"
     x="9.2246103"
     y="-148.1703"
     style="font-style:italic">Ck</tspan></text>

<path
   style="color:#000000;fill:none;stroke:#000000;stroke-width:0.80000007;stroke-linecap:round;stroke-linejoin:miter;stroke-miterlimit:4;stroke-opacity:1;stroke-dasharray:none;stroke-dashoffset:0;marker:none;visibility:visible;display:inline;overflow:visible;enable-background:accumulate"
   d="m 82.981328,35.58501 0,48.395789"
   id="path7396"
   sodipodi:nodetypes="cc" /><path
   transform="matrix(0.8,0,0,-0.8,80.131525,119.64668)"
   d="m 4.8982805,44.582287 c 0,0.680249 -0.5514509,1.2317 -1.2317001,1.2317 -0.6802491,0 -1.2317,-0.551451 -1.2317,-1.2317 0,-0.680249 0.5514509,-1.2317 1.2317,-1.2317 0.6802492,0 1.2317001,0.551451 1.2317001,1.2317 z"
   sodipodi:ry="1.2317001"
   sodipodi:rx="1.2317001"
   sodipodi:cy="44.582287"
   sodipodi:cx="3.6665804"
   id="path7398"
   style="fill:#000000;fill-opacity:1;stroke:#000000;stroke-width:2;stroke-linecap:butt;stroke-miterlimit:4;stroke-opacity:1;stroke-dasharray:none;stroke-dashoffset:0"
   sodipodi:type="arc" /><path
   sodipodi:nodetypes="cc"
   id="path7400"
   d="m 70.181328,35.58501 0,35.595789"
   style="color:#000000;fill:none;stroke:#000000;stroke-width:0.80000007;stroke-linecap:round;stroke-linejoin:miter;stroke-miterlimit:4;stroke-opacity:1;stroke-dasharray:none;stroke-dashoffset:0;marker:none;visibility:visible;display:inline;overflow:visible;enable-background:accumulate" /><path
   sodipodi:type="arc"
   style="fill:#000000;fill-opacity:1;stroke:#000000;stroke-width:2;stroke-linecap:butt;stroke-miterlimit:4;stroke-opacity:1;stroke-dasharray:none;stroke-dashoffset:0"
   id="path7402"
   sodipodi:cx="3.6665804"
   sodipodi:cy="44.582287"
   sodipodi:rx="1.2317001"
   sodipodi:ry="1.2317001"
   d="m 4.8982805,44.582287 c 0,0.680249 -0.5514509,1.2317 -1.2317001,1.2317 -0.6802491,0 -1.2317,-0.551451 -1.2317,-1.2317 0,-0.680249 0.5514509,-1.2317 1.2317,-1.2317 0.6802492,0 1.2317001,0.551451 1.2317001,1.2317 z"
   transform="matrix(0.8,0,0,-0.8,67.331525,106.84668)" /><path
   style="color:#000000;fill:none;stroke:#000000;stroke-width:0.80000007;stroke-linecap:round;stroke-linejoin:miter;stroke-miterlimit:4;stroke-opacity:1;stroke-dasharray:none;stroke-dashoffset:0;marker:none;visibility:visible;display:inline;overflow:visible;enable-background:accumulate"
   d="m 57.381328,35.58501 0,9.995789"
   id="path7404"
   sodipodi:nodetypes="cc" /><path
   transform="matrix(0.8,0,0,-0.8,54.531525,81.24668)"
   d="m 4.8982805,44.582287 c 0,0.680249 -0.5514509,1.2317 -1.2317001,1.2317 -0.6802491,0 -1.2317,-0.551451 -1.2317,-1.2317 0,-0.680249 0.5514509,-1.2317 1.2317,-1.2317 0.6802492,0 1.2317001,0.551451 1.2317001,1.2317 z"
   sodipodi:ry="1.2317001"
   sodipodi:rx="1.2317001"
   sodipodi:cy="44.582287"
   sodipodi:cx="3.6665804"
   id="path7406"
   style="fill:#000000;fill-opacity:1;stroke:#000000;stroke-width:2;stroke-linecap:butt;stroke-miterlimit:4;stroke-opacity:1;stroke-dasharray:none;stroke-dashoffset:0"
   sodipodi:type="arc" /><g
   transform="translate(187.59861,1.643539)"
   id="g7408"><text
   style="font-size:12px"
   id="text7410"
   x="-107.8304"
   y="-26.06274"
   transform="scale(1,-1)"><tspan
     id="tspan7412"
     y="-26.06274"
     x="-107.8304"
     style="font-size:10.90909958px;font-style:oblique;font-variant:normal;writing-mode:lr-tb;fill:#000000;fill-opacity:1;fill-rule:nonzero;stroke:none;font-family:LMSans10;-inkscape-font-specification:LMSans10-Oblique">a</tspan></text>

<text
   style="font-size:12px"
   id="text7414"
   x="-101.97691"
   y="-24.426739"
   transform="scale(1,-1)"><tspan
     id="tspan7416"
     y="-24.426739"
     x="-101.97691"
     style="font-size:7.97009945px;font-style:normal;font-variant:normal;font-weight:normal;writing-mode:lr-tb;fill:#000000;fill-opacity:1;fill-rule:nonzero;stroke:none;font-family:LMSans8;-inkscape-font-specification:LMSans8-Regular">0</tspan></text>

</g><g
   id="g7428"
   transform="translate(172.79467,1.4761669)"><text
   transform="scale(1,-1)"
   y="-26.06274"
   x="-107.8304"
   id="text7430"
   style="font-size:12px"><tspan
     style="font-size:10.90909958px;font-style:oblique;font-variant:normal;writing-mode:lr-tb;fill:#000000;fill-opacity:1;fill-rule:nonzero;stroke:none;font-family:LMSans10;-inkscape-font-specification:LMSans10-Oblique"
     x="-107.8304"
     y="-26.06274"
     id="tspan7432">a</tspan></text>

<text
   transform="scale(1,-1)"
   y="-24.426739"
   x="-101.97691"
   id="text7434"
   style="font-size:12px"><tspan
     style="font-size:7.97009945px;font-style:normal;font-variant:normal;font-weight:normal;writing-mode:lr-tb;fill:#000000;fill-opacity:1;fill-rule:nonzero;stroke:none;font-family:LMSans8;-inkscape-font-specification:LMSans8-Regular"
     x="-101.97691"
     y="-24.426739"
     id="tspan7436">1</tspan></text>

</g><g
   transform="translate(157.30306,1.4761669)"
   id="g7438"><text
   style="font-size:12px"
   id="text7440"
   x="-107.8304"
   y="-26.06274"
   transform="scale(1,-1)"><tspan
     id="tspan7442"
     y="-26.06274"
     x="-107.8304"
     style="font-size:10.90909958px;font-style:oblique;font-variant:normal;writing-mode:lr-tb;fill:#000000;fill-opacity:1;fill-rule:nonzero;stroke:none;font-family:LMSans10;-inkscape-font-specification:LMSans10-Oblique">a</tspan></text>

<text
   style="font-size:12px"
   id="text7444"
   x="-101.97691"
   y="-24.426739"
   transform="scale(1,-1)"><tspan
     id="tspan7446"
     y="-24.426739"
     x="-101.97691"
     style="font-size:7.97009945px;font-style:normal;font-variant:normal;font-weight:normal;writing-mode:lr-tb;fill:#000000;fill-opacity:1;fill-rule:nonzero;stroke:none;font-family:LMSans8;-inkscape-font-specification:LMSans8-Regular">2</tspan></text>

</g></g></svg>