<?xml version="1.0" encoding="UTF-8" standalone="no"?>
<!-- Created with Inkscape (http://www.inkscape.org/) -->

<svg
   xmlns:dc="http://purl.org/dc/elements/1.1/"
   xmlns:cc="http://creativecommons.org/ns#"
   xmlns:rdf="http://www.w3.org/1999/02/22-rdf-syntax-ns#"
   xmlns:svg="http://www.w3.org/2000/svg"
   xmlns="http://www.w3.org/2000/svg"
   xmlns:xlink="http://www.w3.org/1999/xlink"
   xmlns:sodipodi="http://sodipodi.sourceforge.net/DTD/sodipodi-0.dtd"
   xmlns:inkscape="http://www.inkscape.org/namespaces/inkscape"
   id="svg2"
   version="1.1"
   inkscape:version="0.47 r22583"
   width="237.59926"
   height="179"
   xml:space="preserve"
   sodipodi:docname="latchRSnandEnable_circuit.svg"><metadata
     id="metadata8"><rdf:RDF><cc:Work
         rdf:about=""><dc:format>image/svg+xml</dc:format><dc:type
           rdf:resource="http://purl.org/dc/dcmitype/StillImage" /><dc:title></dc:title></cc:Work></rdf:RDF></metadata><defs
     id="defs6"><inkscape:perspective
       sodipodi:type="inkscape:persp3d"
       inkscape:vp_x="0 : 84.907722 : 1"
       inkscape:vp_y="0 : 1000 : 0"
       inkscape:vp_z="237.59926 : 84.907722 : 1"
       inkscape:persp3d-origin="118.79963 : 56.605148 : 1"
       id="perspective88" /><clipPath
       clipPathUnits="userSpaceOnUse"
       id="clipPath106"><path
         d="m 0,0 4.979,0 0,4.979 L 0,4.979 0,0 z"
         id="path108"
         inkscape:connector-curvature="0" /></clipPath><radialGradient
       fx="1.6207401"
       fy="3.5510099"
       cx="2.4893601"
       cy="2.4893601"
       r="2.4893601"
       gradientUnits="userSpaceOnUse"
       id="radialGradient110"><stop
         style="stop-opacity:1;stop-color:#e0e0f4"
         offset="0"
         id="stop112" /><stop
         style="stop-opacity:1;stop-color:#6666c6"
         offset="0.77208"
         id="stop114" /><stop
         style="stop-opacity:1;stop-color:#24247d"
         offset="1.54417"
         id="stop116" /><stop
         style="stop-opacity:1;stop-color:#191959"
         offset="2.12328"
         id="stop118" /><stop
         style="stop-opacity:1;stop-color:#ffffff"
         offset="2.48936"
         id="stop120" /></radialGradient><clipPath
       clipPathUnits="userSpaceOnUse"
       id="clipPath162"><path
         d="m 0,0 4.979,0 0,4.979 L 0,4.979 0,0 z"
         id="path164"
         inkscape:connector-curvature="0" /></clipPath><radialGradient
       fx="1.6207401"
       fy="3.5510099"
       cx="2.4893601"
       cy="2.4893601"
       r="2.4893601"
       gradientUnits="userSpaceOnUse"
       id="radialGradient166"><stop
         style="stop-opacity:1;stop-color:#e0e0f4"
         offset="0"
         id="stop168" /><stop
         style="stop-opacity:1;stop-color:#6666c6"
         offset="0.77208"
         id="stop170" /><stop
         style="stop-opacity:1;stop-color:#24247d"
         offset="1.54417"
         id="stop172" /><stop
         style="stop-opacity:1;stop-color:#191959"
         offset="2.12328"
         id="stop174" /><stop
         style="stop-opacity:1;stop-color:#ffffff"
         offset="2.48936"
         id="stop176" /></radialGradient><clipPath
       clipPathUnits="userSpaceOnUse"
       id="clipPath238"><path
         d="m 0,0 4.979,0 0,4.979 L 0,4.979 0,0 z"
         id="path240"
         inkscape:connector-curvature="0" /></clipPath><radialGradient
       fx="1.6207401"
       fy="3.5510099"
       cx="2.4893601"
       cy="2.4893601"
       r="2.4893601"
       gradientUnits="userSpaceOnUse"
       id="radialGradient242"><stop
         style="stop-opacity:1;stop-color:#e0e0f4"
         offset="0"
         id="stop244" /><stop
         style="stop-opacity:1;stop-color:#6666c6"
         offset="0.77208"
         id="stop246" /><stop
         style="stop-opacity:1;stop-color:#24247d"
         offset="1.54417"
         id="stop248" /><stop
         style="stop-opacity:1;stop-color:#191959"
         offset="2.12328"
         id="stop250" /><stop
         style="stop-opacity:1;stop-color:#ffffff"
         offset="2.48936"
         id="stop252" /></radialGradient><clipPath
       clipPathUnits="userSpaceOnUse"
       id="clipPath314"><path
         d="m 0,0 4.979,0 0,4.979 L 0,4.979 0,0 z"
         id="path316"
         inkscape:connector-curvature="0" /></clipPath><radialGradient
       fx="1.6207401"
       fy="3.5510099"
       cx="2.4893601"
       cy="2.4893601"
       r="2.4893601"
       gradientUnits="userSpaceOnUse"
       id="radialGradient318"><stop
         style="stop-opacity:1;stop-color:#e0e0f4"
         offset="0"
         id="stop320" /><stop
         style="stop-opacity:1;stop-color:#6666c6"
         offset="0.77208"
         id="stop322" /><stop
         style="stop-opacity:1;stop-color:#24247d"
         offset="1.54417"
         id="stop324" /><stop
         style="stop-opacity:1;stop-color:#191959"
         offset="2.12328"
         id="stop326" /><stop
         style="stop-opacity:1;stop-color:#ffffff"
         offset="2.48936"
         id="stop328" /></radialGradient><clipPath
       clipPathUnits="userSpaceOnUse"
       id="clipPath390"><path
         d="m 0,0 4.979,0 0,4.979 L 0,4.979 0,0 z"
         id="path392"
         inkscape:connector-curvature="0" /></clipPath><radialGradient
       fx="1.6207401"
       fy="3.5510099"
       cx="2.4893601"
       cy="2.4893601"
       r="2.4893601"
       gradientUnits="userSpaceOnUse"
       id="radialGradient394"><stop
         style="stop-opacity:1;stop-color:#e0e0f4"
         offset="0"
         id="stop396" /><stop
         style="stop-opacity:1;stop-color:#6666c6"
         offset="0.77208"
         id="stop398" /><stop
         style="stop-opacity:1;stop-color:#24247d"
         offset="1.54417"
         id="stop400" /><stop
         style="stop-opacity:1;stop-color:#191959"
         offset="2.12328"
         id="stop402" /><stop
         style="stop-opacity:1;stop-color:#ffffff"
         offset="2.48936"
         id="stop404" /></radialGradient><radialGradient
       inkscape:collect="always"
       xlink:href="#radialGradient110"
       id="radialGradient5970"
       gradientUnits="userSpaceOnUse"
       gradientTransform="translate(22.224,178.184)"
       cx="2.4893601"
       cy="2.4893601"
       fx="1.6207401"
       fy="3.5510099"
       r="2.4893601" /><radialGradient
       inkscape:collect="always"
       xlink:href="#radialGradient166"
       id="radialGradient5972"
       gradientUnits="userSpaceOnUse"
       gradientTransform="matrix(1.75,0,0,1.75,40.376,138.558)"
       cx="2.4893601"
       cy="2.4893601"
       fx="1.6207401"
       fy="3.5510099"
       r="2.4893601" /><radialGradient
       inkscape:collect="always"
       xlink:href="#radialGradient242"
       id="radialGradient5974"
       gradientUnits="userSpaceOnUse"
       cx="2.4893601"
       cy="2.4893601"
       fx="1.6207401"
       fy="3.5510099"
       r="2.4893601" /><radialGradient
       inkscape:collect="always"
       xlink:href="#radialGradient318"
       id="radialGradient5976"
       gradientUnits="userSpaceOnUse"
       cx="2.4893601"
       cy="2.4893601"
       fx="1.6207401"
       fy="3.5510099"
       r="2.4893601" /><radialGradient
       inkscape:collect="always"
       xlink:href="#radialGradient394"
       id="radialGradient5978"
       gradientUnits="userSpaceOnUse"
       cx="2.4893601"
       cy="2.4893601"
       fx="1.6207401"
       fy="3.5510099"
       r="2.4893601" /></defs><sodipodi:namedview
     pagecolor="#ffffff"
     bordercolor="#666666"
     borderopacity="1"
     objecttolerance="10"
     gridtolerance="10"
     guidetolerance="10"
     inkscape:pageopacity="0"
     inkscape:pageshadow="2"
     inkscape:window-width="1440"
     inkscape:window-height="825"
     id="namedview4"
     showgrid="false"
     fit-margin-top="0"
     fit-margin-left="0"
     fit-margin-right="0"
     fit-margin-bottom="0"
     inkscape:zoom="1.7550693"
     inkscape:cx="45.608255"
     inkscape:cy="94.564769"
     inkscape:window-x="0"
     inkscape:window-y="25"
     inkscape:window-maximized="1"
     inkscape:current-layer="g10"
     showguides="true"
     inkscape:guide-bbox="true" /><g
     id="g10"
     inkscape:groupmode="layer"
     inkscape:label="aula12"
     transform="matrix(1.25,0,0,-1.25,-69.027791,182.16376)"><path
   id="path3090"
   style="fill:none;stroke:#000000;stroke-width:0.56;stroke-linecap:butt;stroke-miterlimit:4;stroke-opacity:1;stroke-dasharray:none;stroke-dashoffset:0"
   d="m 70.55955,75.23305 17.08381,0 m 0.51619,19.2 21.88381,0 m 0,-38.4 -21.88381,0 0,38.4"
   inkscape:connector-curvature="0"
   sodipodi:nodetypes="ccccccc" /><path
   inkscape:connector-curvature="0"
   sodipodi:nodetypes="cc"
   id="path3087"
   d="m 70.55955,33.63305 34.68381,0"
   style="fill:#ffffff;fill-opacity:1;stroke:#000000;stroke-width:0.56;stroke-linecap:butt;stroke-miterlimit:4;stroke-opacity:1;stroke-dasharray:none;stroke-dashoffset:0" /><path
   style="fill:none;stroke:#000000;stroke-width:0.56;stroke-linecap:butt;stroke-miterlimit:4;stroke-opacity:1;stroke-dasharray:none;stroke-dashoffset:0"
   d="m 170.84336,55.638066 -19.10017,0 0,15.575768 65.69785,17.603686 0,15.21553"
   id="path6957"
   sodipodi:nodetypes="ccccc"
   inkscape:connector-curvature="0" /><path
   inkscape:connector-curvature="0"
   sodipodi:nodetypes="ccccccc"
   id="path6181"
   d="m 169.24336,94.43305 -17.50017,0 0,-15.575768 12.31835,-3.300691 c 2.32601,1.547882 3.49414,0.779988 4.10611,-1.10023 l 49.27339,-13.202765 0,-15.21553"
   style="fill:none;stroke:#000000;stroke-width:0.56;stroke-linecap:butt;stroke-miterlimit:4;stroke-opacity:1;stroke-dasharray:none;stroke-dashoffset:0" /><path
   style="fill:none;stroke:#000000;stroke-width:0.74445885;stroke-linecap:butt;stroke-linejoin:miter;stroke-miterlimit:4;stroke-opacity:1;stroke-dasharray:none"
   d="m 205.17355,104.83293 26.98251,0"
   id="path6175"
   inkscape:connector-curvature="0" /><g
   transform="translate(43.08,117.619)"
   id="g342" />


<path
   inkscape:connector-curvature="0"
   sodipodi:nodetypes="cc"
   id="path3089"
   d="m 134.55955,44.832822 34.68381,0"
   style="fill:#ffffff;fill-opacity:1;stroke:#000000;stroke-width:0.56;stroke-linecap:butt;stroke-miterlimit:4;stroke-opacity:1;stroke-dasharray:none;stroke-dashoffset:0" />


<path
   style="fill:#ffffff;fill-opacity:1;stroke:#000000;stroke-width:0.56;stroke-linecap:butt;stroke-miterlimit:4;stroke-opacity:1;stroke-dasharray:none;stroke-dashoffset:0"
   d="m 134.55955,105.63305 34.68381,0"
   id="path6171"
   sodipodi:nodetypes="cc"
   inkscape:connector-curvature="0" /><path
   sodipodi:type="arc"
   style="fill:#000000;stroke:#000000;stroke-width:0.69999999;stroke-miterlimit:4;stroke-dasharray:none"
   id="path6177"
   sodipodi:cx="258.91809"
   sodipodi:cy="289.22061"
   sodipodi:rx="1.0584286"
   sodipodi:ry="1.0584286"
   d="m 259.97652,289.22061 c 0,0.58456 -0.47388,1.05843 -1.05843,1.05843 -0.58455,0 -1.05843,-0.47387 -1.05843,-1.05843 0,-0.58455 0.47388,-1.05843 1.05843,-1.05843 0.58455,0 1.05843,0.47388 1.05843,1.05843 z"
   transform="matrix(1.04,0,0,1.04,-52.116405,-195.9957)" /><path
   inkscape:connector-curvature="0"
   id="path6951"
   d="m 205.17355,45.63293 26.98251,0"
   style="fill:none;stroke:#000000;stroke-width:0.74445885;stroke-linecap:butt;stroke-linejoin:miter;stroke-miterlimit:4;stroke-opacity:1;stroke-dasharray:none" /><path
   transform="matrix(1.04,0,0,1.04,-52.116405,-255.1957)"
   d="m 259.97652,289.22061 c 0,0.58456 -0.47388,1.05843 -1.05843,1.05843 -0.58455,0 -1.05843,-0.47387 -1.05843,-1.05843 0,-0.58455 0.47388,-1.05843 1.05843,-1.05843 0.58455,0 1.05843,0.47388 1.05843,1.05843 z"
   sodipodi:ry="1.0584286"
   sodipodi:rx="1.0584286"
   sodipodi:cy="289.22061"
   sodipodi:cx="258.91809"
   id="path6953"
   style="fill:#000000;stroke:#000000;stroke-width:0.69999999;stroke-miterlimit:4;stroke-dasharray:none"
   sodipodi:type="arc" /><text
   transform="scale(1,-1)"
   style="font-size:12px"
   id="text6962"
   x="236.15282"
   y="-101.01538"><tspan
     id="tspan6964"
     y="-101.01538"
     x="236.15282"
     style="font-size:10.90909958px;font-style:oblique;font-variant:normal;writing-mode:lr-tb;fill:#000000;fill-opacity:1;fill-rule:nonzero;stroke:none;font-family:LMSans10;-inkscape-font-specification:LMSans10-Oblique">Q</tspan></text>






<text
   y="-41.815437"
   x="236.15282"
   id="text6966"
   style="font-size:12px"
   transform="scale(1,-1)"><tspan
     style="font-size:10.90909958px;font-style:oblique;font-variant:normal;writing-mode:lr-tb;fill:#000000;fill-opacity:1;fill-rule:nonzero;stroke:none;font-family:LMSans10;-inkscape-font-specification:LMSans10-Oblique"
     x="236.15282"
     y="-41.815437"
     id="tspan6968">Q</tspan></text>






<path
   style="fill:none;stroke:#000000;stroke-width:0.69999999;stroke-linecap:butt;stroke-linejoin:miter;stroke-miterlimit:4;stroke-opacity:1;stroke-dasharray:none"
   d="m 140.09418,91.520074 10.25601,0"
   id="path3048"
   inkscape:connector-curvature="0"
   transform="matrix(0.8,0,0,-0.8,124.74149,124.43306)" /><g
   id="g3051"><path
     sodipodi:type="arc"
     style="fill:#ffffff;fill-opacity:1;stroke:#000000;stroke-width:1;stroke-linecap:butt;stroke-miterlimit:4;stroke-opacity:1;stroke-dasharray:none;stroke-dashoffset:0"
     id="path6179"
     sodipodi:cx="82.199997"
     sodipodi:cy="24.4"
     sodipodi:rx="3"
     sodipodi:ry="3"
     d="m 85.199997,24.4 c 0,1.656854 -1.343146,3 -3,3 -1.656854,0 -3,-1.343146 -3,-3 0,-1.656855 1.343146,-3 3,-3 1.656854,0 3,1.343145 3,3 z"
     transform="matrix(0.8,0,0,0.8,136.76746,85.534361)" /><path
     sodipodi:nodetypes="ccsccc"
     id="rect3093-1"
     d="m 168.72806,123.87771 12.8,0 c 11.50546,-0.4 18,-12.36351 18,-19.2 0,-6.6612 -6.49454,-18.64001 -18,-19.20001 l -12.8,0 0,38.40001 z"
     style="fill:#ffffff;fill-opacity:1;stroke:#000000;stroke-width:0.79999995"
     inkscape:connector-curvature="0" /></g><g
   id="g3071"><path
     transform="matrix(0.8,0,0,-0.8,136.76746,64.931511)"
     d="m 85.199997,24.4 c 0,1.656854 -1.343146,3 -3,3 -1.656854,0 -3,-1.343146 -3,-3 0,-1.656855 1.343146,-3 3,-3 1.656854,0 3,1.343145 3,3 z"
     sodipodi:ry="3"
     sodipodi:rx="3"
     sodipodi:cy="24.4"
     sodipodi:cx="82.199997"
     id="path4955"
     style="fill:#ffffff;fill-opacity:1;stroke:#000000;stroke-width:1;stroke-linecap:butt;stroke-miterlimit:4;stroke-opacity:1;stroke-dasharray:none;stroke-dashoffset:0"
     sodipodi:type="arc" /><path
     inkscape:connector-curvature="0"
     style="fill:#ffffff;fill-opacity:1;stroke:#000000;stroke-width:0.79999995"
     d="m 168.72806,64.67771 12.8,0 c 11.50546,-0.4 18,-12.36351 18,-19.2 0,-6.6612 -6.49454,-18.64001 -18,-19.20001 l -12.8,0 0,38.40001 z"
     id="path3185"
     sodipodi:nodetypes="ccsccc" /></g><path
   inkscape:connector-curvature="0"
   sodipodi:nodetypes="cc"
   id="path3081"
   d="m 70.55955,116.83305 34.68381,0"
   style="fill:#ffffff;fill-opacity:1;stroke:#000000;stroke-width:0.56;stroke-linecap:butt;stroke-miterlimit:4;stroke-opacity:1;stroke-dasharray:none;stroke-dashoffset:0" /><g
   id="g3055"
   transform="translate(-70.4,0.455822)"><path
     transform="matrix(0.8,0,0,0.8,136.76746,85.534361)"
     d="m 85.199997,24.4 c 0,1.656854 -1.343146,3 -3,3 -1.656854,0 -3,-1.343146 -3,-3 0,-1.656855 1.343146,-3 3,-3 1.656854,0 3,1.343145 3,3 z"
     sodipodi:ry="3"
     sodipodi:rx="3"
     sodipodi:cy="24.4"
     sodipodi:cx="82.199997"
     id="path3057"
     style="fill:#ffffff;fill-opacity:1;stroke:#000000;stroke-width:1;stroke-linecap:butt;stroke-miterlimit:4;stroke-opacity:1;stroke-dasharray:none;stroke-dashoffset:0"
     sodipodi:type="arc" /><path
     inkscape:connector-curvature="0"
     style="fill:#ffffff;fill-opacity:1;stroke:#000000;stroke-width:0.79999995"
     d="m 168.72806,123.87771 12.8,0 c 11.50546,-0.4 18,-12.36351 18,-19.2 0,-6.6612 -6.49454,-18.64001 -18,-19.20001 l -12.8,0 0,38.40001 z"
     id="path3059"
     sodipodi:nodetypes="ccsccc" /></g><g
   transform="translate(-70.4,-60.344178)"
   id="g3075"><path
     sodipodi:type="arc"
     style="fill:#ffffff;fill-opacity:1;stroke:#000000;stroke-width:1;stroke-linecap:butt;stroke-miterlimit:4;stroke-opacity:1;stroke-dasharray:none;stroke-dashoffset:0"
     id="path3077"
     sodipodi:cx="82.199997"
     sodipodi:cy="24.4"
     sodipodi:rx="3"
     sodipodi:ry="3"
     d="m 85.199997,24.4 c 0,1.656854 -1.343146,3 -3,3 -1.656854,0 -3,-1.343146 -3,-3 0,-1.656855 1.343146,-3 3,-3 1.656854,0 3,1.343145 3,3 z"
     transform="matrix(0.8,0,0,0.8,136.76746,85.534361)" /><path
     sodipodi:nodetypes="ccsccc"
     id="path3079"
     d="m 168.72806,123.87771 12.8,0 c 11.50546,-0.4 18,-12.36351 18,-19.2 0,-6.6612 -6.49454,-18.64001 -18,-19.20001 l -12.8,0 0,38.40001 z"
     style="fill:#ffffff;fill-opacity:1;stroke:#000000;stroke-width:0.79999995"
     inkscape:connector-curvature="0" /></g><path
   sodipodi:type="arc"
   style="fill:#000000;stroke:#000000;stroke-width:0.69999999;stroke-miterlimit:4;stroke-dasharray:none"
   id="path3093"
   sodipodi:cx="258.91809"
   sodipodi:cy="289.22061"
   sodipodi:rx="1.0584286"
   sodipodi:ry="1.0584286"
   d="m 259.97652,289.22061 c 0,0.58456 -0.47388,1.05843 -1.05843,1.05843 -0.58455,0 -1.05843,-0.47387 -1.05843,-1.05843 0,-0.58455 0.47388,-1.05843 1.05843,-1.05843 0.58455,0 1.05843,0.47388 1.05843,1.05843 z"
   transform="matrix(1.04,0,0,1.04,-181.14201,-225.47943)" /><text
   transform="scale(1,-1)"
   style="font-size:12px;fill:#000000"
   id="text3097"
   x="58.552399"
   y="-113.81538"><tspan
     id="tspan3099"
     y="-113.81538"
     x="58.552399"
     style="font-size:10.90909958px;font-style:oblique;font-variant:normal;writing-mode:lr-tb;fill:#000000;fill-opacity:1;fill-rule:nonzero;stroke:none;font-family:LMSans10;-inkscape-font-specification:LMSans10-Oblique">S</tspan></text>



<text
   transform="scale(1,-1)"
   y="-29.079552"
   x="60.152397"
   id="text3105"
   style="font-size:12px;fill:#000000"><tspan
     style="font-size:10.90909958px;font-style:oblique;font-variant:normal;writing-mode:lr-tb;fill:#000000;fill-opacity:1;fill-rule:nonzero;stroke:none;font-family:LMSans10;-inkscape-font-specification:LMSans10-Oblique"
     x="60.152397"
     y="-29.079552"
     id="tspan3107">R</tspan></text>



<text
   xml:space="preserve"
   style="font-size:10.90909958px;font-style:normal;font-variant:normal;font-weight:normal;font-stretch:normal;line-height:125%;letter-spacing:0px;word-spacing:0px;fill:#000000;fill-opacity:1;stroke:none;font-family:LM Sans 10;-inkscape-font-specification:LM Sans 10"
   x="54.196777"
   y="-72.291077"
   id="text3117"
   sodipodi:linespacing="125%"
   transform="scale(1,-1)"><tspan
     sodipodi:role="line"
     id="tspan3119"
     x="54.196777"
     y="-72.291077"
     style="font-style:italic">En</tspan></text>



</g></svg>